<svg xmlns="http://www.w3.org/2000/svg" viewBox="0 0 242.3 242.6"><path fill="#FFF" d="M93.9 139.6c.1 0 .1 0 0 0 .1 0 .1 0 0 0M91.7 133.2c0 .1 0 .1 0 0 0 .1 0 .1 0 0M114.5 163.6s0 .1 0 0c.1.1.1 0 0 0 .1 0 .1 0 0 0M108 161.9c0-.1 0-.1 0 0 0-.1 0-.1 0 0M101.9 158.9s0 .1 0 0c0 .1 0 0 0 0M87.7 144.4c0 .1.1.2.2.2s.2-.1.2-.2-.1-.2-.2-.2-.2.1-.2.2M85 138.2c0 .1.1.2.2.2s.2-.1.2-.2-.1-.2-.2-.2-.2.1-.2.2M83.5 131.6c0 .1.1.2.2.2s.2-.1.2-.2-.1-.2-.2-.2-.2.1-.2.2M83.3 124.8c0 .1.1.1.1.1.1 0 .1-.1.1-.1 0-.1-.1-.1-.1-.1l-.1.1M84.2 118.1c0 .1 0 .1 0 0 .1.1.2 0 .2 0s-.1-.1-.2 0c0-.1 0 0 0 0M86.2 111.7s.1.1 0 0c.1.1.2 0 .2 0 0-.1 0-.1-.2 0 .1-.1 0-.1 0 0M148.4 100.2s0-.1 0 0c0-.1 0 0 0 0M152.6 105.5c.1 0 .1 0 0 0 .1 0 .1-.1 0 0 0-.1 0-.1 0 0M158 117.9c0-.1 0-.1 0 0 0-.1 0-.1 0 0M158.6 131.3c0 .1.1.1 0 0 .1.1.1.1 0 0 .1 0 .1 0 0 0 .1 0 0 0 0 0M157.1 138s.1 0 0 0c.1 0 .1 0 0 0 .1-.1.1-.1 0 0 .1-.1 0-.1 0 0M154.5 144.2s.1 0 0 0c.1 0 0 0 0 0M146.1 154.8c.1 0 .1 0 0 0 .1 0 .1 0 0 0M134.5 161.8s.1 0 0 0c.1 0 .1 0 0 0 .1-.1.1-.1 0 0 .1-.1 0-.1 0 0M128 163.6c.1 0 .1 0 0 0 .1 0 .1 0 0 0M121.1 171.8c0 .1.1.2.2.2s.2-.1.2-.2-.1-.2-.2-.2-.2.1-.2.2M114.4 171.3c0 .1.1.2.2.2s.2-.1.2-.2-.1-.2-.2-.2c-.2 0-.2.1-.2.2M107.6 169.8c0 .2.1.3.3.3.2 0 .3-.1.3-.3 0-.2-.1-.3-.3-.3-.1 0-.3.1-.3.3M101 167.4c0 .3.3.6.6.6s.6-.3.6-.6-.3-.6-.6-.6-.6.2-.6.6M95.6 164c0 .1 0 .1.1.1s.1 0 .1-.1 0-.1-.1-.1c0 0-.1 0-.1.1M90.1 159.8c0 .2.1.3.3.3.2 0 .3-.1.3-.3 0-.2-.1-.3-.3-.3-.1 0-.3.1-.3.3M85.4 154.8c0 .2.2.4.4.4s.4-.2.4-.4-.2-.4-.4-.4-.4.2-.4.4M81.7 149.2c0 .1.1.2.2.2s.2-.1.2-.2-.1-.2-.2-.2-.2.1-.2.2M78.2 143.1c0 .4.3.8.8.8.4 0 .8-.4.8-.8s-.3-.8-.8-.8c-.5.1-.8.4-.8.8M76.2 136.7c0 .4.3.8.8.8.4 0 .8-.3.8-.8 0-.4-.3-.8-.8-.8s-.8.3-.8.8M75.2 130c0 .4.3.7.7.7.4 0 .7-.3.7-.7 0-.4-.3-.7-.7-.7-.4 0-.7.3-.7.7M75.3 123.2c0 .3.3.6.6.6s.6-.3.6-.6-.3-.6-.6-.6-.6.3-.6.6M76.4 116.5c0 .3.2.5.5.5s.5-.2.5-.5-.2-.5-.5-.5-.5.2-.5.5M78.3 110c0 .3.2.5.5.5s.5-.2.5-.5-.2-.5-.5-.5c-.2 0-.5.2-.5.5M81.6 103.9c0 .1.1.1.1.1.1 0 .1-.1.1-.1 0-.1-.1-.1-.1-.1 0-.1-.1 0-.1.1M85.3 98.2c0 .2.1.3.3.3.2 0 .3-.1.3-.3 0-.2-.1-.3-.3-.3-.2.1-.3.2-.3.3M90.1 93.2c0 .1.1.1 0 0 .1.1.1.1 0 0 .1 0 .1 0 0 0 .1 0 0 0 0 0M95.4 89s0 .1 0 0c.1.1.1 0 .1 0s0-.1-.1 0c0-.1 0 0 0 0M101.3 85.6s0 .1 0 0c.1.1.1 0 .1 0 0-.1 0-.1-.1 0 0-.1 0-.1 0 0M107.5 83.1c0 .1.1.2.2.2s.2-.1.2-.2-.1-.2-.2-.2c-.2 0-.2.1-.2.2M114.2 81.5c0 .1 0 .1 0 0 .1.1.2 0 .2 0h-.2s-.1 0 0 0M120.9 81c0 .1.1.1 0 0 .1.1.1 0 .1 0 .1 0 0-.1-.1 0 .1-.1 0 0 0 0M127.7 81.5s0 .1 0 0c.1.1.2 0 .2 0 0-.1-.1-.1-.2 0 0-.1 0 0 0 0M134.2 83c0 .1.1.2.2.2s.2-.1.2-.2-.1-.2-.2-.2-.2.1-.2.2M140.7 85.4c0 .1 0 .1 0 0 0 .1 0 .1 0 0M146.5 88.8c0 .1.1.1.1.1.1 0 .1-.1.1-.1 0-.1-.1-.1-.1-.1-.1 0-.1 0-.1.1M151.8 93c0 .1.1.1 0 0 .1.1.2 0 .2 0s0-.1-.2 0c.1-.1 0 0 0 0M156.2 98c0 .2.2.3.3.3.2 0 .3-.2.3-.3 0-.2-.2-.3-.3-.3-.1-.1-.3.1-.3.3M160.3 103.6c0 .1.1.1.1.1.1 0 .1-.1.1-.1 0-.1-.1-.1-.1-.1-.1-.1-.1 0-.1.1M163.3 109.7c.1 0 .1 0 0 0 .1-.1.1-.1 0 0 0-.1 0-.1 0 0M165.2 116.1c0 .1.1.2.2.2s.2-.1.2-.2-.1-.2-.2-.2-.2.1-.2.2M166.2 122.8c0 .1.1.2.2.2s.2-.1.2-.2-.1-.2-.2-.2c-.1.1-.2.1-.2.2M166.2 129.6c0 .1.1.2.2.2s.2-.1.2-.2-.1-.2-.2-.2-.2.1-.2.2M165.1 136.3c0 .2.1.3.3.3.2 0 .3-.2.3-.3 0-.2-.2-.3-.3-.3-.1 0-.3.2-.3.3M163.4 142.8s.1.1 0 0c.1.1.1 0 0 0 .1 0 .1 0 0 0 .1 0 0 0 0 0M160.4 149c0 .1.1.1.1.1.1 0 .1-.1.1-.1 0-.1-.1-.1-.1-.1 0-.1-.1 0-.1.1M156.3 154.6c0 .2.2.4.4.4s.4-.2.4-.4-.2-.4-.4-.4c-.2-.1-.4.1-.4.4M151.8 159.6c0 .2.2.4.4.4s.4-.2.4-.4-.2-.4-.4-.4-.4.1-.4.4M146.7 163.8c0 .1.1.1.1.1.1 0 .1-.1.1-.1 0-.1-.1-.1-.1-.1s-.1 0-.1.1M140.7 167.2c0 .2.2.4.4.4s.4-.2.4-.4-.2-.4-.4-.4c-.3.1-.4.2-.4.4M134.3 169.7c0 .2.2.4.4.4s.4-.2.3-.4c0-.2-.2-.4-.4-.4-.1.1-.3.2-.3.4M127.9 171.3c0 .1.1.2.2.2s.2-.1.2-.2-.1-.2-.2-.2c-.1-.1-.2 0-.2.2M120.5 179.4c0 .5.4.9.9.9s.9-.4.9-.9-.4-.9-.9-.9-.9.4-.9.9M113.7 178.9c0 .5.4.9.9.9s.9-.4.9-.9-.4-.9-.9-.9-1 .4-.9.9M106.8 177.7c0 .6.5 1.1 1.1 1.1.6 0 1.1-.5 1.1-1.1 0-.6-.5-1.1-1.1-1.1-.6 0-1.1.5-1.1 1.1M100.1 175.6c0 .8.6 1.4 1.4 1.4.8 0 1.4-.6 1.4-1.4 0-.8-.6-1.4-1.4-1.4-.8 0-1.4.6-1.4 1.4M94.4 172.6c0 .5.4.9.9.9s.9-.4.9-.9-.4-.9-.9-.9-.9.4-.9.9M88.7 169c0 .5.4.9.9.9s.9-.4.9-.9-.4-.9-.9-.9c-.5-.1-.9.3-.9.9M83.7 164.6c0 .4.4.8.8.8s.8-.4.8-.8-.3-.8-.8-.8-.8.3-.8.8M78.6 159.6c0 .7.6 1.2 1.3 1.2.7 0 1.2-.6 1.2-1.3 0-.7-.6-1.2-1.3-1.2-.6 0-1.2.6-1.2 1.3M75 154c0 .5.4 1 1 1 .5 0 1-.4 1-1 0-.5-.4-1-1-1s-1 .5-1 1M71.2 148c0 .9.7 1.6 1.6 1.6.9 0 1.6-.7 1.6-1.6 0-.9-.7-1.6-1.6-1.6-.9 0-1.6.7-1.6 1.6M68.9 141.7c0 .9.7 1.5 1.6 1.5.9 0 1.5-.7 1.5-1.6 0-.9-.7-1.5-1.6-1.5-.8 0-1.5.7-1.5 1.6M67.5 135c0 .8.7 1.5 1.5 1.5s1.5-.7 1.5-1.5-.7-1.5-1.5-1.5c-.9.1-1.5.7-1.5 1.5M66.9 128.3c0 .7.6 1.4 1.4 1.4.7 0 1.4-.6 1.4-1.4 0-.8-.6-1.4-1.4-1.4-.8 0-1.4.6-1.4 1.4M67.1 121.5c0 .7.6 1.4 1.4 1.4.8 0 1.4-.6 1.4-1.4 0-.8-.6-1.4-1.4-1.4-.8.1-1.4.7-1.4 1.4M68.2 114.8c0 .7.6 1.3 1.3 1.3.7 0 1.3-.6 1.3-1.3 0-.7-.6-1.3-1.3-1.3-.7 0-1.3.6-1.3 1.3M70 108.3c0 .8.6 1.4 1.4 1.4.8 0 1.4-.6 1.4-1.4 0-.8-.6-1.4-1.4-1.4-.8 0-1.4.6-1.4 1.4M73.5 102.1c0 .3.3.6.6.6s.6-.3.6-.6-.3-.6-.6-.6-.6.2-.6.6M76.8 96.3c0 .5.4.9.9.9s.9-.4.9-.9-.4-.9-.9-.9c-.6 0-.9.4-.9.9M81.1 90.9c0 .4.3.7.7.7.4 0 .7-.3.7-.7 0-.4-.3-.7-.7-.7-.4 0-.7.3-.7.7M86 86.2c0 .4.3.7.7.7.4 0 .7-.3.7-.7 0-.4-.3-.7-.7-.7-.4 0-.7.3-.7.7M91.4 82.1c0 .4.3.8.8.8.4 0 .8-.3.8-.8 0-.4-.3-.8-.8-.8-.5.1-.8.4-.8.8M97.6 78.8c0 .2.2.4.4.4s.4-.2.4-.4-.2-.4-.4-.4-.4.2-.4.4M104.1 76.2c0 .1.1.2.2.2s.2-.1.2-.2-.1-.2-.2-.2-.2.1-.2.2M110.2 74.5c0 .4.3.7.7.7.4 0 .7-.3.7-.7 0-.4-.3-.7-.7-.7-.4 0-.8.3-.7.7M116.9 73.6c0 .4.3.7.7.7s.7-.3.7-.7c0-.4-.3-.7-.7-.7-.4 0-.7.3-.7.7M123.8 73.6c0 .3.3.6.6.6s.6-.3.6-.6-.3-.6-.6-.6c-.4-.1-.7.2-.6.6M130.4 74.4c0 .4.3.7.7.7.4 0 .7-.3.7-.7 0-.4-.3-.7-.7-.7-.4 0-.7.3-.7.7M137.5 76.1c0 .1.1.2.2.2s.2-.1.2-.2-.1-.2-.2-.2c-.2 0-.2.1-.2.2M143.5 78.6c0 .3.2.5.5.5s.5-.2.5-.5-.2-.5-.5-.5-.5.3-.5.5M148.9 81.9c0 .6.5 1 1 1 .6 0 1-.5 1-1 0-.6-.5-1-1-1-.6 0-1 .5-1 1M154.9 86c0 .2.2.4.4.4s.4-.2.4-.4-.2-.4-.4-.4-.4.1-.4.4M159.3 90.7c0 .5.4.9.9.9s.9-.4.9-.9-.4-.9-.9-.9c-.5-.1-.9.4-.9.9M163.5 96c0 .6.5 1 1 1 .6 0 1-.5 1-1 0-.6-.5-1-1-1-.6-.1-1 .4-1 1M167.4 101.7c0 .3.3.6.6.6s.6-.3.6-.6-.3-.6-.6-.6-.6.3-.6.6M170.5 107.9c0 .2.1.3.3.3.2 0 .3-.1.3-.3 0-.2-.1-.3-.3-.3-.2 0-.3.2-.3.3M172 114.4c0 .4.4.8.8.8s.8-.3.8-.8c0-.4-.4-.8-.8-.8-.5.1-.8.4-.8.8M173.1 121.1c0 .4.3.7.7.7.4 0 .7-.3.7-.7 0-.4-.3-.7-.7-.7-.4 0-.7.3-.7.7M173.4 127.9c0 .4.3.7.7.7.4 0 .7-.3.7-.7 0-.4-.3-.7-.7-.7-.4 0-.7.3-.7.7M172.7 134.7c0 .4.4.8.8.8s.8-.4.8-.8-.4-.8-.8-.8c-.5 0-.8.3-.8.8M170.9 141.3c0 .6.5 1 1 1 .6 0 1-.5 1-1 0-.6-.5-1-1-1-.5-.1-1 .4-1 1M169 147.7c0 .3.3.6.6.6s.6-.3.6-.6-.3-.6-.6-.6c-.3-.1-.6.2-.6.6M165.4 153.7c0 .6.5 1.1 1.1 1.1.6 0 1.1-.5 1.1-1.1 0-.6-.5-1.1-1.1-1.1-.6 0-1.1.5-1.1 1.1M161.8 159.3c0 .5.4.9.9.9s.9-.4.9-.9-.4-.9-.9-.9-.9.4-.9.9M157.3 164.3c0 .5.4.9.9.9s.9-.4.9-.9-.4-.9-.9-.9c-.6 0-.9.4-.9.9M151.9 168.7c0 .6.5 1 1 1 .6 0 1-.5 1-1 0-.6-.5-1-1-1s-1 .5-1 1M146.7 172.4c0 .3.3.6.6.6s.6-.3.6-.6-.3-.6-.6-.6-.6.3-.6.6M139.8 175.4c0 .8.6 1.4 1.4 1.4.8 0 1.4-.6 1.4-1.4 0-.8-.6-1.4-1.4-1.4-.8 0-1.4.7-1.4 1.4M133.6 177.6c0 .6.5 1.2 1.2 1.2.6 0 1.2-.5 1.2-1.2 0-.6-.5-1.2-1.2-1.2s-1.2.5-1.2 1.2M127.2 178.9c0 .5.4.9 1 .9.5 0 1-.4.9-1 0-.5-.4-.9-1-.9-.5 0-.9.5-.9 1M119.8 186.9c0 .9.7 1.5 1.6 1.5.9 0 1.5-.7 1.5-1.6 0-.9-.7-1.5-1.6-1.5-.8.1-1.5.8-1.5 1.6M113 186.6c0 .9.7 1.6 1.6 1.6.9 0 1.6-.7 1.6-1.6 0-.9-.7-1.6-1.6-1.6-.9 0-1.6.7-1.6 1.6M106.3 185.4c0 .9.7 1.6 1.6 1.6.9 0 1.6-.7 1.6-1.6 0-.9-.7-1.6-1.6-1.6-.9 0-1.6.7-1.6 1.6M99.6 183.6c0 1 .8 1.7 1.8 1.7s1.7-.8 1.7-1.8-.8-1.7-1.8-1.7c-.9 0-1.7.8-1.7 1.8M93.5 181c0 .9.7 1.6 1.6 1.6.9 0 1.6-.7 1.6-1.6 0-.9-.7-1.6-1.6-1.6-.9 0-1.6.7-1.6 1.6M87.6 177.8c0 .9.7 1.6 1.6 1.6.9 0 1.6-.7 1.6-1.6 0-.9-.7-1.6-1.6-1.6-.9 0-1.6.7-1.6 1.6M82.3 173.9c0 .8.6 1.4 1.4 1.4.8 0 1.4-.6 1.4-1.4 0-.7-.6-1.4-1.4-1.3-.8-.1-1.5.5-1.4 1.3M77 169.3c0 .8.7 1.5 1.5 1.5s1.5-.7 1.5-1.5-.7-1.5-1.5-1.5-1.5.7-1.5 1.5M72.7 164.3c0 .7.6 1.2 1.3 1.2.7 0 1.2-.6 1.2-1.3 0-.7-.6-1.2-1.3-1.2-.6.1-1.2.6-1.2 1.3M68.5 158.8c0 .9.7 1.6 1.6 1.6.9 0 1.6-.7 1.6-1.6 0-.9-.7-1.6-1.6-1.6-.9 0-1.6.7-1.6 1.6M65.2 152.9c0 .9.7 1.6 1.6 1.6.9 0 1.6-.7 1.6-1.6 0-.9-.7-1.6-1.6-1.6-.9 0-1.6.7-1.6 1.6M62.1 146.6c0 1.1.9 2 2 2s2-.9 2-2-.9-2-2-2-2 .9-2 2M60.2 140.1c0 1.1.9 2 2 2s2-.9 2-2-.9-2-2-2-2 .9-2 2M59.1 133.4c0 1.1.9 2 2 2s2-.9 2-2-.9-2-2-2-2 .9-2 2M58.7 126.6c0 1.1.9 1.9 1.9 1.9 1.1 0 1.9-.9 1.9-1.9 0-1.1-.9-1.9-1.9-1.9-1 0-1.9.9-1.9 1.9M59.1 119.9c0 1.1.9 1.9 1.9 1.9 1.1 0 1.9-.9 1.9-1.9 0-1.1-.9-1.9-1.9-1.9-1.1-.1-1.9.8-1.9 1.9M60.1 113.2c0 1.1.9 2 2 2s2-.9 2-2-.9-2-2-2-2 .9-2 2M62 106.6c0 1.1.9 2 2 2s2-.9 2-2-.9-2-2-2-2 .9-2 2M65.1 100.3c0 .8.7 1.5 1.5 1.5s1.5-.7 1.5-1.5-.7-1.5-1.5-1.5c-.9.1-1.5.7-1.5 1.5M68.1 94.4c0 .9.8 1.7 1.7 1.7.9 0 1.7-.8 1.7-1.7 0-.9-.8-1.7-1.7-1.7-.9 0-1.7.8-1.7 1.7M72.3 88.8c0 .8.6 1.4 1.4 1.4s1.4-.6 1.4-1.4c0-.8-.6-1.4-1.4-1.4-.8 0-1.4.7-1.4 1.4M76.8 83.8c0 .8.6 1.4 1.4 1.4.8 0 1.4-.6 1.4-1.4 0-.8-.6-1.4-1.4-1.4-.8 0-1.4.6-1.4 1.4M81.9 79.2c0 .8.6 1.4 1.4 1.4.8 0 1.4-.6 1.4-1.4 0-.8-.6-1.4-1.4-1.4-.8 0-1.4.7-1.4 1.4M87.1 75.3c0 .9.7 1.6 1.6 1.6.9 0 1.6-.7 1.6-1.6 0-.9-.7-1.6-1.6-1.6-.8-.1-1.6.7-1.6 1.6M93.1 72c0 .9.7 1.6 1.6 1.6.9 0 1.6-.7 1.6-1.6 0-.9-.7-1.6-1.6-1.6-.9-.1-1.6.7-1.6 1.6M99.7 69.4c0 .7.6 1.3 1.3 1.3.7 0 1.3-.6 1.3-1.3 0-.7-.6-1.3-1.3-1.3-.7 0-1.3.6-1.3 1.3M105.7 67.5c0 1 .8 1.7 1.8 1.7s1.7-.8 1.7-1.8-.8-1.7-1.8-1.7c-.9 0-1.7.8-1.7 1.8M112.6 66.3c0 .9.7 1.6 1.6 1.6s1.6-.7 1.6-1.6c0-.9-.7-1.6-1.6-1.6-.9 0-1.6.7-1.6 1.6M119.4 65.9c0 .8.7 1.5 1.5 1.5s1.5-.7 1.5-1.5-.7-1.5-1.5-1.5-1.5.7-1.5 1.5M126.1 66.3c0 .9.7 1.6 1.6 1.6.9 0 1.6-.7 1.6-1.6 0-.9-.7-1.6-1.6-1.6-.9 0-1.6.7-1.6 1.6M132.6 67.4c0 1 .8 1.8 1.8 1.8s1.8-.8 1.8-1.8-.8-1.8-1.8-1.8-1.8.8-1.8 1.8M139.6 69.2c0 .7.6 1.3 1.3 1.3.7 0 1.3-.6 1.3-1.3 0-.7-.6-1.3-1.3-1.3-.7 0-1.3.6-1.3 1.3M145.9 71.8c0 .7.6 1.3 1.3 1.3.7 0 1.3-.6 1.3-1.3 0-.7-.6-1.3-1.3-1.3-.7 0-1.3.6-1.3 1.3M151.4 75.1c0 1 .8 1.8 1.8 1.8s1.8-.8 1.8-1.8-.8-1.8-1.8-1.8-1.8.8-1.8 1.8M157.2 79c0 .8.7 1.5 1.5 1.5s1.5-.7 1.5-1.5-.7-1.5-1.5-1.5c-.8-.1-1.5.6-1.5 1.5M162.2 83.5c0 .9.7 1.6 1.6 1.6.9 0 1.6-.7 1.6-1.6 0-.9-.7-1.6-1.6-1.6-.9 0-1.6.7-1.6 1.6M166.7 88.5c0 .9.7 1.6 1.6 1.6.9 0 1.6-.7 1.6-1.6 0-.9-.7-1.6-1.6-1.6-.9 0-1.6.7-1.6 1.6M170.6 94c0 .9.8 1.7 1.7 1.7.9 0 1.7-.8 1.7-1.7 0-.9-.8-1.7-1.7-1.7-.9.1-1.7.8-1.7 1.7M174.3 100c0 .7.6 1.3 1.3 1.3.7 0 1.3-.6 1.3-1.3 0-.7-.6-1.3-1.3-1.3-.7-.1-1.3.5-1.3 1.3M177.3 106.2c0 .5.4 1 1 .9.5 0 1-.4.9-1 0-.5-.4-.9-1-.9-.5.1-.9.5-.9 1M178.3 112.7c0 1 .8 1.8 1.9 1.8 1 0 1.9-.8 1.8-1.9 0-1-.8-1.8-1.9-1.8-1 .1-1.8.9-1.8 1.9M179.6 119.4c0 .9.8 1.7 1.7 1.7.9 0 1.7-.8 1.7-1.7 0-.9-.8-1.7-1.7-1.7-1 0-1.7.8-1.7 1.7M180 126.2c0 .9.7 1.7 1.7 1.7.9 0 1.7-.7 1.7-1.7 0-.9-.7-1.7-1.7-1.7-.9 0-1.7.8-1.7 1.7M179.6 133c0 .9.8 1.7 1.7 1.7.9 0 1.7-.8 1.7-1.7 0-.9-.8-1.7-1.7-1.7-.9 0-1.7.7-1.7 1.7M178.4 139.7c0 1 .8 1.8 1.9 1.8s1.8-.8 1.8-1.9c0-1-.8-1.8-1.9-1.8-1 0-1.8.8-1.8 1.9M177 146.2c0 .7.6 1.3 1.3 1.3.7 0 1.3-.6 1.3-1.3 0-.7-.6-1.3-1.3-1.3-.7-.1-1.3.5-1.3 1.3M174.1 152.5c0 1 .8 1.7 1.7 1.7 1 0 1.7-.8 1.7-1.7 0-1-.8-1.7-1.7-1.7-1-.1-1.8.7-1.7 1.7M170.8 158.4c0 1 .8 1.7 1.7 1.7 1 0 1.7-.8 1.7-1.7 0-1-.8-1.7-1.7-1.7-.9 0-1.7.8-1.7 1.7M167 164c0 .9.7 1.6 1.6 1.6.9 0 1.6-.7 1.6-1.6 0-.9-.7-1.6-1.6-1.6-.9 0-1.6.7-1.6 1.6M162.2 169c0 1.1.9 1.9 1.9 1.9 1.1 0 1.9-.9 1.9-1.9 0-1.1-.9-1.9-1.9-1.9-1.1 0-1.9.9-1.9 1.9M157.5 173.6c0 .8.7 1.5 1.5 1.5s1.5-.7 1.5-1.5-.7-1.5-1.5-1.5-1.5.6-1.5 1.5M151.9 177.5c0 .9.8 1.7 1.7 1.7.9 0 1.7-.8 1.7-1.7 0-.9-.8-1.7-1.7-1.7-1 0-1.8.8-1.7 1.7M146.2 180.8c0 .8.6 1.4 1.4 1.4.8 0 1.4-.6 1.4-1.4 0-.8-.6-1.4-1.4-1.4-.7.1-1.4.7-1.4 1.4M139.6 183.5c0 1 .8 1.8 1.8 1.8s1.8-.8 1.8-1.8-.8-1.8-1.8-1.8-1.8.8-1.8 1.8M133.1 185.4c0 .9.8 1.7 1.7 1.7.9 0 1.7-.8 1.7-1.7 0-.9-.8-1.7-1.7-1.7-.9-.1-1.7.7-1.7 1.7M126.6 186.5c0 .9.7 1.6 1.6 1.6.9 0 1.6-.7 1.6-1.6 0-.9-.7-1.6-1.6-1.6-.9 0-1.6.7-1.6 1.6M119.7 194.5c0 1 .8 1.7 1.8 1.7s1.7-.8 1.7-1.8-.8-1.7-1.8-1.7-1.7.8-1.7 1.8M112.9 194.2c0 .9.8 1.7 1.7 1.7.9 0 1.7-.8 1.7-1.7 0-.9-.8-1.7-1.7-1.7-.9 0-1.7.7-1.7 1.7M106.3 193.2c0 .9.7 1.7 1.7 1.6.9 0 1.7-.7 1.7-1.7 0-.9-.7-1.7-1.7-1.7-1 .1-1.7.9-1.7 1.8M99.8 191.5c0 .9.7 1.6 1.6 1.6.9 0 1.6-.7 1.6-1.6 0-.9-.7-1.6-1.6-1.6-.9 0-1.7.8-1.6 1.6M93.2 189.2c0 1 .8 1.8 1.8 1.8s1.8-.8 1.8-1.8-.8-1.8-1.8-1.8c-1 .1-1.8.9-1.8 1.8M87.1 186.3c0 1 .8 1.8 1.8 1.8s1.8-.8 1.8-1.8-.8-1.8-1.8-1.8c-1.1 0-1.8.8-1.8 1.8M81.4 182.8c0 .9.7 1.6 1.6 1.6.9 0 1.6-.7 1.6-1.6 0-.9-.7-1.6-1.6-1.6-.9 0-1.6.7-1.6 1.6M76 178.7c0 .9.7 1.6 1.6 1.6.9 0 1.6-.7 1.6-1.6 0-.9-.7-1.6-1.6-1.6-.9 0-1.6.7-1.6 1.6M71.1 174.1c0 .8.7 1.5 1.5 1.5s1.5-.7 1.5-1.5-.7-1.5-1.5-1.5-1.5.7-1.5 1.5M66.6 169c0 .8.7 1.5 1.5 1.5s1.5-.7 1.5-1.5-.7-1.5-1.5-1.5-1.5.7-1.5 1.5M62.5 163.5c0 .9.7 1.6 1.6 1.6.9 0 1.6-.7 1.6-1.6 0-.9-.7-1.6-1.6-1.6-.9 0-1.6.8-1.6 1.6M58.9 157.7c0 1 .8 1.8 1.8 1.8s1.8-.8 1.8-1.8-.8-1.8-1.8-1.8-1.8.8-1.8 1.8M55.9 151.5c0 1.1.9 2 2 2s2-.9 2-2-.9-2-2-2-2 .9-2 2M53.8 145.1c0 1.1.9 1.9 1.9 1.9 1.1 0 1.9-.9 1.9-1.9 0-1.1-.9-1.9-1.9-1.9-1.1 0-1.9.8-1.9 1.9M52.1 138.5c0 1.1.9 2.1 2.1 2.1 1.1 0 2.1-.9 2.1-2.1 0-1.1-.9-2.1-2.1-2.1-1.2 0-2.1.9-2.1 2.1M51.1 131.7c0 1.2 1 2.1 2.2 2.1 1.2 0 2.1-1 2.1-2.2 0-1.2-1-2.1-2.2-2.1-1.1.1-2.1 1.1-2.1 2.2M50.9 125c0 1.2 1 2.2 2.2 2.2 1.2 0 2.2-1 2.2-2.2 0-1.2-1-2.2-2.2-2.2-1.2 0-2.2 1-2.2 2.2M51.4 118.2c0 1.2 1 2.2 2.2 2.2 1.2 0 2.2-1 2.2-2.2 0-1.2-1-2.2-2.2-2.2-1.2 0-2.2 1-2.2 2.2M52.6 111.5c0 1.2 1 2.2 2.2 2.2 1.2 0 2.2-1 2.2-2.2 0-1.2-1-2.2-2.2-2.2-1.3 0-2.2 1-2.2 2.2M54.3 105c0 1.2 1 2.2 2.2 2.2 1.2 0 2.2-1 2.2-2.2 0-1.2-1-2.2-2.2-2.2-1.2-.1-2.2.9-2.2 2.2M56.8 98.6c0 1.2 1 2.2 2.2 2.2 1.2 0 2.2-1 2.2-2.2 0-1.2-1-2.2-2.2-2.2-1.2 0-2.2 1-2.2 2.2M59.9 92.6c0 1.2 1 2.2 2.2 2.2 1.2 0 2.2-1 2.2-2.2 0-1.2-1-2.2-2.2-2.2-1.2 0-2.2 1-2.2 2.2M63.7 86.9c0 1.2.9 2.1 2.1 2.1s2.1-.9 2.1-2.1c0-1.2-.9-2.1-2.1-2.1s-2.2.9-2.1 2.1M67.5 81.6c0 1.3 1.1 2.4 2.4 2.4 1.3 0 2.4-1.1 2.4-2.4 0-1.3-1.1-2.4-2.4-2.4-1.3-.1-2.4 1-2.4 2.4M72.7 76.7c0 1.1.9 1.9 1.9 1.9 1.1 0 1.9-.9 1.9-1.9 0-1.1-.9-1.9-1.9-1.9-1-.1-1.9.8-1.9 1.9M77.4 72.3c0 1.4 1.1 2.4 2.5 2.4s2.4-1.1 2.4-2.5-1.1-2.4-2.5-2.4c-1.3 0-2.4 1.1-2.4 2.5M83.3 68.4c0 1.2 1 2.1 2.1 2.1 1.2 0 2.1-1 2.1-2.1 0-1.2-1-2.1-2.1-2.1s-2.1 1-2.1 2.1M89.1 65.2c0 1.3 1 2.3 2.3 2.3 1.3 0 2.3-1 2.3-2.3 0-1.3-1-2.3-2.3-2.3-1.3 0-2.3 1-2.3 2.3M95.6 62.5c0 1.1.9 2 2 2s2-.9 2-2.1c0-1.1-.9-2-2.1-2-1 .1-1.9 1-1.9 2.1M101.7 60.5c0 1.4 1.1 2.4 2.5 2.4s2.4-1.1 2.4-2.5-1.1-2.4-2.5-2.4c-1.3 0-2.4 1.1-2.4 2.5M108.4 59.1c0 1.3 1 2.3 2.3 2.3 1.3 0 2.3-1.1 2.3-2.3 0-1.3-1-2.3-2.3-2.3-1.2 0-2.3 1-2.3 2.3M115.2 58.4c0 1.3 1 2.3 2.3 2.3 1.3 0 2.3-1 2.3-2.3 0-1.3-1-2.3-2.3-2.3-1.3 0-2.3 1-2.3 2.3M122 58.4c0 1.3 1 2.3 2.3 2.3 1.3 0 2.3-1 2.3-2.3 0-1.3-1-2.3-2.3-2.3-1.3 0-2.3 1-2.3 2.3M128.7 59.1c0 1.3 1.1 2.3 2.4 2.3 1.3 0 2.3-1.1 2.3-2.4 0-1.3-1.1-2.3-2.4-2.3-1.2 0-2.3 1.1-2.3 2.4M135.3 60.4c0 1.3 1.1 2.4 2.4 2.4 1.3 0 2.4-1.1 2.4-2.4 0-1.3-1.1-2.4-2.4-2.4-1.3 0-2.4 1-2.4 2.4M142.2 62.4c0 1.1.9 2 2 2s2-.9 2-2-.9-2-2-2c-1.1-.1-2 .8-2 2M148.2 65c0 1.2 1 2.3 2.3 2.2 1.2 0 2.3-1 2.2-2.3 0-1.2-1-2.2-2.3-2.2-1.2 0-2.2 1-2.2 2.3M154.4 68.2c0 1.2.9 2.1 2.1 2.1 1.2 0 2.1-.9 2.1-2.1 0-1.2-.9-2.1-2.1-2.1-1.2 0-2.1.9-2.1 2.1M160 72c0 1.2.9 2.1 2.1 2.1 1.2 0 2.1-.9 2.1-2.1 0-1.2-.9-2.1-2.1-2.1-1.2 0-2.1.9-2.1 2.1M165.2 76.3c0 1.1.9 2 2 2s2-.9 2-2.1c0-1.1-.9-2-2.1-2-.9.1-1.9 1-1.9 2.1M169.6 81.2c0 1.3 1.1 2.4 2.4 2.4 1.3 0 2.4-1.1 2.4-2.4 0-1.3-1.1-2.4-2.4-2.4-1.3-.1-2.4 1-2.4 2.4M174.2 86.5c0 1.2 1 2.1 2.1 2.1 1.2 0 2.1-1 2.1-2.1 0-1.2-1-2.1-2.1-2.1s-2.1.9-2.1 2.1M177.7 92.2c0 1.3 1 2.3 2.3 2.3 1.3 0 2.3-1.1 2.3-2.3 0-1.3-1-2.3-2.3-2.3-1.3-.1-2.3 1-2.3 2.3M180.8 98.2c0 1.3 1.1 2.3 2.3 2.3 1.3 0 2.3-1.1 2.3-2.3 0-1.3-1-2.3-2.3-2.3-1.3 0-2.3 1-2.3 2.3M183.5 104.5c0 1.1.9 2.1 2.1 2.1 1.1 0 2.1-.9 2.1-2.1 0-1.1-.9-2.1-2.1-2.1-1.1 0-2.1.9-2.1 2.1M185.1 111c0 1.3 1.1 2.4 2.4 2.4 1.3 0 2.4-1.1 2.4-2.4 0-1.3-1.1-2.4-2.4-2.4-1.4 0-2.4 1.1-2.4 2.4M186.3 117.7c0 1.3 1.1 2.4 2.4 2.4 1.3 0 2.4-1.1 2.4-2.4 0-1.3-1.1-2.4-2.4-2.4-1.3 0-2.4 1.1-2.4 2.4M186.9 124.5c0 1.3 1 2.3 2.3 2.3 1.3 0 2.3-1 2.3-2.3 0-1.3-1.1-2.3-2.3-2.3-1.3-.1-2.3 1-2.3 2.3M186.7 131.3c0 1.3 1 2.3 2.3 2.3 1.3 0 2.3-1 2.3-2.3 0-1.3-1-2.3-2.3-2.3-1.2-.1-2.3 1-2.3 2.3M186 138c0 1.3 1 2.3 2.3 2.3 1.3 0 2.3-1 2.3-2.3 0-1.3-1-2.3-2.3-2.3-1.3 0-2.3 1-2.3 2.3M184.5 144.6c0 1.2 1 2.2 2.2 2.2 1.2 0 2.2-1 2.2-2.2 0-1.2-1-2.2-2.2-2.2-1.2 0-2.2 1-2.2 2.2M182.6 151c0 1.1.9 2 2 2s2-.9 2-2-.9-2-2-2-2 .9-2 2M179.7 157.2c0 1.2 1 2.1 2.2 2.1 1.2 0 2.1-1 2.1-2.2 0-1.2-1-2.1-2.2-2.1-1.1.1-2.1 1.1-2.1 2.2M176.5 163.1c0 1.1.9 2 2 2s2-.9 2-2-.9-2-2-2-2 .9-2 2M172.5 168.7c0 1.1.9 2.1 2.1 2.1 1.1 0 2.1-.9 2.1-2.1 0-1.1-.9-2.1-2.1-2.1-1.2 0-2.1.9-2.1 2.1M168.1 173.8c0 1.1.9 1.9 1.9 1.9 1.1 0 1.9-.9 1.9-1.9 0-1.1-.9-1.9-1.9-1.9-1-.1-1.9.8-1.9 1.9M163.1 178.4c0 1.1.9 2 2 2s2-.9 2-2-.9-2-2-2-2 .9-2 2M157.8 182.5c0 1.1.9 1.9 1.9 1.9 1.1 0 1.9-.9 1.9-1.9 0-1.1-.9-1.9-1.9-1.9-1.1 0-1.9.9-1.9 1.9M152 186.1c0 1.1.9 1.9 1.9 1.9 1.1 0 1.9-.9 1.9-1.9 0-1-.9-1.9-1.9-1.9-1 0-1.9.8-1.9 1.9M146 189c0 1 .8 1.8 1.8 1.8s1.8-.8 1.8-1.8-.8-1.8-1.8-1.8-1.8.9-1.8 1.8M139.7 191.4c0 1 .8 1.7 1.8 1.7s1.7-.8 1.7-1.8-.8-1.7-1.7-1.7c-1 0-1.8.8-1.8 1.8M133.2 193.1c0 1 .8 1.7 1.8 1.7s1.7-.8 1.7-1.8-.8-1.7-1.8-1.7-1.8.8-1.7 1.8M126.4 194.1c0 1 .8 1.7 1.8 1.7s1.7-.8 1.7-1.8-.8-1.7-1.8-1.7c-.9.1-1.7.9-1.7 1.8M120 202c0 .8.7 1.5 1.5 1.5s1.5-.7 1.5-1.5-.7-1.5-1.5-1.5c-.9.1-1.5.7-1.5 1.5M113.2 201.8c0 .8.6 1.4 1.4 1.4.8 0 1.4-.6 1.4-1.4 0-.8-.6-1.4-1.4-1.4-.7-.1-1.4.6-1.4 1.4M106.6 200.9c0 .7.6 1.4 1.4 1.4.7 0 1.4-.6 1.4-1.4 0-.7-.6-1.4-1.4-1.4-.8 0-1.4.6-1.4 1.4M100.1 199.4c0 .7.6 1.2 1.3 1.2.7 0 1.2-.6 1.2-1.3 0-.7-.6-1.2-1.3-1.2-.7 0-1.2.6-1.2 1.3M93.7 197.3c0 .6.5 1.1 1.1 1.1.6 0 1.1-.5 1.1-1.1 0-.6-.5-1.1-1.1-1.1-.6 0-1.1.5-1.1 1.1M87.1 194.7c0 .8.7 1.5 1.5 1.5s1.5-.7 1.5-1.5-.7-1.5-1.5-1.5-1.5.7-1.5 1.5M81.3 191.5c0 .7.6 1.3 1.3 1.3.7 0 1.3-.6 1.3-1.3 0-.7-.6-1.3-1.3-1.3-.7 0-1.3.6-1.3 1.3M75.5 187.8c0 .8.7 1.5 1.5 1.5s1.5-.7 1.5-1.5-.7-1.5-1.5-1.5c-.9 0-1.5.7-1.5 1.5M70.4 183.5c0 .7.6 1.2 1.3 1.2.7 0 1.2-.6 1.2-1.3 0-.7-.6-1.2-1.3-1.2-.7.1-1.2.7-1.2 1.3M65.3 178.9c0 .8.6 1.4 1.4 1.4.8 0 1.4-.6 1.4-1.4 0-.8-.6-1.4-1.4-1.4-.8 0-1.4.6-1.4 1.4M60.8 173.8c0 .8.6 1.4 1.4 1.4.8 0 1.4-.6 1.4-1.4 0-.8-.6-1.4-1.4-1.4-.8 0-1.4.6-1.4 1.4M56.8 168.3c0 .8.6 1.4 1.4 1.4.8 0 1.4-.6 1.4-1.4 0-.8-.6-1.4-1.4-1.4-.8 0-1.4.6-1.4 1.4M53.3 162.5c0 .8.6 1.4 1.4 1.4.8 0 1.4-.6 1.4-1.4 0-.8-.6-1.4-1.4-1.4-.8 0-1.4.6-1.4 1.4M50 156.4c0 .9.8 1.7 1.7 1.7.9 0 1.7-.8 1.7-1.7 0-.9-.8-1.7-1.7-1.7-.9 0-1.7.8-1.7 1.7M47.8 150c0 .8.7 1.5 1.5 1.5s1.5-.7 1.5-1.5-.7-1.5-1.5-1.5-1.5.7-1.5 1.5M45.7 143.5c0 1 .8 1.8 1.8 1.8s1.8-.8 1.8-1.8-.8-1.8-1.8-1.8-1.8.8-1.8 1.8M44.5 136.8c0 1 .8 1.8 1.8 1.8s1.8-.8 1.8-1.8-.8-1.8-1.8-1.8c-1 .1-1.8.9-1.8 1.8M43.6 130.1c0 1.1.9 2 2 2s2-.9 2-2-.9-2-2-2-2 .9-2 2M43.5 123.3c0 1.1.9 2 2.1 2 1.1 0 2-.9 2-2.1 0-1.1-.9-2-2.1-2-1 0-2 1-2 2.1M44.1 116.5c0 1.1.9 2 2 2s2-.9 2-2.1c0-1.1-.9-2-2.1-2-1 .1-1.9 1-1.9 2.1M45.4 109.8c0 1.1.9 2 2 2s2-.9 2-2-.9-2-2-2-2 .9-2 2M47.2 103.3c0 1.1.9 1.9 1.9 1.9 1 0 1.9-.9 1.9-1.9 0-1.1-.9-1.9-1.9-1.9-1 0-1.9.8-1.9 1.9M49.3 96.9c0 1.2 1 2.2 2.2 2.2 1.2 0 2.2-1 2.2-2.2 0-1.2-1-2.2-2.2-2.2-1.2 0-2.2 1-2.2 2.2M52.3 90.8c0 1.2.9 2.1 2.1 2.1 1.2 0 2.1-.9 2.1-2.1 0-1.2-.9-2.1-2.1-2.1-1.1 0-2.1.9-2.1 2.1M55.5 85c0 1.3 1.1 2.4 2.4 2.4 1.3 0 2.4-1.1 2.4-2.4 0-1.3-1.1-2.4-2.4-2.4-1.3 0-2.4 1.1-2.4 2.4M59.5 79.5c0 1.3 1 2.3 2.3 2.3 1.3 0 2.3-1 2.3-2.3 0-1.3-1-2.3-2.3-2.3-1.2-.1-2.3 1-2.3 2.3M63.8 74.3c0 1.4 1.1 2.5 2.5 2.5s2.5-1.1 2.5-2.5-1.1-2.5-2.5-2.5-2.5 1.2-2.5 2.5M68.7 69.6c0 1.4 1.1 2.5 2.5 2.5s2.5-1.1 2.5-2.5-1.1-2.5-2.5-2.5-2.5 1.2-2.5 2.5M74 65.4c0 1.4 1.1 2.5 2.5 2.5s2.5-1.1 2.5-2.5-1.1-2.5-2.5-2.5S74 64 74 65.4M79.6 61.6c0 1.4 1.2 2.6 2.6 2.5 1.4 0 2.6-1.2 2.5-2.6 0-1.4-1.2-2.5-2.6-2.5-1.4.1-2.5 1.2-2.5 2.6M85.5 58.4c0 1.5 1.2 2.6 2.6 2.6 1.4 0 2.6-1.2 2.6-2.6 0-1.4-1.2-2.6-2.6-2.6-1.5 0-2.6 1.1-2.6 2.6M91.7 55.7c0 1.4 1.2 2.6 2.6 2.6 1.4 0 2.6-1.2 2.6-2.6 0-1.5-1.2-2.6-2.6-2.6-1.4 0-2.6 1.1-2.6 2.6M98.2 53.6c0 1.4 1.2 2.6 2.6 2.6 1.4 0 2.6-1.2 2.6-2.6 0-1.4-1.2-2.6-2.6-2.6-1.5 0-2.6 1.1-2.6 2.6M105 52c0 1.3 1.1 2.3 2.4 2.3 1.3 0 2.3-1.1 2.3-2.4 0-1.3-1.1-2.3-2.4-2.3S105 50.7 105 52M111.8 51.1c0 1.3 1.1 2.3 2.3 2.3 1.3 0 2.3-1.1 2.3-2.3 0-1.3-1-2.3-2.3-2.3-1.3 0-2.3 1-2.3 2.3M118.6 50.8c0 1.3 1 2.3 2.3 2.3 1.3 0 2.3-1 2.3-2.3 0-1.3-1-2.3-2.3-2.3-1.3-.1-2.3 1-2.3 2.3M125.3 51c0 1.3 1.1 2.3 2.3 2.3 1.3 0 2.3-1 2.3-2.3 0-1.3-1-2.3-2.3-2.3-1.2 0-2.3 1.1-2.3 2.3M132.1 51.9c0 1.2 1 2.3 2.3 2.2 1.2 0 2.2-1 2.2-2.3 0-1.2-1-2.3-2.3-2.2-1.2.1-2.2 1.1-2.2 2.3M138.6 53.4c0 1.3 1.1 2.4 2.4 2.4 1.3 0 2.4-1.1 2.4-2.4 0-1.3-1.1-2.4-2.4-2.4-1.3 0-2.4 1.1-2.4 2.4M145.1 55.5c0 1.3 1.1 2.4 2.4 2.4 1.3 0 2.4-1.1 2.4-2.4 0-1.3-1.1-2.4-2.4-2.4-1.4 0-2.4 1.1-2.4 2.4M151.4 58.1c0 1.3 1 2.3 2.3 2.3 1.3 0 2.3-1 2.3-2.3 0-1.3-1-2.3-2.3-2.3-1.2 0-2.3 1.1-2.3 2.3M157.4 61.3c0 1.3 1.1 2.3 2.3 2.3 1.3 0 2.3-1.1 2.3-2.3 0-1.3-1-2.3-2.3-2.3s-2.3 1.1-2.3 2.3M163.1 65.1c0 1.3 1 2.3 2.3 2.3 1.3 0 2.3-1 2.3-2.3 0-1.3-1-2.3-2.3-2.3-1.3 0-2.3 1-2.3 2.3M168.4 69.3c0 1.3 1 2.3 2.3 2.3s2.3-1 2.3-2.3c0-1.3-1-2.3-2.3-2.3-1.3-.1-2.3 1-2.3 2.3M173.2 73.9c0 1.4 1.1 2.4 2.5 2.4s2.4-1.1 2.4-2.5-1.1-2.4-2.5-2.4c-1.3.1-2.4 1.2-2.4 2.5M177.4 79c0 1.5 1.2 2.7 2.8 2.7 1.5 0 2.7-1.2 2.7-2.8 0-1.5-1.2-2.7-2.8-2.7-1.5.1-2.7 1.3-2.7 2.8M181.5 84.5c0 1.5 1.2 2.7 2.7 2.7 1.5 0 2.7-1.2 2.6-2.7 0-1.5-1.2-2.7-2.7-2.7-1.4 0-2.6 1.2-2.6 2.7M184.9 90.3c0 1.5 1.3 2.8 2.8 2.8 1.5 0 2.8-1.3 2.8-2.8 0-1.5-1.3-2.8-2.8-2.8-1.6 0-2.8 1.3-2.8 2.8M188 96.4c0 1.4 1.2 2.6 2.6 2.6 1.4 0 2.6-1.2 2.6-2.6 0-1.4-1.2-2.6-2.6-2.6-1.4 0-2.6 1.2-2.6 2.6M190.6 102.8c0 1.4 1.1 2.4 2.5 2.4s2.4-1.1 2.4-2.5-1.1-2.4-2.5-2.4c-1.3 0-2.4 1.1-2.4 2.5M192.5 109.3c0 1.3 1.1 2.4 2.4 2.4 1.3 0 2.4-1.1 2.4-2.4 0-1.3-1.1-2.4-2.4-2.4-1.4 0-2.5 1.1-2.4 2.4M193.6 116c0 1.4 1.1 2.4 2.5 2.4s2.4-1.1 2.4-2.5-1.1-2.4-2.5-2.4c-1.3 0-2.4 1.1-2.4 2.5M194.3 122.7c0 1.3 1.1 2.4 2.4 2.4 1.3 0 2.4-1.1 2.4-2.4 0-1.3-1.1-2.4-2.4-2.4-1.3 0-2.4 1.1-2.4 2.4M194.4 129.5c0 1.3 1.1 2.3 2.4 2.3 1.3 0 2.3-1.1 2.3-2.4 0-1.3-1.1-2.3-2.4-2.3-1.3.1-2.3 1.1-2.3 2.4M193.9 136.3c0 1.2 1 2.2 2.2 2.2 1.2 0 2.2-1 2.2-2.2 0-1.2-1-2.2-2.2-2.2-1.2 0-2.2 1-2.2 2.2M192.7 143c0 1.2 1 2.2 2.2 2.2 1.2 0 2.2-1 2.2-2.2 0-1.2-1-2.2-2.2-2.2-1.2 0-2.2.9-2.2 2.2M190.9 149.5c0 1.2 1 2.2 2.2 2.2 1.2 0 2.2-1 2.2-2.2 0-1.2-1-2.2-2.2-2.2-1.2 0-2.2 1-2.2 2.2M188.7 155.9c0 1.2 1 2.1 2.1 2.1 1.2 0 2.1-1 2.1-2.1 0-1.2-1-2.1-2.1-2.1-1.2 0-2.1.9-2.1 2.1M186 162c0 1.1.9 1.9 1.9 1.9 1.1 0 1.9-.9 1.9-1.9 0-1.1-.9-1.9-1.9-1.9-1.1 0-1.9.8-1.9 1.9M182.5 167.8c0 1.1.9 2 2 1.9 1.1 0 2-.9 1.9-2 0-1.1-.9-2-2-1.9-1 .1-1.9 1-1.9 2M178.5 173.4c0 1.1.9 2 2 1.9 1.1 0 2-.9 1.9-2 0-1.1-.9-2-2-1.9-1 0-1.9.9-1.9 2M174.1 178.5c0 1.1.9 1.9 1.9 1.9 1.1 0 1.9-.9 1.9-1.9 0-1-.9-1.9-1.9-1.9-1 0-1.9.8-1.9 1.9M169.3 183.2c0 1 .8 1.8 1.8 1.8s1.8-.8 1.8-1.8-.8-1.8-1.8-1.8-1.8.8-1.8 1.8M164 187.4c0 1 .8 1.8 1.8 1.8s1.8-.8 1.8-1.8-.8-1.8-1.8-1.8-1.8.8-1.8 1.8M158.6 191.2c0 .9.7 1.6 1.6 1.6.9 0 1.6-.7 1.6-1.6 0-.9-.7-1.6-1.6-1.6-.9 0-1.6.7-1.6 1.6M152.5 194.4c0 .9.8 1.7 1.7 1.7.9 0 1.7-.8 1.7-1.7 0-.9-.8-1.7-1.7-1.7-.9 0-1.7.8-1.7 1.7M146.6 197.1c0 .8.6 1.4 1.4 1.4.8 0 1.4-.6 1.4-1.4 0-.8-.6-1.4-1.4-1.4-.8 0-1.4.6-1.4 1.4M140.1 199.2c0 .8.6 1.4 1.4 1.4.8 0 1.4-.6 1.4-1.4 0-.8-.6-1.4-1.4-1.4-.7 0-1.4.7-1.4 1.4M133.5 200.8c0 .8.7 1.4 1.4 1.4.8 0 1.4-.7 1.4-1.5s-.7-1.4-1.5-1.4c-.7 0-1.3.7-1.3 1.5M126.8 201.7c0 .8.7 1.5 1.5 1.5s1.5-.7 1.5-1.5-.7-1.5-1.5-1.5c-.9.1-1.5.7-1.5 1.5M120.3 209.6c0 .6.5 1.1 1.1 1.1.6 0 1.1-.5 1.1-1.1 0-.6-.5-1.1-1.1-1.1-.6 0-1.1.5-1.1 1.1M113.6 209.4c0 .6.5 1.1 1.1 1.1.6 0 1.1-.5 1.1-1.1 0-.6-.5-1.1-1.1-1.1-.6-.1-1.1.4-1.1 1.1M106.9 208.6c0 .6.5 1.1 1.1 1.1.6 0 1.1-.5 1.1-1.1 0-.6-.5-1.1-1.1-1.1-.7 0-1.1.5-1.1 1.1M100.3 207.2c0 .5.4 1 1 1 .5 0 1-.4 1-1 0-.5-.4-1-1-1s-1 .5-1 1M93.9 205.3c0 .5.4.9.9.9s.9-.4.9-.9-.4-.9-.9-.9-.9.4-.9.9M87.3 202.9c0 .6.5 1.1 1.1 1.1.6 0 1.1-.5 1.1-1.1 0-.6-.5-1.1-1.1-1.1-.6 0-1.1.5-1.1 1.1M81.4 200c0 .5.4.9 1 .9.5 0 1-.4.9-1 0-.5-.4-1-1-.9-.5 0-1 .5-.9 1M75.3 196.6c0 .6.5 1.1 1.1 1.1.6 0 1.1-.5 1.1-1.1 0-.6-.5-1.1-1.1-1.1-.6-.1-1.1.4-1.1 1.1M69.9 192.7c0 .5.4.9.9.9s.9-.4.9-.9-.4-.9-.9-.9c-.5-.1-.9.4-.9.9M64.4 188.4c0 .7.6 1.3 1.3 1.2.7 0 1.2-.6 1.2-1.3 0-.7-.6-1.2-1.3-1.2-.7 0-1.2.6-1.2 1.3M59.7 183.6c0 .6.5 1 1 1 .6 0 1-.5 1-1 0-.6-.5-1-1-1s-1 .5-1 1M55.3 178.5c0 .6.5 1 1 1 .6 0 1-.5 1-1 0-.6-.5-1-1-1-.6 0-1 .4-1 1M51.1 173.1c0 .7.5 1.2 1.2 1.2s1.2-.5 1.2-1.2-.5-1.2-1.2-1.2c-.7-.1-1.2.5-1.2 1.2M47.7 167.3c0 .5.4.9 1 .9.5 0 1-.4.9-1 0-.5-.4-1-1-.9-.4 0-.9.5-.9 1M44.5 161.2c0 .6.5 1.1 1.1 1.1.6 0 1.1-.5 1.1-1.1 0-.6-.5-1.1-1.1-1.1-.6 0-1.1.5-1.1 1.1M41.7 155c0 .7.6 1.3 1.3 1.3.7 0 1.3-.6 1.3-1.3 0-.7-.6-1.3-1.3-1.3-.7 0-1.3.6-1.3 1.3M39.9 148.5c0 .6.5 1.1 1.1 1.1.6 0 1.1-.5 1.1-1.1 0-.6-.5-1.1-1.1-1.1-.6 0-1.1.5-1.1 1.1M38.1 141.9c0 .7.6 1.3 1.3 1.3.7 0 1.3-.6 1.3-1.3 0-.7-.6-1.3-1.3-1.3-.7 0-1.3.6-1.3 1.3M36.8 135.2c0 .9.7 1.6 1.6 1.6.9 0 1.6-.7 1.6-1.6 0-.9-.7-1.6-1.6-1.6-.9 0-1.6.7-1.6 1.6M36.3 128.4c0 .9.8 1.7 1.7 1.7.9 0 1.7-.8 1.7-1.7 0-.9-.8-1.7-1.7-1.7-1 0-1.7.8-1.7 1.7M36.4 121.6c0 .9.8 1.7 1.7 1.7.9 0 1.7-.8 1.7-1.7 0-.9-.8-1.7-1.7-1.7-1 0-1.7.8-1.7 1.7M37.1 114.9c0 .9.8 1.7 1.7 1.7.9 0 1.7-.8 1.7-1.7 0-.9-.8-1.7-1.7-1.7-1 0-1.7.7-1.7 1.7M38.3 108.2c0 .9.7 1.7 1.7 1.7.9 0 1.7-.7 1.7-1.7 0-.9-.7-1.7-1.7-1.6-.9-.1-1.7.7-1.7 1.6M40.2 101.6c0 .9.7 1.5 1.6 1.5.9 0 1.5-.7 1.5-1.6 0-.9-.7-1.5-1.6-1.5-.8.1-1.5.8-1.5 1.6M42.2 95.2c0 1 .8 1.8 1.8 1.8s1.8-.8 1.8-1.8-.8-1.8-1.8-1.8-1.8.8-1.8 1.8M45.2 89.1c0 .9.7 1.7 1.7 1.7.9 0 1.7-.7 1.7-1.7 0-.9-.7-1.7-1.7-1.7s-1.7.7-1.7 1.7M48.2 83.1c0 1.1.9 2 2 1.9 1.1 0 2-.9 1.9-2 0-1.1-.9-2-2-1.9-1.1.1-1.9.9-1.9 2M51.9 77.5c0 1.1.9 2 2 1.9 1.1 0 2-.9 1.9-2 0-1.1-.9-2-2-1.9-1 0-1.9.9-1.9 2M55.9 72.1c0 1.2 1 2.1 2.2 2.1 1.2 0 2.1-1 2.1-2.2 0-1.2-1-2.1-2.2-2.1-1.1.1-2.1 1.1-2.1 2.2M60.7 67.2c0 1.1.9 2 2 2s2-.9 2-2-.9-2-2-2-2 .9-2 2M65.5 62.6c0 1.2 1 2.2 2.2 2.2 1.2 0 2.2-1 2.2-2.2 0-1.2-1-2.2-2.2-2.2-1.2 0-2.2 1-2.2 2.2M70.9 58.5c0 1.2 1 2.2 2.2 2.2 1.2 0 2.2-1 2.2-2.2 0-1.2-1-2.2-2.2-2.2-1.2 0-2.2 1-2.2 2.2M76.6 54.8c0 1.2 1 2.2 2.2 2.2 1.2 0 2.2-1 2.2-2.2 0-1.2-1-2.2-2.2-2.2-1.2 0-2.2 1-2.2 2.2M82.8 51.6c0 1.1.9 2 2 2s2-.9 2-2-.9-2-2-2-2 .9-2 2M88.8 48.9c0 1.2 1 2.3 2.3 2.2 1.2 0 2.3-1 2.2-2.3 0-1.2-1-2.3-2.3-2.2-1.2 0-2.2 1-2.2 2.3M95.1 46.7c0 1.3 1.1 2.4 2.4 2.4 1.3 0 2.4-1.1 2.4-2.4 0-1.3-1.1-2.4-2.4-2.4-1.4 0-2.4 1.1-2.4 2.4M102.1 45c0 1.1.9 1.9 1.9 1.9 1.1 0 1.9-.9 1.9-1.9 0-1.1-.9-1.9-1.9-1.9-1.1 0-1.9.8-1.9 1.9M108.8 43.9c0 1 .9 1.9 1.9 1.9 1 0 1.9-.9 1.9-1.9 0-1-.8-1.9-1.9-1.9-1 0-1.9.8-1.9 1.9M115.6 43.3c0 1 .9 1.9 1.9 1.9 1 0 1.9-.9 1.9-1.9 0-1-.8-1.9-1.9-1.9-1.1 0-1.9.8-1.9 1.9M122.4 43.3c0 1 .8 1.9 1.9 1.9 1 0 1.9-.8 1.9-1.9 0-1-.8-1.9-1.9-1.9-1.1 0-1.9.8-1.9 1.9M129.2 43.8c0 1 .8 1.9 1.9 1.9 1 0 1.9-.8 1.9-1.9 0-1-.8-1.9-1.9-1.9-1.1 0-1.9.9-1.9 1.9M135.9 44.9c0 1 .8 1.8 1.8 1.8s1.8-.8 1.8-1.8-.8-1.8-1.8-1.8-1.8.8-1.8 1.8M142.2 46.5c0 1.2 1 2.1 2.1 2.1 1.2 0 2.1-1 2.1-2.1 0-1.2-1-2.1-2.1-2.1-1.2 0-2.1.9-2.1 2.1M148.8 48.6c0 1.1.9 2 2 2s2-.9 2-2-.9-2-2-2c-1.1.1-2 1-2 2M155.1 51.3c0 1 .8 1.9 1.9 1.9 1 0 1.9-.8 1.9-1.9 0-1-.8-1.9-1.9-1.9-1 0-1.9.9-1.9 1.9M160.8 54.5c0 1.2 1 2.2 2.2 2.2 1.2 0 2.2-1 2.2-2.2 0-1.2-1-2.2-2.2-2.2-1.2 0-2.2 1-2.2 2.2M166.7 58.1c0 1.1.9 2 2.1 2 1.1 0 2-.9 2-2.1 0-1.1-.9-2-2.1-2-1.1.1-2 1-2 2.1M171.9 62.2c0 1.2 1 2.2 2.2 2.2 1.2 0 2.2-1 2.2-2.2 0-1.2-1-2.2-2.2-2.2-1.2 0-2.2 1-2.2 2.2M177 66.8c0 1.2 1 2.2 2.2 2.2 1.2 0 2.2-1 2.2-2.2 0-1.2-1-2.2-2.2-2.2-1.2 0-2.2 1-2.2 2.2M181.3 71.7c0 1.4 1.1 2.5 2.5 2.5s2.5-1.1 2.5-2.5-1.1-2.5-2.5-2.5c-1.3 0-2.5 1.1-2.5 2.5M185.4 77c0 1.5 1.2 2.7 2.7 2.7 1.5 0 2.7-1.2 2.6-2.7 0-1.5-1.2-2.7-2.7-2.7-1.4 0-2.6 1.2-2.6 2.7M189.2 82.6c0 1.5 1.2 2.7 2.7 2.7 1.5 0 2.7-1.2 2.7-2.7 0-1.5-1.2-2.7-2.7-2.7-1.5 0-2.7 1.2-2.7 2.7M192.8 88.5c0 1.4 1.1 2.5 2.5 2.5s2.5-1.1 2.5-2.5-1.1-2.5-2.5-2.5-2.5 1.2-2.5 2.5M195.6 94.7c0 1.4 1.1 2.5 2.5 2.5s2.5-1.1 2.5-2.5-1.1-2.5-2.5-2.5-2.5 1.1-2.5 2.5M198 101.1c0 1.3 1.1 2.4 2.4 2.4 1.3 0 2.4-1.1 2.4-2.4 0-1.3-1.1-2.4-2.4-2.4-1.3 0-2.4 1-2.4 2.4M200 107.6c0 1.2 1 2.2 2.2 2.2 1.2 0 2.2-1 2.2-2.2 0-1.2-1-2.2-2.2-2.2-1.2 0-2.2 1-2.2 2.2M201.3 114.3c0 1.2 1 2.2 2.2 2.2 1.2 0 2.2-1 2.2-2.2 0-1.2-1-2.2-2.2-2.2-1.2 0-2.2 1-2.2 2.2M202.1 121c0 1.2 1 2.1 2.1 2.1 1.2 0 2.1-1 2.1-2.1 0-1.2-1-2.1-2.1-2.1-1.2 0-2.1 1-2.1 2.1M202.2 127.8c0 1.2 1 2.1 2.1 2.1 1.2 0 2.1-1 2.1-2.1 0-1.2-1-2.1-2.1-2.1s-2.1.9-2.1 2.1M201.9 134.6c0 1.1.9 2 2 2s2-.9 2-2-.9-2-2-2-2 .9-2 2M201.1 141.3c0 1.1.9 1.9 1.9 1.9s1.9-.9 1.9-1.9c0-1.1-.9-1.9-1.9-1.9-1 0-1.9.8-1.9 1.9M199.7 147.9c0 1 .8 1.8 1.8 1.8s1.8-.8 1.8-1.8-.8-1.8-1.8-1.8-1.8.8-1.8 1.8M197.6 154.4c0 1 .8 1.9 1.9 1.9 1 0 1.9-.9 1.9-1.9 0-1-.9-1.9-1.9-1.9-1 0-1.9.9-1.9 1.9M195.3 160.7c0 .9.8 1.7 1.7 1.7.9 0 1.7-.8 1.7-1.7 0-.9-.8-1.7-1.7-1.7-1 0-1.7.8-1.7 1.7M192.3 166.8c0 .9.8 1.7 1.7 1.7.9 0 1.7-.8 1.7-1.7 0-.9-.8-1.7-1.7-1.7-1 0-1.8.7-1.7 1.7M188.7 172.6c0 .9.8 1.7 1.7 1.7.9 0 1.7-.8 1.7-1.7 0-.9-.8-1.7-1.7-1.7-.9 0-1.7.7-1.7 1.7M184.7 178c0 .9.8 1.7 1.7 1.7.9 0 1.7-.8 1.7-1.7s-.8-1.7-1.7-1.7c-.9.1-1.7.8-1.7 1.7M180.5 183.2c0 .8.7 1.5 1.5 1.5s1.5-.7 1.5-1.5-.7-1.5-1.5-1.5-1.5.7-1.5 1.5M175.5 188c0 .9.8 1.7 1.7 1.7.9 0 1.7-.8 1.7-1.7 0-.9-.8-1.7-1.7-1.7-1 0-1.7.7-1.7 1.7M170.6 192.3c0 .8.6 1.4 1.4 1.4s1.4-.6 1.4-1.4c0-.8-.6-1.4-1.4-1.4-.8 0-1.4.7-1.4 1.4M164.9 196.2c0 .8.7 1.5 1.5 1.5s1.5-.7 1.5-1.5-.7-1.5-1.5-1.5-1.5.7-1.5 1.5M159.2 199.7c0 .7.6 1.3 1.3 1.3.7 0 1.3-.6 1.3-1.3 0-.7-.6-1.3-1.3-1.3-.7 0-1.3.6-1.3 1.3M153 202.7c0 .8.6 1.4 1.4 1.4.8 0 1.4-.6 1.4-1.4 0-.8-.6-1.4-1.4-1.4-.7-.1-1.4.6-1.4 1.4M147 205.1c0 .6.5 1.1 1.1 1.1.6 0 1.1-.5 1.1-1.1 0-.6-.5-1.1-1.1-1.1-.6 0-1.1.5-1.1 1.1M140.5 207.1c0 .6.5 1.1 1.1 1.1.6 0 1.1-.5 1.1-1.1 0-.6-.5-1.1-1.1-1.1-.6-.1-1.1.4-1.1 1.1M133.9 208.5c0 .6.5 1.1 1.1 1.1.6 0 1.1-.5 1.1-1.1 0-.6-.5-1.1-1.1-1.1-.6-.1-1.1.4-1.1 1.1M127.1 209.3c0 .6.5 1.1 1.1 1.1.6 0 1.1-.5 1.1-1.1 0-.6-.5-1.1-1.1-1.1-.6 0-1.1.5-1.1 1.1M120.6 217.2c0 .5.4.9.9.9s.9-.4.9-.9-.4-.9-.9-.9-.9.4-.9.9M113.8 216.9c0 .5.4.9.9.9s.9-.4.9-.9-.4-.9-.9-.9-.9.4-.9.9M107 216.2c0 .5.4 1 1 .9.5 0 .9-.4.9-1 0-.5-.4-1-1-.9-.5.1-.9.5-.9 1M100.4 215c0 .5.4.9.9.9s.9-.4.9-.9-.4-.9-.9-.9c-.5-.1-.9.4-.9.9M93.9 213.2c0 .5.4.8.8.8.5 0 .8-.4.8-.8 0-.5-.4-.8-.8-.8s-.8.4-.8.8M87.4 211c0 .5.4.9.9.9s.9-.4.9-.9-.4-.9-.9-.9-.9.4-.9.9M81.3 208.3c0 .4.3.8.8.8.4 0 .8-.3.8-.8 0-.4-.3-.8-.8-.8-.4.1-.8.4-.8.8M75.4 205.2c0 .3.3.6.6.6s.6-.3.6-.6-.3-.6-.6-.6-.6.2-.6.6M69.7 201.6c0 .4.3.7.7.6.4 0 .7-.3.7-.7 0-.4-.3-.7-.7-.7-.5.1-.7.4-.7.8M64.3 197.6c0 .3.2.5.5.5s.5-.2.5-.5-.2-.5-.5-.5c-.2 0-.5.2-.5.5M59 193.2c0 .4.3.7.7.7.4 0 .7-.3.7-.7 0-.4-.3-.7-.7-.7-.4 0-.7.3-.7.7M54 188.4c0 .5.4.8.8.8.5 0 .8-.4.8-.8 0-.5-.4-.8-.8-.8s-.8.3-.8.8M49.6 183.3c0 .5.4.8.8.8.5 0 .8-.4.8-.8 0-.5-.4-.8-.8-.8-.5-.1-.8.3-.8.8M45.5 177.8c0 .5.4.8.8.8.5 0 .8-.4.8-.8 0-.5-.4-.8-.8-.8s-.8.3-.8.8M42 172.1c0 .4.3.7.7.7.4 0 .7-.3.7-.7 0-.4-.3-.7-.7-.7-.4-.1-.7.3-.7.7M38.8 166.1c0 .4.3.8.8.8.4 0 .8-.3.8-.8 0-.4-.3-.8-.8-.8s-.8.4-.8.8M36 159.9c0 .4.3.8.8.8.4 0 .8-.3.8-.8 0-.4-.3-.8-.8-.8-.4 0-.8.4-.8.8M34 153.5c0 .3.2.5.5.5s.5-.2.5-.5-.2-.5-.5-.5c-.2 0-.5.2-.5.5M32.1 146.9c0 .4.3.6.7.6.4 0 .7-.3.7-.7 0-.4-.3-.7-.7-.7-.4.2-.7.5-.7.8M30.6 140.3c0 .5.4.9.9.9s.9-.4.9-.9-.4-.9-.9-.9-.9.4-.9.9M29.5 133.5c0 .6.5 1.1 1.1 1.1.6 0 1.1-.5 1.1-1.1 0-.6-.5-1.1-1.1-1.1-.6 0-1.1.5-1.1 1.1M29.1 126.7c0 .7.6 1.3 1.3 1.3.7 0 1.3-.6 1.3-1.3 0-.7-.6-1.3-1.3-1.3-.7.1-1.3.6-1.3 1.3M29.3 120c0 .7.6 1.3 1.3 1.3.7 0 1.3-.6 1.3-1.3 0-.7-.6-1.3-1.3-1.3-.7 0-1.3.5-1.3 1.3M30.1 113.2c0 .7.6 1.3 1.3 1.3.7 0 1.3-.6 1.3-1.3 0-.7-.6-1.3-1.3-1.3-.7 0-1.3.6-1.3 1.3M31.3 106.5c0 .7.6 1.3 1.3 1.3.7 0 1.3-.6 1.3-1.3 0-.7-.6-1.3-1.3-1.3-.7.1-1.3.6-1.3 1.3M33.1 100c0 .7.5 1.2 1.2 1.2s1.2-.6 1.2-1.2c0-.7-.5-1.2-1.2-1.2-.6-.1-1.2.5-1.2 1.2M35.1 93.6c0 .8.7 1.5 1.5 1.5s1.5-.7 1.5-1.5-.7-1.5-1.5-1.5c-.9 0-1.5.6-1.5 1.5M37.9 87.3c0 .8.6 1.4 1.4 1.4.8 0 1.4-.6 1.4-1.4 0-.8-.6-1.4-1.4-1.4-.8 0-1.4.7-1.4 1.4M41.1 81.3c0 .7.6 1.3 1.3 1.3.7 0 1.3-.6 1.3-1.3 0-.7-.6-1.3-1.3-1.3-.7 0-1.3.6-1.3 1.3M44.5 75.5c0 .8.7 1.5 1.5 1.5s1.5-.7 1.5-1.5S46.8 74 46 74c-.9 0-1.6.7-1.5 1.5M48.2 70.1c0 1 .8 1.8 1.8 1.8s1.8-.8 1.8-1.8-.8-1.8-1.8-1.8c-1-.1-1.8.8-1.8 1.8M52.6 64.9c0 1 .8 1.8 1.8 1.8s1.8-.8 1.8-1.8-.8-1.8-1.8-1.8-1.8.8-1.8 1.8M57.4 60.1c0 1 .8 1.8 1.8 1.8s1.8-.8 1.8-1.8-.8-1.8-1.8-1.8-1.8.8-1.8 1.8M62.5 55.6c0 1 .8 1.8 1.8 1.8s1.8-.8 1.8-1.8-.8-1.8-1.8-1.8-1.8.8-1.8 1.8M68.1 51.6c0 .9.7 1.7 1.7 1.6.9 0 1.7-.7 1.6-1.7 0-.9-.7-1.7-1.7-1.7-.9.1-1.6.9-1.6 1.8M73.7 48c0 1 .8 1.8 1.8 1.8s1.8-.8 1.8-1.8-.8-1.8-1.8-1.8-1.8.8-1.8 1.8M79.9 44.8c0 .9.7 1.6 1.6 1.6.9 0 1.6-.7 1.6-1.6 0-.9-.7-1.6-1.6-1.6-.9-.1-1.6.7-1.6 1.6M85.9 42c0 1 .8 1.8 1.8 1.8s1.8-.8 1.8-1.8-.8-1.8-1.8-1.8-1.8.8-1.8 1.8M92.3 39.8c0 1 .8 1.8 1.8 1.8s1.8-.8 1.8-1.8-.8-1.8-1.8-1.8-1.8.8-1.8 1.8M99.2 38c0 .8.7 1.5 1.5 1.5s1.5-.7 1.5-1.5-.7-1.5-1.5-1.5c-.9 0-1.5.7-1.5 1.5M105.9 36.7c0 .8.6 1.4 1.4 1.4.8 0 1.4-.6 1.4-1.4 0-.8-.6-1.4-1.4-1.4-.8 0-1.4.6-1.4 1.4M112.7 35.9c0 .7.6 1.3 1.3 1.3.7 0 1.3-.6 1.3-1.3 0-.7-.6-1.3-1.3-1.3-.7 0-1.3.6-1.3 1.3M119.6 35.6c0 .7.6 1.2 1.3 1.2.7 0 1.2-.6 1.2-1.3 0-.7-.6-1.2-1.3-1.2-.7.1-1.2.6-1.2 1.3M126.4 35.9c0 .7.5 1.2 1.2 1.2s1.2-.5 1.2-1.2-.5-1.2-1.2-1.2c-.6 0-1.2.5-1.2 1.2M133.2 36.6c0 .6.5 1.2 1.2 1.2.6 0 1.2-.5 1.2-1.2 0-.6-.5-1.2-1.2-1.2s-1.2.6-1.2 1.2M140 37.8c0 .6.5 1.1 1.1 1.1.6 0 1.1-.5 1.1-1.1 0-.6-.5-1.1-1.1-1.1-.6.1-1.1.6-1.1 1.1M145.9 39.6c0 .9.8 1.7 1.7 1.7.9 0 1.7-.8 1.7-1.7 0-.9-.8-1.7-1.7-1.7-.9 0-1.7.7-1.7 1.7M152.5 41.8c0 .9.7 1.5 1.6 1.5.9 0 1.5-.7 1.5-1.6 0-.9-.7-1.5-1.6-1.5-.8 0-1.5.7-1.5 1.6M158.8 44.5c0 .8.7 1.5 1.5 1.5s1.5-.7 1.5-1.5-.7-1.5-1.5-1.5c-.9 0-1.5.7-1.5 1.5M164.5 47.6c0 1 .8 1.8 1.8 1.8s1.8-.8 1.8-1.8-.8-1.8-1.8-1.8c-1 .1-1.8.9-1.8 1.8M170.3 51.2c0 .9.8 1.7 1.7 1.7.9 0 1.7-.8 1.7-1.7 0-.9-.8-1.7-1.7-1.7-.9 0-1.7.8-1.7 1.7M175.5 55.2c0 1.1.9 2 2 2s2-.9 2-2-.9-2-2-2-2 .9-2 2M180.8 59.6c0 1.1.9 1.9 1.9 1.9 1 0 1.9-.9 1.9-1.9 0-1.1-.9-1.9-1.9-1.9-1.1 0-1.9.9-1.9 1.9M185.5 64.4c0 1.1.9 1.9 1.9 1.9 1.1 0 1.9-.9 1.9-1.9 0-1.1-.9-1.9-1.9-1.9-1 0-1.9.9-1.9 1.9M189.6 69.6c0 1.3 1 2.3 2.3 2.3 1.3 0 2.3-1 2.3-2.3 0-1.3-1-2.3-2.3-2.3-1.2 0-2.3 1-2.3 2.3M194.1 75c0 1 .8 1.9 1.9 1.9 1 0 1.9-.8 1.9-1.9 0-1-.8-1.9-1.9-1.9-1.1 0-1.9.9-1.9 1.9M197.4 80.7c0 1.2 1 2.3 2.3 2.2 1.2 0 2.2-1 2.2-2.3s-1-2.3-2.3-2.2c-1.2.1-2.3 1.1-2.2 2.3M200.8 86.7c0 1.1.9 2 2 2s2-.9 2-2-.9-2-2-2-2 .9-2 2M203.3 92.9c0 1.2 1 2.2 2.2 2.2 1.2 0 2.2-1 2.2-2.2 0-1.2-1-2.2-2.2-2.2-1.2 0-2.2 1-2.2 2.2M205.5 99.3c0 1.2 1 2.3 2.3 2.2 1.2 0 2.3-1 2.2-2.3 0-1.2-1-2.3-2.3-2.2-1.2.1-2.2 1.1-2.2 2.3M207.5 105.9c0 1.2 1 2.1 2.1 2.1 1.2 0 2.1-1 2.1-2.1 0-1.2-1-2.1-2.1-2.1-1.2 0-2.2.9-2.1 2.1M208.7 112.6c0 1.2 1 2.1 2.1 2.1 1.2 0 2.1-1 2.1-2.1 0-1.2-1-2.1-2.1-2.1-1.1-.1-2.1.9-2.1 2.1M209.6 119.3c0 1.1.9 2.1 2.1 2.1 1.1 0 2.1-.9 2.1-2.1 0-1.1-.9-2.1-2.1-2.1-1.2 0-2.1 1-2.1 2.1M210 126.1c0 1.1.9 2 2 2s2-.9 2-2-.9-2-2-2c-1.2 0-2 .9-2 2M209.8 132.9c0 1.1.9 1.9 1.9 1.9 1.1 0 1.9-.9 1.9-1.9 0-1.1-.9-1.9-1.9-1.9-1.1 0-1.9.8-1.9 1.9M209.2 139.6c0 1 .8 1.8 1.8 1.8s1.8-.8 1.8-1.8-.8-1.8-1.8-1.8-1.9.8-1.8 1.8M208 146.3c0 1 .8 1.7 1.7 1.7 1 0 1.7-.8 1.7-1.7 0-1-.8-1.7-1.7-1.7-.9 0-1.7.7-1.7 1.7M206.3 152.8c0 .9.7 1.7 1.7 1.7.9 0 1.7-.7 1.7-1.7 0-.9-.7-1.7-1.7-1.7-.9.1-1.7.8-1.7 1.7M204.3 159.3c0 .8.7 1.5 1.5 1.5s1.5-.7 1.5-1.5-.7-1.5-1.5-1.5c-.9 0-1.5.6-1.5 1.5M201.6 165.5c0 .8.7 1.5 1.5 1.5s1.5-.7 1.5-1.5-.7-1.5-1.5-1.5-1.5.7-1.5 1.5M198.5 171.5c0 .8.7 1.5 1.5 1.5s1.5-.7 1.5-1.5-.7-1.5-1.5-1.5c-.9 0-1.5.7-1.5 1.5M195.1 177.3c0 .7.5 1.2 1.2 1.2s1.2-.5 1.2-1.2-.5-1.2-1.2-1.2c-.6 0-1.2.5-1.2 1.2M191.1 182.7c0 .7.5 1.2 1.2 1.2s1.2-.5 1.2-1.2-.5-1.2-1.2-1.2c-.6 0-1.2.6-1.2 1.2M186.7 187.9c0 .7.5 1.2 1.2 1.2s1.2-.5 1.2-1.2-.5-1.2-1.2-1.2c-.6 0-1.2.5-1.2 1.2M181.9 192.7c0 .7.5 1.2 1.2 1.2s1.2-.5 1.2-1.2-.5-1.2-1.2-1.2c-.6 0-1.2.6-1.2 1.2M176.9 197.2c0 .6.5 1.1 1.1 1.1.6 0 1.1-.5 1.1-1.1 0-.6-.5-1.1-1.1-1.1-.6-.1-1.1.4-1.1 1.1M171.4 201.2c0 .6.5 1.1 1.1 1.1.6 0 1.1-.5 1.1-1.1 0-.6-.5-1.1-1.1-1.1-.6 0-1.1.5-1.1 1.1M165.9 204.8c0 .5.4.9.9.9s.9-.4.9-.9-.4-.9-.9-.9-.9.4-.9.9M159.8 208c0 .6.5 1 1 1 .6 0 1-.5 1-1 0-.6-.5-1-1-1s-1 .5-1 1M153.6 210.8c0 .6.5 1.1 1.1 1.1.6 0 1.1-.5 1.1-1.1 0-.6-.5-1.1-1.1-1.1-.7 0-1.1.5-1.1 1.1M147.4 213c0 .5.4.9.9.9s.9-.4.9-.9-.4-.9-.9-.9c-.6.1-1 .5-.9.9M140.8 214.8c0 .5.4.9.9.9s.9-.4.9-.9-.4-.9-.9-.9-.9.4-.9.9M134.1 216.1c0 .5.4.9.9.9s.9-.4.9-.9-.4-.9-.9-.9-.9.4-.9.9M127.4 216.9c0 .5.4.9.9.9s.9-.4.9-.9-.4-.9-.9-.9-.9.4-.9.9M120.8 224.7c0 .4.3.7.7.7.4 0 .7-.3.7-.7 0-.4-.3-.7-.7-.7-.4 0-.7.3-.7.7M114 224.5c0 .4.3.8.8.8.4 0 .8-.3.8-.8 0-.4-.3-.8-.8-.8-.5.1-.8.4-.8.8M107.2 223.8c0 .4.3.8.8.8.4 0 .8-.4.8-.8s-.3-.8-.8-.8c-.4.1-.8.4-.8.8M100.5 222.7c0 .4.4.8.8.8s.8-.4.8-.8-.4-.8-.8-.8-.8.4-.8.8M94 221.1c0 .4.3.7.7.7.4 0 .7-.3.7-.7s-.3-.7-.7-.7c-.4 0-.7.3-.7.7M87.5 219.1c0 .4.3.7.7.7.4 0 .7-.3.7-.7s-.3-.7-.7-.7c-.4 0-.7.3-.7.7M81.2 216.6c0 .4.3.7.7.7.4 0 .7-.3.7-.7 0-.4-.3-.7-.7-.7-.4 0-.7.3-.7.7M75.2 213.6c0 .3.2.5.5.5s.5-.2.5-.5-.2-.5-.5-.5c-.2 0-.5.2-.5.5M69.4 210.3c0 .3.2.5.5.5s.5-.2.5-.5-.2-.5-.5-.5-.5.2-.5.5M63.9 206.6c0 .2.2.4.4.4s.4-.2.4-.4-.2-.4-.4-.4c-.3 0-.4.2-.4.4M58.3 202.4c0 .3.2.5.5.5s.5-.2.5-.5-.2-.5-.5-.5-.5.3-.5.5M53.3 198c0 .2.2.4.4.4s.4-.2.4-.4-.2-.4-.4-.4-.4.2-.4.4M48.5 193.1c0 .2.2.4.4.4s.4-.2.4-.4-.2-.4-.4-.4-.4.2-.4.4M43.9 188c0 .4.3.7.7.7.4 0 .7-.3.7-.7 0-.4-.3-.7-.7-.7-.5 0-.7.3-.7.7M39.9 182.6c0 .3.3.6.6.6s.6-.3.6-.6-.3-.6-.6-.6c-.4 0-.6.2-.6.6M36.1 176.9c0 .4.3.7.7.7.4 0 .7-.3.7-.7 0-.4-.3-.7-.7-.7-.4 0-.7.3-.7.7M33 170.9c0 .3.2.5.5.5s.5-.2.5-.5-.2-.5-.5-.5-.5.3-.5.5M30.2 164.8c0 .2.2.4.4.4s.4-.2.4-.4-.2-.4-.4-.4c-.2-.1-.4.1-.4.4M27.7 158.4c0 .3.2.5.5.5s.5-.2.5-.5-.2-.5-.5-.5-.5.2-.5.5M25.9 151.9c0 .2.1.3.3.3.2 0 .3-.1.3-.3 0-.2-.1-.3-.3-.3-.2 0-.3.2-.3.3M24.2 145.3c0 .2.2.4.4.4s.4-.2.4-.4-.2-.4-.4-.4-.4.2-.4.4M23 138.6c0 .3.3.6.6.6s.6-.3.6-.6-.3-.6-.6-.6c-.4 0-.6.3-.6.6M22.2 131.8c0 .5.4.8.8.8.5 0 .8-.4.8-.8 0-.5-.4-.8-.8-.8-.5 0-.8.4-.8.8M21.9 125.1c0 .5.4.9 1 .9.5 0 1-.4.9-1 0-.5-.4-.9-1-.9-.5 0-.9.4-.9 1M22.2 118.3c0 .6.5 1 1 1 .6 0 1-.5 1-1 0-.6-.5-1-1-1-.6 0-1 .4-1 1M23 111.5c0 .6.5 1 1 1 .6 0 1-.5 1-1 0-.6-.5-1-1-1-.6 0-1 .5-1 1M24.2 104.9c0 .6.5 1 1 1 .6 0 1-.5 1-1 0-.6-.5-1-1-1s-1 .4-1 1M25.9 98.3c0 .6.5 1 1 1 .6 0 1-.5 1-1 0-.6-.5-1-1-1s-1 .4-1 1M27.9 91.9c0 .7.5 1.2 1.2 1.2s1.2-.5 1.2-1.2-.5-1.2-1.2-1.2-1.2.5-1.2 1.2M30.5 85.6c0 .6.5 1.2 1.2 1.2.6 0 1.2-.5 1.2-1.2 0-.6-.5-1.2-1.2-1.2-.6 0-1.2.6-1.2 1.2M33.6 79.5c0 .6.5 1.1 1.1 1.1.6 0 1.1-.5 1.1-1.1 0-.6-.5-1.1-1.1-1.1-.6 0-1.1.5-1.1 1.1M36.8 73.7c0 .7.6 1.3 1.3 1.3.7 0 1.3-.6 1.3-1.3 0-.7-.6-1.3-1.3-1.3-.7-.1-1.3.5-1.3 1.3M40.7 68.1c0 .7.6 1.3 1.3 1.3.7 0 1.3-.6 1.3-1.3 0-.7-.6-1.3-1.3-1.3-.7 0-1.3.5-1.3 1.3M44.6 62.8c0 .9.7 1.6 1.6 1.6.9 0 1.6-.7 1.6-1.6 0-.9-.7-1.6-1.6-1.6-.9 0-1.6.7-1.6 1.6M49.1 57.7c0 1 .8 1.7 1.7 1.7 1 0 1.7-.8 1.7-1.7 0-1-.8-1.7-1.7-1.7-1 0-1.7.8-1.7 1.7M54.1 53c0 .9.7 1.5 1.6 1.5.9 0 1.5-.7 1.5-1.6 0-.9-.7-1.5-1.6-1.5-.8.1-1.5.8-1.5 1.6M59.3 48.7c0 .9.7 1.6 1.6 1.6.9 0 1.6-.7 1.6-1.6 0-.9-.7-1.6-1.6-1.6-.9 0-1.6.7-1.6 1.6M65.1 44.7c0 .7.6 1.3 1.3 1.3.7 0 1.3-.6 1.3-1.3 0-.7-.6-1.3-1.3-1.3-.7 0-1.3.6-1.3 1.3M70.8 41.1c0 .7.6 1.3 1.3 1.3.7 0 1.3-.6 1.3-1.3 0-.7-.6-1.3-1.3-1.3-.7 0-1.3.6-1.3 1.3M77.2 38c0 .5.4 1 1 1s1-.4 1-1c0-.5-.4-1-1-1s-1 .4-1 1M83.2 35.2c0 .7.6 1.2 1.2 1.2.7 0 1.2-.6 1.2-1.2 0-.7-.6-1.2-1.2-1.2-.7 0-1.3.5-1.2 1.2M89.3 32.9c0 .8.6 1.4 1.4 1.4.8 0 1.4-.6 1.4-1.4 0-.8-.6-1.4-1.4-1.4-.7 0-1.4.6-1.4 1.4M95.8 31c0 .8.7 1.5 1.5 1.5s1.5-.7 1.5-1.5-.7-1.5-1.5-1.5-1.5.7-1.5 1.5M102.8 29.6c0 .6.5 1.1 1.1 1.1.6 0 1.1-.5 1.1-1.2 0-.6-.5-1.1-1.1-1.1-.6 0-1.1.6-1.1 1.2M109.7 28.6c0 .5.4 1 1 1 .5 0 1-.4 1-1 0-.5-.4-1-1-1s-1 .5-1 1M116.4 28.1c0 .5.4 1 1 1 .5 0 1-.4 1-1 0-.5-.4-1-1-1-.5.1-1 .5-1 1M123.4 28.1c0 .4.4.8.8.8s.8-.4.8-.8-.4-.8-.8-.8-.8.4-.8.8M130.3 28.6c0 .4.3.7.7.7.4 0 .7-.3.6-.7s-.3-.6-.7-.6c-.3-.1-.6.2-.6.6M137.1 29.5c0 .3.3.6.6.6s.6-.3.6-.6-.3-.6-.6-.6-.6.3-.6.6M143.3 30.8c0 .6.5 1.1 1.1 1.1.6 0 1.1-.5 1.1-1.1 0-.6-.5-1.1-1.1-1.1s-1.1.6-1.1 1.1M150 32.7c0 .5.4.9.9.9s.9-.4.9-.9-.4-.9-.9-.9-.9.4-.9.9M156.5 34.9c0 .4.4.8.8.8s.8-.4.8-.8-.4-.8-.8-.8c-.5.1-.8.4-.8.8M162.8 37.7c0 .4.3.7.7.7.4 0 .7-.3.7-.7 0-.4-.3-.7-.7-.7-.4 0-.7.3-.7.7M168.2 40.8c0 .8.6 1.4 1.4 1.4.8 0 1.4-.6 1.4-1.4 0-.8-.6-1.4-1.4-1.4-.8 0-1.4.6-1.4 1.4M174 44.3c0 .7.6 1.3 1.3 1.3.7 0 1.3-.6 1.3-1.3 0-.7-.6-1.3-1.3-1.3-.7 0-1.3.6-1.3 1.3M179.3 48.3c0 .9.7 1.6 1.6 1.6.9 0 1.6-.7 1.6-1.6 0-.9-.7-1.6-1.6-1.6-.9 0-1.6.7-1.6 1.6M184.7 52.6c0 .8.6 1.4 1.4 1.4.8 0 1.4-.6 1.4-1.4 0-.8-.6-1.4-1.4-1.4-.8 0-1.4.6-1.4 1.4M189.4 57.2c0 .9.7 1.6 1.6 1.6.9 0 1.6-.7 1.6-1.6 0-.9-.7-1.6-1.6-1.6-.9 0-1.6.7-1.6 1.6M194.2 62.2c0 .8.7 1.5 1.5 1.5s1.5-.7 1.5-1.5-.7-1.5-1.5-1.5c-.9 0-1.5.7-1.5 1.5M198.4 67.5c0 .8.7 1.5 1.5 1.5s1.5-.7 1.5-1.5-.7-1.5-1.5-1.5-1.5.7-1.5 1.5M202.4 73.1c0 .8.6 1.4 1.4 1.4.8 0 1.4-.6 1.4-1.4 0-.8-.6-1.4-1.4-1.4s-1.4.6-1.4 1.4M205.5 78.9c0 1 .8 1.7 1.7 1.7 1 0 1.7-.8 1.7-1.7 0-1-.8-1.7-1.7-1.7-.9 0-1.7.7-1.7 1.7M208.7 85c0 .9.7 1.6 1.6 1.6.9 0 1.6-.7 1.6-1.6 0-.9-.7-1.6-1.6-1.6-.8 0-1.6.7-1.6 1.6M211 91.2c0 1.1.9 2 2 2s2-.9 2-2-.9-2-2-2-2 .9-2 2M213.2 97.6c0 1.1.9 2 2 2s2-.9 2-2-.9-2-2-2-2 .9-2 2M215.1 104.2c0 1 .8 1.8 1.9 1.8 1 0 1.8-.8 1.8-1.9 0-1-.8-1.8-1.9-1.8-1 0-1.8.9-1.8 1.9M216.3 110.8c0 1.1.9 2 2 1.9 1.1 0 2-.9 1.9-2 0-1.1-.9-2-2-1.9-1 .1-1.9 1-1.9 2M217.2 117.6c0 1.1.9 1.9 1.9 1.9 1.1 0 1.9-.9 1.9-1.9 0-1.1-.9-1.9-1.9-1.9-1.1 0-1.9.8-1.9 1.9M217.6 124.4c0 1 .8 1.9 1.9 1.9 1 0 1.9-.8 1.9-1.9 0-1-.8-1.9-1.9-1.9-1.1 0-1.9.8-1.9 1.9M217.6 131.1c0 1 .8 1.8 1.8 1.8s1.8-.8 1.8-1.8-.8-1.8-1.8-1.8-1.8.8-1.8 1.8M217.1 137.9c0 .9.8 1.7 1.7 1.7.9 0 1.7-.8 1.7-1.7 0-.9-.8-1.7-1.7-1.7-.9 0-1.7.8-1.7 1.7M216.2 144.6c0 .9.7 1.6 1.6 1.6.9 0 1.6-.7 1.6-1.6 0-.9-.7-1.6-1.6-1.6-.9 0-1.6.8-1.6 1.6M214.8 151.2c0 .9.7 1.5 1.6 1.5.9 0 1.5-.7 1.5-1.6 0-.9-.7-1.5-1.6-1.5-.9.1-1.5.8-1.5 1.6M212.8 157.7c0 .9.7 1.5 1.6 1.5.9 0 1.5-.7 1.5-1.6 0-.9-.7-1.5-1.6-1.5-.8.1-1.5.8-1.5 1.6M210.6 164.1c0 .8.6 1.4 1.4 1.4.8 0 1.4-.6 1.4-1.4 0-.8-.6-1.4-1.4-1.4-.8 0-1.4.6-1.4 1.4M208.1 170.3c0 .6.5 1.1 1.1 1.1.6 0 1.1-.5 1.1-1.1 0-.6-.5-1.1-1.1-1.1-.6 0-1.1.5-1.1 1.1M204.9 176.2c0 .6.5 1 1 1 .6 0 1-.5 1-1 0-.6-.5-1-1-1s-1 .5-1 1M201.6 182c0 .4.3.7.7.7.4 0 .7-.3.7-.7 0-.4-.3-.7-.7-.7-.4-.1-.7.3-.7.7M197.3 187.4c0 .5.4 1 1 1 .5 0 1-.4 1-1 0-.5-.4-1-1-1-.6.1-1 .5-1 1M192.9 192.6c0 .5.4.9.9.9s.9-.4.9-.9-.4-.9-.9-.9c-.4 0-.9.4-.9.9M188.5 197.5c0 .4.3.6.6.6.4 0 .6-.3.6-.6s-.3-.6-.6-.6c-.3-.1-.6.2-.6.6M183.1 202c0 .5.4.9.9.9s.9-.4.9-.9-.4-.9-.9-.9-.9.4-.9.9M177.9 206.1c0 .4.3.8.8.8.4 0 .8-.4.8-.8s-.4-.8-.8-.8c-.4.1-.8.4-.8.8M172.3 209.9c0 .4.3.8.8.8.4 0 .8-.3.8-.8 0-.4-.4-.8-.8-.8-.5 0-.8.4-.8.8M166.6 213.3c0 .3.3.6.6.6s.6-.3.6-.6-.3-.6-.6-.6c-.4 0-.6.3-.6.6M160.3 216.3c0 .4.3.7.7.7.4 0 .7-.3.7-.7 0-.4-.3-.7-.7-.7-.3-.1-.7.3-.7.7M153.9 218.8c0 .5.4.8.8.8.5 0 .8-.4.8-.8 0-.5-.4-.8-.8-.8s-.8.4-.8.8M147.7 220.9c0 .3.3.6.6.6s.6-.3.6-.6-.3-.6-.6-.6-.6.3-.6.6M141.1 222.6c0 .3.3.6.6.6s.6-.3.6-.6-.3-.6-.6-.6-.6.2-.6.6M134.4 223.8c0 .3.3.6.6.6s.6-.3.6-.6-.3-.6-.6-.6c-.3-.1-.6.2-.6.6M127.7 224.5c0 .4.3.7.7.6.4 0 .7-.3.6-.7 0-.4-.3-.7-.7-.7-.4.1-.6.4-.6.8M121.1 232.3c0 .3.2.5.5.5s.5-.2.5-.5-.2-.5-.5-.5-.5.2-.5.5M114.2 232.1c0 .3.2.5.5.5s.5-.2.5-.5-.2-.5-.5-.5c-.2 0-.5.2-.5.5M107.4 231.5c0 .3.3.6.6.6s.6-.3.6-.6-.3-.6-.6-.6-.6.3-.6.6M100.8 230.4c0 .3.2.5.5.5s.5-.2.5-.5-.2-.5-.5-.5-.5.2-.5.5M94.2 228.9c0 .3.2.5.5.5s.5-.2.5-.5-.2-.5-.5-.5-.5.3-.5.5M87.5 227c0 .3.3.6.6.6s.6-.3.6-.6-.3-.6-.6-.6-.6.3-.6.6M81.2 224.7c0 .3.3.6.6.6s.6-.3.6-.6-.3-.6-.6-.6c-.4 0-.6.3-.6.6M75.1 222c0 .2.2.4.4.4s.4-.2.4-.4-.2-.4-.4-.4c-.2-.1-.4.1-.4.4M69.1 218.9c0 .2.2.4.4.4s.4-.2.4-.4-.2-.4-.4-.4-.4.1-.4.4M63.4 215.4c0 .2.1.3.3.3.2 0 .3-.1.3-.3 0-.2-.1-.3-.3-.3-.1 0-.3.1-.3.3M57.8 211.5c0 .2.2.4.4.4s.4-.2.4-.4-.2-.4-.4-.4c-.3 0-.4.2-.4.4M52.5 207.3c0 .2.1.3.3.3.2 0 .3-.1.3-.3 0-.2-.1-.3-.3-.3-.1 0-.3.1-.3.3M47.5 202.7c0 .2.1.3.3.3.2 0 .3-.1.3-.3 0-.2-.1-.3-.3-.3-.2 0-.3.2-.3.3M42.7 197.9c0 .2.1.3.3.3.2 0 .3-.1.3-.3 0-.2-.1-.3-.3-.3-.1 0-.3.1-.3.3M38.3 192.7c0 .2.2.4.4.4s.4-.2.4-.4-.2-.3-.4-.3-.4.1-.4.3M34.1 187.3c0 .3.2.5.5.5s.5-.2.5-.5-.2-.5-.5-.5-.5.2-.5.5M30.3 181.6c0 .3.2.5.5.5s.5-.2.5-.5-.2-.5-.5-.5-.5.2-.5.5M27.1 175.7c0 .2.2.4.4.4s.4-.2.3-.4c0-.2-.2-.4-.4-.4-.1.1-.3.2-.3.4M24.2 169.6c0 .2.1.3.3.3.2 0 .3-.1.3-.3 0-.2-.1-.3-.3-.3-.2 0-.3.2-.3.3M21.7 163.3c0 .1.1.2.2.2s.2-.1.2-.2-.1-.2-.2-.2-.2.1-.2.2M19.6 156.9c0 .1.1.2.2.2s.2-.1.2-.2-.1-.2-.2-.2-.2.1-.2.2M17.7 150.3c0 .1.1.3.3.3.1 0 .3-.1.3-.3 0-.1-.1-.3-.3-.3-.1.1-.3.2-.3.3M16.3 143.7c0 .2.2.4.4.4s.4-.2.4-.4-.2-.4-.4-.4-.4.2-.4.4M15.4 137c0 .2.2.4.4.4s.4-.2.4-.4-.2-.4-.4-.4-.4.1-.4.4M14.8 130.2c0 .3.3.6.6.6s.6-.3.6-.6-.3-.6-.6-.6c-.4 0-.6.3-.6.6M14.7 123.4c0 .4.3.7.7.7.4 0 .7-.3.6-.7 0-.4-.3-.7-.7-.7-.4 0-.6.3-.6.7M15 116.6c0 .4.3.7.7.7.4 0 .7-.3.7-.7 0-.4-.3-.7-.7-.7-.4 0-.7.3-.7.7M15.9 109.9c0 .4.3.7.7.7.4 0 .7-.3.7-.7 0-.4-.3-.7-.7-.7-.4 0-.7.3-.7.7M17.1 103.2c0 .4.3.7.7.7.4 0 .7-.3.7-.7 0-.4-.3-.7-.7-.7-.4 0-.7.3-.7.7M18.9 96.6c0 .4.3.6.7.6.4 0 .7-.3.7-.7 0-.4-.3-.7-.7-.7-.4.2-.7.5-.7.8M20.7 90.2c0 .5.4.9.9.9s.9-.4.9-.9-.4-.9-.9-.9-.9.4-.9.9M23.2 83.9c0 .5.4.9.9.9s.9-.4.9-.9-.4-.9-.9-.9c-.4 0-.9.4-.9.9M26.3 77.8c0 .5.4.8.8.8.5 0 .8-.4.8-.8 0-.5-.4-.8-.8-.8-.5-.1-.8.3-.8.8M29.4 71.8c0 .6.5 1 1 1 .6 0 1-.5 1-1 0-.6-.5-1-1-1-.6 0-1 .5-1 1M33.1 66.1c0 .6.5 1 1 1 .6 0 1-.5 1-1 0-.6-.5-1-1-1-.6 0-1 .5-1 1M36.8 60.7c0 .7.6 1.3 1.3 1.3.7 0 1.3-.6 1.3-1.3 0-.7-.6-1.3-1.3-1.3-.7 0-1.3.6-1.3 1.3M41 55.5c0 .9.7 1.5 1.6 1.5.9 0 1.5-.7 1.5-1.6 0-.9-.7-1.5-1.6-1.5-.8 0-1.5.7-1.5 1.6M45.8 50.6c0 .8.6 1.4 1.4 1.4.8 0 1.4-.6 1.4-1.4 0-.8-.6-1.4-1.4-1.4-.8 0-1.4.6-1.4 1.4M50.7 46c0 .9.7 1.5 1.6 1.5.9 0 1.5-.7 1.5-1.6 0-.9-.7-1.5-1.6-1.5-.8.1-1.5.8-1.5 1.6M56.2 41.8c0 .7.6 1.3 1.3 1.3.7 0 1.3-.6 1.3-1.3 0-.7-.6-1.3-1.3-1.3-.7-.1-1.3.5-1.3 1.3M62.3 37.9c0 .4.4.8.8.8s.8-.4.8-.8-.4-.8-.8-.8c-.5 0-.8.3-.8.8M68.1 34.3c0 .4.4.8.8.8s.8-.4.8-.8-.4-.8-.8-.8c-.5 0-.8.4-.8.8M73.9 31.2c0 .5.4 1 1 1 .5 0 1-.4 1-1 0-.5-.4-1-1-1s-1 .4-1 1M80.2 28.4c0 .5.4.9.9.9s.9-.4.9-.9-.4-.9-.9-.9-.9.4-.9.9M86.6 26c0 .5.4.9.9.9s.9-.4.9-.9-.4-.9-.9-.9c-.6 0-.9.4-.9.9M92.8 24.1c0 .6.5 1.2 1.2 1.2.6 0 1.2-.5 1.2-1.2 0-.6-.5-1.2-1.2-1.2s-1.2.5-1.2 1.2M99.5 22.5c0 .6.5 1 1 1 .6 0 1-.5 1-1 0-.6-.5-1-1-1s-1 .5-1 1M106.3 21.4c0 .5.4 1 1 1 .5 0 1-.4 1-1 0-.5-.4-1-1-1s-1 .5-1 1M113.2 20.8c0 .5.4.8.8.8.5 0 .8-.4.8-.8 0-.5-.4-.8-.8-.8-.5-.1-.8.3-.8.8M120.3 20.5c0 .3.2.5.5.5s.5-.2.5-.5-.2-.5-.5-.5-.5.2-.5.5M127.3 20.7c0 .2.1.3.3.3s.3-.1.3-.3c0-.2-.1-.3-.3-.3-.2 0-.3.1-.3.3M134.1 21.3c0 .1.1.2.2.2s.2-.1.2-.2-.1-.2-.2-.2-.2.1-.2.2M140.9 22.4c0 .1.1.2.2.2s.2-.1.2-.2-.1-.2-.2-.2c-.2 0-.2.1-.2.2M147.2 23.9c0 .3.2.5.5.5s.5-.2.5-.5-.2-.5-.5-.5-.5.2-.5.5M153.8 25.8c0 .2.2.4.4.4s.4-.2.4-.4-.2-.4-.4-.4-.4.2-.4.4M160.2 28.1c0 .2.1.3.3.3.2 0 .3-.1.3-.3 0-.2-.1-.3-.3-.3-.1 0-.3.1-.3.3M166.1 30.8c0 .4.3.7.7.7.4 0 .7-.3.7-.7 0-.4-.3-.7-.7-.7-.4 0-.7.3-.7.7M172.2 33.9c0 .4.3.6.6.6s.6-.3.6-.6c0-.4-.3-.6-.6-.6-.4 0-.6.3-.6.6M178 37.4c0 .3.3.6.6.6s.6-.3.6-.6-.3-.6-.6-.6c-.3.1-.6.3-.6.6M183 41.3c0 .7.5 1.2 1.2 1.2s1.2-.5 1.2-1.2-.5-1.2-1.2-1.2-1.2.6-1.2 1.2M188.1 45.5c0 .8.6 1.4 1.4 1.4.8 0 1.4-.6 1.4-1.4 0-.8-.6-1.4-1.4-1.4-.7 0-1.4.7-1.4 1.4M193.5 50.1c0 .6.5 1 1 1 .6 0 1-.5 1-1 0-.6-.5-1-1-1-.5-.1-1 .4-1 1M198.1 54.9c0 .7.5 1.2 1.2 1.2s1.2-.5 1.2-1.2-.5-1.2-1.2-1.2-1.2.6-1.2 1.2M203.1 60.1c0 .3.3.6.6.6s.6-.3.6-.6-.3-.6-.6-.6-.6.2-.6.6M206.8 65.5c0 .6.5 1 1 1 .6 0 1-.5 1-1 0-.6-.5-1-1-1-.6 0-1 .5-1 1M210.5 71.2c0 .6.5 1 1 1 .6 0 1-.5 1-1 0-.6-.5-1-1-1s-1 .4-1 1M213.6 77.1c0 .7.6 1.3 1.3 1.3.7 0 1.3-.6 1.3-1.3 0-.7-.6-1.3-1.3-1.3-.7 0-1.3.6-1.3 1.3M216.8 83.2c0 .6.5 1 1 1 .6 0 1-.5 1-1s-.5-1-1-1c-.5-.1-1 .4-1 1M219.4 89.5c0 .6.5 1 1 1 .6 0 1-.5 1-1 0-.6-.5-1-1-1-.6-.1-1 .4-1 1M221 95.9c0 .9.7 1.5 1.6 1.5.9 0 1.5-.7 1.5-1.6 0-.9-.7-1.5-1.6-1.5-.8.1-1.5.8-1.5 1.6M223 102.5c0 .7.6 1.4 1.4 1.4.8 0 1.4-.6 1.4-1.4 0-.7-.6-1.4-1.4-1.4-.8 0-1.4.6-1.4 1.4M224.2 109.1c0 .8.6 1.4 1.4 1.4.8 0 1.4-.6 1.4-1.4 0-.8-.6-1.4-1.4-1.4-.8 0-1.4.6-1.4 1.4M225.1 115.9c0 .8.6 1.4 1.4 1.4.8 0 1.4-.6 1.4-1.4 0-.8-.6-1.4-1.4-1.4-.7-.1-1.4.6-1.4 1.4M225.5 122.6c0 .8.7 1.4 1.4 1.4.8 0 1.4-.7 1.4-1.4 0-.8-.7-1.4-1.4-1.4s-1.4.6-1.4 1.4M225.6 129.4c0 .8.6 1.4 1.4 1.4.8 0 1.4-.7 1.4-1.4 0-.8-.7-1.4-1.5-1.4-.7 0-1.3.6-1.3 1.4M225.3 136.2c0 .7.6 1.3 1.3 1.3.7 0 1.3-.6 1.3-1.3 0-.7-.6-1.3-1.3-1.3-.7 0-1.3.6-1.3 1.3M224.4 142.9c0 .7.6 1.3 1.3 1.3.7 0 1.3-.6 1.3-1.3 0-.7-.6-1.3-1.3-1.3-.7 0-1.3.6-1.3 1.3M223.4 149.6c0 .6.5 1.1 1.1 1.1.6 0 1.1-.5 1.1-1.1 0-.6-.5-1.1-1.1-1.1-.6 0-1.1.5-1.1 1.1M221.5 156.2c0 .7.6 1.3 1.3 1.3.7 0 1.3-.6 1.3-1.3 0-.7-.6-1.3-1.3-1.3-.7-.1-1.3.5-1.3 1.3M219.6 162.6c0 .6.5 1 1 1 .6 0 1-.5 1-1 0-.6-.5-1-1-1s-1 .4-1 1M217.5 168.9c0 .4.3.7.7.7.4 0 .7-.3.7-.7 0-.4-.3-.7-.7-.7-.4 0-.7.3-.7.7M214.5 175c0 .4.4.8.8.8s.8-.3.8-.8c0-.4-.4-.8-.8-.8-.5.1-.8.4-.8.8M211.1 181c0 .4.4.8.8.8s.8-.3.8-.8c0-.4-.4-.8-.8-.8s-.8.3-.8.8M207.5 186.7c0 .4.3.7.7.7.4 0 .7-.3.7-.7 0-.4-.3-.7-.7-.7-.4-.1-.7.3-.7.7M203.8 192.1c0 .2.2.4.4.4s.4-.2.4-.4-.2-.4-.4-.4-.4.2-.4.4M199.4 197.3c0 .2.2.4.4.4s.4-.2.4-.4-.2-.4-.4-.4-.4.2-.4.4M194.7 202.2c0 .2.2.4.4.4s.4-.2.4-.4-.2-.4-.4-.4-.4.2-.4.4M189.8 206.8c0 .2.1.3.3.3.2 0 .3-.1.3-.3 0-.2-.1-.3-.3-.3-.2 0-.3.1-.3.3M184.2 211c0 .3.3.6.6.6s.6-.3.6-.6-.3-.6-.6-.6c-.3.1-.6.3-.6.6M179 214.9c0 .2.1.3.3.3.2 0 .3-.1.3-.3 0-.2-.1-.3-.3-.3-.2.1-.3.2-.3.3M173 218.5c0 .2.2.4.4.4s.4-.2.4-.4-.2-.4-.4-.4c-.2-.1-.4.1-.4.4M167.2 221.6c0 .2.1.3.3.3.2 0 .3-.1.3-.3 0-.2-.1-.3-.3-.3-.2 0-.3.2-.3.3M160.8 224.4c0 .2.2.4.4.4s.4-.2.4-.4-.2-.4-.4-.4-.4.2-.4.4M154.4 226.8c0 .3.2.5.5.5s.5-.2.5-.5-.2-.5-.5-.5-.5.2-.5.5M148.1 228.7c0 .2.1.3.3.3.2 0 .3-.1.3-.3 0-.2-.1-.3-.3-.3-.2 0-.3.2-.3.3M141.5 230.3c0 .2.1.3.3.3.2 0 .3-.1.3-.3 0-.2-.1-.3-.3-.3-.2 0-.3.1-.3.3M134.8 231.4c0 .2.1.3.3.3.2 0 .3-.2.3-.3 0-.2-.2-.3-.3-.3-.2-.1-.3.1-.3.3M127.9 232.1c0 .2.2.4.4.4s.4-.2.4-.4-.2-.4-.4-.4-.4.1-.4.4M121.4 239.9c0 .1.1.2.2.2s.2-.1.2-.2-.1-.2-.2-.2-.2 0-.2.2M115 239.6c0-.1-.1-.2-.2-.2s-.2.1-.2.2M46.6 212.1c0 .1.1.2.2.2s.2-.1.2-.2-.1-.2-.2-.2-.2.1-.2.2M41.7 207.5c0 .1.1.1.1.1.1 0 .1-.1.1-.1 0-.1-.1-.1-.1-.1s-.1 0-.1.1M36.9 202.6c0 .1.1.2.2.2s.2-.1.2-.2-.1-.2-.2-.2-.2.1-.2.2M32.5 197.5c0 .1.1.2.2.2s.2-.1.2-.2-.1-.2-.2-.2-.2.1-.2.2M28.3 192c0 .2.1.3.3.3.2 0 .3-.1.3-.3 0-.2-.1-.3-.3-.3-.2 0-.3.2-.3.3M24.5 186.4c0 .2.2.4.4.4s.4-.2.4-.4-.2-.4-.4-.4-.4.2-.4.4M21.1 180.5c0 .2.2.4.4.4s.4-.2.4-.4-.2-.4-.4-.4c-.2.1-.4.2-.4.4M18.3 174.5c0 .1 0 .1.1.1s.1 0 .1-.1 0-.1-.1-.1-.1 0-.1.1M15.6 168.2c0 .1 0 .1.1.1s.1 0 .1-.1 0-.1-.1-.1-.1.1-.1.1M13.3 161.9c0 .1.1.1.1.1.1 0 .1 0 .1-.1s0-.1-.1-.1c-.1-.1-.1 0-.1.1M11.4 155.3c0 .1 0 .1 0 0 .1.1.2 0 .2 0h-.2M9.8 148.7c0 .1.1.1.1.1.1 0 .1-.1.1-.1 0-.1-.1-.1-.1-.1-.1 0-.1.1-.1.1M8.6 142c0 .1.1.2.2.2s.2-.1.2-.2-.1-.2-.2-.2-.2.1-.2.2M7.7 135.3c0 .2.1.3.3.3.2 0 .3-.1.3-.3 0-.2-.1-.3-.3-.3s-.3.1-.3.3M7.4 128.5c0 .2.2.4.4.4s.4-.2.4-.4-.2-.4-.4-.4c-.3 0-.4.2-.4.4M7.4 121.7c0 .2.2.4.4.4s.4-.2.4-.4-.2-.4-.4-.4c-.2.1-.4.2-.4.4M7.9 115c0 .2.2.4.4.4s.4-.2.4-.4-.2-.4-.4-.4-.4.1-.4.4M8.8 108.2c0 .2.2.4.4.4s.4-.2.4-.4-.2-.4-.4-.4c-.3 0-.4.2-.4.4M10.1 101.6c0 .2.2.4.4.4s.4-.2.4-.4-.2-.4-.4-.4-.4.2-.4.4M11.8 95c0 .2.1.3.3.3.2 0 .3-.1.3-.3 0-.2-.1-.3-.3-.3-.1 0-.3.1-.3.3M13.7 88.5c0 .3.3.6.6.6s.6-.3.6-.6-.3-.6-.6-.6c-.4.1-.6.3-.6.6M16.2 82.2c0 .2.2.4.4.4s.4-.2.4-.4-.2-.4-.4-.4c-.2-.1-.4.1-.4.4M19.2 76c0 .2.2.3.3.3.2 0 .3-.2.3-.3 0-.2-.1-.3-.3-.3-.2 0-.3.1-.3.3M21.9 70c0 .4.3.8.8.8.4 0 .8-.3.8-.8 0-.4-.3-.8-.8-.8-.4.1-.8.4-.8.8M25.6 64.2c0 .4.3.7.7.7.4 0 .7-.3.7-.7 0-.4-.3-.7-.7-.7-.4.1-.7.4-.7.7M29.2 58.7c0 .5.4 1 1 1 .5 0 1-.4 1-1 0-.5-.4-1-1-1s-1 .4-1 1M33.5 53.4c0 .5.4.9.9.9s.9-.4.9-.9-.4-.9-.9-.9-.9.4-.9.9M37.7 48.3c0 .7.5 1.2 1.2 1.2s1.2-.6 1.2-1.2c0-.7-.6-1.2-1.2-1.2-.7 0-1.2.5-1.2 1.2M42.5 43.5c0 .7.5 1.2 1.2 1.2s1.2-.5 1.2-1.2-.5-1.2-1.2-1.2-1.2.6-1.2 1.2M47.6 39c0 .7.5 1.2 1.2 1.2S50 39.7 50 39s-.5-1.2-1.2-1.2-1.2.6-1.2 1.2M53.3 34.9c0 .4.4.8.8.8s.8-.4.8-.8-.4-.8-.8-.8-.8.3-.8.8M59 31c0 .4.3.8.8.8.4 0 .8-.4.8-.8s-.4-.8-.8-.8c-.5 0-.8.4-.8.8M65.2 27.5c0 .2.1.3.3.3.2 0 .3-.2.3-.3 0-.2-.2-.3-.3-.3-.1 0-.3.1-.3.3M71.2 24.4c0 .2.2.3.3.3.2 0 .3-.1.3-.3 0-.2-.2-.3-.3-.3-.1-.1-.3.1-.3.3M77.5 21.6c0 .1.1.2.2.2s.2-.1.2-.2-.1-.2-.2-.2c-.1-.1-.2 0-.2.2M83.6 19.2c0 .3.2.5.5.5s.5-.2.5-.5-.2-.5-.5-.5-.5.2-.5.5M89.7 17.1c0 .5.4.9.9.9s.9-.4.9-.9-.4-.9-.9-.9c-.5.1-.9.5-.9.9M96.2 15.5c0 .6.5 1 1 1 .6 0 1-.5 1-1 0-.6-.5-1-1-1-.6 0-1.1.4-1 1M103.1 14.3c0 .4.3.7.7.7.4 0 .7-.3.7-.7 0-.4-.3-.7-.7-.7-.4-.1-.7.3-.7.7M110 13.4c0 .4.3.6.6.6s.6-.3.6-.6c0-.4-.3-.6-.6-.6-.4 0-.7.3-.6.6M116.7 13c0 .4.3.6.6.6s.6-.3.6-.6-.3-.6-.6-.6-.6.3-.6.6M123.8 13c0 .2.2.4.4.4s.4-.2.4-.4-.2-.4-.4-.4c-.3 0-.4.2-.4.4M130.7 13.4c0 .1.1.2.2.2s.2-.1.2-.2-.1-.2-.2-.2-.2.1-.2.2M137.6 14.1c0 .1 0 .1 0 0 .1.1.1 0 .1 0h-.1M144.2 15.3c0 .1.1.2.2.2s.2-.1.2-.2-.1-.2-.2-.2c-.1.1-.2.1-.2.2M150.8 16.9c0 .1 0 .1.1.1s.1 0 .1-.1 0-.1-.1-.1l-.1.1M157.4 18.9s0 .1 0 0c.1.1.1 0 .1 0s0-.1-.1 0c0-.1 0 0 0 0M163.7 21.3s.1 0 0 0c.1.1.1 0 .1 0 .1-.1.1-.1-.1 0 .1-.1 0-.1 0 0M169.8 24c0 .1.1.2.2.2s.2-.1.2-.2-.1-.2-.2-.2-.2.1-.2.2M175.8 27.1c0 .1.1.2.2.2s.2-.1.2-.2-.1-.2-.2-.2-.2.1-.2.2M181.3 30.6c0 .3.3.6.6.6s.6-.3.6-.6-.3-.6-.6-.6-.6.3-.6.6M187.1 34.4c0 .3.2.5.5.5s.5-.2.5-.5-.2-.5-.5-.5-.5.2-.5.5M191.9 38.5c0 .6.5 1 1 1 .6 0 1-.5 1-1 0-.6-.5-1-1-1-.6 0-1 .5-1 1M197.3 43c0 .4.3.8.8.8.4 0 .8-.3.8-.8 0-.4-.3-.8-.8-.8s-.8.3-.8.8M202.4 47.7c0 .3.2.5.5.5s.5-.2.5-.5-.2-.5-.5-.5-.5.2-.5.5M207 52.7c0 .3.2.5.5.5s.5-.2.5-.5-.2-.5-.5-.5-.5.3-.5.5M211.4 58c0 .2.1.3.3.3.2 0 .3-.1.3-.3 0-.2-.1-.3-.3-.3-.2 0-.3.2-.3.3M215 63.6c0 .4.3.7.7.7.4 0 .7-.3.7-.7 0-.4-.3-.7-.7-.7-.4 0-.7.3-.7.7M218.7 69.3c0 .3.2.5.5.5s.5-.2.5-.5-.2-.5-.5-.5-.5.2-.5.5M221.9 75.3c0 .3.2.5.5.5s.5-.2.5-.5-.2-.5-.5-.5c-.2 0-.5.2-.5.5M225 81.4c0 .2.1.3.3.3.2 0 .3-.1.3-.3 0-.2-.1-.3-.3-.3-.1 0-.3.2-.3.3M227.3 87.7c0 .3.3.6.6.6s.6-.3.6-.6-.3-.6-.6-.6c-.4.1-.6.3-.6.6M228.9 94.2c0 .6.5 1.1 1.1 1.1.6 0 1.1-.5 1.1-1.1 0-.6-.5-1.1-1.1-1.1-.6 0-1.1.5-1.1 1.1M231.1 100.8c0 .3.3.6.6.6s.6-.3.6-.6-.3-.6-.6-.6-.6.2-.6.6M232.4 107.4c0 .3.3.6.6.6s.6-.3.6-.6-.3-.6-.6-.6-.6.3-.6.6M233.4 114.1c0 .3.2.5.5.5s.5-.2.5-.5-.2-.5-.5-.5c-.2 0-.5.2-.5.5M233.9 120.9c0 .3.3.6.6.6s.6-.3.6-.6-.3-.6-.6-.6-.6.3-.6.6M234 127.7c0 .3.3.6.6.6s.6-.3.6-.6-.3-.6-.6-.6-.6.3-.6.6M233.7 134.5c0 .3.3.6.6.6s.6-.3.6-.6-.3-.6-.6-.6-.6.2-.6.6M233.1 141.2c0 .3.2.5.5.5s.5-.2.5-.5-.2-.5-.5-.5-.5.2-.5.5M232.2 147.9c0 .2.2.4.4.4s.4-.2.4-.4-.2-.4-.4-.4c-.3 0-.4.2-.4.4M230.2 154.6c0 .5.4.8.8.8.5 0 .8-.4.8-.8 0-.5-.4-.8-.8-.8-.4-.1-.8.3-.8.8M228.6 161.1c0 .3.3.6.6.6s.6-.3.6-.6-.3-.6-.6-.6-.6.3-.6.6M226.6 167.5c0 .2.1.3.3.3.2 0 .3-.1.3-.3 0-.2-.1-.3-.3-.3-.1 0-.3.1-.3.3M224 173.7c0 .2.1.3.3.3.2 0 .3-.1.3-.3 0-.2-.1-.3-.3-.3-.2 0-.3.2-.3.3M220.9 179.8c0 .2.2.4.4.4s.4-.2.4-.4-.2-.4-.4-.4c-.3 0-.4.2-.4.4M217.7 185.7c0 .1.1.2.2.2s.2-.1.2-.2-.1-.2-.2-.2c-.1-.1-.2.1-.2.2M213.9 191.4c0 .1.1.2.2.2s.2-.1.2-.2-.1-.2-.2-.2c-.1-.1-.2 0-.2.2M210 196.8c0 .1 0 .1.1.1s.1 0 .1-.1 0-.1-.1-.1l-.1.1M205.5 202c0 .1.1.2.2.2s.2-.1.2-.2-.1-.2-.2-.2-.2.1-.2.2M200.9 206.9c0 .1.1.2.2.2s.2-.1.2-.2-.1-.2-.2-.2c-.1.1-.2.1-.2.2M195.9 211.6c0 .1.1.2.2.2s.2-.1.2-.2-.1-.2-.2-.2-.2.1-.2.2M190.8 215.9c0 .1.1.1.1.1.1 0 .1-.1.1-.1 0-.1-.1-.1-.1-.1-.1 0-.1 0-.1.1M185.3 219.9c0 .1.1.1 0 0 .1.1.2 0 .2 0s0-.1-.2 0c.1-.1 0 0 0 0M179.6 223.6s.1.1 0 0c.1.1.2 0 .2 0 0-.1 0-.1-.2 0 .1-.1 0-.1 0 0M173.6 226.9c0 .1.1.2.2.2s.2-.1.2-.2-.1-.2-.2-.2-.2.1-.2.2M167.6 229.9c0 .1.1.1.1.1.1 0 .1-.1.1-.1 0-.1-.1-.1-.1-.1-.1 0-.1 0-.1.1M161.2 232.5c0 .1.1.2.2.2s.2-.1.2-.2-.1-.2-.2-.2-.2.1-.2.2M154.9 234.7s.1.1 0 0c.1.1.2 0 .2 0s-.1-.1-.2 0c.1-.1 0 0 0 0M148.4 236.5c0 .1 0 .1.1.1s.1 0 .1-.1 0-.1-.1-.1-.1.1-.1.1M141.7 238c0 .1 0 .1.1.1s.1 0 .1-.1 0-.1-.1-.1c0 0-.1 0-.1.1M135 239c0 .1.1.1.1.1.1 0 .1-.1.1-.1 0-.1-.1-.1-.1-.1s-.1 0-.1.1M128.2 239.6c0 .1.1.2.2.2s.2-.1.2-.2-.1-.2-.2-.2c-.1.1-.2.1-.2.2M1.8 147.1c0 .1 0 .1.1.1s.1 0 .1-.1 0-.1-.1-.1c0 0-.1 0-.1.1M.8 140.4c0 .1 0 .1.1.1s.1 0 .1-.1 0-.1-.1-.1c0 0-.1 0-.1.1M.2 133.6c0 .1.1.1.1.1.1 0 .1-.1.1-.1 0-.1-.1-.1-.1-.1l-.1.1M0 126.8c0 .1.1.1.1.1.1 0 .1-.1.1-.1 0-.1-.1-.1-.1-.1l-.1.1M.2 120.1c0 .1.1.1.1.1.1 0 .1-.1.1-.1 0-.1-.1-.1-.1-.1-.1-.1-.1 0-.1.1M.7 113.3c0 .1.1.1.1.1.1 0 .1-.1.1-.1 0-.1-.1-.1-.1-.1 0-.1-.1 0-.1.1M1.6 106.6c0 .1.1.1.1.1.1 0 .1-.1.1-.1 0-.1-.1-.1-.1-.1 0-.1-.1 0-.1.1M3 99.9c0 .1 0 .1.1.1s.1-.1.1-.1c0-.1-.1-.1-.1-.1-.1 0-.1 0-.1.1M4.4 93.3c0 .2.1.3.3.3.2 0 .3-.1.3-.3 0-.2-.1-.3-.3-.3-.1 0-.3.1-.3.3M6.5 86.8c0 .1.1.3.3.3.1 0 .3-.1.3-.3 0-.1-.1-.3-.3-.3-.2.1-.3.2-.3.3M9 80.5c0 .1.1.2.2.2s.2-.1.2-.2-.1-.2-.2-.2-.2.1-.2.2M11.8 74.3c0 .1.1.1.1.1.1 0 .1-.1.1-.1 0-.1-.1-.1-.1-.1s-.1 0-.1.1M14.7 68.2c0 .2.1.3.3.3s.3-.1.3-.3c0-.2-.1-.3-.3-.3-.1 0-.3.2-.3.3M18.2 62.4c0 .2.1.3.3.3.2 0 .3-.1.3-.3 0-.2-.1-.3-.3-.3-.2 0-.3.1-.3.3M21.6 56.7c0 .3.3.6.6.6s.6-.3.6-.6-.3-.6-.6-.6-.6.3-.6.6M25.8 51.3c0 .3.2.5.5.5s.5-.2.5-.5-.2-.5-.5-.5-.5.2-.5.5M29.8 46.1c0 .5.4.9.9.9s.9-.4.9-.9-.4-.9-.9-.9c-.6 0-.9.4-.9.9M34.2 41.1c0 .6.5 1 1 1 .6 0 1-.5 1-1 0-.6-.5-1-1-1s-1 .5-1 1M39.6 36.5c0 .4.3.6.6.6s.6-.3.6-.6c0-.4-.3-.6-.6-.6-.4-.1-.6.2-.6.6M44.6 32.1c0 .4.3.8.8.8.4 0 .8-.3.8-.8 0-.4-.4-.8-.8-.8-.5 0-.8.3-.8.8M50.4 28c0 .2.1.3.3.3.2 0 .3-.1.3-.3 0-.2-.2-.3-.3-.3-.1-.1-.3.1-.3.3M56.1 24.2c0 .2.2.3.3.3.2 0 .3-.2.3-.3 0-.2-.1-.3-.3-.3-.2-.1-.3.1-.3.3M62.2 20.7s0 .1 0 0c.1.1.2 0 .2 0-.1-.1-.1-.1-.2 0 0-.1 0-.1 0 0M68.2 17.6c0 .1 0 .1.1.1s.1 0 .1-.1 0-.1-.1-.1c-.1-.1-.1 0-.1.1M74.3 14.8c0 .1 0 .1.1.1s.1 0 .1-.1 0-.1-.1-.1c0 0-.1 0-.1.1M80.5 12.3c0 .2.1.3.3.3.2 0 .3-.1.3-.3 0-.2-.1-.3-.3-.3-.2 0-.3.2-.3.3M87 10.2c0 .2.1.3.3.3.2 0 .3-.1.3-.3 0-.2-.1-.3-.3-.3-.2 0-.3.2-.3.3M93.3 8.5c0 .3.2.5.5.5s.5-.2.5-.5-.2-.5-.5-.5-.5.2-.5.5M100.2 7.2c0 .1.1.2.2.2s.2-.1.2-.2-.1-.2-.2-.2-.2 0-.2.2M106.9 6.2c0 .2.1.3.3.3.2 0 .3-.1.3-.3 0-.2-.1-.3-.3-.3-.2 0-.3.1-.3.3M113.7 5.6c0 .2.1.3.3.3.2 0 .3-.1.3-.3 0-.2-.1-.3-.3-.3-.2 0-.3.1-.3.3M120.5 5.4c0 .1.1.2.2.2s.2-.1.2-.2-.1-.2-.2-.2-.2.1-.2.2M127.4 5.5c0 .1 0 .1.1.1s.1 0 .1-.1 0-.1-.1-.1l-.1.1M134.2 6.1c.1.1.1 0 .1 0s0-.1-.1 0c0-.1 0 0 0 0M141 7s0 .1 0 0c.1.1.1 0 .1 0h-.1M147.6 8.3c0 .1 0 .1 0 0 .1.1.1 0 .1 0s0-.1-.1 0c0-.1 0 0 0 0M185 23.7c0 .1.1.2.2.2s.2-.1.2-.2-.1-.2-.2-.2-.2.1-.2.2M190.7 27.4c0 .1.1.2.2.2s.2-.1.2-.2-.1-.2-.2-.2l-.2.2M195.9 31.5c0 .2.2.3.3.3.2 0 .3-.2.3-.3 0-.2-.2-.3-.3-.3-.1 0-.3.1-.3.3M201.3 35.9c0 .1.1.2.2.2s.2-.1.2-.2-.1-.2-.2-.2-.2.1-.2.2M206.1 40.5c0 .2.2.4.4.4s.4-.2.4-.4-.2-.4-.4-.4c-.3 0-.4.2-.4.4M210.9 45.4c0 .1.1.2.2.2s.2-.1.2-.2-.1-.2-.2-.2c-.1.1-.2.1-.2.2M215.3 50.6c0 .1.1.2.2.2s.2-.1.2-.2-.1-.2-.2-.2-.2.1-.2.2M219.5 56c0 .1.1.1.1.1.1 0 .1-.1.1-.1 0-.1-.1-.1-.1-.1-.1 0-.1 0-.1.1M223.1 61.6c0 .2.1.3.3.3.2 0 .3-.1.3-.3 0-.2-.1-.3-.3-.3-.2 0-.3.2-.3.3M226.8 67.5c0 .1.1.1.1.1.1 0 .1-.1.1-.1 0-.1-.1-.1-.1-.1-.1 0-.1 0-.1.1M229.8 73.5c0 .1.1.2.2.2s.2-.1.2-.2-.1-.2-.2-.2-.2.1-.2.2M232.7 79.7c0 .1 0 .1.1.1s.1 0 .1-.1 0-.1-.1-.1-.1 0-.1.1M235 86c0 .1.1.2.2.2s.2-.1.2-.2-.1-.2-.2-.2-.2.1-.2.2M236.9 92.5c0 .2.2.4.4.4s.4-.2.4-.4-.2-.4-.4-.4c-.2-.1-.4.1-.4.4M238.5 99c0 .3.3.6.6.6s.6-.3.6-.6-.3-.6-.6-.6c-.4.1-.6.3-.6.6M240.2 105.7c0 .1.1.2.2.2s.2-.1.2-.2-.1-.2-.2-.2-.2.1-.2.2M241.2 112.4c0 .1.1.2.2.2s.2-.1.2-.2-.1-.2-.2-.2c-.1.1-.2.1-.2.2M241.8 119.2c0 .1.1.1.1.1.1 0 .1-.1.1-.1 0-.1-.1-.1-.1-.1 0-.1-.1 0-.1.1M242 126c0 .1.1.2.2.2s.2-.1.2-.2-.1-.2-.2-.2-.2.1-.2.2M241.9 132.8c0 .1.1.2.2.2s.2-.1.2-.2-.1-.2-.2-.2c-.2 0-.2.1-.2.2M241.3 139.5c0 .1.1.2.2.2s.2-.1.2-.2-.1-.2-.2-.2c-.1.1-.2.1-.2.2M240.4 146.2c0 .1 0 .1.1.1s.1 0 .1-.1 0-.1-.1-.1l-.1.1M239 152.9c0 .1.1.3.3.3.1 0 .3-.1.3-.3 0-.1-.1-.3-.3-.3-.2 0-.3.2-.3.3M237.4 159.5c0 .1.1.2.2.2s.2-.1.2-.2-.1-.2-.2-.2-.2.1-.2.2M235.4 166c0 .1.1.2.2.2s.2-.1.2-.2-.1-.2-.2-.2c-.2 0-.2.1-.2.2M233.1 172.3c0 .1 0 .1 0 0 .1.1.2 0 .2 0-.1 0-.1-.1-.2 0 0-.1 0 0 0 0M230.2 178.5c0 .1.1.2.2.2s.2-.1.2-.2-.1-.2-.2-.2c-.1.1-.2.1-.2.2M227.2 184.6c.1.1.2 0 .2 0 0-.1-.1-.1-.2 0 0-.1 0-.1 0 0M223.8 190.4c0 .1 0 .1 0 0 .1.1.2 0 .2 0s-.1-.1-.2 0c0-.1 0 0 0 0M220 196.1s.1.1 0 0c.1.1.2 0 .2 0 0-.1 0-.1-.2 0 .1-.1 0-.1 0 0M216 201.5c0 .1 0 .1.1.1s.1 0 .1-.1 0-.1-.1-.1-.1.1-.1.1M211.6 206.7s.1.1 0 0c.1.1.1 0 .1 0h-.1c.1 0 0 0 0 0M207 211.7s0 .1 0 0c.1.1.2 0 .2 0s-.1-.1-.2 0c0-.1 0-.1 0 0M202.1 216.3c0 .1 0 .1 0 0 .1.1.1 0 .1 0h-.1M196.9 220.7c0 .1 0 .1 0 0 .1.1.1 0 .1 0h-.1M191.5 224.9c.1.1.1 0 .1 0 0-.1 0-.1-.1 0 0-.1 0-.1 0 0M185.9 228.6c0 .1 0 .1 0 0 .1.1.1 0 .1 0h-.1M180 232.1s.1.1 0 0c.1.1.1 0 .1 0h-.1c.1 0 0 0 0 0M174 235.2c0 .1 0 .1 0 0 .1.1.1 0 .1 0h-.1M167.8 238c0 .1.1.1 0 0 .1.1.1 0 .1 0h-.1c.1 0 0 0 0 0M161.5 240.5s0 .1 0 0c.1.1.1 0 .1 0 0-.1 0-.1-.1 0 0-.1 0 0 0 0M155 242.6s.1 0 0 0c.1.1.1 0 .1 0 0-.1 0-.1-.1 0 .1-.1 0-.1 0 0M4.3 72.6s.1 0 0 0c.1.1.1 0 .1 0 0-.1 0-.1-.1 0 .1-.1 0-.1 0 0M7.3 66.5c0 .1.1.1.1.1.1 0 .1 0 .1-.1s0-.1-.1-.1-.1 0-.1.1M10.6 60.6c0 .1 0 .1.1.1s.1 0 .1-.1 0-.1-.1-.1-.1 0-.1.1M14.1 54.8c0 .1.1.3.3.3.1 0 .3-.1.3-.3 0-.1-.1-.3-.3-.3-.2.1-.3.2-.3.3M18.1 49.3c0 .1.1.2.2.2s.2-.1.2-.2-.1-.2-.2-.2-.2.1-.2.2M22.1 44c0 .2.2.4.4.4s.4-.2.4-.4-.2-.4-.4-.4-.4.2-.4.4M26.6 38.9c0 .2.2.4.4.4s.4-.2.4-.4-.2-.4-.4-.4-.4.2-.4.4M31.4 34c0 .2.2.4.4.4s.4-.2.4-.4-.2-.4-.4-.4c-.3 0-.5.2-.4.4M36.4 29.4c0 .2.1.3.3.3.2 0 .3-.1.3-.3 0-.2-.1-.3-.3-.3-.1 0-.3.2-.3.3M41.7 25.1c0 .2.1.3.3.3.2 0 .3-.1.3-.3 0-.2-.1-.3-.3-.3-.2 0-.3.1-.3.3M47.3 21.1s.1.1 0 0c.1.1.2 0 .2 0 0-.1 0-.1-.2 0 .1-.1 0-.1 0 0M71.1 7.9c0 .1 0 .1 0 0 .1.1.1 0 .1 0h-.1M77.4 5.5c.1.1.1 0 .1 0 0-.1 0-.1-.1 0 0-.1 0-.1 0 0M83.8 3.3c0 .1 0 .1.1.1s.1 0 .1-.1 0-.1-.1-.1-.1.1-.1.1M90.3 1.5c0 .1.1.2.2.2s.2-.1.2-.2-.1-.2-.2-.2c-.2.1-.2.1-.2.2M97 .1s0 .1 0 0c.1.1.2 0 .2 0 0-.1-.1-.1-.2 0 0-.1 0-.1 0 0M231.1 59.8c.1.1.1 0 .1 0 0-.1 0-.1-.1 0 0-.1 0-.1 0 0M203 225.6c.1.1.1 0 .1 0 0-.1-.1-.1-.1 0 0-.1 0-.1 0 0M197.6 229.8c.1.1.1 0 .1 0 0-.1 0-.1-.1 0 0-.1 0-.1 0 0M192.1 233.6c0 .1 0 .1 0 0 .1.1.1 0 .1 0h-.1M186.3 237.2c0 .1 0 .1 0 0 .1.1.1 0 .1 0h-.1M180.4 240.5c0 .1 0 .1 0 0 .1.1.1 0 .1 0h-.1"/></svg>
