<svg xmlns="http://www.w3.org/2000/svg" viewBox="0 0 595.3 841.9"><path fill="#EC1D25" d="M300.4 470.7H299c-2-.8-4.1-.4-6.2-.9-.7-.1-1.4-.2-2.1-.2-1.7-.4-3.4-.9-5.1-.8-.9-.5-1.9-.5-2.9-.6-.4-.6-1-.3-1.5-.4-1-.6-2-.8-3.1-.9-1.4-.1-2.6-.9-4-.6-.3-.8-1-.5-1.5-.5-1-.9-2.3-.9-3.5-1.2-12-3.5-23.5-8.1-34.9-13.2-.6-.3-1.3-.6-2-.8-1.2-.6-2.4-1.3-3.8-1.6-1.2-1.1-2.9-1.5-4.3-2.3-2.3-1.2-4.6-2.5-7.1-3.5-.6-.6-1.4-.9-2.1-1.1-2.8-1.5-5.6-3.1-8.5-4.3-.5-.6-1.1-1-1.9-1-2.6-2-5.6-3.4-8.6-4.8-.3-.4-.7-.5-1.1-.6-2.7-1.8-5.5-3.4-8.5-4.7-4-2.6-8.3-4.7-12.4-7-4.6-2.6-9.4-5.1-14.1-7.6-.6-.3-1.2-.8-2-.9-.9-.6-1.8-1.3-2.8-1.6-.8-.4-1.7-.8-2.5-1.2-2.8-1.6-5.5-3.1-8.6-4.2-12.3-6-24.9-11-38.4-13.5-4.8-.9-9.6-1.4-14.5-1.4-4 0-8 .4-11.9 1.3-.5.1-1.1.2-1.8.3 0-1.3.5-2.3 1-3.2 2.3-4.5 5.4-8.5 8.7-12.3 6.1-7.1 12.7-13.7 19.5-20.1 5.2-4.9 10.4-9.7 15.8-14.3.6-.5 1.2-1 1.7-1.6 1-1.2.7-2.7-.8-3.3-.9-.4-1.9-.4-2.8-.5-3.2-.2-6.3-.1-9.6-.1 5.8-4.6 12.1-8.4 18.1-12.4 3.7-2.1 7.4-4.3 11-6.6 5.8-3.2 11.6-6.4 17.5-9.4 20.1-10.5 40.9-19.3 62.5-26.2.7-.2 1.6-.3 2.2-.8 1.1-.1 2.2-.4 3.2-.9 1.7-.3 3.5-.7 5.1-1.5 1.2 0 2.2-.4 3.3-.8 1.7-.4 3.4-.9 5.1-1.3 1.1.1 2-.5 2.9-.7 2.1-.4 4.1-.9 6.2-1.3 1.1-.2 2.1-.4 3.2-.7l6-1.2c1.1.1 2.2-.2 3.3-.5 2.1-.3 4.2-.6 6.4-.9 1.1-.1 2.2.3 3.2-.5h.4c1.7.1 3.3-.3 4.9-.5 1.5-.1 3.1.3 4.6-.4 1.8-.1 3.6-.1 5.4-.2 1.6.1 3.2.2 4.8-.4h16.1c1.4-.2 2.7.8 4.1.2 2.1 0 4.1.1 6.2.1 1.6 0 3.1.1 4.7.1 1.5.1 3 .5 4.5.4 2.2.2 4.4 0 6.5.5 1.2 0 2.4.1 3.5.1 2.8.5 5.7.9 8.6.9.5 0 1 0 1.5.1 1.2.9 2.7.3 4.1.7 2 .5 4 .5 6 .7 1.6.4 3.2.6 4.8.7 3.2.8 6.4 1.2 9.6 1.7 2.2.5 4.4 1 6.6 1.2 2.7.9 5.4 1.6 8.2 1.8 1.7.8 3.5 1 5.3 1.4 18 4.6 35.5 10.8 51.9 19.6 7.2 3.8 14.1 8.1 20.4 13.4.2.2.5.4.6.9-1.7.2-3.5.4-5.3.6-1.5.2-3 .5-4.5.8-.9.2-2 .3-2.2 1.5-.2 1.2.8 1.6 1.6 2.1 4.9 3.2 9.8 6.3 14.7 9.5 3.8 2.5 7.6 4.9 11.6 7.5-1.7 1.5-3.7 2.3-5.4 3.5-.6.4-1.2.7-1.8 1.1-1.8 1.3-2 3.3-.5 4.9.6.6 1.3 1.1 2 1.7 4.7 4.2 9.3 8.5 14 12.8.3.3.6.5.9.8.8 1 .8 2-.3 2.6-1.5.9-3 1.7-4.6 2.5-1 .5-2 .2-2.8-.8-5.2-6.4-11.1-12.1-17.2-17.6-8-7.2-16.6-13.7-25.7-19.5-.6-.4-1.2-1.1-2.1-.9v.1c.1-.4-.2-.4-.5-.5-.9-.5-1.9-.9-2.6-1.6-1.6-1.5-3.4-2.4-5.3-3.2-.5-.5-1.1-.8-1.8-1-.5-.6-1.3-.3-1.9-.8-2.7-2.2-5.8-3.3-9-4.5-3-1.8-6.3-2.9-9.5-4.2-10.6-4.1-21.6-7-32.9-8.6-3.7-.6-7.4-1.1-11.2-1.2-.5 0-1.1-.2-1.7.4 0 1.9 1.2 3.8 1.1 5.8-.4 1-.7 1.9-1.1 2.9-2.6 2.1-5.4 2.4-8.5 1.2-1.4-.6-2.9-1.1-4.2-1.8-8-4.8-16.7-7.4-25.7-9.3-9.7-2-19.5-2.8-29.3-2.4-11 .4-21.9 2.1-32.6 4.9-19.3 5.1-37.1 13.5-53.9 24.2-13.9 8.8-26.7 18.9-38.8 30-1.6 1.5-3.2 2.9-4.7 4.4-7.4 7.3-7 18.4.9 25.2 4.8 4.1 9.6 8.1 14.6 12 14.7 11.4 30.1 21.5 46.6 30.1 18.1 9.5 36.9 16.9 56.9 21.4 7.3 1.7 14.7 2.9 22.2 3.7 9 1 18 1.2 27 .8 11.8-.6 23.5-2.5 34.9-5.6 1.5-.4 2.6-1.4 4.3-1.7 5.5-.9 10.6-3.1 15.7-5.2 7.1-2.9 13.9-6.3 20.6-10.1.7-.4 1.2-1.1 2.1-.8-2.3 3.5-5.4 6.3-8.5 9-14.2 12.4-30.5 20.7-48.6 25.7-8.4 2.3-16.9 3.9-25.5 4.8-1 .1-1.9.3-2.8.4-1.7.1-3.5-.3-5.2.4-.8 0-1.6.1-2.5.1-1.8 0-3.6.1-5.4.1h-2.2c-2.2 0-4.2-.6-6.3-.3z"/><path d="M447.7 453.2c6.3-3 12.2-6.6 17.9-10.6 10.8-7.5 20.4-16.2 28.1-26.8 8.7-11.9 14.3-25 16.2-39.7 1.7-13.2 1-26.3-4.6-38.7-4.3-9.5-10.4-17.6-17.9-24.7-11.3-10.7-24.4-18.4-38.4-24.8-12.5-5.7-25.4-10.2-38.6-14-1-.3-2-.7-3-.4-.1-.3-.2-.5-.6-.6-4.8-1.3-9.5-2.9-14.4-3.8-.4-.1-.9-.1-1.3-.2-3.1-1.3-6.3-1.6-9.5-2.4-1.1-.3-2.3-.7-3.5-.4-1.3-.6-2.8-.6-4.2-1-1-.9-2.3-.5-3.4-.7-2.2-.5-4.4-1.2-6.7-1.2-1.7-.3-3.5-.7-5.2-.6-3.1-1.2-6.4-1.3-9.6-1.8-2-.4-4.1-.7-6.2-.6-2.3-1-4.8-1.2-7.3-1.2-2.6-.6-5.1-1.2-7.8-.8-2.6-1.1-5.3-1.1-8-1.2-2.2-.5-4.4-.7-6.7-.6-.1-.1-.2-.3-.3-.3-2.8-.2-5.5-.8-8.3-.6-1-.5-2.1-.3-3.1-.1-.2-.1-.4-.3-.6-.3-1.8-.7-3.8-.4-5.7-.6-4.2-.5-8.5-1-12.8-.9v-.5c1.3-.4 2.7-.3 4-.4 9.1-.7 18.1-1.3 27.3-1.6 9.5-.3 19-.4 28.5-.1 9.4.3 18.8.8 28.2 1.8 10.5 1 20.9 2.4 31.3 4.3 11.9 2.2 23.7 5 35.3 8.6 17.5 5.5 33.9 13.1 48.6 24.1 12 9.1 22 19.9 29 33.4 5.2 10 8.2 20.7 8.8 32 1 18-2.9 35-10.5 51.3-7.1 15.3-16.8 28.8-28.2 41.1-16.7 18.1-35.9 33.1-57.7 44.7-8.2 4.4-16.6 8.2-25.7 10.2-8.5 1.9-16.8 1.1-24.8-2.6-5.9-2.7-10.3-6.9-13.5-12.5l-1.5-2.4c-.7-1.8-1.3-3.5-2-5.3-.1-1.4-.9-2.8-.5-4.3h.1c23.3-.9 45.9-4.9 67.8-12.9 3.1-1.1 6.3-2.1 9.2-3.8.2 0 .5.1.7 0 3.7-1.9 7.6-3.4 11.1-5.5z"/><path fill="#FFF" d="M227.3 372.3c-.5-36.8 29.2-71.2 71.2-71.3 40.1-.1 71.4 32.2 71.4 71.5 0 39.9-32.7 72-72.8 71.2-39.6-.9-70.2-33.6-69.8-71.4z"/><path d="M227.3 372.3c-.5-36.8 29.2-71.2 71.2-71.3 40.1-.1 71.4 32.2 71.4 71.5 0 39.9-32.7 72-72.8 71.2-39.6-.9-70.2-33.6-69.8-71.4zm16.6-43.6l.2-.1c.8-.7 1.6-1.5 2.8-1.8 1.2 1.4 3 1.1 4.6 1.2-.2 1.4-1.6 2.7.3 4 1-1.1 2.1-2.1 2.5-3.5.5-2.2 1.2-4.4 3.4-6.3-3.2.3-4.3 1.8-4.4 4.8-1-1.5-1.9-.3-2.7-.4-.5-2.2 1.9-3.5 1.2-5.8-1.2.9-2.4 1.6-3.4 2.5-1.4 1.4-2.7 2.9-4.1 4.4-.4.1-.6.4-.7.8-.2.2-.5.4-.1.6 0-.1.3-.3.4-.4zm92.9 93.4c.4-.1.5-.3.3-.6 0-.1-.2-.1-.2-.1-.1.2-.3.4-.1.7-.2-.1-.4 0-.5.3-.3-.2-.6-.3-.8-.5-1.5-1.9-2.6-2.2-4.6-1.1-1.2.6-2.4 1.3-3.3 2.4-.6.8-1.3 1.1-2.3.9-1.6-.3-2.9 0-4.4.7-1.8.9-3.8 1.1-5.7.1 1.7-2.4 1.9-3.7.3-5.6-.9-1.2-1.1-2.2-.9-3.7.6-4.1 1.8-5.1 5.8-6 2.3-.5 5.4-.8 5.9-4.2.1-.7.7-1.4 1.6-.9.3.2.4.2.7-.1.6-.6 1.2-1 1.7-1.8 1.5-2.5 2.8-3.1 5.1-2.3 1-.6 1.4-1.7 2.1-2.6.7-.8 1.7-1.4 2.4-2.7 1.3 1.6 3 1 4.9 1.1-.9 1.4-1.7 2.6-2.4 3.7.5 1.1 1.4 1.4 2.3 1.9 1.9 1 2.4.8 3.3-1.1.2-.5.2-1.1.4-1.6.5-1.7 1-3.4 1.7-5.5.6 1.6.3 3 .9 3.9.9 1.3.7 2.4.5 3.8-.2 1.4-.1 2.9 1.1 4.1 8.5-13.7 11.8-28.4 9.9-44.3-2.2-17.7-10.3-32.1-23.8-43.7-.8-.7-1.5-1.1-2.6-1.1-1.4-.1-2.6-.7-3.3-2-1-1.9-2.8-3-4.7-4-.2.7-.7.9-1.4.8-.8-.1-1.6-.1-2.4-.1-.6 0-1.1.2-1.3.8-.2.7 0 1.3.5 1.7.6.5 1.3 1 2.2.6.8-.4 1.5-.4 2.3 0 1.9 1 3.9 2 4 4.6h-.7l-.6-.9c-.2-.7-.6-.8-1.3-.9.2.6.5 1.1.9 1.4v1.7c.1 3.1.1 3.1-2.9 4.3-.1.6-.3 1.1-.6 1.6-1.1 1.9-.8 2.8 1.1 3.8.7.4 1.5.6 1.4 1.6-.1 1.1-.7 1.8-1.6 2.3-.8.5-1.8.1-1.7-.9.2-1.7-.5-2.9-1.9-3.7-.3-.2-.4-.7-.6-1-.4-.9-1.1-1.2-1.9-.6-1.3 1-2 .5-2.6-.8-.4.9-1.6 1.2-1.1 2.3.5 1.2 1.4 1.6 2.7 1.2.3-.1.6.2.7.5.1.9-1.2.9-1.1 1.7.2.6.6.8 1.1.8 1.1 0 1.5.8 1.7 1.7 2.1 6.8-2 13.8-9.1 15.2-1.4.3-1.8.7-2 2.2-.2 1.7-.2 1.7-2.2 2.2 0-.1-.1-.1-.1-.2-.1-.8.5-1.3.8-2 .4-1 .1-1.6-.9-1.8-1.6-.3-2.8.4-3.8 1.5-.9 1-.5 2.1 0 3.1.7 1.4 1.9 2.3 3.1 3.3 1.8 1.4 2.4 5.3.7 6.8-1.5 1.4-3.1 2.7-4.7 4-.2.2-.4.1-.5 0-.6-.6.3-1.4-.4-1.8-.4-.5-1.2.4-1.5-.3-.8-1.6-2-2.9-3.4-4-1.3-1-1.7-1.1-2.4.4-1.3 2.7.3 7.2 2.6 8.9.7.5 1.3.9 2 1.4 1 .6 1.5 1.5 1.5 2.6 0 1.4.4 2.7 1.3 3.8.2.3.5.7 0 1.1l-.9-.3-.6-.3c-.4-.5-.9-1.1-1.5-1.3-2-1.2-3.3-2.8-3.4-5.3-.1-1-.6-2.1-1.6-2.6-1.4-.8-1.6-1.9-1.1-3.2.8-2.5 0-4.9-.3-7.3-.2-1.7-1.3-2.2-3.1-1.8-.7.1-1.4.5-2.1 0 .1-1.1.6-2.3-.2-3.4-.6-.8-.8-1.7-1.1-2.6-.4-1.3-1.8-2.4-3-2.2-1.3.2-2.5.1-3.8.1-1.3 0-2.3.5-3 1.6-1.1 1.6-2.6 2.7-4.3 3.7-.6.3-1.2.7-1.8 1.1-1.3.8-2.1 2.1-2.1 3.6 0 2.2-.8 4.2-1.5 6.2-.4 1.3-1.2 2.2-2.2 2.9-1.1-.8-1.3-1.9-1.6-3-.4-1.6-.8-3.3-1.2-4.9-.6-2.2-1.3-4.5-1.3-6.8 0-2-.9-3.5-2.3-4.8-.8-.7-1.9-1.6-1.8-2.7.1-1.3-.4-1.9-1.4-2.5-2 1.9-3.9.2-5.8-.1-1.2-.2-1-1.2-1.3-1.9-2.4 1.4-3.4.8-3.6-1.8-.1-.7.1-1.5-.5-2.2-1.8 2.6-1.1 5 0 7.3 1.1.1 1.4-1 2.3-1l.1.1c0 .8-.1 1.4.9 2 1.5.8 1.5 1.5.4 2.8-.4.4-.8.8-.9 1.4-.4 2.1-1.9 3-3.8 3.4-.6.1-1.4.3-1.6.9-.9 2-3 2.8-4.5 4.2-.6.5-1.3 1.1-2.3 1 .4-6.2 1.9-12.2 1.6-18.4-1.2 4-1.4 8.2-2.5 12.2-.7 2.6.8 5.2.2 7.8-.1.5.1 1 .4 1.3 1.7.8 2.4-1.7 4.1-1.3 0 1.5-1.2 2.5-1.5 3.8-.5 2.8-1.5 5.4-2.5 8-1 2.7-1.7 5.5-2.2 8.3-.5 2.6-.6 5.2 1 7.6.9 1.4 1.3 3.1 1.9 4.6.4.8.4 1.7.4 2.6-.2 2.8.2 5.3 1.8 7.8 13.8 21.6 38.8 33.9 64.8 30.9 11.7-1.4 22.2-5.5 31.7-12.3.5-.4 1.4-.6 1.4-1.5-.1-.1 0-.3 0-.7zm-59-116.6c1.6-.1 3.3-.1 4.9-1.4-1.9-.2-3.3.7-4.9.9-.7-.1-1.2.2-1.4.8.6.4 1.1.3 1.4-.3zm23.1-3.4c-1.6-.7-3.2-.8-4.8 0-3.3-.2-6.5.3-9.7.8-1.2.2-1.7.9-2.2 2 3.8-1.5 7.9-1.4 11.8-2.5 1.6 0 3.3 0 4.9.1 3 .4 5.9 1.5 8.9 1.7 1 .1 2 .4 3-.5-4-.9-7.9-1.8-11.9-1.6zM243 329.4c-1.4 1.3-2.4 2.9-3.4 4.5-.7 1.2-1.1 2.5.4 3.8 1.3-2 2.3-4 3.9-5.7-.6-.8-1.7-1.2-.8-2.2.3-.1.2-.2-.1-.4zm32.7-23.4l-.1.1c0 .1.1.2.1.3l.1-.1c0-.1-.1-.2-.1-.3zM464.2 359.7c4 6.5 7.2 13.3 8.8 20.8 2.1 9.7 1.4 19.2-2.6 28.4-.6 1.3-.6 1.3-1.8 2.3.6-2.3 1.1-4.4 1.4-6.5 2.1-15-1.7-28.6-10.1-41.1-.4-.5-.7-1.1-1.4-1.2-.1-.4-.1-.9-.3-1.1-1.5-1.9-3-3.7-4.5-5.5-.5-.6-.9-1.4-1.9-1.3 0-.5-.2-.9-.6-1.3-4.2-4.1-8.7-7.7-14.1-10-1.5-.7-3-1-4.6-.4l.1-.2c.1-.7-.2-1-.8-1.2-8.4-1.9-16.2-1.1-22.7 5.2-2.1 2-3.4 4.4-3.6 7.4-.5 1.1-.3 2.3-.1 3.5.1.8.2 1.5.3 2.3.1 1.1.5 2.1 1 3.1 1.8 3.9 3.8 7.8 5.3 11.9.4 1.1.5 2.3 1.3 3.2-.2 1.3.3 2.5.5 3.8 2.4 13.1-1.5 24.4-9.7 34.5-4.3 5.3-9.3 9.8-15.4 13-3.2 1.7-6.6 2.9-10.2 2.9-7.7.1-13.6-6-13.1-13.6.2-2.9 1.5-5.3 3.5-7.4 3.1-3.4 7-5.5 11.1-7.3.7-.3 1.5-.5 2.1-1.1 2-.3 3.8-1.1 5.4-2.2 2.7-1.2 5.3-2.5 7.2-4.8 2.5-.9 3.6-3.1 4.9-5.1.8-.5 1.1-1.4 1.6-2.2.8-2 2-3.9 2.2-6.1 1-6.2-1-11.8-3.3-17.3.2-1.1-.3-2.2-.5-3.3-.8-4.3-.8-8.7.1-13 .6-1.4 1.3-2.9 1.9-4.3 1.8-2.5 3.9-4.6 6.5-6.2.3-.2.8-.4.9-.7.6-1.9 2-2.1 3.8-1.9.9.1 1.7-.4 2.5-.7 1-.3 2-.4 3-.7.9.2 1.7 0 2.5-.4 3.8-.6 7.6 0 11.4.4 1 .3 2.1.7 3.2.9 3.9 1 7.3 3.1 10.9 5 .8.5 1.6 1.1 2.4 1.6 2.2 2 4.4 3.9 6.6 5.9 1.8 2 3.5 4 5.3 6v-.1c0 .1-.1.1 0 .2 0 .1.1.2.2.3.4.6.4 1.4 1.4 1.5-.1.5.1.8.5 1.1.5.6.2 2.3 1.5 3z"/><path fill="#707174" d="M219.3 472.5c-.4 0-.7.1-.9.6-.9 2.5-2.8 3.3-5.2 2.1-1.3-.6-2.5-1.2-3.1-2.8-.5-1.5-1.8-1.9-3.3-1.7-.3 0-.6.2-.9.2-4 .5-5.7-.6-6.9-4.5-.1-.2-.2-.4-.4-.7-.9.3-1.8.6-2.7.8-2.4.6-4.6-.3-5.8-2.3-1.1-1.9-.8-3.8 1-5 2.6-1.9 5.7-1.4 7.7 1.3.9 1.2 2 2 3.6 2.1.9 0 1.9.2 2.8.3 2.8.2 4 1.1 4.8 3.8.1.3.2.6.2.9 1.1.1 1.8-.6 2.7-.9 4.3-1.2 6.9 1 6.2 5.4.1.1.2.3.2.4z"/><path fill="#717275" d="M317.6 498.4c-2 4.6-5.8 5.6-10.5 2.8-.8.3-1 1.1-1.6 1.7-2.2 2.3-5.1 2.8-7.6 1.3-1.8-1.1-2.3-2.8-1.3-4.7 1.4-2.7 4.6-3.6 7.6-2.1.9.4 1.6 1 2.5 1.5.9-2.7 2.7-4.1 5.5-4.1 3-.1 4.1.6 5.2 3.1.6-4 2.8-5.5 6.6-4.7 1.3.3 2.3.9 2.6 2.2.3 1.5.1 2.9-1.2 3.9-1.9 1.7-5.4 1.6-6.8.1-.2-.5-.4-1-1-1z"/><path fill="#707174" d="M126.9 417.4c-2.5.1-4.4-.7-6.1-2.1-2-1.7-1.8-5.5-.1-6.9 3-2.6 6.3-4.3 10.5-3 2.4.7 3.6 2.5 4 4.9.4 2.4-.5 4.3-2.6 5.5-1.8 1-3.8 1.7-5.7 1.6z"/><path fill="#737477" d="M386.4 341.4c3.9.3 5.5 2.6 3 6.2 3 .3 4.7 1.3 5 3.2.2 1.9-1.6 2.1-2.8 3.1.7.4 1.3.2 1.8.2 2.2.2 3.5 1.4 3.4 3.3 0 1.7-1.2 2.8-3.4 2.9h-.7c-1.4 0-2.7-.2-3.3-1.8-.5-1.4-.1-2.9 1.3-4 .2-.1.3-.3.5-.4-5.7-1.8-5.3-3.8-3.4-6.1-1.3-.5-2.9.1-3.9-1.3-.9-1.4-.8-2.7.2-3.9-.9-.9-2-.9-3-1.2-1.2-.4-1.7-1.1-1.8-2.2-.1-1 .7-2.2 1.7-2.6 1.7-.7 3.3-.4 4.8.3 1.1.5 1.4 1.5 1 2.8-.1.5-.2.9-.4 1.5z"/><path fill="#707174" d="M148.2 461.2c0-2.5 1.2-4 2.9-4.9 2.9-1.6 6-1.9 9.2-.6 3.6 1.5 4.4 5.4 1.7 8.1-3.2 3.2-8.2 3.7-11.9 1-1.3-1-2-2.3-1.9-3.6z"/><path fill="#727275" d="M443.3 380.1c-3-1.2-4.1-3.4-3.3-5.9.6-2 4.7-3.1 6.7-2 .5.3 1 .5 1.5.8 2.1 1.6 2 4.2-.2 5.6-.7.5-1.5.8-2.4 1.1 1.9.3 3.7.6 5 2.3 1.5 2 1 4.6-1.3 5.5-2.3.9-5.4 1.1-7.6-1.6-1.3-1.5-1.2-2.6.3-3.9.2-.2.6-.3.7-.5.1-.5.3-1 .6-1.4z"/><path fill="#707174" d="M194.9 499.4c-2.8.1-5-.8-6.5-3.3s-1-4.8 1.1-6.6c3.3-2.7 9.1-2 11.5 1.4 1.8 2.5 1 5.8-1.6 7.4-1.4.8-2.9 1.2-4.5 1.1zM169.5 472.5c-1.4-.1-3-.5-4.5-1.3-3.3-1.8-2.7-6.1-.5-7.7 3.7-2.6 8.4-3 12.4.2 1.5 1.2 1.7 4.8.2 6-2.3 1.6-4.6 2.8-7.6 2.8zM138.5 314.6c-1.8.2-3.5-.3-5-1.2-3.4-2.1-3.3-6.6.3-8.5 2.9-1.6 5.9-1.6 8.9-.4 2 .8 3.3 2.4 3.3 4.5s-1.1 3.8-3.1 4.7c-1.3.7-2.8 1-4.4.9zM136.6 427c-1.5.1-3-.4-4.4-1.2-3.1-1.7-3.5-4.8-1.1-7.4 2.5-2.7 8.4-3.4 11.4-1.4 2.6 1.7 3 4.6.9 7-1.8 1.9-3.9 3.1-6.8 3zM148.5 425.4c1.4-.1 2.9.3 4.2 1.2 1.8 1.2 2.6 3.1 2.2 5.2-.1.3-1.9 2.7-2.2 3-2.8 2.3-8.6 2-11-.6-1.8-1.9-1.9-4.5 0-6.4 1.5-1.5 3.8-2.4 6.8-2.4zM211.2 490.8c1.2.1 2.9.4 4.3 1.6 2.9 2.5 2.6 6.7-.7 8.7-3.4 2.2-8.9.8-10.8-2.8-1.2-2.2-.7-4.4 1.4-5.9 1.3-.9 3.5-1.6 5.8-1.6z"/><path fill="#717275" d="M183.5 477.7c-1.2 0-2.4-.3-3.4-.9-3.1-1.8-2.9-3.7-1.6-7 .2-.5.6-.8 1-1 2.8-1.1 5.7-2.1 8.8-1.1 2.1.7 3.3 1.9 3.5 4 .3 2.2-.6 3.7-2.7 4.8-1.2.7-3.8 1.2-5.6 1.2z"/><path fill="#707174" d="M444.2 438.4c1.4-.2 2.5.1 3.6.5 2.2.8 3.7 2.9 3.7 4.8 0 2.1-1.8 4.5-4.1 5-2.8.7-5.5.4-7.8-1.8-1.4-1.4-2.4-2.9-1.8-4.9.7-2.2 2.4-3.3 4.6-3.7.6 0 1.3.1 1.8.1zM413.1 378c-.8-.9-.9-2.1-1.3-3.2-1.5-4.1-3.5-8-5.3-11.9-.5-1-.9-2-1-3.1.6.4 1.2.1 1.9 0 1.3 0 2.5 0 3.8.4 3.2 1.1 4 2.8 2.7 5.8-.4.9-.9 1.7-2 1.9-.5.1-1.1.2-1.4.9 1.8.2 3.5-.1 5.2.5 1.1.4 2.1.9 2.8 1.8 1.5 1.8 1.1 4.1-.9 5.4-1.4.9-3 .8-4.5 1.5zM227.1 493.7c1.5-.2 2.8.2 4 .8 1.9 1 2.8 2.5 2.7 4.6-.1 2-1.1 3.2-2.8 4.1-2.4 1.2-4.8 1.1-7.2.2-1.8-.7-2.9-2-3.1-3.9-.2-2 .5-3.6 2.2-4.7 1.3-.9 2.7-1.4 4.2-1.1zM200.1 472c2 0 3.8.5 5.1 2.1 1.4 1.6 1.5 3.7.2 5.3-3.6 4.2-9.2 3.1-12.3-.6-1-1.2-.5-3.6.7-4.7 1.5-1.2 4-2.1 6.3-2.1zM446.7 436.5c-1.9-.1-3.7-.7-5.2-1.9-2.3-1.8-2-6.7 1.6-7.6 2.4-.6 4.7-.8 7 .2 2.2 1 3.2 2.8 2.9 5.2-.2 1.9-1.3 3.1-3.7 3.7-.8.2-1.7.5-2.6.4zM158.8 435c1.6 0 3.2.1 4.6 1 2.2 1.3 2.8 4.4 1 6.3-2.2 2.5-6.9 3.1-9.7 1.2-1.8-1.2-1.9-3-1.7-4.9.3-1.7 1.8-3.2 3.5-3.5.8-.1 1.6-.1 2.3-.1zM441.9 419.8c0-2.8 2.1-5.1 4.8-5.4.7-.1 1.4-.2 2.1-.2 2.9-.2 6.4 3 4.5 6.6-2.3 4.5-7.8 4.3-10.6 1.4-.6-.7-.9-1.6-.8-2.4z"/><path fill="#717275" d="M243.2 505.6c-2.1 0-3.5-.4-4.7-1.3-2.5-2-2.3-5.8.5-7.5 2.5-1.5 5.2-1.6 7.8-.2 2.6 1.4 3 4.5 1.1 6.7-1.3 1.5-3.3 2.3-4.7 2.3zM186.7 399.1c-2.4.1-4.6-.2-6.4-2-1.4-1.3-1.6-3-.6-4.5 1.9-2.9 6.2-4.1 9.4-2.8 1.8.7 2.5 2.2 2.6 3.9.1 1.5-.8 2.7-2.2 3.5-.8.5-1.8.6-2.4 1.4-.3 0-.6.1-.4.5z"/><path fill="#737477" d="M209.6 410.7c-1.1-.3-1.9-.1-2.8-.4-2-.9-2.7-2.7-1.6-4.5 1-1.7 2.5-2.6 4.5-2.8 1.8-.2 3.4 1.3 3.4 3.2 0 .9-.2 1.7-1.1 3.2.7.5 1.6.3 2.4.6 1.5.5 2.4 1.4 2.4 2.6 0 1.2-1 2.5-2.3 3-1.2.4-2.5.4-3.8.1-2.1-.4-2.7-1.7-1.9-3.7.2-.4.5-.8.8-1.3z"/><path fill="#717275" d="M214.1 486.4c-1.4.1-2.7-.2-3.9-.9-2.1-1.4-2.4-4.5-.7-6.2 1.8-1.8 6.1-2.5 8.5-1.5 2.2.9 2.3 2.9 2.5 4.7.2 1.6-1.2 2.3-2.3 3-1.3.8-2.7 1-4.1.9zM259.6 466.6c-.6.1-.9.7-1.3 1.1-1.7 1.7-4.4 1.9-6.3.5-1-.7-.4-2-1-2.7-.9-.5-1.5.1-2.1.4-1.4.6-2.7.4-3.9-.2-1.8-.9-2.3-2.7-1.2-4.4.8-1.3 3.4-2.3 4.9-1.9 1.7.4 2.9 1.8 3.2 3.6 0 .1.2.3.3.4.6.3 1.1.1 1.6-.2 1.7-.7 3.3-.2 4.8.6.9.4 1.1 1.1 1 2v.8zM258.6 506.1h-.5c-2.9-.2-5-2-5.2-4.4-.1-2.4 2.3-4.9 5-5.2 2.5-.2 4.6.4 6 2.6 1.4 2.2.8 4.7-1.5 5.9-1.1.8-2.5 1.1-3.8 1.1zM170.7 452.3c-1.6-.1-3.2-.6-4.5-1.9-1.6-1.6-1.4-3 0-4.9 2-2.7 4.4-3.1 7.3-2.3 1.8.5 3.4 2.4 3.5 4.3.1 1.6-.9 3.1-2.6 3.9-1.1.6-2.2.9-3.7.9zM448.1 402.9c2.6.1 4.5 1.3 5.8 3.5.9 1.6.4 3.4-1.1 4.4-.4.3-.8.4-1.3.7-1.2.6-2.2 1.9-3.7 1.2-2-.9-3.9-2-5-4-1.1-1.9-.2-4.3 1.9-5.1 1.2-.4 2.3-.8 3.4-.7zM182.8 460c-2.6.1-4.6-.6-5.6-3-.8-1.7-.3-3.6 1.2-4.6 2.6-1.7 5.4-1.8 8.2-.5 2.6 1.3 2.7 5.3.2 7-1.2.9-2.6 1.3-4 1.1z"/><path fill="#707174" d="M195.9 346.2c1.7.1 3.7.4 4.6 2.8.5 1.4.3 2.7-.5 3.8-1.9 2.6-6.1 3.5-9.2 1.2-1.9-1.4-1.7-3.3-.3-5.5 1-1.5 2.9-2.3 5.4-2.3zM229.5 481.1c1.6-.2 3 .4 4.3 1.3 1.3.9 2.3 2 1.8 3.8-.4 1.7-1.1 3.1-3 3.6-2.8.8-5.1-.4-7.2-2-1.2-.9-1.6-2.7-1-4 .5-1 1.2-1.7 2.2-2.1.8-.4 1.8-.8 2.9-.6zM274.8 496.9c3.1 0 4.6 1.2 5.2 3.4.5 2-.7 4.2-2.8 5.3-1.6.8-3.3.9-4.9.3-1.8-.6-2.9-1.9-3.1-3.9-.2-2.1 1.1-3.4 2.7-4.4 1-.5 2.1-.8 2.9-.7zM195.5 365.9c-1.1 0-1.9-.7-2.8-1.2-1.5-.9-2.5-2.2-2.2-4.1.3-1.9 1.5-3.1 3.2-3.8 1.3-.5 2.6-.6 4-.4 1.9.3 3.2 1.4 3.8 3.2.5 1.6-.3 2.9-1.5 4-.7.6-1.4 1-2.3 1.3-.7.3-1.6.3-2 1.1l-.2-.1zM447.7 391.3c1 0 2 .1 3 .5 1.5.6 2.7 1.4 2.8 3.2.1 1.8-.6 3.2-2.3 4-2.7 1.4-6.2.9-8.4-1.3-1.2-1.2-1.2-3.3-.1-4.5 1.3-1.4 3-1.9 5-1.9z"/><path fill="#727275" d="M250.9 489.8c-.7-.4-1 .2-1.4.5-2.2 2.1-4.8 2.3-7.5 1.3-1.8-.6-2.7-2.1-2.6-4.1 0-1.7 1.2-3.1 3-3.5 1.5-.4 3.1-.6 4.7-.2 2.3.6 3.1 1.5 3.4 3.9 0 .4-.1.8.5 1-.1.4-.1.8-.1 1.1zM212.6 343.3c-.5-.6-.8-1-1.1-1.5-.2-.3-.3-.6-.4-.9-.4-1.8 1-3.3 3.2-3.7 2.4-.4 4.2.6 4.5 2.4.2 1.2-.2 2.2-1.3 2.9-.9.6-1.9.8-2.9 1.1.2.2.4.3.6.5 1.6 1.4 1.9 2.4 1 3.9-.8 1.3-3.2 2.3-4.6 1.9-2-.7-2.6-3.9-.9-5.3.5-.6 1.2-.9 1.9-1.3z"/><path fill="#717275" d="M427.4 320.9c1.9.8 3.8 1.8 5.3 3.2.7.7 1.7 1.1 2.6 1.6 0 .3.2.4.5.5v-.1c-.4 1.3.9 1.9 1.4 2.8-2.6 2.5-8.7 2.2-11.4-1.5-1.7-2.3-1.1-5 1.6-6.5z"/><path fill="#707174" d="M290.2 497.5h1c1.7.1 3.1.7 3.8 2.4.7 1.6-.1 3.9-1.5 5-2.1 1.8-5.6 1.7-7.7-.1-1.5-1.3-1.8-3.1-.7-4.7 1.3-1.9 3-2.8 5.1-2.6z"/><path fill="#717275" d="M187.1 398.6c1.9.2 3.7-.8 5.7-.1 1 .4 1.9.7 2.7 1.4 1.5 1.4 1.7 3 .6 4.7-.6.9-1.5 1.6-2.1 2.6-.5.8-2.4.6-3.1-.4-.9-1.2-2.2-1.8-3-3-.7-1.1-2.1-1.3-3-2 .2-1.4 1.5-1.7 1.9-2.7.1 0 .4-.1.3-.5z"/><path fill="#727275" d="M195.5 365.9l.1.1c1 0 1.9 0 2.9.1 2 .2 3.8 2.2 3.9 4.2.1 1.8-1.1 3.3-3.1 4-1.7.6-3.5.5-5.1-.2-2.4-1.1-3-4-1.2-6 .7-.9 1.6-1.5 2.5-2.2z"/><path fill="#707174" d="M447.7 453.2c-3.5 2.1-7.4 3.6-11.1 5.4-.2.1-.5 0-.7 0-2.3-2.1-2.3-5.1.1-6.9 3.7-2.8 8.6-2.2 11.7 1.5zM217.1 443.2c2.4 1 4.8 2.2 7.1 3.5 0 1.1-.3 2.2-.1 3.3-.5-.1-.6.1-.5.5-.7-.3-1.2.3-1.7.6-1 .4-1.9.8-2.9 1-3.3.7-5.3-.8-5.5-4.1 0-1 0-1.9.5-2.8.3-.1.4-.2.5-.5.8-.5 1.7-1 2.6-1.5zM445.8 340.1c-3.5-1.9-6.9-4-10.9-5-1.1-.3-2.1-.6-3.2-.9 1.2-2 3.4-2.6 5.4-3.1 3.8-.9 6.6 1.2 9 3.9.9 1 .8 2.4.2 3.6-.2.5-.8.8-.5 1.5z"/><path fill="#727275" d="M405.1 335.7c-1.3-.1-2.5-.2-3.5-1.3-1.1-1.2-1.9-2.7-1.4-4.3.5-1.6 2-2.2 3.5-2.5 2.7-.7 6.1.7 6.6 2.8.3 1.3.3 2.4-.6 3.3-1.2 1.2-2.6 2.2-4.6 2z"/><path fill="#707174" d="M250.9 489.8v-1c-.1-.9.3-1.6.9-2.1 2.1-1.8 6.1-2.3 8.5.1 1.3 1.3 1.5 2.8.5 4.3-1.7 2.6-7.1 3-9.2.6-.4-.5-.8-1.1-.7-1.9zM206.4 437.8c3 1.2 5.7 2.8 8.5 4.3 0 .9-.6 1.7-.5 2.6-.4 0-.6.1-.5.5-1.9.2-3.7 1.2-5.7 1-2.1-.1-3.5-1.1-4.7-2.7-.9-1.2.1-2.4-.1-3.6.4.1.5-.2.5-.5.8-.5 1.7-1 2.5-1.6z"/><path fill="#717275" d="M228.4 448.9c1.3.3 2.5 1 3.8 1.6 1 3.7-.1 5.8-3.7 6.8-3 .8-5.2-.8-5.4-3.9-.1-1.1.4-2 .5-3 .4 0 .5-.1.5-.5 1.4-.3 2.7-1.2 4.3-1z"/><path fill="#707174" d="M267.4 485.9c1.2-.1 2.3.1 3.2.8 2.2 1.5 2.1 4.6-.1 6-1.8 1.2-3.9 1.4-5.9.8-1.3-.4-2.3-1.2-2.5-2.6-.3-1.5.3-2.7 1.4-3.6 1.1-.9 2.4-1.5 3.9-1.4z"/><path fill="#717275" d="M219.2 472.5c.7.1 1-.3 1.4-.8 2.6-3.1 7-2.5 8.8 1.1.4.7.4 1.3 0 2-2.4 4.5-7.5 3.3-9.4.8-.7-1-.8-2-.8-3.1zM398.2 327.6c-1 0-2.1 0-3-.5-1.7-.8-2.3-1.8-2.2-3.6.2-1.8 1.1-2.8 2.8-3.4 1.7-.6 3.3-.1 4.9.4 1.4.4 2.4 2.3 2.2 3.6-.2 1.4-2 3.2-3.3 3.4-.4.1-.9.1-1.4.1z"/><path fill="#707174" d="M392.4 269.1c4.9.9 9.6 2.4 14.4 3.8.3.1.5.3.6.6-.6.4-1.3.9-1.9 1.4-3.3 2.5-6.8 2.4-10.1-.2-1.8-1.5-2.5-3.5-3-5.6zM198.8 383.7c-.7 0-1.4 0-2.1-.2-2.2-.8-3.1-3-1.9-5 1.1-1.9 3-2.5 5.1-2.5 2 0 3.1 1 4 2.6.7 1.3.6 2.3-.4 3.3-1.3 1-2.7 2.3-4.7 1.8z"/><path fill="#727275" d="M277.2 485.8c2.9-.3 4.7.4 5.6 2.3 1.4 2.7-.3 4.9-2.4 5.4-1 .3-2 .2-3.1 0-2.3-.6-3.5-1.6-3.5-3.3 0-2 1-3.4 2.9-4.1.3-.1.5-.2.5-.3zM367 443.2c-.4 1.8-1.8 2.2-3.2 2.3-1.6.1-3.2 0-4.4 1.4-.4.4-1 .3-1.5-.1-1.8-1.4-2.2-4.2-.4-5.6 3.2-2.6 6.2-3.2 8.6.6.3.4.6.9.9 1.4zM234.8 472.6c1.1 0 2 .3 2.8.7 2.1 1.1 2.5 4 .8 5.6-1.8 1.7-5.3 1.6-7.2.1-1.7-1.4-1.6-5.4 1.2-5.9.7-.3 1.5-.7 2.4-.5zM336.8 490.9c.5-.1.5-.5.6-.9.6-3.1 3.8-3.7 6-3.5 1.6.2 2.9 1.5 3.1 2.9.3 1.8-.3 3.1-1.9 4-1.9 1.1-3.9 1.1-5.9.1-.4-.2-.8-.6-1.3-.3.1-.9-.5-1.5-.6-2.3zM238.1 454.7c2.4 0 4.2 1.6 4.1 3.5-.1 1.9-2.5 4-4.4 3.8-1.3-.1-2.5-.2-3.6-1.1-2-1.8-1.5-4.7 1.1-5.7.9-.3 1.9-.6 2.8-.5zM439.1 363.6c2.1.1 4.2 0 5.6 1.9.8 1.1 1.4 2.1.8 3.5-.6 1.4-1.6 2-2.9 2.1-1.9.2-3.6-.2-5-1.7-1.6-1.7-1.5-3.3.3-4.7.4-.3 1.1-.4 1.2-1.1z"/><path fill="#717275" d="M393.5 341.9c-.8.1-1.9-.3-2.9-.6-1.4-.3-2-2.5-1.3-4.3.7-1.8 4-3.2 5.9-2.3.4.2.7.4 1 .6 1.3.7 2.4 1.5 2.1 3.3-.3 1.4-1.9 2.9-3.5 3.2-.3.1-.6.1-1.3.1z"/><path fill="#707174" d="M201.5 392.8c-.8 0-1.5.1-2.3-.4-1.1-.7-2-1.6-2-3 0-1.5.9-2.3 2-3 1-.6 2.2-.9 3.4-.8 2.4.2 3.7 1.3 3.7 3.4.1 2-1.3 3.5-3.4 3.8-.4.1-.9 0-1.4 0z"/><path fill="#717275" d="M394.5 316.9c.2.7-.3 1.3-.6 1.7-2 2.7-6.9 2.1-8.3-.9-.3-.7-.3-1.4 0-2.1.7-2.1 3.6-3.4 5.7-2.4.4.2.8.5 1.3.7 1.4.7 1.9 1.4 1.9 3zM336.8 490.9c.1.8.7 1.4.5 2.3-.6 2.5-3.2 4.4-5.6 4.1-1.4-.2-2.6-.9-3-2.4-.4-1.4-.3-2.8.9-4 1.9-1.6 5.2-1.6 7.2 0zM381.9 313.2c-2.7 0-4.4-1.1-4.7-2.6-.3-1.8.9-3.5 3.3-4.2.5-.2 1.1-.4 1.6-.4 2.2-.2 3.7 1.1 4 3.5.2 1.8-1 3.3-3 3.7-.4.1-1 0-1.2 0zM289.3 492.7c-3.5 0-5.2-2.4-3.9-5.1.9-1.8 2.7-1.8 4.3-2 1.3-.2 2.7.1 3.6 1.4 1.2 1.6.3 4.5-1.4 5.1-.9.3-1.9.7-2.6.6z"/><path fill="#707174" d="M195.9 432.1c3 1.4 6 2.8 8.6 4.8-.4.8-.7 1.6-.6 2.5-.3 0-.6.1-.5.5-1.6-.2-3.2.7-4.9.1-3.8-1.3-5-4.8-2.6-7.9z"/><path fill="#717275" d="M397.4 378.9c-3 0-4.7-1.7-4.4-4.3v-.5c.5-1.8 3.2-2.8 5.7-2.2 2.4.6 3.5 2.3 2.9 4.4-.4 1.6-2.1 2.6-4.2 2.6z"/><path fill="#727275" d="M439.1 363.5c-1 .1-2-.1-3-.5-1.9-.6-2.7-1.3-2.8-2.7-.1-1.6 1-3.3 2.5-4 1.5-.6 3-.4 4.3.4 2.2 1.3 2.3 3.9.3 5.6-.4.5-1.2.5-1.3 1.2z"/><path fill="#707174" d="M344.5 270.9c-2.9 0-5.8-.4-8.6-.9-.9-2.8.7-5.1 3.6-5.3.6 0 1.3 0 1.9.1 3.4.6 5.3 2.9 3.1 6.1z"/><path fill="#717275" d="M367.8 431.3c1.1.1 2.4.6 3.5 1.6 1.5 1.3 1.4 3.4-.2 4.5-1.3.9-2.7 1.3-4.3 1-2.2-.4-3.3-1.8-3.1-4 .3-2.2 1.6-3.3 4.1-3.1z"/><path fill="#707174" d="M282.1 253.7c4.3-.2 8.5.4 12.8.9 1.9.2 3.8-.1 5.7.6l.6.3c-1.2 2-3 2.8-4.9 1.9-.8-.3-1.5-.9-2.3-1.3-1.5-.9-2-.9-3.4.3-3 2.6-7.5 1.2-8.5-2.7zM414.7 314.6c3.2 1.2 6.3 2.3 9 4.5.6.5 1.4.2 1.9.8-2.5 1.6-5 3.3-8.3 1.9-1.8-.8-3-1.8-2.8-3.9.1-.6-.1-1.3-.3-1.9-.2-.5-.2-1.1.5-1.4z"/><path fill="#727275" d="M249.6 478.5c.1 1.9-2.6 4.3-4.5 3.9-1.3-.3-2.6-.5-3.4-1.9-1.2-2.2-1.2-3.3.9-4.5 1.5-.8 3.1-1.3 4.8-.6 1.3.5 2.1 1.6 2.2 3.1z"/><path fill="#737477" d="M255.8 483.5c-2.8 0-4.3-1.7-3.9-4.2.1-.8.5-1.4 1.1-1.8 1.8-1.1 3.6-1.5 5.6-.5 1.6.7 2.3 3.1.9 4.8-.9 1.2-2.1 1.7-3.7 1.7z"/><path fill="#707174" d="M204.8 401.5c-1 .1-2-.2-2.8-1.1-1.4-1.7-1.2-3.7.7-4.9 1.2-.8 2.6-1.1 4.1-.8 2 .5 2.9 1.4 2.9 3.4.1 1.8-.5 2.3-2.6 3-.8.3-1.5.4-2.3.4z"/><path fill="#727275" d="M403 382.2c-.2 2.2-1.4 4.1-2.2 6.1-2.1.4-4.1.3-5.6-1.6-1.7-2.1-1.2-4.2 1.4-5 1.6-.5 3.3-.8 4.8.3.6.3 1.1.4 1.6.2z"/><path fill="#717275" d="M321.3 269c-1.6 0-3.1-.1-4.7-.1-.3-.2-.6-.5-.9-.7-1.7-1.5-1.5-3.7.5-4.9 2-1.2 5.2-.6 6.8 1.1 1.2 1.3 1.1 2.3-.2 3.5-.5.4-1.2.5-1.5 1.1z"/><path fill="#737477" d="M304.1 488.2c-.1 1.1-.4 2-1.3 2.5-2.2 1.2-3.9 1.4-6-.1-1-.7-1.4-2.1-1.1-3.2.4-1.3 2.7-2.8 4.1-2.8 1.7 0 3.6 1.2 4.1 2.8.1.2.2.6.2.8z"/><path fill="#727275" d="M399.8 364.9c0 .2-.2.5-.1.7.1 1.8-.6 3.1-2.4 3.7-1.8.6-4.3.1-5.3-1-1.3-1.5-.8-3.9 1.1-4.8 2-1 4.5-.5 6.1 1.1.1.2.2.6.6.3z"/><path fill="#717275" d="M332.4 269.9c-2.2-.4-4.4-.3-6.5-.5-.1-.1-.2-.3-.2-.4-.3-.9-1.5-1.4-1.1-2.5.6-1.4 1.8-2.3 3.2-2.7 2.3-.6 4.3.2 5.9 1.9.7.7.9 1.7.1 2.5-.6.5-1.2.9-1.4 1.7z"/><path fill="#707174" d="M155 409.8c1.1.4 1.9 1 2.8 1.6 0 1.2-.1 2.4-.9 3.4-2.1 2.4-6.2 2-7.8-.8-.7-1.3-.4-2.5.9-3.2.8-.5 1.6-.7 2.5-.7.8-.1 1.7.3 2.5-.3z"/><path fill="#717275" d="M276.3 259c-1 .1-2.1-.3-3-.9-1.2-.7-1.6-2-1.3-3.5.3-1.3 1.1-1.8 2.4-1.9.9 0 1.7-.4 2.6-.3 1.9.3 3.7 2.1 3.5 3.6-.1 1.4-2.2 3-4.2 3z"/><path fill="#737477" d="M378.1 266.2c1.2-.3 2.4.2 3.5.4 3.2.8 6.5 1.1 9.5 2.4-2 2.4-4.7 3.4-7.7 2.7-2.7-.7-4.7-2.5-5.3-5.5zM387.7 327.1c.9-.1 1.8.3 2.6.8.7.4 1.1 1.1 1.3 1.9.2 1.4-.4 2.7-1.7 3.4-1.5.9-3.9.7-5.2-.4-1.1-.9-1.4-2.1-1.1-3.5.3-1.4 1.7-2.2 4.1-2.2zM277.2 485.8c-.1.1-.2.2-.4.2-.8-.9-2.2-.6-3.1-1.3-.6-.4-1.2-.7-1.6-1.4-.3-.8-.3-1.6-.1-2.3.4-1.4 1.8-2.1 3.9-2.1 2.2 0 3.8.8 4.1 2.2.3 1.5-.8 2.5-1.6 3.5-.3.4-1.2.3-1.2 1.2z"/><path fill="#707174" d="M356.1 272.3c-2-.2-4.1-.2-6-.7-1.4-.3-2.8.2-4.1-.7.3-2.7 2.8-4.7 5.7-4.2 3.3.6 5 2.6 4.4 5.6z"/><path fill="#737477" d="M309.8 490.2c-2-.3-3.3-.8-3.6-2-.4-1.6.4-3.3 2.1-4.1 1.4-.8 2.9-.7 4.3 0 1.7.8 2.2 2.7 1 4.1-.9 1.3-2.3 1.8-3.8 2z"/><path fill="#717275" d="M266.2 260.4c-2.9 0-4.6-1.6-4.2-4 .1-.6.3-1.1.7-1.5 1.4-1.3 5.1-1.2 6.5.2 1.6 1.6 1.1 4.1-1 4.9-.7.4-1.4.4-2 .4z"/><path fill="#727275" d="M266.1 484c-2.3 0-4.2-1.4-4.1-3.1 0-1.6 1.7-3 3.9-3.1h.2c2.4-.1 4.3 1.2 4.3 2.9.1 1.5-2.1 3.3-4.3 3.3z"/><path fill="#737477" d="M259.6 466.6v-.9c.8.4 1.3-.2 1.9-.6 1-.7 2.2-.9 3.4-.6 2.1.5 2.6 1.2 2.8 4.2-.9.3-1.3 1.2-2.2 1.6-3.4 1.5-5.8 0-5.9-3.7zM351 490.2c-1.7 0-3-1.2-3-2.7.1-2.2 2.3-4.2 4.6-4.2 1.7 0 2.9 1.3 2.9 3.1.1 1.9-2.1 3.8-4.5 3.8zM310.4 268.8c-1.4.6-2.7-.4-4.1-.2-.4-.7-.9-1.3-1.3-2-.7-1.3-.4-2.7.8-3.6 2-1.5 5.6-.6 6.6 1.7.5 1.1-.2 2-.8 2.8-.3.5-1.1.5-1.2 1.3zM433.6 348.7c2.4 0 3.6 1.2 3.6 3.5 0 2-1.3 3.2-3.6 3.2-2.1 0-4-1.8-3.9-3.7 0-1.8 1.7-3 3.9-3zM218.3 336.6c-.2 0-.6 0-1-.1-2.4-.5-3.2-1.5-2.6-3.6.6-2.2 2.8-3.5 4.7-2.8.4.1.7.4 1 .6 1.6 1 2.1 2 1.7 3.3-.5 1.5-2.1 2.6-3.8 2.6zM159.2 416.5c2 0 4 1.9 3.8 3.8-.1.7-.5 1.3-1.4 1.4-1.2.2-2.3.4-3.5.6-1.5.3-3.2-.7-3.5-2-.2-1 1.1-3 2.3-3.3.7-.3 1.5-.4 2.3-.5zM384.8 322.7c0 1.8-1.5 3.2-3.6 3.3-2.1.1-3.8-1.2-3.9-3-.1-1.8 1.3-3 3.7-3.1 2.5-.1 3.8.9 3.8 2.8z"/><path fill="#717275" d="M164.5 429.4c-.7-.1-1.4-.1-2.1-.4-2.1-.9-2.5-3.4-.7-4.7 1.2-.9 2.5-1.3 4-.8 1.9.6 2.7 1.4 2.7 3.1 0 1.5-1.2 2.6-3 2.8h-.9z"/><path fill="#737477" d="M432.4 342.6l-.1.2c-.4.8 0 1.6-.1 2.3-.1 1.6-.9 2.5-2.5 2.6-.9.1-1.7-.1-2.6-.3-1.8-.6-2.6-2.2-1.8-3.8.3-.6.7-1.2 1-1.9 2.3-.2 4.3-.2 6.1.9z"/><path fill="#727275" d="M255.8 256.5c2.4 0 3.4.6 3.9 2.3.4 1.4 0 2.5-1.3 3.1-1.4.6-2.9.6-4.4 0-1.3-.6-2.1-1.8-2-2.9.2-1.3 1.2-2.3 2.8-2.4.4-.1.7-.1 1-.1z"/><path fill="#737477" d="M170.2 429.5c.9.1 1.7.2 2.5.4 1.8.6 2.4 3 1.1 4.5-1.3 1.4-3.2 1.8-5 1-1.2-.6-1.8-1.8-1.5-3.1.3-1.7 1.4-2.8 2.9-2.8z"/><path fill="#727275" d="M372.4 315.6c1.3-.3 2.5-1.3 4-1 .9.2 1.7.5 2.3 1.1 1 .9 1.1 2.5.3 3.4-1.5 1.9-5.2 1.8-6.7 0-.9-1.2-.1-2.4.1-3.5z"/><path fill="#737477" d="M274 466.2c0 .5.5.5.8.8.9 1 .9 2.6-.1 3.6-.5.5-1.1.8-1.8 1.1-2.9 1.2-4.7.1-5.1-3 1.2-1.6 2.7-2.8 4.8-2.9.2.7.9.5 1.4.4z"/><path fill="#717275" d="M290.3 268.5c-1.6.5-3.2.5-4.8.4-.6-.7-1.1-1.5-1.5-2.4-.5-1.4-.3-2.1.9-2.7 1.3-.6 2.8-.8 4.2-.5 1.8.4 2.8 2.4 2 4.1-.2.4-.6.7-.8 1.1z"/><path fill="#707174" d="M451.7 354.4c1-.1 1.4.8 1.9 1.3 1.6 1.8 3.1 3.7 4.5 5.5.2.3.2.7.3 1.1-1.3.2-2.5.2-3.7-.2-4-1-5.1-4-3-7.7z"/><path fill="#717275" d="M299.4 268.5h-2.2c-.2-.5-.8-.5-1.2-.7-1.3-.8-1.8-1.8-1.4-3.4.2-1.2 1-1.7 2.7-1.7h1.9c1.4.1 2.4 1.1 2.6 2.3.2 1.5-.2 2.3-1.7 3-.2.2-.6.2-.7.5z"/><path fill="#737477" d="M285.7 484.9c-1-.2-2.2-.7-3.1-1.7-.5-.5-.6-1.1-.4-1.8.5-1.5 3.6-3 5.2-2.4 1.5.6 2.5 2.1 2.2 3.3-.3 1.3-2.2 2.6-3.9 2.6z"/><path fill="#727275" d="M319.8 487.4c-2.4 0-3.4-.7-3.6-2.1-.2-1.7.5-2.7 2.3-3.4.8-.3 1.6-.3 2.4-.2 1.5.2 2.5 1.1 2.5 2.4.1 1.4-.7 2.6-2.1 3.1-.6.2-1.3.2-1.5.2z"/><path fill="#717275" d="M186.3 426.9c3 1.3 5.8 2.9 8.5 4.7-2.3 2.6-7.6 2-9-1.1-.5-1.3-.4-2.6.5-3.6z"/><path fill="#76777A" d="M454.8 347.6c-2.2-2-4.4-3.9-6.6-5.9.4-1.4 1.6-1.1 2.6-1.1.9 0 1.7.4 2.5.7 3.3 1.1 4.1 2.9 2.9 6.4-.4-.1-.9-.1-1.4-.1z"/><path fill="#727275" d="M366.6 310.8c.9.3 1.7-.2 2.5-.4 2.2-.3 3.8.8 4.1 2.6.2 1.1-1 1.6-.8 2.6-.6-.3-1 .3-1.5.4-2.8.8-4.8-.9-4.7-3.8v-.9c.4.1.5-.1.4-.5z"/><path fill="#717275" d="M359.4 309.8c.4-1 .7-1.9 1.1-2.9 1.4-.8 3-.5 4.4-.4 1.1.1 1.6.9 1.7 2 .1.8 0 1.6 0 2.4-.4 0-.6.1-.5.5-.8-.2-1.3.6-2 .7-1.7.3-3.3-.4-4.7-2.3z"/><path fill="#76777A" d="M247 264.6c-2.3.1-4-1.1-4.1-2.8-.1-1.6 1.3-2.8 3.4-2.9 2.1-.1 3.5 1.1 3.6 2.9 0 1.8-1 2.7-2.9 2.8z"/><path fill="#727275" d="M281.1 467.7c.5.1 1.1-.2 1.5.4.7 2 .4 3.1-1.2 4.3-1.5 1.1-2.9 1-4.3-.1-1.5-1.2-1.6-2.4-.3-3.8.3-.3.6-.7 1.2-.8h3.1zM280.1 269c-1.5.7-3.1.3-4.6.4 0-.1 0-.2-.1-.2-.9-.9-1.9-1.8-1.3-3.3.4-1.1 2.3-1.9 3.9-1.8 1.4.1 2.5.7 3.1 1.9.6 1.3-.3 2.2-1 3zM140 316.6c-3.6 2.3-7.3 4.5-11 6.6 0-2.7 1.2-4.6 3.7-5.9 2.4-1.1 4.8-1.7 7.3-.7zM377.1 330.5c1.2 0 2.5-.2 3.6.6 1.1.9 1.6 2.1 1.1 3.3-.4 1.2-1.4 1.8-2.8 1.8-.4 0-.8-.1-1.2-.2-2.9-.8-3.3-1.8-1.6-4.3.2-.3.4-.5.3-.8.6.1.8 0 .6-.4z"/><path fill="#737477" d="M210.5 357.3c2.4 0 3.4.7 3.5 2.2.1 1.7-1 2.9-2.9 3.1-.5 0-1 .1-1.4 0-1.4-.2-2.2-1-2.3-2.3-.1-1.2.7-2.4 1.8-2.8.5-.2 1.1-.2 1.3-.2z"/><path fill="#727275" d="M211.8 350.6c1.6 0 3.2 1.4 3.1 2.9-.1 1.6-2.2 3.1-4 2.8-1.6-.3-2.8-1.5-2.7-2.8.1-1.4 2-2.9 3.6-2.9zM326.7 482.8c0-1.3.4-2.3 1.5-2.8 1.3-.5 2.6-.8 3.9-.1.6.3.8.9.9 1.6.1 1.3-.2 2.4-1.3 3.1-1.1.7-2.3 1.1-3.6.4-.9-.5-1.5-1.2-1.4-2.2z"/><path fill="#737477" d="M420.4 333.8c-.8.4-1.6.7-2.5.4-.2-.7-.9-.5-1.4-.7-1.2-.6-1.5-1.5-1.5-2.7 0-1.3.9-1.6 2-2 1-.3 1.9-.2 2.8.2 2 .8 2.4 2.2 1.3 3.9-.3.3-.8.4-.7.9zM237.2 262.2c.7 0 1.3 0 1.9.3.9.4 1.6 1.7 1.5 2.8-.1 1.1-1 1.8-2.5 2.1-1 .2-1.9-.2-2.8-.5-1.1-.4-1.8-1.6-1.7-2.6.2-1.1 1-1.8 2.3-2 .6-.1 1-.1 1.3-.1z"/><path fill="#717275" d="M363.7 263.3c2.3 0 4.5.8 6.7 1.2 1.1.2 2.4-.2 3.4.7-.7 2.1-3.3 3.3-5.7 2.5-2.2-.7-3.7-2.2-4.4-4.4z"/><path fill="#737477" d="M339 482.1c-1.8 0-2.6-.7-2.6-2.3 0-1.9 1.3-3.1 3.5-3 1.8 0 2.7.9 2.7 2.6 0 1.6-1.5 2.7-3.6 2.7z"/><path fill="#76777A" d="M381.7 472c1.2-1.2.7-2.5 1.1-3.6.8-2 3.1-2.8 4.7-1.4.9.7.7 1.7.5 2.6-.1.7-.3 1.7-1.3 1.8-1.5 0-3 .8-5 .6z"/><path fill="#737477" d="M184.2 441.8c.5 0 1 0 1.4.1 1.1.3 1.8 1.1 1.9 2.2 0 1.2-.6 1.9-1.7 2.3-.9.3-1.9.3-2.8.1-1.1-.2-2-.6-2.1-1.9-.1-1.2.7-2.4 1.9-2.7.5-.1 1-.1 1.4-.1zM351.2 476.9c-.1 1.7-1.7 3.4-3.2 3.3-1.3-.1-2.9-1.9-2.8-3.1.1-1.7 1.7-2.8 3.7-2.7 1.4.1 2.3 1.2 2.3 2.5zM177.1 436c1.9 0 3.4 1.4 3.3 2.8-.1 1.4-1.2 2.3-2.7 2.3-1.4.1-2.3-.9-3.4-1.5-.9-.5-.4-2.4.7-3 .7-.2 1.6-.4 2.1-.6zM409.4 324.5c.1-1.6 1.2-2.3 3.3-2.2 2 .1 3 1 2.9 2.7 0 1.4-1.4 2.5-3 2.5-2-.1-3.3-1.3-3.2-3z"/><path fill="#76777A" d="M296.2 479.1c1.8 0 2.7.9 2.7 2.6-.1 1.6-1.4 2.7-3.3 2.7-1.8 0-2.9-1-2.9-2.5.1-1.7 1.5-2.8 3.5-2.8z"/><path fill="#727275" d="M398.8 348.7c-1.4 1-1.9 1-2.8.2-1.1-.9-1.5-2.7-.9-3.9.7-1.3 2.4-2.2 3.9-2.2.8 0 1.1.5 1.4 1.1-.1 1.7-1.2 3.1-1.6 4.8z"/><path fill="#737477" d="M376.7 330.9c-1-.2-2.1.2-3.1-.1-1-.3-1.9-.8-2.2-2-.2-.9 0-1.8.9-2.3 1-.5 2-1 3.1-.3.4.3.8.5 1.2.8 1.7 1.2 1.8 1.6.5 3.4-.2.1-.5.1-.4.5zM227.9 270.3c-.6 0-1.3-.2-1.9-.6-1.3-.8-1.4-2.1-.4-3.2 1.6-1.6 3.4-1.5 5.2-.3 1 .7 1.1 2 .2 2.9-.7.9-1.8 1.3-3.1 1.2zM386.6 393.8c2.1 0 2.9.6 3 2.2 0 1.7-.9 2.6-2.9 2.7-.8 0-1.6 0-2.3-.5-1-.7-1.2-1.7-.9-2.8.2-.9.9-1.4 1.9-1.5.4-.1.8-.1 1.2-.1z"/><path fill="#727275" d="M285.5 468.7c1.8-.1 3.4.4 5.1.8v1c0 2.3-.9 3.1-3.2 3.1-2.4 0-4.2-2-2.4-4.3.3-.2.4-.4.5-.6z"/><path fill="#737477" d="M209.8 368.8c-2.1 0-2.9-.6-3-2-.1-1.4 1.1-2.7 2.6-2.8h1.2c1.6.1 2.4.7 2.4 2 .1 1.4-.7 2.4-2.1 2.7-.4.2-.9.1-1.1.1z"/><path fill="#727275" d="M270.6 270H266.9c-2.1-.9-2.7-2.7-1.2-3.9 1.4-1.1 4.7-.4 5.5 1.1.6 1.1-.1 1.9-.6 2.8z"/><path fill="#76777A" d="M370.5 274.7c-3.2-.4-6.5-.9-9.6-1.7.3-1.4 1.2-2 2.6-2 1.6 0 3.2-.3 4.7.4 1.4.7 2.4 1.6 2.3 3.3zM209.8 370.3c2.1 0 3.1.7 3.1 2.1.1 1.6-.9 2.5-2.7 2.6h-.5c-1.6 0-2.9-1-2.9-2.2 0-1.1 1-2.2 2.5-2.5h.5zM391.9 466.7c-1.4 0-2.2-.8-2.2-2.2 0-1.6 1.6-3 3.4-2.9 1.3 0 2.3 1 2.3 2.2 0 1.5-1.8 3-3.5 2.9z"/><path fill="#737477" d="M305.2 484c-1.6 0-2.9-1.2-2.8-2.6.1-1.2 1.5-2.3 3.2-2.3 1.8 0 2.6.6 2.6 2-.1 1.6-1.4 2.9-3 2.9z"/><path fill="#717275" d="M348.8 260.9c3.2.5 6.5.6 9.6 1.8-1.7 1.4-3.4 2.4-5.8 1.7-1.8-.6-3.3-1.5-3.8-3.5z"/><path fill="#76777A" d="M464.2 359.7c-1.3-.7-1-2.4-2-3.3 0-.4 0-.9-.5-1.1 0-.7-.3-1.2-.8-1.5-.1-.3-.2-.7-.6-.4v.1c.4-.3-.1-1 .3-1.3 2.5-.1 5 1.6 5.3 3.8 0 1.4-.3 2.9-1.7 3.7z"/><path fill="#727275" d="M143.9 404.4c3 1.1 5.8 2.6 8.6 4.2-.8.2-1.5.5-2.3.7-3 .9-4.9-.1-5.8-3.1-.2-.6-.6-1.1-.5-1.8z"/><path fill="#76777A" d="M387.7 392.3c-1.8 0-2.9-.8-2.9-2.4 0-1.5 1-2.3 2.9-2.3 1.5 0 2.7 1 2.8 2.4.1 1.2-1.2 2.3-2.8 2.3z"/><path fill="#727275" d="M191.6 447.1c1.7 0 2.6.5 2.7 1.7.2 1.2-.7 2.3-2.2 2.6-.5.1-1 .3-1.6.2-1.6-.4-2-.8-2-2.2 0-1.4.7-2.2 2.2-2.3.2-.1.6 0 .9 0z"/><path fill="#707174" d="M292.8 469.7c2 .5 4.2.1 6.2.9.1 1.8-1.1 2.8-2.6 3.3-2 .6-3.7-.9-3.7-3 0-.4 0-.8.1-1.2z"/><path fill="#76777A" d="M358.9 475.4c-.8-.2-1.5.4-2.3.4-1.8.1-2.8-1.3-2.1-2.9.6-1.4 2.5-2.3 3.9-1.7.8.3.9.9 1 1.7.1.9-.6 1.6-.5 2.5z"/><path fill="#737477" d="M260.5 271.4c-1.1.3-2.1.7-3.3.5-.1-.1-.2-.3-.3-.4-1.3-1.3-1.6-2.7-.9-3.5.9-1 3.6-1 4.6.2.8 1 .4 2.1-.1 3.2z"/><path fill="#76777A" d="M196.2 454.3c0-1.6.9-2.5 2.8-2.5 1.5 0 2.4.7 2.5 1.9.1 1.4-1.1 2.7-2.7 2.7-1.6.2-2.6-.7-2.6-2.1z"/><path fill="#737477" d="M404.1 317.3c1-.7 2-.8 3.1-.8 1.3.1 2 .7 2.1 2.1.1 1.1-.5 1.9-1.7 2.2-2.9.7-3.7-.2-3.5-3.5zM405.9 353.9c.3-1.3.8-2.6 1.9-4-.1 1.8.7 2.9 1.3 4.1 1.1 2.1-.3 4.2-2.7 4.1-.5 0-.4-.6-.6-.9.1-1 .1-2.1.1-3.3zM207.3 379.6c.9-2.5 1.5-2.8 3.9-2.7.9.1 1.6.3 1.8 1.2.2.9.2 1.7-.7 2.3-1.6 1.3-2.8 1.2-5-.8zM222.7 271.7c0 .9-.6 1.1-1.1 1.5-.9.7-1.9.8-2.9.2-1.4-.8-2.1-1.9-1.6-2.8.6-1.2 2.8-1.7 4-1 .7.5 1.3 1.2 1.6 2.1z"/><path fill="#727275" d="M369.7 321.3c1.9.1 2.8.8 2.8 2.2 0 1.5-1.2 2.4-3 2.3-1.6-.1-2.3-.8-2.3-2.1-.1-1.8.7-2.5 2.5-2.4z"/><path fill="#707174" d="M399.8 315.1c-.9.1-1.6-.3-2.1-1.1-.6-.9-.4-1.8.4-2.5.6-.5 1.3-.8 2.1-.9 1.6 0 2.4.7 2.5 2.2.1 1.4-.6 2.1-2.1 2.3-.3.1-.5 0-.8 0z"/><path fill="#76777A" d="M399.6 456.9c1.2 0 2 .8 2 1.9.1 1.6-1.2 3-2.8 3-1.1 0-1.9-.8-2-2 0-1.7 1.2-2.9 2.8-2.9zM385.4 385.4c-.2-2.8.6-3.8 2.8-3.7 1.4.1 2.3.8 2.3 1.9 0 1.2-1.2 2.4-2.5 2.5-.8 0-1.6-.4-2.6-.7z"/><path fill="#707174" d="M399.3 390.6c-1.3 2-2.4 4.2-4.9 5.1-1.7-2.2-.8-4.7 2.1-5.2.9-.2 1.9-.2 2.8.1z"/><path fill="#76777A" d="M317.2 479.4c0 1.4-1.3 2.7-2.8 2.7-1.1 0-1.9-.9-2-2-.1-1.3 1.1-2.5 2.5-2.6 1.2-.2 2.2.7 2.3 1.9z"/><path fill="#727275" d="M211.6 277.2c-.2 0-.7 0-1.1-.2-1-.4-1.4-1.2-1.3-2.3.1-1 .7-1.3 1.6-1.5.5-.1.9-.2 1.4-.1 1.5.3 2.3 1.1 2.2 2.3-.3 1.2-1.1 1.8-2.8 1.8z"/><path fill="#737477" d="M364.8 320.9c-1.6 0-2.6-.7-2.6-1.8 0-1.3 1.2-2.4 2.4-2.5 1.2 0 2.7 1 2.7 1.9.1 1.2-1.2 2.4-2.5 2.4zM362.8 470.3c.1-1.6 1.2-2.7 2.7-2.6 1.1 0 1.9.9 1.9 2-.1 1.3-1.5 2.7-2.9 2.7-1.1 0-1.8-.9-1.7-2.1zM211 387c-1.4 0-2.3-.7-2.3-1.8 0-1.3 1.2-2.3 2.8-2.3 1.3 0 2.1.8 2.1 2 0 1.4-1 2.2-2.6 2.1zM405.3 456.2c-1.3 0-2.1-.8-2.1-2 0-1.4 1-2.3 2.5-2.3 1.3 0 2.2.9 2.2 2-.1 1.2-1.3 2.3-2.6 2.3z"/><path fill="#707174" d="M300.4 470.7c2.1-.3 4.2.4 6.3.5-.7 2-2.5 3.2-4.5 2.8-1.4-.3-1.8-1.1-1.8-3.3z"/><path fill="#76777A" d="M206.2 460.5c-1.3.1-2.3-.8-2.2-1.9 0-1.2 1.2-2.2 2.6-2.3 1.1-.1 2 .7 2.1 1.8 0 1.3-1.1 2.4-2.5 2.4zM251.3 273.1c-1.1.2-2.1.4-3.2.7-.2-.2-.3-.4-.5-.5-.8-.8-1.4-1.6-.7-2.7.4-.7 2.2-1.4 2.9-1 .9.6 1.9 1.2 1.5 2.6v.9zM388.2 379.8c-1.8 0-2.4-.6-2.4-1.9.1-1.5.6-2 2.4-1.9 1.5 0 2.3.7 2.4 1.8-.1 1.3-1 2.1-2.4 2z"/><path fill="#727275" d="M387.7 373.7c-1.7 0-2.5-.5-2.4-1.6.1-1.1 1.4-2.4 2.6-2.3 1.2 0 2.2 1 2.2 2 .1 1.3-.6 1.9-2.4 1.9z"/><path fill="#737477" d="M372.6 467.8c-1.4 0-2.1-.6-2.1-1.7 0-1.4 1.2-2.3 2.8-2.3 1.3 0 2 .7 2 1.9-.1 1.3-1.1 2.1-2.7 2.1z"/><path fill="#707174" d="M319.5 257.1c2.7.1 5.4.1 8 1.2-2.9 2.7-5.4 2.3-8-1.2z"/><path fill="#76777A" d="M203.6 277.3c1.4-.1 2.2.8 2.2 2.2 0 1.1-.7 1.9-1.7 1.9-1.1 0-2.5-1.1-2.6-2.1-.1-1.1.8-2 2.1-2zM357.1 313.5c1-.9 2.1-.8 3.2-.8.8 0 1.3.4 1.5 1.2.1.7 0 1.3-.8 1.8-2.2 1.4-3.4.8-3.9-2.2z"/><path fill="#707174" d="M304.2 255.6c2.8-.2 5.5.4 8.3.6.1 0 .2.2.3.3-.4.7-1.2.6-1.8.9-2.9 1.4-4.7.9-6.8-1.8z"/><path fill="#737477" d="M322.7 477.1c.7-.4 1.4-.3 2-.3 1.6 0 1.9.3 2 1.7.1 1.2-.5 2-1.6 2.2-1.2.2-2.3-.5-2.6-1.6-.1-.7 0-1.3.2-2zM359.4 479.7c.7 1.8 1.3 3.5 2 5.3-1.8.5-2.4.4-3.1-.7-.9-1.3-.9-2.5.1-3.7.2-.4.6-.6 1-.9z"/><path fill="#76777A" d="M349.8 449.1c.7-1.1.7-2.7 2.2-2.9 1.5-.2 3.1-.4 4.5.8-.9 1.3-2.2 1.1-3.3 1.2-1.1 0-1.6 1.8-3.4.9z"/><path fill="#727275" d="M212.4 392.4c-1.1 0-2 .1-2.3-1.1-.2-1.2.4-1.8 1.4-2 .4-.1.7-.2 1.1-.3 1-.2 1.8.3 1.9 1.3.2.9-.4 1.7-1.3 2-.2.1-.6 0-.8.1zM335.3 259.1c2.5 0 5 .2 7.3 1.2-3.1 2.2-5.2 1.9-7.3-1.2z"/><path fill="#76777A" d="M217.9 402.3c0 1.1-1 2-2.2 2-.7 0-1.9-1.1-2-1.8-.1-1 1.2-2 2.5-1.9 1.3 0 1.7.5 1.7 1.7zM387 364.5c1.2 0 2.2.9 2.1 2 0 .8-1 1.6-2 1.6-1.2 0-2.1-.7-2.2-1.7 0-1.1.8-1.9 2.1-1.9zM241.9 275c-1 .2-1.9.8-2.9.7-.5-.9-1.5-1.7-.6-2.7.8-1 1.9-1.3 3.2-.8.4.8.8 1.7.3 2.8z"/><path fill="#737477" d="M196.6 285.4c-.8-.1-1.6-.4-2.2-1.3-.3-.6 0-1.1.4-1.5.8-.8 1.7-.9 2.6-.5.8.3 1.7.7 1.5 1.8 0 .8-1 1.5-2.3 1.5z"/><path fill="#76777A" d="M215.8 395.3c.2 2-.1 2.9-1.1 3.1-.8.2-1.6.2-2.2-.4-.6-.7-.6-1.5-.2-2.2.8-1.5 2.1-.8 3.5-.5z"/><path fill="#727275" d="M385.3 277.7c-2.8-.2-5.5-.9-8.2-1.8 1.6-.4 3.2-.8 4.9-.7 1.8.1 3 .7 3.3 2.5z"/><path fill="#76777A" d="M214.5 460.9c.1 0 .4 0 .7.1.7.1 1.1.6 1.1 1.3 0 .8-.4 1.4-1.2 1.5-.3.1-.6.1-.9.1-1.6 0-2.2-.4-2.2-1.5.1-1.1.6-1.5 2.5-1.5z"/><path fill="#717275" d="M387.2 400.6c-1.6 1.1-3.4 1.9-5.4 2.2.1-.4.2-.8.3-1.1 1.5-2.6 2.5-2.8 5.1-1.1z"/><path fill="#76777A" d="M188.4 289.4c-.4-2.4.2-3 2.2-2.7.8.1 1.3.6 1.3 1.4 0 .8-.4 1.4-1.2 1.5-.8.2-1.6.3-2.3-.2zM308.9 471.2c1.8 0 3.6-.1 5.4-.1-.1.9-.7 1.4-1.4 1.8-2 1.2-3.3.6-4-1.7zM385.9 362c-1 0-1.8-.6-1.9-1.5 0-.8.8-1.6 1.8-1.6.9 0 1.9.8 1.9 1.5 0 .8-.9 1.6-1.8 1.6zM316.7 471c1.7-.7 3.5-.3 5.2-.4-1.6 2.5-3.4 2.7-5.2.4zM233.8 277c-1.1.4-2.1.7-3.3.8-1-.9-.4-1.7 0-2.6 1 .1 2 .1 2.8.1.6.6.4 1.2.5 1.7zM385.8 354.2c-.3 2.5-.9 2.8-3.2 1.3.8-2.2.8-2.2 3.2-1.3zM217.2 406.4c.8 0 1.6-.3 2.4.3.3.9.3 1.9-.7 2.4-.5.3-1.3.2-1.7-.4-.6-.8-.5-1.6 0-2.3zM221.3 414c-.9-.1-1.6-.1-1.6-1.1 0-.8.4-1.4 1.3-1.3.8.1 1.6.3 1.6 1.4 0 .9-.6 1.1-1.3 1zM225.5 279.2c-1 .5-2.1.8-3.2.9-.3-.9 0-1.6.9-2 1-.3 1.6.4 2.3 1.1zM382.5 350.6c-.7.1-1-.3-1-1s.4-1 1-1c.7-.1 1.2.3 1.2.9.1.8-.5 1.1-1.2 1.1zM281.1 467.7h-3.2c0-.3.1-.6.1-.9 1.1.2 2.2.3 3.1.9zM266.8 270h3.3c-1 .8-2.1.3-3.2.5 0-.2-.1-.4-.1-.5z"/><path fill="#707174" d="M282.1 253.2v.5c-.2 0-.4-.1-.4-.3.1-.2.3-.2.4-.2z"/><path d="M300.9 302.1v.5c-1.6 0-3.3 0-4.9-.1 0-.1 0-.2.1-.4 1.5-.8 3.1-.7 4.8 0zM277.8 305v.5c-.4.5-.8.6-1.4.3.3-.6.7-.9 1.4-.8zM332.3 319.7c-.6-.2-1-.6-1.2-1.3h.7c.2.3.5.6.7.9 0 .1-.1.2-.2.4zM244.3 327.6c-.1.3-.1.7-.2 1l-.2.1c-.1-.1-.2-.2-.3-.4.1-.3.3-.6.7-.7z"/><path d="M243.9 328.7c-.2.1-.4.3-.5.3-.4-.3-.1-.5.1-.6.2.1.3.2.4.3zM243 329.4c.3.1.4.3.1.5-.3-.1-.4-.2-.1-.5zM275.7 306c0 .1.1.2.1.3l-.1.1c0-.1-.1-.2-.1-.3-.1 0 0-.1.1-.1zM325.4 373.3c-1.2.5-1.4 1.8-2.6 2.2.6 1.4 0 3.1 1.7 4.2-.6.2-.9.2-1.2.3-1.3.6.3 2.5-1.4 3.2-1.2.5-.9 2-.9 3.1-1 1-1.9 1.4-3.3.6-1.1-.6-2.5 0-3.7-.4-1.1-.4-2.1-.5-2.3-1.9-.1-.8-1.4-1-1.4-2.1.1-1.2 0-2.4 0-3.5.5-.6 1.1-.3 1.6-.3.6 0 1.3 0 1.3-1 0-.8.7-.7 1.3-.8 1-.1 1.8-.5 2.2-1.5.2-.6.7-1 1.3-1.3 1-.4 1.7-1 2.1-2.1.3-1 1.3-1.2 1.9-.5 1.1.9 2.2 1.2 3.4 1.8zM343.1 380.8c.2 1.1-.2 2.2.7 3 .7-.1 1.2-.6 1.5-1.1.9-1.3 2-1.4 3.4-1 1.4.5 2.7.9 4 1.4 1.3.5 2.2 2.6 2 4.3 0 .3 0 .5.1.6 1.1.9 1.1 2.4 2 3.5-1 .4-1.8.3-2.1-.9-.2-.9-.8-1.5-1.9-1.8-.6 1.4-1.5 2.6-3.2 2.8-1.3-1.2-1.3-1.2-3.7-.6-.1-.8.5-1.3.8-1.9.8-1.5.4-2.6-1.2-3.1-.9-.3-1.8-.6-2.6-1.1-.6.1-.6.8-1.2.8-.8-1.5-1-3.4-2.6-4.5 2.3-.8 2.3-.8 4-.4zM302 380.7c.2.1.5.1.7.2-.2 1.7.6 3.1 2 3.7 1.8.9 1.8 2.1 1.5 3.7-.1.5-.2.9-.2 1.2-1.6 1.4-2.7.6-4-.4-1.6-1.2-2.8-2.7-3.9-4.4-1.1-1.7-1.9-3.8-3.3-5.1-1.5-1.4-2.5-3.2-4.3-4.2-.6-.3-.9-.9-.8-1.6.8-.3 1.7-.2 2.6-.2.5 0 1 0 1.3.5 1.4 2.8 4.1 4 6.7 5.3.4.7 1.1 1 1.7 1.3zM332.8 379c-1 1.5-2.1 2.1-3.5 1.7-.7-.2-1.4-.5-2.1-.1-.6.3-1.1.8-.8 1.5.3.7.8 1.1 1.5.6.8-.6 1.7-.8 2.8-.6-.3.3-.6.6-.9.7-1.3.6-1.5 1.5-1 2.7.2.5.4 1 .3 1.6 0 .7-.5.9-1.2.9-.4-.8-.3-1.9-1.2-2.7-.8 1.3-.1 2.9-.8 4.3-1.2.1-1.1-.7-1-1.5.2-1 .3-2-1.3-2.1 1.1-1.6 1.4-3.2 1.6-4.9.2-1.7.6-2 2.4-2 1.7-.2 3.3-.1 5.2-.1zM319.3 394c-1 .3-1.9 0-2.9-.2-.9-.2-1.7-.4-2.6-.3-2.2.3-4.2-.5-6.4-.6-1-.1-1.7-.7-2.5-1.3.9-1.2 1.9-1.2 3-.7 1.2.5 2.3.5 3.5.2.7-.2 1.5-.2 2.1-.1 1 .3 2.3-.1 3 1.3.7 1 2.4.3 2.8 1.7zM331.6 362.5c.6.2.8.7.9 1.3.3 1.9 1 3.7 1.7 5.6-.5.8-1.7 1.4-1.2 2.6-1.9.5-2-.9-2.3-1.8-1-.4-1.4.7-2.2.5-.5-.7-.1-1.3.1-2.1.9-.2 1.8-.5 2.8-.7.4-1.6-.2-3.3-.3-4.9.3-.2.4-.4.5-.5zM331.1 333.2c.3-1.1 1.1-1.6 2-1.7 1.3 0 2.3-.2 2.6-1.8.1-.4.6-.7 1-1.1.3-1-1.1-1.7-.6-3 1.2.3 2 1 2.2 2.2.2 1 .1 2 .8 2.9-1 1.4-2.2 2.1-3.9 1.6-.5-.1-.8 0-1.1.3-.9.7-1.8.8-3 .6zM326.9 362.4c-1.1-1-.8-2.2-1.9-2.6-.4-.1-.5-.9-.3-1.3.7-1.4.5-2.7.2-4.1-.1-.3.3-.6.5-.7 2 1 2.5 2 1.9 3.9-.3.8-.5 1.4-.2 2.3.3.5 0 1.3-.2 2.5zM330.6 393.8c-1.7.4-3.3.6-5.4-.5 2.3-.7 4.3 0 5.8-1 .7.4.2.9.5 1.1h.1c-.6-.5-1-.3-1 .4zM324.2 349.1c-1.5-2.5-1.5-2.8.3-4.4.6 1.6.5 2.9-.3 4.4zM334.5 325.1c0-1.3.2-2.2-.7-3.3 1.6.5 2.6 1 3.5 1.7-.6 1.3-2 .2-2.8 1.6zM336.1 381.2c-.4-3.2-.4-3.2.5-4.2 1.2.8.2 2.2.9 3.1-.5.3-1 .7-1.4 1.1z"/><path d="M331.5 393.3c.7.2 1.2-.9 2-.3-1.3 1.2-2.4 2.4-4.1 3-.5-1.2 1.7-1.1 1.1-2.3.7.5 1 .2 1-.4zM335.7 384.6c1.7-.7 2.6 0 3.8 1-1.5.1-2.6.1-3.8-1zM332.4 336.6c-1-1.7-1-1.7.5-2.4.3 1 .2 1.7-.5 2.4zM328.5 363.5c.9.6.9 1.3.5 2-1.4-.7-1.4-.7-.5-2zM331.2 362.9c-.2-.2-.8-.4-.4-.8.3-.3.6.1.8.4-.1.1-.2.3-.4.4zM332.8 378c0 .1 0 .1 0 0v-.2.2zM247.5 345.2c.1-.2.2-.4.2-.6.1.1.2.1.2.2 0 .2-.1.4-.3.5l-.1-.1zM332.6 319.3c.2.1.4.3.2.5s-.4 0-.5-.1c.1-.2.2-.3.3-.4zM249.9 326.8l-.2.2c-.1 0-.3-.1-.4-.2.1-.1.2-.2.3-.2.1-.1.2 0 .3.2z"/></svg>