<svg xmlns="http://www.w3.org/2000/svg" viewBox="0 259.4 591.8 323.1"><path fill="#D8D8DB" d="M587.6 324.5c-1 0-1.8.7-1.8 1.8 0 1 .7 1.8 1.8 1.8 1 0 1.8-.7 1.8-1.8-.1-1-.8-1.8-1.8-1.8M575.8 312.6c-1 0-1.8.7-1.8 1.8 0 1 .7 1.8 1.8 1.8 1 0 1.8-.7 1.8-1.8 0-.9-.9-1.8-1.8-1.8M575.8 300.9c-1 0-1.8.7-1.8 1.8 0 1 .7 1.8 1.8 1.8 1 0 1.8-.7 1.8-1.8s-.9-1.8-1.8-1.8M569.8 306.7c-1 0-1.8.7-1.8 1.8 0 1 .7 1.8 1.8 1.8 1 0 1.8-.7 1.8-1.8 0-.9-.8-1.8-1.8-1.8M563.9 312.6c-1 0-1.8.7-1.8 1.8 0 1 .7 1.8 1.8 1.8 1 0 1.8-.7 1.8-1.8 0-.9-.8-1.8-1.8-1.8M575.8 324.5c-1 0-1.8.7-1.8 1.8 0 1 .7 1.8 1.8 1.8 1 0 1.8-.7 1.8-1.8s-.9-1.8-1.8-1.8M581.7 330.4c-1 0-1.8.7-1.8 1.8 0 1 .7 1.8 1.8 1.8 1 0 1.8-.7 1.8-1.8-.1-1-.8-1.8-1.8-1.8M569.8 330.4c-1 0-1.8.7-1.8 1.8 0 1 .7 1.8 1.8 1.8 1 0 1.8-.7 1.8-1.8 0-1-.8-1.8-1.8-1.8M581.7 318.6c-1 0-1.8.7-1.8 1.8 0 1 .7 1.8 1.8 1.8 1 0 1.8-.7 1.8-1.8-.1-1.1-.8-1.8-1.8-1.8M569.8 318.6c-1 0-1.8.7-1.8 1.8 0 1 .7 1.8 1.8 1.8 1 0 1.8-.7 1.8-1.8s-.8-1.8-1.8-1.8M563.9 336.3c-1 0-1.8.7-1.8 1.8 0 1 .7 1.8 1.8 1.8 1 0 1.8-.7 1.8-1.8 0-1-.8-1.8-1.8-1.8M563.9 324.5c-1 0-1.8.7-1.8 1.8 0 1 .7 1.8 1.8 1.8 1 0 1.8-.7 1.8-1.8s-.8-1.8-1.8-1.8M569.8 519.8c-1 0-1.8.7-1.8 1.8 0 1 .7 1.8 1.8 1.8 1 0 1.8-.7 1.8-1.8s-.8-1.8-1.8-1.8M563.9 525.6c-1 0-1.8.7-1.8 1.8 0 1 .7 1.8 1.8 1.8 1 0 1.8-.7 1.8-1.8 0-.9-.8-1.8-1.8-1.8M575.8 537.5c-1 0-1.8.7-1.8 1.8 0 1 .7 1.8 1.8 1.8 1 0 1.8-.7 1.8-1.8 0-1-.9-1.8-1.8-1.8M569.8 543.5c-1 0-1.8.7-1.8 1.8 0 1 .7 1.8 1.8 1.8 1 0 1.8-.7 1.8-1.8s-.8-1.8-1.8-1.8M569.8 531.6c-1 0-1.8.7-1.8 1.8 0 1 .7 1.8 1.8 1.8 1 0 1.8-.7 1.8-1.8 0-1-.8-1.8-1.8-1.8M563.9 549.4c-1 0-1.8.7-1.8 1.8 0 1 .7 1.8 1.8 1.8 1 0 1.8-.7 1.8-1.8s-.8-1.8-1.8-1.8M552.1 312.6c-1 0-1.8.7-1.8 1.8 0 1 .7 1.8 1.8 1.8 1 0 1.8-.7 1.8-1.8 0-.9-.8-1.8-1.8-1.8M558 306.7c-1 0-1.8.7-1.8 1.8 0 1 .7 1.8 1.8 1.8 1 0 1.8-.7 1.8-1.8-.1-.9-.8-1.8-1.8-1.8M546.2 306.7c-1 0-1.8.7-1.8 1.8 0 1 .7 1.8 1.8 1.8 1 0 1.8-.7 1.8-1.8 0-.9-.9-1.8-1.8-1.8M540.2 312.6c-1 0-1.8.7-1.8 1.8 0 1 .7 1.8 1.8 1.8 1 0 1.8-.7 1.8-1.8 0-.9-.8-1.8-1.8-1.8M552.1 336.3c-1 0-1.8.7-1.8 1.8 0 1 .7 1.8 1.8 1.8 1 0 1.8-.7 1.8-1.8 0-1-.8-1.8-1.8-1.8M552.1 324.5c-1 0-1.8.7-1.8 1.8 0 1 .7 1.8 1.8 1.8 1 0 1.8-.7 1.8-1.8s-.8-1.8-1.8-1.8M558 330.4c-1 0-1.8.7-1.8 1.8 0 1 .7 1.8 1.8 1.8 1 0 1.8-.7 1.8-1.8-.1-1-.8-1.8-1.8-1.8M546.2 330.4c-1 0-1.8.7-1.8 1.8 0 1 .7 1.8 1.8 1.8 1 0 1.8-.7 1.8-1.8 0-1-.9-1.8-1.8-1.8M558 318.6c-1 0-1.8.7-1.8 1.8 0 1 .7 1.8 1.8 1.8 1 0 1.8-.7 1.8-1.8-.1-1.1-.8-1.8-1.8-1.8M546.2 318.6c-1 0-1.8.7-1.8 1.8 0 1 .7 1.8 1.8 1.8 1 0 1.8-.7 1.8-1.8s-.9-1.8-1.8-1.8M540.2 336.3c-1 0-1.8.7-1.8 1.8 0 1 .7 1.8 1.8 1.8 1 0 1.8-.7 1.8-1.8 0-1-.8-1.8-1.8-1.8M540.2 324.5c-1 0-1.8.7-1.8 1.8 0 1 .7 1.8 1.8 1.8 1 0 1.8-.7 1.8-1.8s-.8-1.8-1.8-1.8M546.2 354.1c-1 0-1.8.7-1.8 1.8 0 1 .7 1.8 1.8 1.8 1 0 1.8-.7 1.8-1.8 0-1-.9-1.8-1.8-1.8M546.2 342.2c-1 0-1.8.7-1.8 1.8 0 1 .7 1.8 1.8 1.8 1 0 1.8-.7 1.8-1.8 0-1-.9-1.8-1.8-1.8M540.2 360c-1 0-1.8.7-1.8 1.8 0 1 .7 1.8 1.8 1.8 1 0 1.8-.7 1.8-1.8 0-1-.8-1.8-1.8-1.8M540.2 348.2c-1 0-1.8.7-1.8 1.8 0 1 .7 1.8 1.8 1.8 1 0 1.8-.7 1.8-1.8s-.8-1.8-1.8-1.8M558 519.8c-1 0-1.8.7-1.8 1.8 0 1 .7 1.8 1.8 1.8 1 0 1.8-.7 1.8-1.8-.1-1.1-.8-1.8-1.8-1.8M558 555.2c-1 0-1.8.7-1.8 1.8 0 1 .7 1.8 1.8 1.8 1 0 1.8-.7 1.8-1.8-.1-.9-.8-1.8-1.8-1.8M528.5 289c-1 0-1.8.7-1.8 1.8 0 1 .7 1.8 1.8 1.8 1 0 1.8-.7 1.8-1.8-.1-1.1-.9-1.8-1.8-1.8M516.6 289c-1 0-1.8.7-1.8 1.8 0 1 .7 1.8 1.8 1.8 1 0 1.8-.7 1.8-1.8s-.9-1.8-1.8-1.8M528.5 312.6c-1 0-1.8.7-1.8 1.8 0 1 .7 1.8 1.8 1.8 1 0 1.8-.7 1.8-1.8-.1-.9-.9-1.8-1.8-1.8M528.5 300.9c-1 0-1.8.7-1.8 1.8 0 1 .7 1.8 1.8 1.8 1 0 1.8-.7 1.8-1.8-.1-1.1-.9-1.8-1.8-1.8M534.3 306.7c-1 0-1.8.7-1.8 1.8 0 1 .7 1.8 1.8 1.8 1 0 1.8-.7 1.8-1.8 0-.9-.8-1.8-1.8-1.8M522.5 306.7c-1 0-1.8.7-1.8 1.8 0 1 .7 1.8 1.8 1.8 1 0 1.8-.7 1.8-1.8 0-.9-.8-1.8-1.8-1.8M522.5 294.9c-1 0-1.8.7-1.8 1.8 0 1 .7 1.8 1.8 1.8 1 0 1.8-.7 1.8-1.8 0-1-.8-1.8-1.8-1.8M516.6 312.6c-1 0-1.8.7-1.8 1.8 0 1 .7 1.8 1.8 1.8 1 0 1.8-.7 1.8-1.8 0-.9-.9-1.8-1.8-1.8M516.6 300.9c-1 0-1.8.7-1.8 1.8 0 1 .7 1.8 1.8 1.8 1 0 1.8-.7 1.8-1.8s-.9-1.8-1.8-1.8M528.5 336.3c-1 0-1.8.7-1.8 1.8 0 1 .7 1.8 1.8 1.8 1 0 1.8-.7 1.8-1.8-.1-1-.9-1.8-1.8-1.8M528.5 324.5c-1 0-1.8.7-1.8 1.8 0 1 .7 1.8 1.8 1.8 1 0 1.8-.7 1.8-1.8-.1-1-.9-1.8-1.8-1.8M534.3 330.4c-1 0-1.8.7-1.8 1.8 0 1 .7 1.8 1.8 1.8 1 0 1.8-.7 1.8-1.8 0-1-.8-1.8-1.8-1.8M522.5 330.4c-1 0-1.8.7-1.8 1.8 0 1 .7 1.8 1.8 1.8 1 0 1.8-.7 1.8-1.8 0-1-.8-1.8-1.8-1.8M534.3 318.6c-1 0-1.8.7-1.8 1.8 0 1 .7 1.8 1.8 1.8 1 0 1.8-.7 1.8-1.8s-.8-1.8-1.8-1.8M522.5 318.6c-1 0-1.8.7-1.8 1.8 0 1 .7 1.8 1.8 1.8 1 0 1.8-.7 1.8-1.8s-.8-1.8-1.8-1.8M516.6 336.3c-1 0-1.8.7-1.8 1.8 0 1 .7 1.8 1.8 1.8 1 0 1.8-.7 1.8-1.8 0-1-.9-1.8-1.8-1.8M516.6 324.5c-1 0-1.8.7-1.8 1.8 0 1 .7 1.8 1.8 1.8 1 0 1.8-.7 1.8-1.8s-.9-1.8-1.8-1.8M534.3 354.1c-1 0-1.8.7-1.8 1.8 0 1 .7 1.8 1.8 1.8 1 0 1.8-.7 1.8-1.8s-.8-1.8-1.8-1.8M534.3 342.2c-1 0-1.8.7-1.8 1.8 0 1 .7 1.8 1.8 1.8 1 0 1.8-.7 1.8-1.8 0-1-.8-1.8-1.8-1.8M516.6 360c-1 0-1.8.7-1.8 1.8 0 1 .7 1.8 1.8 1.8 1 0 1.8-.7 1.8-1.8 0-1-.9-1.8-1.8-1.8M516.6 383.7c-1 0-1.8.7-1.8 1.8 0 1 .7 1.8 1.8 1.8 1 0 1.8-.7 1.8-1.8 0-1-.9-1.8-1.8-1.8M516.6 371.8c-1 0-1.8.7-1.8 1.8 0 1 .7 1.8 1.8 1.8 1 0 1.8-.7 1.8-1.8s-.9-1.8-1.8-1.8M528.5 478.3c-1 0-1.8.7-1.8 1.8 0 1 .7 1.8 1.8 1.8 1 0 1.8-.7 1.8-1.8-.1-.9-.9-1.8-1.8-1.8M528.5 466.6c-1 0-1.8.7-1.8 1.8 0 1 .7 1.8 1.8 1.8 1 0 1.8-.7 1.8-1.8-.1-1.1-.9-1.8-1.8-1.8M534.3 472.4c-1 0-1.8.7-1.8 1.8 0 1 .7 1.8 1.8 1.8 1 0 1.8-.7 1.8-1.8 0-1-.8-1.8-1.8-1.8M522.5 472.4c-1 0-1.8.7-1.8 1.8 0 1 .7 1.8 1.8 1.8 1 0 1.8-.7 1.8-1.8 0-1-.8-1.8-1.8-1.8M516.6 478.3c-1 0-1.8.7-1.8 1.8 0 1 .7 1.8 1.8 1.8 1 0 1.8-.7 1.8-1.8 0-.9-.9-1.8-1.8-1.8M516.6 466.6c-1 0-1.8.7-1.8 1.8 0 1 .7 1.8 1.8 1.8 1 0 1.8-.7 1.8-1.8s-.9-1.8-1.8-1.8M528.5 502c-1 0-1.8.7-1.8 1.8 0 1 .7 1.8 1.8 1.8 1 0 1.8-.7 1.8-1.8-.1-1-.9-1.8-1.8-1.8M522.5 496c-1 0-1.8.7-1.8 1.8 0 1 .7 1.8 1.8 1.8 1 0 1.8-.7 1.8-1.8 0-.9-.8-1.8-1.8-1.8M516.6 502c-1 0-1.8.7-1.8 1.8 0 1 .7 1.8 1.8 1.8 1 0 1.8-.7 1.8-1.8 0-1-.9-1.8-1.8-1.8M516.6 490.2c-1 0-1.8.7-1.8 1.8 0 1 .7 1.8 1.8 1.8 1 0 1.8-.7 1.8-1.8s-.9-1.8-1.8-1.8M528.5 525.6c-1 0-1.8.7-1.8 1.8 0 1 .7 1.8 1.8 1.8 1 0 1.8-.7 1.8-1.8-.1-.9-.9-1.8-1.8-1.8M528.5 513.9c-1 0-1.8.7-1.8 1.8 0 1 .7 1.8 1.8 1.8 1 0 1.8-.7 1.8-1.8-.1-1.1-.9-1.8-1.8-1.8M522.5 519.8c-1 0-1.8.7-1.8 1.8 0 1 .7 1.8 1.8 1.8 1 0 1.8-.7 1.8-1.8s-.8-1.8-1.8-1.8M522.5 507.9c-1 0-1.8.7-1.8 1.8 0 1 .7 1.8 1.8 1.8 1 0 1.8-.7 1.8-1.8 0-.9-.8-1.8-1.8-1.8M516.6 525.6c-1 0-1.8.7-1.8 1.8 0 1 .7 1.8 1.8 1.8 1 0 1.8-.7 1.8-1.8 0-.9-.9-1.8-1.8-1.8M516.6 513.9c-1 0-1.8.7-1.8 1.8 0 1 .7 1.8 1.8 1.8 1 0 1.8-.7 1.8-1.8s-.9-1.8-1.8-1.8M522.5 543.5c-1 0-1.8.7-1.8 1.8 0 1 .7 1.8 1.8 1.8 1 0 1.8-.7 1.8-1.8s-.8-1.8-1.8-1.8M522.5 531.6c-1 0-1.8.7-1.8 1.8 0 1 .7 1.8 1.8 1.8 1 0 1.8-.7 1.8-1.8 0-1-.8-1.8-1.8-1.8M516.6 537.5c-1 0-1.8.7-1.8 1.8 0 1 .7 1.8 1.8 1.8 1 0 1.8-.7 1.8-1.8 0-1-.9-1.8-1.8-1.8M504.8 289c-1 0-1.8.7-1.8 1.8 0 1 .7 1.8 1.8 1.8 1 0 1.8-.7 1.8-1.8-.1-1.1-.8-1.8-1.8-1.8M504.8 312.6c-1 0-1.8.7-1.8 1.8 0 1 .7 1.8 1.8 1.8 1 0 1.8-.7 1.8-1.8-.1-.9-.8-1.8-1.8-1.8M504.8 300.9c-1 0-1.8.7-1.8 1.8 0 1 .7 1.8 1.8 1.8 1 0 1.8-.7 1.8-1.8-.1-1.1-.8-1.8-1.8-1.8M510.6 306.7c-1 0-1.8.7-1.8 1.8 0 1 .7 1.8 1.8 1.8 1 0 1.8-.7 1.8-1.8 0-.9-.7-1.8-1.8-1.8M498.9 306.7c-1 0-1.8.7-1.8 1.8 0 1 .7 1.8 1.8 1.8 1 0 1.8-.7 1.8-1.8-.1-.9-.9-1.8-1.8-1.8M510.6 294.9c-1 0-1.8.7-1.8 1.8 0 1 .7 1.8 1.8 1.8 1 0 1.8-.7 1.8-1.8s-.7-1.8-1.8-1.8M492.9 312.6c-1 0-1.8.7-1.8 1.8 0 1 .7 1.8 1.8 1.8 1 0 1.8-.7 1.8-1.8 0-.9-.8-1.8-1.8-1.8M492.9 300.9c-1 0-1.8.7-1.8 1.8 0 1 .7 1.8 1.8 1.8 1 0 1.8-.7 1.8-1.8s-.8-1.8-1.8-1.8M504.8 336.3c-1 0-1.8.7-1.8 1.8 0 1 .7 1.8 1.8 1.8 1 0 1.8-.7 1.8-1.8-.1-1-.8-1.8-1.8-1.8M504.8 324.5c-1 0-1.8.7-1.8 1.8 0 1 .7 1.8 1.8 1.8 1 0 1.8-.7 1.8-1.8-.1-1-.8-1.8-1.8-1.8M510.6 330.4c-1 0-1.8.7-1.8 1.8 0 1 .7 1.8 1.8 1.8 1 0 1.8-.7 1.8-1.8 0-1-.7-1.8-1.8-1.8M498.9 330.4c-1 0-1.8.7-1.8 1.8 0 1 .7 1.8 1.8 1.8 1 0 1.8-.7 1.8-1.8-.1-1-.9-1.8-1.8-1.8M510.6 318.6c-1 0-1.8.7-1.8 1.8 0 1 .7 1.8 1.8 1.8 1 0 1.8-.7 1.8-1.8s-.7-1.8-1.8-1.8M498.9 318.6c-1 0-1.8.7-1.8 1.8 0 1 .7 1.8 1.8 1.8 1 0 1.8-.7 1.8-1.8-.1-1.1-.9-1.8-1.8-1.8M492.9 336.3c-1 0-1.8.7-1.8 1.8 0 1 .7 1.8 1.8 1.8 1 0 1.8-.7 1.8-1.8 0-1-.8-1.8-1.8-1.8M492.9 324.5c-1 0-1.8.7-1.8 1.8 0 1 .7 1.8 1.8 1.8 1 0 1.8-.7 1.8-1.8 0-1-.8-1.8-1.8-1.8M504.8 360c-1 0-1.8.7-1.8 1.8 0 1 .7 1.8 1.8 1.8 1 0 1.8-.7 1.8-1.8s-.8-1.8-1.8-1.8M504.8 348.2c-1 0-1.8.7-1.8 1.8 0 1 .7 1.8 1.8 1.8 1 0 1.8-.7 1.8-1.8-.1-1.1-.8-1.8-1.8-1.8M510.6 354.1c-1 0-1.8.7-1.8 1.8 0 1 .7 1.8 1.8 1.8 1 0 1.8-.7 1.8-1.8s-.7-1.8-1.8-1.8M498.9 354.1c-1 0-1.8.7-1.8 1.8 0 1 .7 1.8 1.8 1.8 1 0 1.8-.7 1.8-1.8-.1-1-.9-1.8-1.8-1.8M510.6 342.2c-1 0-1.8.7-1.8 1.8 0 1 .7 1.8 1.8 1.8 1 0 1.8-.7 1.8-1.8 0-1-.7-1.8-1.8-1.8M498.9 342.2c-1 0-1.8.7-1.8 1.8 0 1 .7 1.8 1.8 1.8 1 0 1.8-.7 1.8-1.8-.1-1-.9-1.8-1.8-1.8M492.9 360c-1 0-1.8.7-1.8 1.8 0 1 .7 1.8 1.8 1.8 1 0 1.8-.7 1.8-1.8 0-1-.8-1.8-1.8-1.8M492.9 348.2c-1 0-1.8.7-1.8 1.8 0 1 .7 1.8 1.8 1.8 1 0 1.8-.7 1.8-1.8s-.8-1.8-1.8-1.8M504.8 371.8c-1 0-1.8.7-1.8 1.8 0 1 .7 1.8 1.8 1.8 1 0 1.8-.7 1.8-1.8-.1-1-.8-1.8-1.8-1.8M498.9 377.8c-1 0-1.8.7-1.8 1.8 0 1 .7 1.8 1.8 1.8 1 0 1.8-.7 1.8-1.8-.1-1.1-.9-1.8-1.8-1.8M510.6 365.9c-1 0-1.8.7-1.8 1.8 0 1 .7 1.8 1.8 1.8 1 0 1.8-.7 1.8-1.8 0-1-.7-1.8-1.8-1.8M498.9 365.9c-1 0-1.8.7-1.8 1.8 0 1 .7 1.8 1.8 1.8 1 0 1.8-.7 1.8-1.8-.1-1-.9-1.8-1.8-1.8M492.9 383.7c-1 0-1.8.7-1.8 1.8 0 1 .7 1.8 1.8 1.8 1 0 1.8-.7 1.8-1.8 0-1-.8-1.8-1.8-1.8M492.9 371.8c-1 0-1.8.7-1.8 1.8 0 1 .7 1.8 1.8 1.8 1 0 1.8-.7 1.8-1.8 0-1-.8-1.8-1.8-1.8M504.8 395.5c-1 0-1.8.7-1.8 1.8 0 1 .7 1.8 1.8 1.8 1 0 1.8-.7 1.8-1.8-.1-1-.8-1.8-1.8-1.8M498.9 401.4c-1 0-1.8.7-1.8 1.8 0 1 .7 1.8 1.8 1.8 1 0 1.8-.7 1.8-1.8-.1-1-.9-1.8-1.8-1.8M510.6 389.5c-1 0-1.8.7-1.8 1.8 0 1 .7 1.8 1.8 1.8 1 0 1.8-.7 1.8-1.8 0-.9-.7-1.8-1.8-1.8M492.9 407.4c-1 0-1.8.7-1.8 1.8 0 1 .7 1.8 1.8 1.8 1 0 1.8-.7 1.8-1.8s-.8-1.8-1.8-1.8M492.9 395.5c-1 0-1.8.7-1.8 1.8 0 1 .7 1.8 1.8 1.8 1 0 1.8-.7 1.8-1.8 0-1-.8-1.8-1.8-1.8M492.9 454.7c-1 0-1.8.7-1.8 1.8 0 1 .7 1.8 1.8 1.8 1 0 1.8-.7 1.8-1.8s-.8-1.8-1.8-1.8M504.8 466.6c-1 0-1.8.7-1.8 1.8 0 1 .7 1.8 1.8 1.8 1 0 1.8-.7 1.8-1.8-.1-1.1-.8-1.8-1.8-1.8M510.6 472.4c-1 0-1.8.7-1.8 1.8 0 1 .7 1.8 1.8 1.8 1 0 1.8-.7 1.8-1.8 0-1-.7-1.8-1.8-1.8M492.9 466.6c-1 0-1.8.7-1.8 1.8 0 1 .7 1.8 1.8 1.8 1 0 1.8-.7 1.8-1.8s-.8-1.8-1.8-1.8M504.8 502c-1 0-1.8.7-1.8 1.8 0 1 .7 1.8 1.8 1.8 1 0 1.8-.7 1.8-1.8-.1-1-.8-1.8-1.8-1.8M504.8 490.2c-1 0-1.8.7-1.8 1.8 0 1 .7 1.8 1.8 1.8 1 0 1.8-.7 1.8-1.8-.1-1-.8-1.8-1.8-1.8M510.6 496c-1 0-1.8.7-1.8 1.8 0 1 .7 1.8 1.8 1.8 1 0 1.8-.7 1.8-1.8 0-.9-.7-1.8-1.8-1.8M498.9 496c-1 0-1.8.7-1.8 1.8 0 1 .7 1.8 1.8 1.8 1 0 1.8-.7 1.8-1.8-.1-.9-.9-1.8-1.8-1.8M498.9 484.3c-1 0-1.8.7-1.8 1.8s.7 1.8 1.8 1.8c1 0 1.8-.7 1.8-1.8s-.9-1.8-1.8-1.8M492.9 502c-1 0-1.8.7-1.8 1.8 0 1 .7 1.8 1.8 1.8 1 0 1.8-.7 1.8-1.8 0-1-.8-1.8-1.8-1.8M492.9 490.2c-1 0-1.8.7-1.8 1.8 0 1 .7 1.8 1.8 1.8 1 0 1.8-.7 1.8-1.8 0-1-.8-1.8-1.8-1.8M504.8 525.6c-1 0-1.8.7-1.8 1.8 0 1 .7 1.8 1.8 1.8 1 0 1.8-.7 1.8-1.8-.1-.9-.8-1.8-1.8-1.8M504.8 513.9c-1 0-1.8.7-1.8 1.8 0 1 .7 1.8 1.8 1.8 1 0 1.8-.7 1.8-1.8-.1-1.1-.8-1.8-1.8-1.8M510.6 519.8c-1 0-1.8.7-1.8 1.8 0 1 .7 1.8 1.8 1.8 1 0 1.8-.7 1.8-1.8s-.7-1.8-1.8-1.8M498.9 519.8c-1 0-1.8.7-1.8 1.8 0 1 .7 1.8 1.8 1.8 1 0 1.8-.7 1.8-1.8-.1-1.1-.9-1.8-1.8-1.8M510.6 507.9c-1 0-1.8.7-1.8 1.8 0 1 .7 1.8 1.8 1.8 1 0 1.8-.7 1.8-1.8 0-.9-.7-1.8-1.8-1.8M498.9 507.9c-1 0-1.8.7-1.8 1.8 0 1 .7 1.8 1.8 1.8 1 0 1.8-.7 1.8-1.8-.1-.9-.9-1.8-1.8-1.8M492.9 513.9c-1 0-1.8.7-1.8 1.8 0 1 .7 1.8 1.8 1.8 1 0 1.8-.7 1.8-1.8s-.8-1.8-1.8-1.8M510.6 531.6c-1 0-1.8.7-1.8 1.8 0 1 .7 1.8 1.8 1.8 1 0 1.8-.7 1.8-1.8 0-1-.7-1.8-1.8-1.8M481 312.6c-1 0-1.8.7-1.8 1.8 0 1 .7 1.8 1.8 1.8 1 0 1.8-.7 1.8-1.8 0-.9-.7-1.8-1.8-1.8M481 300.9c-1 0-1.8.7-1.8 1.8 0 1 .7 1.8 1.8 1.8 1 0 1.8-.7 1.8-1.8s-.7-1.8-1.8-1.8M487 306.7c-1 0-1.8.7-1.8 1.8 0 1 .7 1.8 1.8 1.8 1 0 1.8-.7 1.8-1.8 0-.9-.9-1.8-1.8-1.8M475.2 306.7c-1 0-1.8.7-1.8 1.8 0 1 .7 1.8 1.8 1.8 1 0 1.8-.7 1.8-1.8-.1-.9-.8-1.8-1.8-1.8M487 294.9c-1 0-1.8.7-1.8 1.8 0 1 .7 1.8 1.8 1.8 1 0 1.8-.7 1.8-1.8 0-1-.9-1.8-1.8-1.8M475.2 294.9c-1 0-1.8.7-1.8 1.8 0 1 .7 1.8 1.8 1.8 1 0 1.8-.7 1.8-1.8-.1-1-.8-1.8-1.8-1.8M469.3 312.6c-1 0-1.8.7-1.8 1.8 0 1 .7 1.8 1.8 1.8 1 0 1.8-.7 1.8-1.8 0-.9-.9-1.8-1.8-1.8M469.3 300.9c-1 0-1.8.7-1.8 1.8 0 1 .7 1.8 1.8 1.8 1 0 1.8-.7 1.8-1.8s-.9-1.8-1.8-1.8M481 336.3c-1 0-1.8.7-1.8 1.8 0 1 .7 1.8 1.8 1.8 1 0 1.8-.7 1.8-1.8 0-1-.7-1.8-1.8-1.8M481 324.5c-1 0-1.8.7-1.8 1.8 0 1 .7 1.8 1.8 1.8 1 0 1.8-.7 1.8-1.8s-.7-1.8-1.8-1.8M487 330.4c-1 0-1.8.7-1.8 1.8 0 1 .7 1.8 1.8 1.8 1 0 1.8-.7 1.8-1.8 0-1-.9-1.8-1.8-1.8M475.2 330.4c-1 0-1.8.7-1.8 1.8 0 1 .7 1.8 1.8 1.8 1 0 1.8-.7 1.8-1.8-.1-1-.8-1.8-1.8-1.8M487 318.6c-1 0-1.8.7-1.8 1.8 0 1 .7 1.8 1.8 1.8 1 0 1.8-.7 1.8-1.8s-.9-1.8-1.8-1.8M475.2 318.6c-1 0-1.8.7-1.8 1.8 0 1 .7 1.8 1.8 1.8 1 0 1.8-.7 1.8-1.8-.1-1.1-.8-1.8-1.8-1.8M469.3 336.3c-1 0-1.8.7-1.8 1.8 0 1 .7 1.8 1.8 1.8 1 0 1.8-.7 1.8-1.8 0-1-.9-1.8-1.8-1.8M469.3 324.5c-1 0-1.8.7-1.8 1.8 0 1 .7 1.8 1.8 1.8 1 0 1.8-.7 1.8-1.8s-.9-1.8-1.8-1.8M481 360c-1 0-1.8.7-1.8 1.8 0 1 .7 1.8 1.8 1.8 1 0 1.8-.7 1.8-1.8 0-1-.7-1.8-1.8-1.8M481 348.2c-1 0-1.8.7-1.8 1.8 0 1 .7 1.8 1.8 1.8 1 0 1.8-.7 1.8-1.8s-.7-1.8-1.8-1.8M487 354.1c-1 0-1.8.7-1.8 1.8 0 1 .7 1.8 1.8 1.8 1 0 1.8-.7 1.8-1.8 0-1-.9-1.8-1.8-1.8M475.2 354.1c-1 0-1.8.7-1.8 1.8 0 1 .7 1.8 1.8 1.8 1 0 1.8-.7 1.8-1.8-.1-1-.8-1.8-1.8-1.8M487 342.2c-1 0-1.8.7-1.8 1.8 0 1 .7 1.8 1.8 1.8 1 0 1.8-.7 1.8-1.8 0-1-.9-1.8-1.8-1.8M475.2 342.2c-1 0-1.8.7-1.8 1.8 0 1 .7 1.8 1.8 1.8 1 0 1.8-.7 1.8-1.8-.1-1-.8-1.8-1.8-1.8M469.3 360c-1 0-1.8.7-1.8 1.8 0 1 .7 1.8 1.8 1.8 1 0 1.8-.7 1.8-1.8 0-1-.9-1.8-1.8-1.8M469.3 348.2c-1 0-1.8.7-1.8 1.8 0 1 .7 1.8 1.8 1.8 1 0 1.8-.7 1.8-1.8s-.9-1.8-1.8-1.8M481 383.7c-1 0-1.8.7-1.8 1.8 0 1 .7 1.8 1.8 1.8 1 0 1.8-.7 1.8-1.8 0-1-.7-1.8-1.8-1.8M481 371.8c-1 0-1.8.7-1.8 1.8 0 1 .7 1.8 1.8 1.8 1 0 1.8-.7 1.8-1.8s-.7-1.8-1.8-1.8M487 377.8c-1 0-1.8.7-1.8 1.8 0 1 .7 1.8 1.8 1.8 1 0 1.8-.7 1.8-1.8s-.9-1.8-1.8-1.8M475.2 377.8c-1 0-1.8.7-1.8 1.8 0 1 .7 1.8 1.8 1.8 1 0 1.8-.7 1.8-1.8-.1-1.1-.8-1.8-1.8-1.8M487 365.9c-1 0-1.8.7-1.8 1.8 0 1 .7 1.8 1.8 1.8 1 0 1.8-.7 1.8-1.8 0-1-.9-1.8-1.8-1.8M475.2 365.9c-1 0-1.8.7-1.8 1.8 0 1 .7 1.8 1.8 1.8 1 0 1.8-.7 1.8-1.8-.1-1-.8-1.8-1.8-1.8M469.3 383.7c-1 0-1.8.7-1.8 1.8 0 1 .7 1.8 1.8 1.8 1 0 1.8-.7 1.8-1.8 0-1-.9-1.8-1.8-1.8M469.3 371.8c-1 0-1.8.7-1.8 1.8 0 1 .7 1.8 1.8 1.8 1 0 1.8-.7 1.8-1.8s-.9-1.8-1.8-1.8M481 407.4c-1 0-1.8.7-1.8 1.8 0 1 .7 1.8 1.8 1.8 1 0 1.8-.7 1.8-1.8s-.7-1.8-1.8-1.8M481 395.5c-1 0-1.8.7-1.8 1.8 0 1 .7 1.8 1.8 1.8 1 0 1.8-.7 1.8-1.8 0-1-.7-1.8-1.8-1.8M487 401.4c-1 0-1.8.7-1.8 1.8 0 1 .7 1.8 1.8 1.8 1 0 1.8-.7 1.8-1.8 0-1-.9-1.8-1.8-1.8M475.2 401.4c-1 0-1.8.7-1.8 1.8 0 1 .7 1.8 1.8 1.8 1 0 1.8-.7 1.8-1.8-.1-1-.8-1.8-1.8-1.8M487 389.5c-1 0-1.8.7-1.8 1.8 0 1 .7 1.8 1.8 1.8 1 0 1.8-.7 1.8-1.8 0-.9-.9-1.8-1.8-1.8M475.2 389.5c-1 0-1.8.7-1.8 1.8 0 1 .7 1.8 1.8 1.8 1 0 1.8-.7 1.8-1.8-.1-.9-.8-1.8-1.8-1.8M469.3 407.4c-1 0-1.8.7-1.8 1.8 0 1 .7 1.8 1.8 1.8 1 0 1.8-.7 1.8-1.8s-.9-1.8-1.8-1.8M469.3 395.5c-1 0-1.8.7-1.8 1.8 0 1 .7 1.8 1.8 1.8 1 0 1.8-.7 1.8-1.8 0-1-.9-1.8-1.8-1.8M481 431c-1 0-1.8.7-1.8 1.8 0 1 .7 1.8 1.8 1.8 1 0 1.8-.7 1.8-1.8 0-1-.7-1.8-1.8-1.8M475.2 413.2c-1 0-1.8.7-1.8 1.8 0 1 .7 1.8 1.8 1.8 1 0 1.8-.7 1.8-1.8-.1-.9-.8-1.8-1.8-1.8M469.3 419.1c-1 0-1.8.7-1.8 1.8 0 1 .7 1.8 1.8 1.8 1 0 1.8-.7 1.8-1.8 0-.9-.9-1.8-1.8-1.8M481 442.8c-1 0-1.8.7-1.8 1.8 0 1 .7 1.8 1.8 1.8 1 0 1.8-.7 1.8-1.8 0-1-.7-1.8-1.8-1.8M487 448.7c-1 0-1.8.7-1.8 1.8 0 1 .7 1.8 1.8 1.8 1 0 1.8-.7 1.8-1.8 0-.9-.9-1.8-1.8-1.8M487 437c-1 0-1.8.7-1.8 1.8 0 1 .7 1.8 1.8 1.8 1 0 1.8-.7 1.8-1.8s-.9-1.8-1.8-1.8M475.2 437c-1 0-1.8.7-1.8 1.8 0 1 .7 1.8 1.8 1.8 1 0 1.8-.7 1.8-1.8-.1-1.1-.8-1.8-1.8-1.8M469.3 454.7c-1 0-1.8.7-1.8 1.8 0 1 .7 1.8 1.8 1.8 1 0 1.8-.7 1.8-1.8s-.9-1.8-1.8-1.8M481 478.3c-1 0-1.8.7-1.8 1.8 0 1 .7 1.8 1.8 1.8 1 0 1.8-.7 1.8-1.8 0-.9-.7-1.8-1.8-1.8M481 466.6c-1 0-1.8.7-1.8 1.8 0 1 .7 1.8 1.8 1.8 1 0 1.8-.7 1.8-1.8s-.7-1.8-1.8-1.8M475.2 472.4c-1 0-1.8.7-1.8 1.8 0 1 .7 1.8 1.8 1.8 1 0 1.8-.7 1.8-1.8-.1-1-.8-1.8-1.8-1.8M487 460.6c-1 0-1.8.7-1.8 1.8s.7 1.8 1.8 1.8c1 0 1.8-.7 1.8-1.8s-.9-1.8-1.8-1.8M475.2 460.6c-1 0-1.8.7-1.8 1.8s.7 1.8 1.8 1.8c1 0 1.8-.7 1.8-1.8s-.8-1.8-1.8-1.8M469.3 478.3c-1 0-1.8.7-1.8 1.8 0 1 .7 1.8 1.8 1.8 1 0 1.8-.7 1.8-1.8 0-.9-.9-1.8-1.8-1.8M469.3 466.6c-1 0-1.8.7-1.8 1.8 0 1 .7 1.8 1.8 1.8 1 0 1.8-.7 1.8-1.8s-.9-1.8-1.8-1.8M481 502c-1 0-1.8.7-1.8 1.8 0 1 .7 1.8 1.8 1.8 1 0 1.8-.7 1.8-1.8 0-1-.7-1.8-1.8-1.8M487 496c-1 0-1.8.7-1.8 1.8 0 1 .7 1.8 1.8 1.8 1 0 1.8-.7 1.8-1.8 0-.9-.9-1.8-1.8-1.8M469.3 502c-1 0-1.8.7-1.8 1.8 0 1 .7 1.8 1.8 1.8 1 0 1.8-.7 1.8-1.8 0-1-.9-1.8-1.8-1.8M481 525.6c-1 0-1.8.7-1.8 1.8 0 1 .7 1.8 1.8 1.8 1 0 1.8-.7 1.8-1.8 0-.9-.7-1.8-1.8-1.8M481 513.9c-1 0-1.8.7-1.8 1.8 0 1 .7 1.8 1.8 1.8 1 0 1.8-.7 1.8-1.8s-.7-1.8-1.8-1.8M487 519.8c-1 0-1.8.7-1.8 1.8 0 1 .7 1.8 1.8 1.8 1 0 1.8-.7 1.8-1.8s-.9-1.8-1.8-1.8M475.2 519.8c-1 0-1.8.7-1.8 1.8 0 1 .7 1.8 1.8 1.8 1 0 1.8-.7 1.8-1.8-.1-1.1-.8-1.8-1.8-1.8M487 507.9c-1 0-1.8.7-1.8 1.8 0 1 .7 1.8 1.8 1.8 1 0 1.8-.7 1.8-1.8 0-.9-.9-1.8-1.8-1.8M475.2 507.9c-1 0-1.8.7-1.8 1.8 0 1 .7 1.8 1.8 1.8 1 0 1.8-.7 1.8-1.8-.1-.9-.8-1.8-1.8-1.8M469.3 525.6c-1 0-1.8.7-1.8 1.8 0 1 .7 1.8 1.8 1.8 1 0 1.8-.7 1.8-1.8 0-.9-.9-1.8-1.8-1.8M469.3 513.9c-1 0-1.8.7-1.8 1.8 0 1 .7 1.8 1.8 1.8 1 0 1.8-.7 1.8-1.8s-.9-1.8-1.8-1.8M457.4 289c-1 0-1.8.7-1.8 1.8 0 1 .7 1.8 1.8 1.8 1 0 1.8-.7 1.8-1.8s-.9-1.8-1.8-1.8M457.4 277.1c-1 0-1.8.7-1.8 1.8 0 1 .7 1.8 1.8 1.8 1 0 1.8-.7 1.8-1.8 0-.9-.9-1.8-1.8-1.8M463.3 283.1c-1 0-1.8.7-1.8 1.8 0 1 .7 1.8 1.8 1.8 1 0 1.8-.7 1.8-1.8 0-1-.8-1.8-1.8-1.8M451.4 283.1c-1 0-1.8.7-1.8 1.8 0 1 .7 1.8 1.8 1.8 1 0 1.8-.7 1.8-1.8 0-1-.7-1.8-1.8-1.8M445.6 289c-1 0-1.8.7-1.8 1.8 0 1 .7 1.8 1.8 1.8 1 0 1.8-.7 1.8-1.8-.1-1.1-.8-1.8-1.8-1.8M445.6 277.1c-1 0-1.8.7-1.8 1.8 0 1 .7 1.8 1.8 1.8 1 0 1.8-.7 1.8-1.8-.1-.9-.8-1.8-1.8-1.8M457.4 312.6c-1 0-1.8.7-1.8 1.8 0 1 .7 1.8 1.8 1.8 1 0 1.8-.7 1.8-1.8 0-.9-.9-1.8-1.8-1.8M457.4 300.9c-1 0-1.8.7-1.8 1.8 0 1 .7 1.8 1.8 1.8 1 0 1.8-.7 1.8-1.8s-.9-1.8-1.8-1.8M463.3 306.7c-1 0-1.8.7-1.8 1.8 0 1 .7 1.8 1.8 1.8 1 0 1.8-.7 1.8-1.8 0-.9-.8-1.8-1.8-1.8M451.4 306.7c-1 0-1.8.7-1.8 1.8 0 1 .7 1.8 1.8 1.8 1 0 1.8-.7 1.8-1.8 0-.9-.7-1.8-1.8-1.8M463.3 294.9c-1 0-1.8.7-1.8 1.8 0 1 .7 1.8 1.8 1.8 1 0 1.8-.7 1.8-1.8s-.8-1.8-1.8-1.8M451.4 294.9c-1 0-1.8.7-1.8 1.8 0 1 .7 1.8 1.8 1.8 1 0 1.8-.7 1.8-1.8 0-1-.7-1.8-1.8-1.8M445.6 312.6c-1 0-1.8.7-1.8 1.8 0 1 .7 1.8 1.8 1.8 1 0 1.8-.7 1.8-1.8-.1-.9-.8-1.8-1.8-1.8M445.6 300.9c-1 0-1.8.7-1.8 1.8 0 1 .7 1.8 1.8 1.8 1 0 1.8-.7 1.8-1.8-.1-1.1-.8-1.8-1.8-1.8M457.4 336.3c-1 0-1.8.7-1.8 1.8 0 1 .7 1.8 1.8 1.8 1 0 1.8-.7 1.8-1.8 0-1-.9-1.8-1.8-1.8M457.4 324.5c-1 0-1.8.7-1.8 1.8 0 1 .7 1.8 1.8 1.8 1 0 1.8-.7 1.8-1.8 0-1-.9-1.8-1.8-1.8M463.3 330.4c-1 0-1.8.7-1.8 1.8 0 1 .7 1.8 1.8 1.8 1 0 1.8-.7 1.8-1.8 0-1-.8-1.8-1.8-1.8M451.4 330.4c-1 0-1.8.7-1.8 1.8 0 1 .7 1.8 1.8 1.8 1 0 1.8-.7 1.8-1.8 0-1-.7-1.8-1.8-1.8M463.3 318.6c-1 0-1.8.7-1.8 1.8 0 1 .7 1.8 1.8 1.8 1 0 1.8-.7 1.8-1.8s-.8-1.8-1.8-1.8M451.4 318.6c-1 0-1.8.7-1.8 1.8 0 1 .7 1.8 1.8 1.8 1 0 1.8-.7 1.8-1.8s-.7-1.8-1.8-1.8M445.6 336.3c-1 0-1.8.7-1.8 1.8 0 1 .7 1.8 1.8 1.8 1 0 1.8-.7 1.8-1.8-.1-1-.8-1.8-1.8-1.8M445.6 324.5c-1 0-1.8.7-1.8 1.8 0 1 .7 1.8 1.8 1.8 1 0 1.8-.7 1.8-1.8-.1-1-.8-1.8-1.8-1.8M457.4 360c-1 0-1.8.7-1.8 1.8 0 1 .7 1.8 1.8 1.8 1 0 1.8-.7 1.8-1.8s-.9-1.8-1.8-1.8M457.4 348.2c-1 0-1.8.7-1.8 1.8 0 1 .7 1.8 1.8 1.8 1 0 1.8-.7 1.8-1.8s-.9-1.8-1.8-1.8M463.3 354.1c-1 0-1.8.7-1.8 1.8 0 1 .7 1.8 1.8 1.8 1 0 1.8-.7 1.8-1.8s-.8-1.8-1.8-1.8M451.4 354.1c-1 0-1.8.7-1.8 1.8 0 1 .7 1.8 1.8 1.8 1 0 1.8-.7 1.8-1.8 0-1-.7-1.8-1.8-1.8M463.3 342.2c-1 0-1.8.7-1.8 1.8 0 1 .7 1.8 1.8 1.8 1 0 1.8-.7 1.8-1.8 0-1-.8-1.8-1.8-1.8M451.4 342.2c-1 0-1.8.7-1.8 1.8 0 1 .7 1.8 1.8 1.8 1 0 1.8-.7 1.8-1.8 0-1-.7-1.8-1.8-1.8M445.6 360c-1 0-1.8.7-1.8 1.8 0 1 .7 1.8 1.8 1.8 1 0 1.8-.7 1.8-1.8-.1-1-.8-1.8-1.8-1.8M445.6 348.2c-1 0-1.8.7-1.8 1.8 0 1 .7 1.8 1.8 1.8 1 0 1.8-.7 1.8-1.8-.1-1.1-.8-1.8-1.8-1.8M457.4 383.7c-1 0-1.8.7-1.8 1.8 0 1 .7 1.8 1.8 1.8 1 0 1.8-.7 1.8-1.8 0-1-.9-1.8-1.8-1.8M457.4 371.8c-1 0-1.8.7-1.8 1.8 0 1 .7 1.8 1.8 1.8 1 0 1.8-.7 1.8-1.8 0-1-.9-1.8-1.8-1.8M463.3 377.8c-1 0-1.8.7-1.8 1.8 0 1 .7 1.8 1.8 1.8 1 0 1.8-.7 1.8-1.8s-.8-1.8-1.8-1.8M451.4 377.8c-1 0-1.8.7-1.8 1.8 0 1 .7 1.8 1.8 1.8 1 0 1.8-.7 1.8-1.8s-.7-1.8-1.8-1.8M463.3 365.9c-1 0-1.8.7-1.8 1.8 0 1 .7 1.8 1.8 1.8 1 0 1.8-.7 1.8-1.8 0-1-.8-1.8-1.8-1.8M451.4 365.9c-1 0-1.8.7-1.8 1.8 0 1 .7 1.8 1.8 1.8 1 0 1.8-.7 1.8-1.8 0-1-.7-1.8-1.8-1.8M445.6 383.7c-1 0-1.8.7-1.8 1.8 0 1 .7 1.8 1.8 1.8 1 0 1.8-.7 1.8-1.8-.1-1-.8-1.8-1.8-1.8M445.6 371.8c-1 0-1.8.7-1.8 1.8 0 1 .7 1.8 1.8 1.8 1 0 1.8-.7 1.8-1.8-.1-1-.8-1.8-1.8-1.8M457.4 407.4c-1 0-1.8.7-1.8 1.8 0 1 .7 1.8 1.8 1.8 1 0 1.8-.7 1.8-1.8s-.9-1.8-1.8-1.8M457.4 395.5c-1 0-1.8.7-1.8 1.8 0 1 .7 1.8 1.8 1.8 1 0 1.8-.7 1.8-1.8 0-1-.9-1.8-1.8-1.8M463.3 401.4c-1 0-1.8.7-1.8 1.8 0 1 .7 1.8 1.8 1.8 1 0 1.8-.7 1.8-1.8 0-1-.8-1.8-1.8-1.8M451.4 401.4c-1 0-1.8.7-1.8 1.8 0 1 .7 1.8 1.8 1.8 1 0 1.8-.7 1.8-1.8 0-1-.7-1.8-1.8-1.8M463.3 389.5c-1 0-1.8.7-1.8 1.8 0 1 .7 1.8 1.8 1.8 1 0 1.8-.7 1.8-1.8 0-.9-.8-1.8-1.8-1.8M451.4 389.5c-1 0-1.8.7-1.8 1.8 0 1 .7 1.8 1.8 1.8 1 0 1.8-.7 1.8-1.8 0-.9-.7-1.8-1.8-1.8M445.6 407.4c-1 0-1.8.7-1.8 1.8 0 1 .7 1.8 1.8 1.8 1 0 1.8-.7 1.8-1.8-.1-1.1-.8-1.8-1.8-1.8M445.6 395.5c-1 0-1.8.7-1.8 1.8 0 1 .7 1.8 1.8 1.8 1 0 1.8-.7 1.8-1.8-.1-1-.8-1.8-1.8-1.8M457.4 431c-1 0-1.8.7-1.8 1.8 0 1 .7 1.8 1.8 1.8 1 0 1.8-.7 1.8-1.8s-.9-1.8-1.8-1.8M457.4 419.1c-1 0-1.8.7-1.8 1.8 0 1 .7 1.8 1.8 1.8 1 0 1.8-.7 1.8-1.8 0-.9-.9-1.8-1.8-1.8M463.3 425.1c-1 0-1.8.7-1.8 1.8 0 1 .7 1.8 1.8 1.8 1 0 1.8-.7 1.8-1.8s-.8-1.8-1.8-1.8M451.4 425.1c-1 0-1.8.7-1.8 1.8 0 1 .7 1.8 1.8 1.8 1 0 1.8-.7 1.8-1.8s-.7-1.8-1.8-1.8M463.3 413.2c-1 0-1.8.7-1.8 1.8 0 1 .7 1.8 1.8 1.8 1 0 1.8-.7 1.8-1.8 0-.9-.8-1.8-1.8-1.8M451.4 413.2c-1 0-1.8.7-1.8 1.8 0 1 .7 1.8 1.8 1.8 1 0 1.8-.7 1.8-1.8 0-.9-.7-1.8-1.8-1.8M445.6 431c-1 0-1.8.7-1.8 1.8 0 1 .7 1.8 1.8 1.8 1 0 1.8-.7 1.8-1.8-.1-1-.8-1.8-1.8-1.8M445.6 419.1c-1 0-1.8.7-1.8 1.8 0 1 .7 1.8 1.8 1.8 1 0 1.8-.7 1.8-1.8-.1-.9-.8-1.8-1.8-1.8M457.4 442.8c-1 0-1.8.7-1.8 1.8 0 1 .7 1.8 1.8 1.8 1 0 1.8-.7 1.8-1.8 0-1-.9-1.8-1.8-1.8M451.4 437c-1 0-1.8.7-1.8 1.8 0 1 .7 1.8 1.8 1.8 1 0 1.8-.7 1.8-1.8s-.7-1.8-1.8-1.8M445.6 454.7c-1 0-1.8.7-1.8 1.8 0 1 .7 1.8 1.8 1.8 1 0 1.8-.7 1.8-1.8-.1-1.1-.8-1.8-1.8-1.8M445.6 442.8c-1 0-1.8.7-1.8 1.8 0 1 .7 1.8 1.8 1.8 1 0 1.8-.7 1.8-1.8-.1-1-.8-1.8-1.8-1.8M457.4 478.3c-1 0-1.8.7-1.8 1.8 0 1 .7 1.8 1.8 1.8 1 0 1.8-.7 1.8-1.8 0-.9-.9-1.8-1.8-1.8M451.4 472.4c-1 0-1.8.7-1.8 1.8 0 1 .7 1.8 1.8 1.8 1 0 1.8-.7 1.8-1.8 0-1-.7-1.8-1.8-1.8M463.3 460.6c-1 0-1.8.7-1.8 1.8s.7 1.8 1.8 1.8c1 0 1.8-.7 1.8-1.8s-.8-1.8-1.8-1.8M451.4 460.6c-1 0-1.8.7-1.8 1.8s.7 1.8 1.8 1.8c1 0 1.8-.7 1.8-1.8s-.7-1.8-1.8-1.8M445.6 466.6c-1 0-1.8.7-1.8 1.8 0 1 .7 1.8 1.8 1.8 1 0 1.8-.7 1.8-1.8-.1-1.1-.8-1.8-1.8-1.8M433.7 265.3c-1 0-1.8.7-1.8 1.8 0 1 .7 1.8 1.8 1.8 1 0 1.8-.7 1.8-1.8 0-1-.8-1.8-1.8-1.8M422 265.3c-1 0-1.8.7-1.8 1.8 0 1 .7 1.8 1.8 1.8 1 0 1.8-.7 1.8-1.8-.1-1-.9-1.8-1.8-1.8M433.7 289c-1 0-1.8.7-1.8 1.8 0 1 .7 1.8 1.8 1.8 1 0 1.8-.7 1.8-1.8s-.8-1.8-1.8-1.8M439.7 271.3c-1 0-1.8.7-1.8 1.8 0 1 .7 1.8 1.8 1.8 1 0 1.8-.7 1.8-1.8s-.9-1.8-1.8-1.8M427.8 271.3c-1 0-1.8.7-1.8 1.8 0 1 .7 1.8 1.8 1.8 1 0 1.8-.7 1.8-1.8s-.7-1.8-1.8-1.8M422 289c-1 0-1.8.7-1.8 1.8 0 1 .7 1.8 1.8 1.8 1 0 1.8-.7 1.8-1.8-.1-1.1-.9-1.8-1.8-1.8M433.7 312.6c-1 0-1.8.7-1.8 1.8 0 1 .7 1.8 1.8 1.8 1 0 1.8-.7 1.8-1.8 0-.9-.8-1.8-1.8-1.8M433.7 300.9c-1 0-1.8.7-1.8 1.8 0 1 .7 1.8 1.8 1.8 1 0 1.8-.7 1.8-1.8s-.8-1.8-1.8-1.8M439.7 306.7c-1 0-1.8.7-1.8 1.8 0 1 .7 1.8 1.8 1.8 1 0 1.8-.7 1.8-1.8 0-.9-.9-1.8-1.8-1.8M427.8 306.7c-1 0-1.8.7-1.8 1.8 0 1 .7 1.8 1.8 1.8 1 0 1.8-.7 1.8-1.8 0-.9-.7-1.8-1.8-1.8M439.7 294.9c-1 0-1.8.7-1.8 1.8 0 1 .7 1.8 1.8 1.8 1 0 1.8-.7 1.8-1.8s-.9-1.8-1.8-1.8M427.8 294.9c-1 0-1.8.7-1.8 1.8 0 1 .7 1.8 1.8 1.8 1 0 1.8-.7 1.8-1.8s-.7-1.8-1.8-1.8M422 312.6c-1 0-1.8.7-1.8 1.8 0 1 .7 1.8 1.8 1.8 1 0 1.8-.7 1.8-1.8-.1-.9-.9-1.8-1.8-1.8M422 300.9c-1 0-1.8.7-1.8 1.8 0 1 .7 1.8 1.8 1.8 1 0 1.8-.7 1.8-1.8-.1-1.1-.9-1.8-1.8-1.8M433.7 336.3c-1 0-1.8.7-1.8 1.8 0 1 .7 1.8 1.8 1.8 1 0 1.8-.7 1.8-1.8 0-1-.8-1.8-1.8-1.8M433.7 324.5c-1 0-1.8.7-1.8 1.8 0 1 .7 1.8 1.8 1.8 1 0 1.8-.7 1.8-1.8s-.8-1.8-1.8-1.8M439.7 330.4c-1 0-1.8.7-1.8 1.8 0 1 .7 1.8 1.8 1.8 1 0 1.8-.7 1.8-1.8 0-1-.9-1.8-1.8-1.8M427.8 330.4c-1 0-1.8.7-1.8 1.8 0 1 .7 1.8 1.8 1.8 1 0 1.8-.7 1.8-1.8 0-1-.7-1.8-1.8-1.8M439.7 318.6c-1 0-1.8.7-1.8 1.8 0 1 .7 1.8 1.8 1.8 1 0 1.8-.7 1.8-1.8s-.9-1.8-1.8-1.8M427.8 318.6c-1 0-1.8.7-1.8 1.8 0 1 .7 1.8 1.8 1.8 1 0 1.8-.7 1.8-1.8s-.7-1.8-1.8-1.8M422 336.3c-1 0-1.8.7-1.8 1.8 0 1 .7 1.8 1.8 1.8 1 0 1.8-.7 1.8-1.8-.1-1-.9-1.8-1.8-1.8M422 324.5c-1 0-1.8.7-1.8 1.8 0 1 .7 1.8 1.8 1.8 1 0 1.8-.7 1.8-1.8-.1-1-.9-1.8-1.8-1.8M433.7 360c-1 0-1.8.7-1.8 1.8 0 1 .7 1.8 1.8 1.8 1 0 1.8-.7 1.8-1.8s-.8-1.8-1.8-1.8M433.7 348.2c-1 0-1.8.7-1.8 1.8 0 1 .7 1.8 1.8 1.8 1 0 1.8-.7 1.8-1.8s-.8-1.8-1.8-1.8M439.7 354.1c-1 0-1.8.7-1.8 1.8 0 1 .7 1.8 1.8 1.8 1 0 1.8-.7 1.8-1.8s-.9-1.8-1.8-1.8M427.8 354.1c-1 0-1.8.7-1.8 1.8 0 1 .7 1.8 1.8 1.8 1 0 1.8-.7 1.8-1.8s-.7-1.8-1.8-1.8M439.7 342.2c-1 0-1.8.7-1.8 1.8 0 1 .7 1.8 1.8 1.8 1 0 1.8-.7 1.8-1.8 0-1-.9-1.8-1.8-1.8M427.8 342.2c-1 0-1.8.7-1.8 1.8 0 1 .7 1.8 1.8 1.8 1 0 1.8-.7 1.8-1.8 0-1-.7-1.8-1.8-1.8M422 360c-1 0-1.8.7-1.8 1.8 0 1 .7 1.8 1.8 1.8 1 0 1.8-.7 1.8-1.8-.1-1-.9-1.8-1.8-1.8M422 348.2c-1 0-1.8.7-1.8 1.8 0 1 .7 1.8 1.8 1.8 1 0 1.8-.7 1.8-1.8-.1-1.1-.9-1.8-1.8-1.8M433.7 383.7c-1 0-1.8.7-1.8 1.8 0 1 .7 1.8 1.8 1.8 1 0 1.8-.7 1.8-1.8 0-1-.8-1.8-1.8-1.8M433.7 371.8c-1 0-1.8.7-1.8 1.8 0 1 .7 1.8 1.8 1.8 1 0 1.8-.7 1.8-1.8s-.8-1.8-1.8-1.8M439.7 377.8c-1 0-1.8.7-1.8 1.8 0 1 .7 1.8 1.8 1.8 1 0 1.8-.7 1.8-1.8s-.9-1.8-1.8-1.8M427.8 377.8c-1 0-1.8.7-1.8 1.8 0 1 .7 1.8 1.8 1.8 1 0 1.8-.7 1.8-1.8s-.7-1.8-1.8-1.8M439.7 365.9c-1 0-1.8.7-1.8 1.8 0 1 .7 1.8 1.8 1.8 1 0 1.8-.7 1.8-1.8 0-1-.9-1.8-1.8-1.8M427.8 365.9c-1 0-1.8.7-1.8 1.8 0 1 .7 1.8 1.8 1.8 1 0 1.8-.7 1.8-1.8 0-1-.7-1.8-1.8-1.8M422 383.7c-1 0-1.8.7-1.8 1.8 0 1 .7 1.8 1.8 1.8 1 0 1.8-.7 1.8-1.8-.1-1-.9-1.8-1.8-1.8M422 371.8c-1 0-1.8.7-1.8 1.8 0 1 .7 1.8 1.8 1.8 1 0 1.8-.7 1.8-1.8-.1-1-.9-1.8-1.8-1.8M433.7 407.4c-1 0-1.8.7-1.8 1.8 0 1 .7 1.8 1.8 1.8 1 0 1.8-.7 1.8-1.8s-.8-1.8-1.8-1.8M433.7 395.5c-1 0-1.8.7-1.8 1.8 0 1 .7 1.8 1.8 1.8 1 0 1.8-.7 1.8-1.8 0-1-.8-1.8-1.8-1.8M439.7 401.4c-1 0-1.8.7-1.8 1.8 0 1 .7 1.8 1.8 1.8 1 0 1.8-.7 1.8-1.8 0-1-.9-1.8-1.8-1.8M427.8 401.4c-1 0-1.8.7-1.8 1.8 0 1 .7 1.8 1.8 1.8 1 0 1.8-.7 1.8-1.8 0-1-.7-1.8-1.8-1.8M439.7 389.5c-1 0-1.8.7-1.8 1.8 0 1 .7 1.8 1.8 1.8 1 0 1.8-.7 1.8-1.8 0-.9-.9-1.8-1.8-1.8M427.8 389.5c-1 0-1.8.7-1.8 1.8 0 1 .7 1.8 1.8 1.8 1 0 1.8-.7 1.8-1.8 0-.9-.7-1.8-1.8-1.8M422 407.4c-1 0-1.8.7-1.8 1.8 0 1 .7 1.8 1.8 1.8 1 0 1.8-.7 1.8-1.8-.1-1.1-.9-1.8-1.8-1.8M422 395.5c-1 0-1.8.7-1.8 1.8 0 1 .7 1.8 1.8 1.8 1 0 1.8-.7 1.8-1.8-.1-1-.9-1.8-1.8-1.8M433.7 431c-1 0-1.8.7-1.8 1.8 0 1 .7 1.8 1.8 1.8 1 0 1.8-.7 1.8-1.8s-.8-1.8-1.8-1.8M433.7 419.1c-1 0-1.8.7-1.8 1.8 0 1 .7 1.8 1.8 1.8 1 0 1.8-.7 1.8-1.8 0-.9-.8-1.8-1.8-1.8M439.7 425.1c-1 0-1.8.7-1.8 1.8 0 1 .7 1.8 1.8 1.8 1 0 1.8-.7 1.8-1.8s-.9-1.8-1.8-1.8M439.7 413.2c-1 0-1.8.7-1.8 1.8 0 1 .7 1.8 1.8 1.8 1 0 1.8-.7 1.8-1.8 0-.9-.9-1.8-1.8-1.8M427.8 413.2c-1 0-1.8.7-1.8 1.8 0 1 .7 1.8 1.8 1.8 1 0 1.8-.7 1.8-1.8 0-.9-.7-1.8-1.8-1.8M422 431c-1 0-1.8.7-1.8 1.8 0 1 .7 1.8 1.8 1.8 1 0 1.8-.7 1.8-1.8-.1-1-.9-1.8-1.8-1.8M422 419.1c-1 0-1.8.7-1.8 1.8 0 1 .7 1.8 1.8 1.8 1 0 1.8-.7 1.8-1.8-.1-.9-.9-1.8-1.8-1.8M439.7 448.7c-1 0-1.8.7-1.8 1.8 0 1 .7 1.8 1.8 1.8 1 0 1.8-.7 1.8-1.8 0-.9-.9-1.8-1.8-1.8M439.7 437c-1 0-1.8.7-1.8 1.8 0 1 .7 1.8 1.8 1.8 1 0 1.8-.7 1.8-1.8s-.9-1.8-1.8-1.8M410.1 312.6c-1 0-1.8.7-1.8 1.8 0 1 .7 1.8 1.8 1.8 1 0 1.8-.7 1.8-1.8 0-.9-.9-1.8-1.8-1.8M410.1 300.9c-1 0-1.8.7-1.8 1.8 0 1 .7 1.8 1.8 1.8 1 0 1.8-.7 1.8-1.8s-.9-1.8-1.8-1.8M416 306.7c-1 0-1.8.7-1.8 1.8 0 1 .7 1.8 1.8 1.8 1 0 1.8-.7 1.8-1.8-.1-.9-.8-1.8-1.8-1.8M404.1 306.7c-1 0-1.8.7-1.8 1.8 0 1 .7 1.8 1.8 1.8 1 0 1.8-.7 1.8-1.8 0-.9-.8-1.8-1.8-1.8M416 294.9c-1 0-1.8.7-1.8 1.8 0 1 .7 1.8 1.8 1.8 1 0 1.8-.7 1.8-1.8-.1-1-.8-1.8-1.8-1.8M398.2 312.6c-1 0-1.8.7-1.8 1.8 0 1 .7 1.8 1.8 1.8 1 0 1.8-.7 1.8-1.8 0-.9-.7-1.8-1.8-1.8M398.2 300.9c-1 0-1.8.7-1.8 1.8 0 1 .7 1.8 1.8 1.8 1 0 1.8-.7 1.8-1.8s-.7-1.8-1.8-1.8M410.1 336.3c-1 0-1.8.7-1.8 1.8 0 1 .7 1.8 1.8 1.8 1 0 1.8-.7 1.8-1.8 0-1-.9-1.8-1.8-1.8M410.1 324.5c-1 0-1.8.7-1.8 1.8 0 1 .7 1.8 1.8 1.8 1 0 1.8-.7 1.8-1.8 0-1-.9-1.8-1.8-1.8M416 330.4c-1 0-1.8.7-1.8 1.8 0 1 .7 1.8 1.8 1.8 1 0 1.8-.7 1.8-1.8-.1-1-.8-1.8-1.8-1.8M404.1 330.4c-1 0-1.8.7-1.8 1.8 0 1 .7 1.8 1.8 1.8 1 0 1.8-.7 1.8-1.8 0-1-.8-1.8-1.8-1.8M416 318.6c-1 0-1.8.7-1.8 1.8 0 1 .7 1.8 1.8 1.8 1 0 1.8-.7 1.8-1.8-.1-1.1-.8-1.8-1.8-1.8M404.1 318.6c-1 0-1.8.7-1.8 1.8 0 1 .7 1.8 1.8 1.8 1 0 1.8-.7 1.8-1.8s-.8-1.8-1.8-1.8M398.2 336.3c-1 0-1.8.7-1.8 1.8 0 1 .7 1.8 1.8 1.8 1 0 1.8-.7 1.8-1.8 0-1-.7-1.8-1.8-1.8M398.2 324.5c-1 0-1.8.7-1.8 1.8 0 1 .7 1.8 1.8 1.8 1 0 1.8-.7 1.8-1.8s-.7-1.8-1.8-1.8M410.1 360c-1 0-1.8.7-1.8 1.8 0 1 .7 1.8 1.8 1.8 1 0 1.8-.7 1.8-1.8 0-1-.9-1.8-1.8-1.8M410.1 348.2c-1 0-1.8.7-1.8 1.8 0 1 .7 1.8 1.8 1.8 1 0 1.8-.7 1.8-1.8s-.9-1.8-1.8-1.8M416 354.1c-1 0-1.8.7-1.8 1.8 0 1 .7 1.8 1.8 1.8 1 0 1.8-.7 1.8-1.8-.1-1-.8-1.8-1.8-1.8M404.1 354.1c-1 0-1.8.7-1.8 1.8 0 1 .7 1.8 1.8 1.8 1 0 1.8-.7 1.8-1.8s-.8-1.8-1.8-1.8M416 342.2c-1 0-1.8.7-1.8 1.8 0 1 .7 1.8 1.8 1.8 1 0 1.8-.7 1.8-1.8-.1-1-.8-1.8-1.8-1.8M404.1 342.2c-1 0-1.8.7-1.8 1.8 0 1 .7 1.8 1.8 1.8 1 0 1.8-.7 1.8-1.8 0-1-.8-1.8-1.8-1.8M398.2 360c-1 0-1.8.7-1.8 1.8 0 1 .7 1.8 1.8 1.8 1 0 1.8-.7 1.8-1.8s-.7-1.8-1.8-1.8M398.2 348.2c-1 0-1.8.7-1.8 1.8 0 1 .7 1.8 1.8 1.8 1 0 1.8-.7 1.8-1.8s-.7-1.8-1.8-1.8M410.1 383.7c-1 0-1.8.7-1.8 1.8 0 1 .7 1.8 1.8 1.8 1 0 1.8-.7 1.8-1.8 0-1-.9-1.8-1.8-1.8M410.1 371.8c-1 0-1.8.7-1.8 1.8 0 1 .7 1.8 1.8 1.8 1 0 1.8-.7 1.8-1.8 0-1-.9-1.8-1.8-1.8M416 377.8c-1 0-1.8.7-1.8 1.8 0 1 .7 1.8 1.8 1.8 1 0 1.8-.7 1.8-1.8-.1-1.1-.8-1.8-1.8-1.8M404.1 377.8c-1 0-1.8.7-1.8 1.8 0 1 .7 1.8 1.8 1.8 1 0 1.8-.7 1.8-1.8s-.8-1.8-1.8-1.8M416 365.9c-1 0-1.8.7-1.8 1.8 0 1 .7 1.8 1.8 1.8 1 0 1.8-.7 1.8-1.8-.1-1-.8-1.8-1.8-1.8M404.1 365.9c-1 0-1.8.7-1.8 1.8 0 1 .7 1.8 1.8 1.8 1 0 1.8-.7 1.8-1.8 0-1-.8-1.8-1.8-1.8M398.2 383.7c-1 0-1.8.7-1.8 1.8 0 1 .7 1.8 1.8 1.8 1 0 1.8-.7 1.8-1.8 0-1-.7-1.8-1.8-1.8M398.2 371.8c-1 0-1.8.7-1.8 1.8 0 1 .7 1.8 1.8 1.8 1 0 1.8-.7 1.8-1.8s-.7-1.8-1.8-1.8M410.1 407.4c-1 0-1.8.7-1.8 1.8 0 1 .7 1.8 1.8 1.8 1 0 1.8-.7 1.8-1.8s-.9-1.8-1.8-1.8M410.1 395.5c-1 0-1.8.7-1.8 1.8 0 1 .7 1.8 1.8 1.8 1 0 1.8-.7 1.8-1.8 0-1-.9-1.8-1.8-1.8M416 401.4c-1 0-1.8.7-1.8 1.8 0 1 .7 1.8 1.8 1.8 1 0 1.8-.7 1.8-1.8-.1-1-.8-1.8-1.8-1.8M404.1 401.4c-1 0-1.8.7-1.8 1.8 0 1 .7 1.8 1.8 1.8 1 0 1.8-.7 1.8-1.8 0-1-.8-1.8-1.8-1.8M416 389.5c-1 0-1.8.7-1.8 1.8 0 1 .7 1.8 1.8 1.8 1 0 1.8-.7 1.8-1.8-.1-.9-.8-1.8-1.8-1.8M404.1 389.5c-1 0-1.8.7-1.8 1.8 0 1 .7 1.8 1.8 1.8 1 0 1.8-.7 1.8-1.8 0-.9-.8-1.8-1.8-1.8M398.2 407.4c-1 0-1.8.7-1.8 1.8 0 1 .7 1.8 1.8 1.8 1 0 1.8-.7 1.8-1.8s-.7-1.8-1.8-1.8M398.2 395.5c-1 0-1.8.7-1.8 1.8 0 1 .7 1.8 1.8 1.8 1 0 1.8-.7 1.8-1.8 0-1-.7-1.8-1.8-1.8M410.1 431c-1 0-1.8.7-1.8 1.8 0 1 .7 1.8 1.8 1.8 1 0 1.8-.7 1.8-1.8 0-1-.9-1.8-1.8-1.8M410.1 419.1c-1 0-1.8.7-1.8 1.8 0 1 .7 1.8 1.8 1.8 1 0 1.8-.7 1.8-1.8 0-.9-.9-1.8-1.8-1.8M416 425.1c-1 0-1.8.7-1.8 1.8 0 1 .7 1.8 1.8 1.8 1 0 1.8-.7 1.8-1.8-.1-1.1-.8-1.8-1.8-1.8M404.1 425.1c-1 0-1.8.7-1.8 1.8 0 1 .7 1.8 1.8 1.8 1 0 1.8-.7 1.8-1.8s-.8-1.8-1.8-1.8M416 413.2c-1 0-1.8.7-1.8 1.8 0 1 .7 1.8 1.8 1.8 1 0 1.8-.7 1.8-1.8-.1-.9-.8-1.8-1.8-1.8M404.1 413.2c-1 0-1.8.7-1.8 1.8 0 1 .7 1.8 1.8 1.8 1 0 1.8-.7 1.8-1.8 0-.9-.8-1.8-1.8-1.8M398.2 431c-1 0-1.8.7-1.8 1.8 0 1 .7 1.8 1.8 1.8 1 0 1.8-.7 1.8-1.8s-.7-1.8-1.8-1.8M398.2 419.1c-1 0-1.8.7-1.8 1.8 0 1 .7 1.8 1.8 1.8 1 0 1.8-.7 1.8-1.8 0-.9-.7-1.8-1.8-1.8M410.1 442.8c-1 0-1.8.7-1.8 1.8 0 1 .7 1.8 1.8 1.8 1 0 1.8-.7 1.8-1.8 0-1-.9-1.8-1.8-1.8M404.1 437c-1 0-1.8.7-1.8 1.8 0 1 .7 1.8 1.8 1.8 1 0 1.8-.7 1.8-1.8s-.8-1.8-1.8-1.8M386.4 265.3c-1 0-1.8.7-1.8 1.8 0 1 .7 1.8 1.8 1.8 1 0 1.8-.7 1.8-1.8 0-1-.8-1.8-1.8-1.8M374.5 265.3c-1 0-1.8.7-1.8 1.8 0 1 .7 1.8 1.8 1.8 1 0 1.8-.7 1.8-1.8 0-1-.8-1.8-1.8-1.8M386.4 289c-1 0-1.8.7-1.8 1.8 0 1 .7 1.8 1.8 1.8 1 0 1.8-.7 1.8-1.8s-.8-1.8-1.8-1.8M392.4 283.1c-1 0-1.8.7-1.8 1.8 0 1 .7 1.8 1.8 1.8 1 0 1.8-.7 1.8-1.8-.1-1-.9-1.8-1.8-1.8M380.5 271.3c-1 0-1.8.7-1.8 1.8 0 1 .7 1.8 1.8 1.8 1 0 1.8-.7 1.8-1.8s-.9-1.8-1.8-1.8M374.5 289c-1 0-1.8.7-1.8 1.8 0 1 .7 1.8 1.8 1.8 1 0 1.8-.7 1.8-1.8s-.8-1.8-1.8-1.8M386.4 312.6c-1 0-1.8.7-1.8 1.8 0 1 .7 1.8 1.8 1.8 1 0 1.8-.7 1.8-1.8 0-.9-.8-1.8-1.8-1.8M392.4 306.7c-1 0-1.8.7-1.8 1.8 0 1 .7 1.8 1.8 1.8 1 0 1.8-.7 1.8-1.8-.1-.9-.9-1.8-1.8-1.8M380.5 306.7c-1 0-1.8.7-1.8 1.8 0 1 .7 1.8 1.8 1.8 1 0 1.8-.7 1.8-1.8 0-.9-.9-1.8-1.8-1.8M374.5 312.6c-1 0-1.8.7-1.8 1.8 0 1 .7 1.8 1.8 1.8 1 0 1.8-.7 1.8-1.8 0-.9-.8-1.8-1.8-1.8M374.5 300.9c-1 0-1.8.7-1.8 1.8 0 1 .7 1.8 1.8 1.8 1 0 1.8-.7 1.8-1.8s-.8-1.8-1.8-1.8M386.4 336.3c-1 0-1.8.7-1.8 1.8 0 1 .7 1.8 1.8 1.8 1 0 1.8-.7 1.8-1.8 0-1-.8-1.8-1.8-1.8M386.4 324.5c-1 0-1.8.7-1.8 1.8 0 1 .7 1.8 1.8 1.8 1 0 1.8-.7 1.8-1.8s-.8-1.8-1.8-1.8M392.4 330.4c-1 0-1.8.7-1.8 1.8 0 1 .7 1.8 1.8 1.8 1 0 1.8-.7 1.8-1.8-.1-1-.9-1.8-1.8-1.8M380.5 330.4c-1 0-1.8.7-1.8 1.8 0 1 .7 1.8 1.8 1.8 1 0 1.8-.7 1.8-1.8 0-1-.9-1.8-1.8-1.8M392.4 318.6c-1 0-1.8.7-1.8 1.8 0 1 .7 1.8 1.8 1.8 1 0 1.8-.7 1.8-1.8-.1-1.1-.9-1.8-1.8-1.8M380.5 318.6c-1 0-1.8.7-1.8 1.8 0 1 .7 1.8 1.8 1.8 1 0 1.8-.7 1.8-1.8s-.9-1.8-1.8-1.8M374.5 336.3c-1 0-1.8.7-1.8 1.8 0 1 .7 1.8 1.8 1.8 1 0 1.8-.7 1.8-1.8 0-1-.8-1.8-1.8-1.8M374.5 324.5c-1 0-1.8.7-1.8 1.8 0 1 .7 1.8 1.8 1.8 1 0 1.8-.7 1.8-1.8 0-1-.8-1.8-1.8-1.8M386.4 360c-1 0-1.8.7-1.8 1.8 0 1 .7 1.8 1.8 1.8 1 0 1.8-.7 1.8-1.8 0-1-.8-1.8-1.8-1.8M386.4 348.2c-1 0-1.8.7-1.8 1.8 0 1 .7 1.8 1.8 1.8 1 0 1.8-.7 1.8-1.8s-.8-1.8-1.8-1.8M392.4 354.1c-1 0-1.8.7-1.8 1.8 0 1 .7 1.8 1.8 1.8 1 0 1.8-.7 1.8-1.8-.1-1-.9-1.8-1.8-1.8M380.5 354.1c-1 0-1.8.7-1.8 1.8 0 1 .7 1.8 1.8 1.8 1 0 1.8-.7 1.8-1.8 0-1-.9-1.8-1.8-1.8M392.4 342.2c-1 0-1.8.7-1.8 1.8 0 1 .7 1.8 1.8 1.8 1 0 1.8-.7 1.8-1.8-.1-1-.9-1.8-1.8-1.8M380.5 342.2c-1 0-1.8.7-1.8 1.8 0 1 .7 1.8 1.8 1.8 1 0 1.8-.7 1.8-1.8 0-1-.9-1.8-1.8-1.8M374.5 360c-1 0-1.8.7-1.8 1.8 0 1 .7 1.8 1.8 1.8 1 0 1.8-.7 1.8-1.8 0-1-.8-1.8-1.8-1.8M374.5 348.2c-1 0-1.8.7-1.8 1.8 0 1 .7 1.8 1.8 1.8 1 0 1.8-.7 1.8-1.8s-.8-1.8-1.8-1.8M386.4 383.7c-1 0-1.8.7-1.8 1.8 0 1 .7 1.8 1.8 1.8 1 0 1.8-.7 1.8-1.8 0-1-.8-1.8-1.8-1.8M386.4 371.8c-1 0-1.8.7-1.8 1.8 0 1 .7 1.8 1.8 1.8 1 0 1.8-.7 1.8-1.8s-.8-1.8-1.8-1.8M392.4 377.8c-1 0-1.8.7-1.8 1.8 0 1 .7 1.8 1.8 1.8 1 0 1.8-.7 1.8-1.8-.1-1.1-.9-1.8-1.8-1.8M380.5 377.8c-1 0-1.8.7-1.8 1.8 0 1 .7 1.8 1.8 1.8 1 0 1.8-.7 1.8-1.8s-.9-1.8-1.8-1.8M392.4 365.9c-1 0-1.8.7-1.8 1.8 0 1 .7 1.8 1.8 1.8 1 0 1.8-.7 1.8-1.8-.1-1-.9-1.8-1.8-1.8M380.5 365.9c-1 0-1.8.7-1.8 1.8 0 1 .7 1.8 1.8 1.8 1 0 1.8-.7 1.8-1.8 0-1-.9-1.8-1.8-1.8M374.5 383.7c-1 0-1.8.7-1.8 1.8 0 1 .7 1.8 1.8 1.8 1 0 1.8-.7 1.8-1.8 0-1-.8-1.8-1.8-1.8M374.5 371.8c-1 0-1.8.7-1.8 1.8 0 1 .7 1.8 1.8 1.8 1 0 1.8-.7 1.8-1.8 0-1-.8-1.8-1.8-1.8M386.4 407.4c-1 0-1.8.7-1.8 1.8 0 1 .7 1.8 1.8 1.8 1 0 1.8-.7 1.8-1.8s-.8-1.8-1.8-1.8M386.4 395.5c-1 0-1.8.7-1.8 1.8 0 1 .7 1.8 1.8 1.8 1 0 1.8-.7 1.8-1.8 0-1-.8-1.8-1.8-1.8M392.4 401.4c-1 0-1.8.7-1.8 1.8 0 1 .7 1.8 1.8 1.8 1 0 1.8-.7 1.8-1.8-.1-1-.9-1.8-1.8-1.8M380.5 401.4c-1 0-1.8.7-1.8 1.8 0 1 .7 1.8 1.8 1.8 1 0 1.8-.7 1.8-1.8 0-1-.9-1.8-1.8-1.8M392.4 389.5c-1 0-1.8.7-1.8 1.8 0 1 .7 1.8 1.8 1.8 1 0 1.8-.7 1.8-1.8-.1-.9-.9-1.8-1.8-1.8M380.5 389.5c-1 0-1.8.7-1.8 1.8 0 1 .7 1.8 1.8 1.8 1 0 1.8-.7 1.8-1.8 0-.9-.9-1.8-1.8-1.8M374.5 407.4c-1 0-1.8.7-1.8 1.8 0 1 .7 1.8 1.8 1.8 1 0 1.8-.7 1.8-1.8s-.8-1.8-1.8-1.8M374.5 395.5c-1 0-1.8.7-1.8 1.8 0 1 .7 1.8 1.8 1.8 1 0 1.8-.7 1.8-1.8 0-1-.8-1.8-1.8-1.8M392.4 413.2c-1 0-1.8.7-1.8 1.8 0 1 .7 1.8 1.8 1.8 1 0 1.8-.7 1.8-1.8-.1-.9-.9-1.8-1.8-1.8M380.5 413.2c-1 0-1.8.7-1.8 1.8 0 1 .7 1.8 1.8 1.8 1 0 1.8-.7 1.8-1.8 0-.9-.9-1.8-1.8-1.8M374.5 419.1c-1 0-1.8.7-1.8 1.8 0 1 .7 1.8 1.8 1.8 1 0 1.8-.7 1.8-1.8 0-.9-.8-1.8-1.8-1.8M362.8 265.3c-1 0-1.8.7-1.8 1.8 0 1 .7 1.8 1.8 1.8 1 0 1.8-.7 1.8-1.8-.1-1-.9-1.8-1.8-1.8M350.9 265.3c-1 0-1.8.7-1.8 1.8 0 1 .7 1.8 1.8 1.8 1 0 1.8-.7 1.8-1.8 0-1-.9-1.8-1.8-1.8M368.6 271.3c-1 0-1.8.7-1.8 1.8 0 1 .7 1.8 1.8 1.8 1 0 1.8-.7 1.8-1.8s-.7-1.8-1.8-1.8M356.8 271.3c-1 0-1.8.7-1.8 1.8 0 1 .7 1.8 1.8 1.8 1 0 1.8-.7 1.8-1.8s-.8-1.8-1.8-1.8M362.8 312.6c-1 0-1.8.7-1.8 1.8 0 1 .7 1.8 1.8 1.8 1 0 1.8-.7 1.8-1.8-.1-.9-.9-1.8-1.8-1.8M368.6 306.7c-1 0-1.8.7-1.8 1.8 0 1 .7 1.8 1.8 1.8 1 0 1.8-.7 1.8-1.8 0-.9-.7-1.8-1.8-1.8M368.6 294.9c-1 0-1.8.7-1.8 1.8 0 1 .7 1.8 1.8 1.8 1 0 1.8-.7 1.8-1.8s-.7-1.8-1.8-1.8M362.8 336.3c-1 0-1.8.7-1.8 1.8 0 1 .7 1.8 1.8 1.8 1 0 1.8-.7 1.8-1.8-.1-1-.9-1.8-1.8-1.8M362.8 324.5c-1 0-1.8.7-1.8 1.8 0 1 .7 1.8 1.8 1.8 1 0 1.8-.7 1.8-1.8-.1-1-.9-1.8-1.8-1.8M368.6 330.4c-1 0-1.8.7-1.8 1.8 0 1 .7 1.8 1.8 1.8 1 0 1.8-.7 1.8-1.8 0-1-.7-1.8-1.8-1.8M356.8 330.4c-1 0-1.8.7-1.8 1.8 0 1 .7 1.8 1.8 1.8 1 0 1.8-.7 1.8-1.8 0-1-.8-1.8-1.8-1.8M368.6 318.6c-1 0-1.8.7-1.8 1.8 0 1 .7 1.8 1.8 1.8 1 0 1.8-.7 1.8-1.8s-.7-1.8-1.8-1.8M356.8 318.6c-1 0-1.8.7-1.8 1.8 0 1 .7 1.8 1.8 1.8 1 0 1.8-.7 1.8-1.8s-.8-1.8-1.8-1.8M350.9 336.3c-1 0-1.8.7-1.8 1.8 0 1 .7 1.8 1.8 1.8 1 0 1.8-.7 1.8-1.8 0-1-.9-1.8-1.8-1.8M350.9 324.5c-1 0-1.8.7-1.8 1.8 0 1 .7 1.8 1.8 1.8 1 0 1.8-.7 1.8-1.8s-.9-1.8-1.8-1.8M362.8 360c-1 0-1.8.7-1.8 1.8 0 1 .7 1.8 1.8 1.8 1 0 1.8-.7 1.8-1.8s-.9-1.8-1.8-1.8M362.8 348.2c-1 0-1.8.7-1.8 1.8 0 1 .7 1.8 1.8 1.8 1 0 1.8-.7 1.8-1.8-.1-1.1-.9-1.8-1.8-1.8M368.6 354.1c-1 0-1.8.7-1.8 1.8 0 1 .7 1.8 1.8 1.8 1 0 1.8-.7 1.8-1.8s-.7-1.8-1.8-1.8M356.8 354.1c-1 0-1.8.7-1.8 1.8 0 1 .7 1.8 1.8 1.8 1 0 1.8-.7 1.8-1.8s-.8-1.8-1.8-1.8M368.6 342.2c-1 0-1.8.7-1.8 1.8 0 1 .7 1.8 1.8 1.8 1 0 1.8-.7 1.8-1.8 0-1-.7-1.8-1.8-1.8M356.8 342.2c-1 0-1.8.7-1.8 1.8 0 1 .7 1.8 1.8 1.8 1 0 1.8-.7 1.8-1.8 0-1-.8-1.8-1.8-1.8M350.9 360c-1 0-1.8.7-1.8 1.8 0 1 .7 1.8 1.8 1.8 1 0 1.8-.7 1.8-1.8 0-1-.9-1.8-1.8-1.8M350.9 348.2c-1 0-1.8.7-1.8 1.8 0 1 .7 1.8 1.8 1.8 1 0 1.8-.7 1.8-1.8s-.9-1.8-1.8-1.8M362.8 383.7c-1 0-1.8.7-1.8 1.8 0 1 .7 1.8 1.8 1.8 1 0 1.8-.7 1.8-1.8-.1-1-.9-1.8-1.8-1.8M362.8 371.8c-1 0-1.8.7-1.8 1.8 0 1 .7 1.8 1.8 1.8 1 0 1.8-.7 1.8-1.8-.1-1-.9-1.8-1.8-1.8M368.6 377.8c-1 0-1.8.7-1.8 1.8 0 1 .7 1.8 1.8 1.8 1 0 1.8-.7 1.8-1.8s-.7-1.8-1.8-1.8M350.9 383.7c-1 0-1.8.7-1.8 1.8 0 1 .7 1.8 1.8 1.8 1 0 1.8-.7 1.8-1.8 0-1-.9-1.8-1.8-1.8M350.9 371.8c-1 0-1.8.7-1.8 1.8 0 1 .7 1.8 1.8 1.8 1 0 1.8-.7 1.8-1.8s-.9-1.8-1.8-1.8M362.8 407.4c-1 0-1.8.7-1.8 1.8 0 1 .7 1.8 1.8 1.8 1 0 1.8-.7 1.8-1.8-.1-1.1-.9-1.8-1.8-1.8M362.8 395.5c-1 0-1.8.7-1.8 1.8 0 1 .7 1.8 1.8 1.8 1 0 1.8-.7 1.8-1.8-.1-1-.9-1.8-1.8-1.8M368.6 401.4c-1 0-1.8.7-1.8 1.8 0 1 .7 1.8 1.8 1.8 1 0 1.8-.7 1.8-1.8 0-1-.7-1.8-1.8-1.8M356.8 401.4c-1 0-1.8.7-1.8 1.8 0 1 .7 1.8 1.8 1.8 1 0 1.8-.7 1.8-1.8 0-1-.8-1.8-1.8-1.8M368.6 389.5c-1 0-1.8.7-1.8 1.8 0 1 .7 1.8 1.8 1.8 1 0 1.8-.7 1.8-1.8 0-.9-.7-1.8-1.8-1.8M356.8 389.5c-1 0-1.8.7-1.8 1.8 0 1 .7 1.8 1.8 1.8 1 0 1.8-.7 1.8-1.8 0-.9-.8-1.8-1.8-1.8M350.9 407.4c-1 0-1.8.7-1.8 1.8 0 1 .7 1.8 1.8 1.8 1 0 1.8-.7 1.8-1.8s-.9-1.8-1.8-1.8M350.9 395.5c-1 0-1.8.7-1.8 1.8 0 1 .7 1.8 1.8 1.8 1 0 1.8-.7 1.8-1.8 0-1-.9-1.8-1.8-1.8M362.8 431c-1 0-1.8.7-1.8 1.8 0 1 .7 1.8 1.8 1.8 1 0 1.8-.7 1.8-1.8s-.9-1.8-1.8-1.8M362.8 419.1c-1 0-1.8.7-1.8 1.8 0 1 .7 1.8 1.8 1.8 1 0 1.8-.7 1.8-1.8-.1-.9-.9-1.8-1.8-1.8M368.6 425.1c-1 0-1.8.7-1.8 1.8 0 1 .7 1.8 1.8 1.8 1 0 1.8-.7 1.8-1.8s-.7-1.8-1.8-1.8M356.8 425.1c-1 0-1.8.7-1.8 1.8 0 1 .7 1.8 1.8 1.8 1 0 1.8-.7 1.8-1.8s-.8-1.8-1.8-1.8M368.6 413.2c-1 0-1.8.7-1.8 1.8 0 1 .7 1.8 1.8 1.8 1 0 1.8-.7 1.8-1.8 0-.9-.7-1.8-1.8-1.8M356.8 413.2c-1 0-1.8.7-1.8 1.8 0 1 .7 1.8 1.8 1.8 1 0 1.8-.7 1.8-1.8 0-.9-.8-1.8-1.8-1.8M350.9 431c-1 0-1.8.7-1.8 1.8 0 1 .7 1.8 1.8 1.8 1 0 1.8-.7 1.8-1.8 0-1-.9-1.8-1.8-1.8M350.9 419.1c-1 0-1.8.7-1.8 1.8 0 1 .7 1.8 1.8 1.8 1 0 1.8-.7 1.8-1.8 0-.9-.9-1.8-1.8-1.8M362.8 442.8c-1 0-1.8.7-1.8 1.8 0 1 .7 1.8 1.8 1.8 1 0 1.8-.7 1.8-1.8-.1-1-.9-1.8-1.8-1.8M356.8 448.7c-1 0-1.8.7-1.8 1.8 0 1 .7 1.8 1.8 1.8 1 0 1.8-.7 1.8-1.8 0-.9-.8-1.8-1.8-1.8M356.8 437c-1 0-1.8.7-1.8 1.8 0 1 .7 1.8 1.8 1.8 1 0 1.8-.7 1.8-1.8s-.8-1.8-1.8-1.8M350.9 454.7c-1 0-1.8.7-1.8 1.8 0 1 .7 1.8 1.8 1.8 1 0 1.8-.7 1.8-1.8s-.9-1.8-1.8-1.8M350.9 442.8c-1 0-1.8.7-1.8 1.8 0 1 .7 1.8 1.8 1.8 1 0 1.8-.7 1.8-1.8 0-1-.9-1.8-1.8-1.8M350.9 466.6c-1 0-1.8.7-1.8 1.8 0 1 .7 1.8 1.8 1.8 1 0 1.8-.7 1.8-1.8s-.9-1.8-1.8-1.8M362.8 502c-1 0-1.8.7-1.8 1.8 0 1 .7 1.8 1.8 1.8 1 0 1.8-.7 1.8-1.8-.1-1-.9-1.8-1.8-1.8M362.8 490.2c-1 0-1.8.7-1.8 1.8 0 1 .7 1.8 1.8 1.8 1 0 1.8-.7 1.8-1.8-.1-1-.9-1.8-1.8-1.8M356.8 496c-1 0-1.8.7-1.8 1.8 0 1 .7 1.8 1.8 1.8 1 0 1.8-.7 1.8-1.8 0-.9-.8-1.8-1.8-1.8M350.9 502c-1 0-1.8.7-1.8 1.8 0 1 .7 1.8 1.8 1.8 1 0 1.8-.7 1.8-1.8 0-1-.9-1.8-1.8-1.8M350.9 490.2c-1 0-1.8.7-1.8 1.8 0 1 .7 1.8 1.8 1.8 1 0 1.8-.7 1.8-1.8s-.9-1.8-1.8-1.8M356.8 507.9c-1 0-1.8.7-1.8 1.8 0 1 .7 1.8 1.8 1.8 1 0 1.8-.7 1.8-1.8 0-.9-.8-1.8-1.8-1.8M339.1 312.6c-1 0-1.8.7-1.8 1.8 0 1 .7 1.8 1.8 1.8 1 0 1.8-.7 1.8-1.8-.1-.9-.8-1.8-1.8-1.8M333.2 306.7c-1 0-1.8.7-1.8 1.8 0 1 .7 1.8 1.8 1.8 1 0 1.8-.7 1.8-1.8-.1-.9-.9-1.8-1.8-1.8M327.2 312.6c-1 0-1.8.7-1.8 1.8 0 1 .7 1.8 1.8 1.8 1 0 1.8-.7 1.8-1.8 0-.9-.8-1.8-1.8-1.8M339.1 336.3c-1 0-1.8.7-1.8 1.8 0 1 .7 1.8 1.8 1.8 1 0 1.8-.7 1.8-1.8-.1-1-.8-1.8-1.8-1.8M339.1 324.5c-1 0-1.8.7-1.8 1.8 0 1 .7 1.8 1.8 1.8 1 0 1.8-.7 1.8-1.8-.1-1-.8-1.8-1.8-1.8M344.9 330.4c-1 0-1.8.7-1.8 1.8 0 1 .7 1.8 1.8 1.8 1 0 1.8-.7 1.8-1.8.1-1-.7-1.8-1.8-1.8M333.2 330.4c-1 0-1.8.7-1.8 1.8 0 1 .7 1.8 1.8 1.8 1 0 1.8-.7 1.8-1.8-.1-1-.9-1.8-1.8-1.8M344.9 318.6c-1 0-1.8.7-1.8 1.8 0 1 .7 1.8 1.8 1.8 1 0 1.8-.7 1.8-1.8.1-1.1-.7-1.8-1.8-1.8M333.2 318.6c-1 0-1.8.7-1.8 1.8 0 1 .7 1.8 1.8 1.8 1 0 1.8-.7 1.8-1.8-.1-1.1-.9-1.8-1.8-1.8M327.2 336.3c-1 0-1.8.7-1.8 1.8 0 1 .7 1.8 1.8 1.8 1 0 1.8-.7 1.8-1.8 0-1-.8-1.8-1.8-1.8M327.2 324.5c-1 0-1.8.7-1.8 1.8 0 1 .7 1.8 1.8 1.8 1 0 1.8-.7 1.8-1.8s-.8-1.8-1.8-1.8M339.1 360c-1 0-1.8.7-1.8 1.8 0 1 .7 1.8 1.8 1.8 1 0 1.8-.7 1.8-1.8-.1-1-.8-1.8-1.8-1.8M339.1 348.2c-1 0-1.8.7-1.8 1.8 0 1 .7 1.8 1.8 1.8 1 0 1.8-.7 1.8-1.8-.1-1.1-.8-1.8-1.8-1.8M344.9 354.1c-1 0-1.8.7-1.8 1.8 0 1 .7 1.8 1.8 1.8 1 0 1.8-.7 1.8-1.8.1-1-.7-1.8-1.8-1.8M333.2 354.1c-1 0-1.8.7-1.8 1.8 0 1 .7 1.8 1.8 1.8 1 0 1.8-.7 1.8-1.8-.1-1-.9-1.8-1.8-1.8M344.9 342.2c-1 0-1.8.7-1.8 1.8 0 1 .7 1.8 1.8 1.8 1 0 1.8-.7 1.8-1.8.1-1-.7-1.8-1.8-1.8M333.2 342.2c-1 0-1.8.7-1.8 1.8 0 1 .7 1.8 1.8 1.8 1 0 1.8-.7 1.8-1.8-.1-1-.9-1.8-1.8-1.8M327.2 360c-1 0-1.8.7-1.8 1.8 0 1 .7 1.8 1.8 1.8 1 0 1.8-.7 1.8-1.8 0-1-.8-1.8-1.8-1.8M327.2 348.2c-1 0-1.8.7-1.8 1.8 0 1 .7 1.8 1.8 1.8 1 0 1.8-.7 1.8-1.8s-.8-1.8-1.8-1.8M339.1 383.7c-1 0-1.8.7-1.8 1.8 0 1 .7 1.8 1.8 1.8 1 0 1.8-.7 1.8-1.8-.1-1-.8-1.8-1.8-1.8M339.1 371.8c-1 0-1.8.7-1.8 1.8 0 1 .7 1.8 1.8 1.8 1 0 1.8-.7 1.8-1.8-.1-1-.8-1.8-1.8-1.8M344.9 377.8c-1 0-1.8.7-1.8 1.8 0 1 .7 1.8 1.8 1.8 1 0 1.8-.7 1.8-1.8.1-1.1-.7-1.8-1.8-1.8M344.9 365.9c-1 0-1.8.7-1.8 1.8 0 1 .7 1.8 1.8 1.8 1 0 1.8-.7 1.8-1.8.1-1-.7-1.8-1.8-1.8M333.2 365.9c-1 0-1.8.7-1.8 1.8 0 1 .7 1.8 1.8 1.8 1 0 1.8-.7 1.8-1.8-.1-1-.9-1.8-1.8-1.8M327.2 383.7c-1 0-1.8.7-1.8 1.8 0 1 .7 1.8 1.8 1.8 1 0 1.8-.7 1.8-1.8 0-1-.8-1.8-1.8-1.8M327.2 371.8c-1 0-1.8.7-1.8 1.8 0 1 .7 1.8 1.8 1.8 1 0 1.8-.7 1.8-1.8s-.8-1.8-1.8-1.8M339.1 407.4c-1 0-1.8.7-1.8 1.8 0 1 .7 1.8 1.8 1.8 1 0 1.8-.7 1.8-1.8-.1-1.1-.8-1.8-1.8-1.8M339.1 395.5c-1 0-1.8.7-1.8 1.8 0 1 .7 1.8 1.8 1.8 1 0 1.8-.7 1.8-1.8-.1-1-.8-1.8-1.8-1.8M344.9 401.4c-1 0-1.8.7-1.8 1.8 0 1 .7 1.8 1.8 1.8 1 0 1.8-.7 1.8-1.8.1-1-.7-1.8-1.8-1.8M344.9 389.5c-1 0-1.8.7-1.8 1.8 0 1 .7 1.8 1.8 1.8 1 0 1.8-.7 1.8-1.8.1-.9-.7-1.8-1.8-1.8M333.2 389.5c-1 0-1.8.7-1.8 1.8 0 1 .7 1.8 1.8 1.8 1 0 1.8-.7 1.8-1.8-.1-.9-.9-1.8-1.8-1.8M327.2 407.4c-1 0-1.8.7-1.8 1.8 0 1 .7 1.8 1.8 1.8 1 0 1.8-.7 1.8-1.8s-.8-1.8-1.8-1.8M339.1 431c-1 0-1.8.7-1.8 1.8 0 1 .7 1.8 1.8 1.8 1 0 1.8-.7 1.8-1.8-.1-1-.8-1.8-1.8-1.8M339.1 419.1c-1 0-1.8.7-1.8 1.8 0 1 .7 1.8 1.8 1.8 1 0 1.8-.7 1.8-1.8-.1-.9-.8-1.8-1.8-1.8M344.9 425.1c-1 0-1.8.7-1.8 1.8 0 1 .7 1.8 1.8 1.8 1 0 1.8-.7 1.8-1.8.1-1.1-.7-1.8-1.8-1.8M333.2 425.1c-1 0-1.8.7-1.8 1.8 0 1 .7 1.8 1.8 1.8 1 0 1.8-.7 1.8-1.8-.1-1.1-.9-1.8-1.8-1.8M344.9 413.2c-1 0-1.8.7-1.8 1.8 0 1 .7 1.8 1.8 1.8 1 0 1.8-.7 1.8-1.8.1-.9-.7-1.8-1.8-1.8M333.2 413.2c-1 0-1.8.7-1.8 1.8 0 1 .7 1.8 1.8 1.8 1 0 1.8-.7 1.8-1.8-.1-.9-.9-1.8-1.8-1.8M327.2 431c-1 0-1.8.7-1.8 1.8 0 1 .7 1.8 1.8 1.8 1 0 1.8-.7 1.8-1.8 0-1-.8-1.8-1.8-1.8M327.2 419.1c-1 0-1.8.7-1.8 1.8 0 1 .7 1.8 1.8 1.8 1 0 1.8-.7 1.8-1.8 0-.9-.8-1.8-1.8-1.8M339.1 454.7c-1 0-1.8.7-1.8 1.8 0 1 .7 1.8 1.8 1.8 1 0 1.8-.7 1.8-1.8-.1-1.1-.8-1.8-1.8-1.8M339.1 442.8c-1 0-1.8.7-1.8 1.8 0 1 .7 1.8 1.8 1.8 1 0 1.8-.7 1.8-1.8-.1-1-.8-1.8-1.8-1.8M344.9 448.7c-1 0-1.8.7-1.8 1.8 0 1 .7 1.8 1.8 1.8 1 0 1.8-.7 1.8-1.8.1-.9-.7-1.8-1.8-1.8M333.2 448.7c-1 0-1.8.7-1.8 1.8 0 1 .7 1.8 1.8 1.8 1 0 1.8-.7 1.8-1.8-.1-.9-.9-1.8-1.8-1.8M344.9 437c-1 0-1.8.7-1.8 1.8 0 1 .7 1.8 1.8 1.8 1 0 1.8-.7 1.8-1.8.1-1.1-.7-1.8-1.8-1.8M333.2 437c-1 0-1.8.7-1.8 1.8 0 1 .7 1.8 1.8 1.8 1 0 1.8-.7 1.8-1.8-.1-1.1-.9-1.8-1.8-1.8M327.2 454.7c-1 0-1.8.7-1.8 1.8 0 1 .7 1.8 1.8 1.8 1 0 1.8-.7 1.8-1.8s-.8-1.8-1.8-1.8M327.2 442.8c-1 0-1.8.7-1.8 1.8 0 1 .7 1.8 1.8 1.8 1 0 1.8-.7 1.8-1.8 0-1-.8-1.8-1.8-1.8M339.1 478.3c-1 0-1.8.7-1.8 1.8 0 1 .7 1.8 1.8 1.8 1 0 1.8-.7 1.8-1.8-.1-.9-.8-1.8-1.8-1.8M339.1 466.6c-1 0-1.8.7-1.8 1.8 0 1 .7 1.8 1.8 1.8 1 0 1.8-.7 1.8-1.8-.1-1.1-.8-1.8-1.8-1.8M344.9 472.4c-1 0-1.8.7-1.8 1.8 0 1 .7 1.8 1.8 1.8 1 0 1.8-.7 1.8-1.8.1-1-.7-1.8-1.8-1.8M333.2 472.4c-1 0-1.8.7-1.8 1.8 0 1 .7 1.8 1.8 1.8 1 0 1.8-.7 1.8-1.8-.1-1-.9-1.8-1.8-1.8M344.9 460.6c-1 0-1.8.7-1.8 1.8s.7 1.8 1.8 1.8c1 0 1.8-.7 1.8-1.8s-.7-1.8-1.8-1.8M333.2 460.6c-1 0-1.8.7-1.8 1.8s.7 1.8 1.8 1.8c1 0 1.8-.7 1.8-1.8s-.9-1.8-1.8-1.8M327.2 478.3c-1 0-1.8.7-1.8 1.8 0 1 .7 1.8 1.8 1.8 1 0 1.8-.7 1.8-1.8 0-.9-.8-1.8-1.8-1.8M327.2 466.6c-1 0-1.8.7-1.8 1.8 0 1 .7 1.8 1.8 1.8 1 0 1.8-.7 1.8-1.8s-.8-1.8-1.8-1.8M339.1 502c-1 0-1.8.7-1.8 1.8 0 1 .7 1.8 1.8 1.8 1 0 1.8-.7 1.8-1.8-.1-1-.8-1.8-1.8-1.8M339.1 490.2c-1 0-1.8.7-1.8 1.8 0 1 .7 1.8 1.8 1.8 1 0 1.8-.7 1.8-1.8-.1-1-.8-1.8-1.8-1.8M333.2 496c-1 0-1.8.7-1.8 1.8 0 1 .7 1.8 1.8 1.8 1 0 1.8-.7 1.8-1.8-.1-.9-.9-1.8-1.8-1.8M344.9 484.3c-1 0-1.8.7-1.8 1.8s.7 1.8 1.8 1.8c1 0 1.8-.7 1.8-1.8s-.7-1.8-1.8-1.8M333.2 484.3c-1 0-1.8.7-1.8 1.8s.7 1.8 1.8 1.8c1 0 1.8-.7 1.8-1.8s-.9-1.8-1.8-1.8M327.2 502c-1 0-1.8.7-1.8 1.8 0 1 .7 1.8 1.8 1.8 1 0 1.8-.7 1.8-1.8 0-1-.8-1.8-1.8-1.8M327.2 490.2c-1 0-1.8.7-1.8 1.8 0 1 .7 1.8 1.8 1.8 1 0 1.8-.7 1.8-1.8s-.8-1.8-1.8-1.8M333.2 507.9c-1 0-1.8.7-1.8 1.8 0 1 .7 1.8 1.8 1.8 1 0 1.8-.7 1.8-1.8-.1-.9-.9-1.8-1.8-1.8M327.2 525.6c-1 0-1.8.7-1.8 1.8 0 1 .7 1.8 1.8 1.8 1 0 1.8-.7 1.8-1.8 0-.9-.8-1.8-1.8-1.8M327.2 513.9c-1 0-1.8.7-1.8 1.8 0 1 .7 1.8 1.8 1.8 1 0 1.8-.7 1.8-1.8s-.8-1.8-1.8-1.8M315.4 312.6c-1 0-1.8.7-1.8 1.8 0 1 .7 1.8 1.8 1.8 1 0 1.8-.7 1.8-1.8 0-.9-.8-1.8-1.8-1.8M321.3 306.7c-1 0-1.8.7-1.8 1.8 0 1 .7 1.8 1.8 1.8 1 0 1.8-.7 1.8-1.8 0-.9-.9-1.8-1.8-1.8M309.5 306.7c-1 0-1.8.7-1.8 1.8 0 1 .7 1.8 1.8 1.8 1 0 1.8-.7 1.8-1.8-.1-.9-.8-1.8-1.8-1.8M303.6 312.6c-1 0-1.8.7-1.8 1.8 0 1 .7 1.8 1.8 1.8 1 0 1.8-.7 1.8-1.8 0-.9-.9-1.8-1.8-1.8M315.4 336.3c-1 0-1.8.7-1.8 1.8 0 1 .7 1.8 1.8 1.8 1 0 1.8-.7 1.8-1.8 0-1-.8-1.8-1.8-1.8M315.4 324.5c-1 0-1.8.7-1.8 1.8 0 1 .7 1.8 1.8 1.8 1 0 1.8-.7 1.8-1.8s-.8-1.8-1.8-1.8M321.3 330.4c-1 0-1.8.7-1.8 1.8 0 1 .7 1.8 1.8 1.8 1 0 1.8-.7 1.8-1.8 0-1-.9-1.8-1.8-1.8M309.5 330.4c-1 0-1.8.7-1.8 1.8 0 1 .7 1.8 1.8 1.8 1 0 1.8-.7 1.8-1.8-.1-1-.8-1.8-1.8-1.8M321.3 318.6c-1 0-1.8.7-1.8 1.8 0 1 .7 1.8 1.8 1.8 1 0 1.8-.7 1.8-1.8s-.9-1.8-1.8-1.8M309.5 318.6c-1 0-1.8.7-1.8 1.8 0 1 .7 1.8 1.8 1.8 1 0 1.8-.7 1.8-1.8-.1-1.1-.8-1.8-1.8-1.8M303.6 336.3c-1 0-1.8.7-1.8 1.8 0 1 .7 1.8 1.8 1.8 1 0 1.8-.7 1.8-1.8 0-1-.9-1.8-1.8-1.8M303.6 324.5c-1 0-1.8.7-1.8 1.8 0 1 .7 1.8 1.8 1.8 1 0 1.8-.7 1.8-1.8 0-1-.9-1.8-1.8-1.8M315.4 360c-1 0-1.8.7-1.8 1.8 0 1 .7 1.8 1.8 1.8 1 0 1.8-.7 1.8-1.8 0-1-.8-1.8-1.8-1.8M315.4 348.2c-1 0-1.8.7-1.8 1.8 0 1 .7 1.8 1.8 1.8 1 0 1.8-.7 1.8-1.8s-.8-1.8-1.8-1.8M321.3 354.1c-1 0-1.8.7-1.8 1.8 0 1 .7 1.8 1.8 1.8 1 0 1.8-.7 1.8-1.8s-.9-1.8-1.8-1.8M309.5 354.1c-1 0-1.8.7-1.8 1.8 0 1 .7 1.8 1.8 1.8 1 0 1.8-.7 1.8-1.8-.1-1-.8-1.8-1.8-1.8M321.3 342.2c-1 0-1.8.7-1.8 1.8 0 1 .7 1.8 1.8 1.8 1 0 1.8-.7 1.8-1.8 0-1-.9-1.8-1.8-1.8M309.5 342.2c-1 0-1.8.7-1.8 1.8 0 1 .7 1.8 1.8 1.8 1 0 1.8-.7 1.8-1.8-.1-1-.8-1.8-1.8-1.8M303.6 360c-1 0-1.8.7-1.8 1.8 0 1 .7 1.8 1.8 1.8 1 0 1.8-.7 1.8-1.8s-.9-1.8-1.8-1.8M303.6 348.2c-1 0-1.8.7-1.8 1.8 0 1 .7 1.8 1.8 1.8 1 0 1.8-.7 1.8-1.8s-.9-1.8-1.8-1.8M315.4 383.7c-1 0-1.8.7-1.8 1.8 0 1 .7 1.8 1.8 1.8 1 0 1.8-.7 1.8-1.8 0-1-.8-1.8-1.8-1.8M315.4 371.8c-1 0-1.8.7-1.8 1.8 0 1 .7 1.8 1.8 1.8 1 0 1.8-.7 1.8-1.8s-.8-1.8-1.8-1.8M321.3 377.8c-1 0-1.8.7-1.8 1.8 0 1 .7 1.8 1.8 1.8 1 0 1.8-.7 1.8-1.8s-.9-1.8-1.8-1.8M309.5 377.8c-1 0-1.8.7-1.8 1.8 0 1 .7 1.8 1.8 1.8 1 0 1.8-.7 1.8-1.8-.1-1.1-.8-1.8-1.8-1.8M321.3 365.9c-1 0-1.8.7-1.8 1.8 0 1 .7 1.8 1.8 1.8 1 0 1.8-.7 1.8-1.8 0-1-.9-1.8-1.8-1.8M309.5 365.9c-1 0-1.8.7-1.8 1.8 0 1 .7 1.8 1.8 1.8 1 0 1.8-.7 1.8-1.8-.1-1-.8-1.8-1.8-1.8M303.6 383.7c-1 0-1.8.7-1.8 1.8 0 1 .7 1.8 1.8 1.8 1 0 1.8-.7 1.8-1.8 0-1-.9-1.8-1.8-1.8M303.6 371.8c-1 0-1.8.7-1.8 1.8 0 1 .7 1.8 1.8 1.8 1 0 1.8-.7 1.8-1.8 0-1-.9-1.8-1.8-1.8M315.4 407.4c-1 0-1.8.7-1.8 1.8 0 1 .7 1.8 1.8 1.8 1 0 1.8-.7 1.8-1.8s-.8-1.8-1.8-1.8M321.3 389.5c-1 0-1.8.7-1.8 1.8 0 1 .7 1.8 1.8 1.8 1 0 1.8-.7 1.8-1.8 0-.9-.9-1.8-1.8-1.8M303.6 407.4c-1 0-1.8.7-1.8 1.8 0 1 .7 1.8 1.8 1.8 1 0 1.8-.7 1.8-1.8s-.9-1.8-1.8-1.8M315.4 431c-1 0-1.8.7-1.8 1.8 0 1 .7 1.8 1.8 1.8 1 0 1.8-.7 1.8-1.8 0-1-.8-1.8-1.8-1.8M315.4 419.1c-1 0-1.8.7-1.8 1.8 0 1 .7 1.8 1.8 1.8 1 0 1.8-.7 1.8-1.8 0-.9-.8-1.8-1.8-1.8M321.3 425.1c-1 0-1.8.7-1.8 1.8 0 1 .7 1.8 1.8 1.8 1 0 1.8-.7 1.8-1.8s-.9-1.8-1.8-1.8M309.5 425.1c-1 0-1.8.7-1.8 1.8 0 1 .7 1.8 1.8 1.8 1 0 1.8-.7 1.8-1.8-.1-1.1-.8-1.8-1.8-1.8M321.3 413.2c-1 0-1.8.7-1.8 1.8 0 1 .7 1.8 1.8 1.8 1 0 1.8-.7 1.8-1.8 0-.9-.9-1.8-1.8-1.8M309.5 413.2c-1 0-1.8.7-1.8 1.8 0 1 .7 1.8 1.8 1.8 1 0 1.8-.7 1.8-1.8-.1-.9-.8-1.8-1.8-1.8M303.6 431c-1 0-1.8.7-1.8 1.8 0 1 .7 1.8 1.8 1.8 1 0 1.8-.7 1.8-1.8s-.9-1.8-1.8-1.8M303.6 419.1c-1 0-1.8.7-1.8 1.8 0 1 .7 1.8 1.8 1.8 1 0 1.8-.7 1.8-1.8 0-.9-.9-1.8-1.8-1.8M315.4 454.7c-1 0-1.8.7-1.8 1.8 0 1 .7 1.8 1.8 1.8 1 0 1.8-.7 1.8-1.8s-.8-1.8-1.8-1.8M315.4 442.8c-1 0-1.8.7-1.8 1.8 0 1 .7 1.8 1.8 1.8 1 0 1.8-.7 1.8-1.8 0-1-.8-1.8-1.8-1.8M321.3 448.7c-1 0-1.8.7-1.8 1.8 0 1 .7 1.8 1.8 1.8 1 0 1.8-.7 1.8-1.8 0-.9-.9-1.8-1.8-1.8M309.5 448.7c-1 0-1.8.7-1.8 1.8 0 1 .7 1.8 1.8 1.8 1 0 1.8-.7 1.8-1.8-.1-.9-.8-1.8-1.8-1.8M321.3 437c-1 0-1.8.7-1.8 1.8 0 1 .7 1.8 1.8 1.8 1 0 1.8-.7 1.8-1.8s-.9-1.8-1.8-1.8M309.5 437c-1 0-1.8.7-1.8 1.8 0 1 .7 1.8 1.8 1.8 1 0 1.8-.7 1.8-1.8-.1-1.1-.8-1.8-1.8-1.8M303.6 454.7c-1 0-1.8.7-1.8 1.8 0 1 .7 1.8 1.8 1.8 1 0 1.8-.7 1.8-1.8s-.9-1.8-1.8-1.8M303.6 442.8c-1 0-1.8.7-1.8 1.8 0 1 .7 1.8 1.8 1.8 1 0 1.8-.7 1.8-1.8 0-1-.9-1.8-1.8-1.8M315.4 478.3c-1 0-1.8.7-1.8 1.8 0 1 .7 1.8 1.8 1.8 1 0 1.8-.7 1.8-1.8 0-.9-.8-1.8-1.8-1.8M315.4 466.6c-1 0-1.8.7-1.8 1.8 0 1 .7 1.8 1.8 1.8 1 0 1.8-.7 1.8-1.8s-.8-1.8-1.8-1.8M321.3 472.4c-1 0-1.8.7-1.8 1.8 0 1 .7 1.8 1.8 1.8 1 0 1.8-.7 1.8-1.8 0-1-.9-1.8-1.8-1.8M309.5 472.4c-1 0-1.8.7-1.8 1.8 0 1 .7 1.8 1.8 1.8 1 0 1.8-.7 1.8-1.8-.1-1-.8-1.8-1.8-1.8M321.3 460.6c-1 0-1.8.7-1.8 1.8s.7 1.8 1.8 1.8c1 0 1.8-.7 1.8-1.8s-.9-1.8-1.8-1.8M309.5 460.6c-1 0-1.8.7-1.8 1.8s.7 1.8 1.8 1.8c1 0 1.8-.7 1.8-1.8s-.8-1.8-1.8-1.8M303.6 478.3c-1 0-1.8.7-1.8 1.8 0 1 .7 1.8 1.8 1.8 1 0 1.8-.7 1.8-1.8 0-.9-.9-1.8-1.8-1.8M303.6 466.6c-1 0-1.8.7-1.8 1.8 0 1 .7 1.8 1.8 1.8 1 0 1.8-.7 1.8-1.8s-.9-1.8-1.8-1.8M315.4 502c-1 0-1.8.7-1.8 1.8 0 1 .7 1.8 1.8 1.8 1 0 1.8-.7 1.8-1.8 0-1-.8-1.8-1.8-1.8M315.4 490.2c-1 0-1.8.7-1.8 1.8 0 1 .7 1.8 1.8 1.8 1 0 1.8-.7 1.8-1.8s-.8-1.8-1.8-1.8M321.3 496c-1 0-1.8.7-1.8 1.8 0 1 .7 1.8 1.8 1.8 1 0 1.8-.7 1.8-1.8 0-.9-.9-1.8-1.8-1.8M309.5 496c-1 0-1.8.7-1.8 1.8 0 1 .7 1.8 1.8 1.8 1 0 1.8-.7 1.8-1.8-.1-.9-.8-1.8-1.8-1.8M321.3 484.3c-1 0-1.8.7-1.8 1.8s.7 1.8 1.8 1.8c1 0 1.8-.7 1.8-1.8s-.9-1.8-1.8-1.8M309.5 484.3c-1 0-1.8.7-1.8 1.8s.7 1.8 1.8 1.8c1 0 1.8-.7 1.8-1.8s-.8-1.8-1.8-1.8M303.6 502c-1 0-1.8.7-1.8 1.8 0 1 .7 1.8 1.8 1.8 1 0 1.8-.7 1.8-1.8 0-1-.9-1.8-1.8-1.8M303.6 490.2c-1 0-1.8.7-1.8 1.8 0 1 .7 1.8 1.8 1.8 1 0 1.8-.7 1.8-1.8 0-1-.9-1.8-1.8-1.8M315.4 525.6c-1 0-1.8.7-1.8 1.8 0 1 .7 1.8 1.8 1.8 1 0 1.8-.7 1.8-1.8 0-.9-.8-1.8-1.8-1.8M315.4 513.9c-1 0-1.8.7-1.8 1.8 0 1 .7 1.8 1.8 1.8 1 0 1.8-.7 1.8-1.8s-.8-1.8-1.8-1.8M321.3 519.8c-1 0-1.8.7-1.8 1.8 0 1 .7 1.8 1.8 1.8 1 0 1.8-.7 1.8-1.8s-.9-1.8-1.8-1.8M309.5 519.8c-1 0-1.8.7-1.8 1.8 0 1 .7 1.8 1.8 1.8 1 0 1.8-.7 1.8-1.8-.1-1.1-.8-1.8-1.8-1.8M321.3 507.9c-1 0-1.8.7-1.8 1.8 0 1 .7 1.8 1.8 1.8 1 0 1.8-.7 1.8-1.8 0-.9-.9-1.8-1.8-1.8M309.5 507.9c-1 0-1.8.7-1.8 1.8 0 1 .7 1.8 1.8 1.8 1 0 1.8-.7 1.8-1.8-.1-.9-.8-1.8-1.8-1.8M303.6 525.6c-1 0-1.8.7-1.8 1.8 0 1 .7 1.8 1.8 1.8 1 0 1.8-.7 1.8-1.8 0-.9-.9-1.8-1.8-1.8M303.6 513.9c-1 0-1.8.7-1.8 1.8 0 1 .7 1.8 1.8 1.8 1 0 1.8-.7 1.8-1.8s-.9-1.8-1.8-1.8M291.7 336.3c-1 0-1.8.7-1.8 1.8 0 1 .7 1.8 1.8 1.8 1 0 1.8-.7 1.8-1.8 0-1-.8-1.8-1.8-1.8M297.6 330.4c-1 0-1.8.7-1.8 1.8 0 1 .7 1.8 1.8 1.8 1 0 1.8-.7 1.8-1.8 0-1-.8-1.8-1.8-1.8M297.6 318.6c-1 0-1.8.7-1.8 1.8 0 1 .7 1.8 1.8 1.8 1 0 1.8-.7 1.8-1.8s-.8-1.8-1.8-1.8M291.7 360c-1 0-1.8.7-1.8 1.8 0 1 .7 1.8 1.8 1.8 1 0 1.8-.7 1.8-1.8 0-1-.8-1.8-1.8-1.8M297.6 354.1c-1 0-1.8.7-1.8 1.8 0 1 .7 1.8 1.8 1.8 1 0 1.8-.7 1.8-1.8 0-1-.8-1.8-1.8-1.8M285.8 354.1c-1 0-1.8.7-1.8 1.8 0 1 .7 1.8 1.8 1.8 1 0 1.8-.7 1.8-1.8s-.8-1.8-1.8-1.8M297.6 342.2c-1 0-1.8.7-1.8 1.8 0 1 .7 1.8 1.8 1.8 1 0 1.8-.7 1.8-1.8 0-1-.8-1.8-1.8-1.8M279.9 360c-1 0-1.8.7-1.8 1.8 0 1 .7 1.8 1.8 1.8 1 0 1.8-.7 1.8-1.8-.1-1-.8-1.8-1.8-1.8M291.7 371.8c-1 0-1.8.7-1.8 1.8 0 1 .7 1.8 1.8 1.8 1 0 1.8-.7 1.8-1.8s-.8-1.8-1.8-1.8M297.6 377.8c-1 0-1.8.7-1.8 1.8 0 1 .7 1.8 1.8 1.8 1 0 1.8-.7 1.8-1.8s-.8-1.8-1.8-1.8M285.8 377.8c-1 0-1.8.7-1.8 1.8 0 1 .7 1.8 1.8 1.8 1 0 1.8-.7 1.8-1.8s-.8-1.8-1.8-1.8M297.6 365.9c-1 0-1.8.7-1.8 1.8 0 1 .7 1.8 1.8 1.8 1 0 1.8-.7 1.8-1.8 0-1-.8-1.8-1.8-1.8M285.8 365.9c-1 0-1.8.7-1.8 1.8 0 1 .7 1.8 1.8 1.8 1 0 1.8-.7 1.8-1.8 0-1-.8-1.8-1.8-1.8M279.9 383.7c-1 0-1.8.7-1.8 1.8 0 1 .7 1.8 1.8 1.8 1 0 1.8-.7 1.8-1.8-.1-1-.8-1.8-1.8-1.8M279.9 371.8c-1 0-1.8.7-1.8 1.8 0 1 .7 1.8 1.8 1.8 1 0 1.8-.7 1.8-1.8-.1-1-.8-1.8-1.8-1.8M291.7 407.4c-1 0-1.8.7-1.8 1.8 0 1 .7 1.8 1.8 1.8 1 0 1.8-.7 1.8-1.8s-.8-1.8-1.8-1.8M291.7 395.5c-1 0-1.8.7-1.8 1.8 0 1 .7 1.8 1.8 1.8 1 0 1.8-.7 1.8-1.8 0-1-.8-1.8-1.8-1.8M297.6 401.4c-1 0-1.8.7-1.8 1.8 0 1 .7 1.8 1.8 1.8 1 0 1.8-.7 1.8-1.8 0-1-.8-1.8-1.8-1.8M285.8 401.4c-1 0-1.8.7-1.8 1.8 0 1 .7 1.8 1.8 1.8 1 0 1.8-.7 1.8-1.8 0-1-.8-1.8-1.8-1.8M297.6 389.5c-1 0-1.8.7-1.8 1.8 0 1 .7 1.8 1.8 1.8 1 0 1.8-.7 1.8-1.8 0-.9-.8-1.8-1.8-1.8M279.9 407.4c-1 0-1.8.7-1.8 1.8 0 1 .7 1.8 1.8 1.8 1 0 1.8-.7 1.8-1.8-.1-1.1-.8-1.8-1.8-1.8M279.9 395.5c-1 0-1.8.7-1.8 1.8 0 1 .7 1.8 1.8 1.8 1 0 1.8-.7 1.8-1.8-.1-1-.8-1.8-1.8-1.8M291.7 431c-1 0-1.8.7-1.8 1.8 0 1 .7 1.8 1.8 1.8 1 0 1.8-.7 1.8-1.8 0-1-.8-1.8-1.8-1.8M291.7 419.1c-1 0-1.8.7-1.8 1.8 0 1 .7 1.8 1.8 1.8 1 0 1.8-.7 1.8-1.8 0-.9-.8-1.8-1.8-1.8M297.6 425.1c-1 0-1.8.7-1.8 1.8 0 1 .7 1.8 1.8 1.8 1 0 1.8-.7 1.8-1.8s-.8-1.8-1.8-1.8M285.8 425.1c-1 0-1.8.7-1.8 1.8 0 1 .7 1.8 1.8 1.8 1 0 1.8-.7 1.8-1.8s-.8-1.8-1.8-1.8M297.6 413.2c-1 0-1.8.7-1.8 1.8 0 1 .7 1.8 1.8 1.8 1 0 1.8-.7 1.8-1.8 0-.9-.8-1.8-1.8-1.8M285.8 413.2c-1 0-1.8.7-1.8 1.8 0 1 .7 1.8 1.8 1.8 1 0 1.8-.7 1.8-1.8 0-.9-.8-1.8-1.8-1.8M279.9 431c-1 0-1.8.7-1.8 1.8 0 1 .7 1.8 1.8 1.8 1 0 1.8-.7 1.8-1.8-.1-1-.8-1.8-1.8-1.8M279.9 419.1c-1 0-1.8.7-1.8 1.8 0 1 .7 1.8 1.8 1.8 1 0 1.8-.7 1.8-1.8-.1-.9-.8-1.8-1.8-1.8M291.7 454.7c-1 0-1.8.7-1.8 1.8 0 1 .7 1.8 1.8 1.8 1 0 1.8-.7 1.8-1.8s-.8-1.8-1.8-1.8M291.7 442.8c-1 0-1.8.7-1.8 1.8 0 1 .7 1.8 1.8 1.8 1 0 1.8-.7 1.8-1.8 0-1-.8-1.8-1.8-1.8M297.6 448.7c-1 0-1.8.7-1.8 1.8 0 1 .7 1.8 1.8 1.8 1 0 1.8-.7 1.8-1.8 0-.9-.8-1.8-1.8-1.8M285.8 448.7c-1 0-1.8.7-1.8 1.8 0 1 .7 1.8 1.8 1.8 1 0 1.8-.7 1.8-1.8 0-.9-.8-1.8-1.8-1.8M297.6 437c-1 0-1.8.7-1.8 1.8 0 1 .7 1.8 1.8 1.8 1 0 1.8-.7 1.8-1.8s-.8-1.8-1.8-1.8M285.8 437c-1 0-1.8.7-1.8 1.8 0 1 .7 1.8 1.8 1.8 1 0 1.8-.7 1.8-1.8s-.8-1.8-1.8-1.8M279.9 442.8c-1 0-1.8.7-1.8 1.8 0 1 .7 1.8 1.8 1.8 1 0 1.8-.7 1.8-1.8-.1-1-.8-1.8-1.8-1.8M297.6 472.4c-1 0-1.8.7-1.8 1.8 0 1 .7 1.8 1.8 1.8 1 0 1.8-.7 1.8-1.8 0-1-.8-1.8-1.8-1.8M297.6 460.6c-1 0-1.8.7-1.8 1.8s.7 1.8 1.8 1.8c1 0 1.8-.7 1.8-1.8s-.8-1.8-1.8-1.8M297.6 496c-1 0-1.8.7-1.8 1.8 0 1 .7 1.8 1.8 1.8 1 0 1.8-.7 1.8-1.8 0-.9-.8-1.8-1.8-1.8M297.6 484.3c-1 0-1.8.7-1.8 1.8s.7 1.8 1.8 1.8c1 0 1.8-.7 1.8-1.8s-.8-1.8-1.8-1.8M297.6 507.9c-1 0-1.8.7-1.8 1.8 0 1 .7 1.8 1.8 1.8 1 0 1.8-.7 1.8-1.8 0-.9-.8-1.8-1.8-1.8M256.3 265.3c-1 0-1.8.7-1.8 1.8 0 1 .7 1.8 1.8 1.8 1 0 1.8-.7 1.8-1.8-.1-1-.9-1.8-1.8-1.8M256.3 324.5c-1 0-1.8.7-1.8 1.8 0 1 .7 1.8 1.8 1.8 1 0 1.8-.7 1.8-1.8-.1-1-.9-1.8-1.8-1.8M268 360c-1 0-1.8.7-1.8 1.8 0 1 .7 1.8 1.8 1.8 1 0 1.8-.7 1.8-1.8s-.8-1.8-1.8-1.8M268 348.2c-1 0-1.8.7-1.8 1.8 0 1 .7 1.8 1.8 1.8 1 0 1.8-.7 1.8-1.8s-.8-1.8-1.8-1.8M274 354.1c-1 0-1.8.7-1.8 1.8 0 1 .7 1.8 1.8 1.8 1 0 1.8-.7 1.8-1.8s-.9-1.8-1.8-1.8M262.1 354.1c-1 0-1.8.7-1.8 1.8 0 1 .7 1.8 1.8 1.8 1 0 1.8-.7 1.8-1.8s-.7-1.8-1.8-1.8M274 342.2c-1 0-1.8.7-1.8 1.8 0 1 .7 1.8 1.8 1.8 1 0 1.8-.7 1.8-1.8 0-1-.9-1.8-1.8-1.8M268 383.7c-1 0-1.8.7-1.8 1.8 0 1 .7 1.8 1.8 1.8 1 0 1.8-.7 1.8-1.8 0-1-.8-1.8-1.8-1.8M274 377.8c-1 0-1.8.7-1.8 1.8 0 1 .7 1.8 1.8 1.8 1 0 1.8-.7 1.8-1.8s-.9-1.8-1.8-1.8M262.1 377.8c-1 0-1.8.7-1.8 1.8 0 1 .7 1.8 1.8 1.8 1 0 1.8-.7 1.8-1.8s-.7-1.8-1.8-1.8M274 365.9c-1 0-1.8.7-1.8 1.8 0 1 .7 1.8 1.8 1.8 1 0 1.8-.7 1.8-1.8 0-1-.9-1.8-1.8-1.8M268 407.4c-1 0-1.8.7-1.8 1.8 0 1 .7 1.8 1.8 1.8 1 0 1.8-.7 1.8-1.8s-.8-1.8-1.8-1.8M268 395.5c-1 0-1.8.7-1.8 1.8 0 1 .7 1.8 1.8 1.8 1 0 1.8-.7 1.8-1.8 0-1-.8-1.8-1.8-1.8M274 401.4c-1 0-1.8.7-1.8 1.8 0 1 .7 1.8 1.8 1.8 1 0 1.8-.7 1.8-1.8 0-1-.9-1.8-1.8-1.8M262.1 401.4c-1 0-1.8.7-1.8 1.8 0 1 .7 1.8 1.8 1.8 1 0 1.8-.7 1.8-1.8 0-1-.7-1.8-1.8-1.8M274 389.5c-1 0-1.8.7-1.8 1.8 0 1 .7 1.8 1.8 1.8 1 0 1.8-.7 1.8-1.8 0-.9-.9-1.8-1.8-1.8M262.1 389.5c-1 0-1.8.7-1.8 1.8 0 1 .7 1.8 1.8 1.8 1 0 1.8-.7 1.8-1.8 0-.9-.7-1.8-1.8-1.8M256.3 407.4c-1 0-1.8.7-1.8 1.8 0 1 .7 1.8 1.8 1.8 1 0 1.8-.7 1.8-1.8-.1-1.1-.9-1.8-1.8-1.8M268 431c-1 0-1.8.7-1.8 1.8 0 1 .7 1.8 1.8 1.8 1 0 1.8-.7 1.8-1.8s-.8-1.8-1.8-1.8M268 419.1c-1 0-1.8.7-1.8 1.8 0 1 .7 1.8 1.8 1.8 1 0 1.8-.7 1.8-1.8 0-.9-.8-1.8-1.8-1.8M274 425.1c-1 0-1.8.7-1.8 1.8 0 1 .7 1.8 1.8 1.8 1 0 1.8-.7 1.8-1.8s-.9-1.8-1.8-1.8M262.1 425.1c-1 0-1.8.7-1.8 1.8 0 1 .7 1.8 1.8 1.8 1 0 1.8-.7 1.8-1.8s-.7-1.8-1.8-1.8M274 413.2c-1 0-1.8.7-1.8 1.8 0 1 .7 1.8 1.8 1.8 1 0 1.8-.7 1.8-1.8 0-.9-.9-1.8-1.8-1.8M262.1 413.2c-1 0-1.8.7-1.8 1.8 0 1 .7 1.8 1.8 1.8 1 0 1.8-.7 1.8-1.8 0-.9-.7-1.8-1.8-1.8M256.3 431c-1 0-1.8.7-1.8 1.8 0 1 .7 1.8 1.8 1.8 1 0 1.8-.7 1.8-1.8-.1-1-.9-1.8-1.8-1.8M256.3 419.1c-1 0-1.8.7-1.8 1.8 0 1 .7 1.8 1.8 1.8 1 0 1.8-.7 1.8-1.8-.1-.9-.9-1.8-1.8-1.8M268 454.7c-1 0-1.8.7-1.8 1.8 0 1 .7 1.8 1.8 1.8 1 0 1.8-.7 1.8-1.8s-.8-1.8-1.8-1.8M268 442.8c-1 0-1.8.7-1.8 1.8 0 1 .7 1.8 1.8 1.8 1 0 1.8-.7 1.8-1.8 0-1-.8-1.8-1.8-1.8M274 448.7c-1 0-1.8.7-1.8 1.8 0 1 .7 1.8 1.8 1.8 1 0 1.8-.7 1.8-1.8 0-.9-.9-1.8-1.8-1.8M262.1 448.7c-1 0-1.8.7-1.8 1.8 0 1 .7 1.8 1.8 1.8 1 0 1.8-.7 1.8-1.8 0-.9-.7-1.8-1.8-1.8M274 437c-1 0-1.8.7-1.8 1.8 0 1 .7 1.8 1.8 1.8 1 0 1.8-.7 1.8-1.8s-.9-1.8-1.8-1.8M262.1 437c-1 0-1.8.7-1.8 1.8 0 1 .7 1.8 1.8 1.8 1 0 1.8-.7 1.8-1.8s-.7-1.8-1.8-1.8M256.3 442.8c-1 0-1.8.7-1.8 1.8 0 1 .7 1.8 1.8 1.8 1 0 1.8-.7 1.8-1.8-.1-1-.9-1.8-1.8-1.8M244.4 265.3c-1 0-1.8.7-1.8 1.8 0 1 .7 1.8 1.8 1.8 1 0 1.8-.7 1.8-1.8 0-1-.9-1.8-1.8-1.8M238.5 259.4c-1 0-1.8.7-1.8 1.8 0 1 .7 1.8 1.8 1.8 1 0 1.8-.7 1.8-1.8s-.9-1.8-1.8-1.8M232.5 265.3c-1 0-1.8.7-1.8 1.8 0 1 .7 1.8 1.8 1.8 1 0 1.8-.7 1.8-1.8 0-1-.7-1.8-1.8-1.8M244.4 289c-1 0-1.8.7-1.8 1.8 0 1 .7 1.8 1.8 1.8 1 0 1.8-.7 1.8-1.8s-.9-1.8-1.8-1.8M244.4 277.1c-1 0-1.8.7-1.8 1.8 0 1 .7 1.8 1.8 1.8 1 0 1.8-.7 1.8-1.8 0-.9-.9-1.8-1.8-1.8M238.5 283.1c-1 0-1.8.7-1.8 1.8 0 1 .7 1.8 1.8 1.8 1 0 1.8-.7 1.8-1.8 0-1-.9-1.8-1.8-1.8M250.3 271.3c-1 0-1.8.7-1.8 1.8 0 1 .7 1.8 1.8 1.8 1 0 1.8-.7 1.8-1.8-.1-1.1-.8-1.8-1.8-1.8M238.5 271.3c-1 0-1.8.7-1.8 1.8 0 1 .7 1.8 1.8 1.8 1 0 1.8-.7 1.8-1.8s-.9-1.8-1.8-1.8M232.5 289c-1 0-1.8.7-1.8 1.8 0 1 .7 1.8 1.8 1.8 1 0 1.8-.7 1.8-1.8s-.7-1.8-1.8-1.8M232.5 277.1c-1 0-1.8.7-1.8 1.8 0 1 .7 1.8 1.8 1.8 1 0 1.8-.7 1.8-1.8 0-.9-.7-1.8-1.8-1.8M244.4 300.9c-1 0-1.8.7-1.8 1.8 0 1 .7 1.8 1.8 1.8 1 0 1.8-.7 1.8-1.8s-.9-1.8-1.8-1.8M238.5 306.7c-1 0-1.8.7-1.8 1.8 0 1 .7 1.8 1.8 1.8 1 0 1.8-.7 1.8-1.8 0-.9-.9-1.8-1.8-1.8M238.5 294.9c-1 0-1.8.7-1.8 1.8 0 1 .7 1.8 1.8 1.8 1 0 1.8-.7 1.8-1.8s-.9-1.8-1.8-1.8M232.5 312.6c-1 0-1.8.7-1.8 1.8 0 1 .7 1.8 1.8 1.8 1 0 1.8-.7 1.8-1.8 0-.9-.7-1.8-1.8-1.8M232.5 300.9c-1 0-1.8.7-1.8 1.8 0 1 .7 1.8 1.8 1.8 1 0 1.8-.7 1.8-1.8s-.7-1.8-1.8-1.8M244.4 324.5c-1 0-1.8.7-1.8 1.8 0 1 .7 1.8 1.8 1.8 1 0 1.8-.7 1.8-1.8 0-1-.9-1.8-1.8-1.8M250.3 318.6c-1 0-1.8.7-1.8 1.8 0 1 .7 1.8 1.8 1.8 1 0 1.8-.7 1.8-1.8-.1-1.1-.8-1.8-1.8-1.8M238.5 318.6c-1 0-1.8.7-1.8 1.8 0 1 .7 1.8 1.8 1.8 1 0 1.8-.7 1.8-1.8s-.9-1.8-1.8-1.8M250.3 425.1c-1 0-1.8.7-1.8 1.8 0 1 .7 1.8 1.8 1.8 1 0 1.8-.7 1.8-1.8-.1-1.1-.8-1.8-1.8-1.8M250.3 437c-1 0-1.8.7-1.8 1.8 0 1 .7 1.8 1.8 1.8 1 0 1.8-.7 1.8-1.8-.1-1.1-.8-1.8-1.8-1.8M220.7 265.3c-1 0-1.8.7-1.8 1.8 0 1 .7 1.8 1.8 1.8 1 0 1.8-.7 1.8-1.8 0-1-.8-1.8-1.8-1.8M226.7 259.4c-1 0-1.8.7-1.8 1.8 0 1 .7 1.8 1.8 1.8 1 0 1.8-.7 1.8-1.8-.1-1.1-.9-1.8-1.8-1.8M214.8 259.4c-1 0-1.8.7-1.8 1.8 0 1 .7 1.8 1.8 1.8 1 0 1.8-.7 1.8-1.8s-.8-1.8-1.8-1.8M208.9 265.3c-1 0-1.8.7-1.8 1.8 0 1 .7 1.8 1.8 1.8 1 0 1.8-.7 1.8-1.8 0-1-.9-1.8-1.8-1.8M220.7 289c-1 0-1.8.7-1.8 1.8 0 1 .7 1.8 1.8 1.8 1 0 1.8-.7 1.8-1.8s-.8-1.8-1.8-1.8M220.7 277.1c-1 0-1.8.7-1.8 1.8 0 1 .7 1.8 1.8 1.8 1 0 1.8-.7 1.8-1.8 0-.9-.8-1.8-1.8-1.8M226.7 283.1c-1 0-1.8.7-1.8 1.8 0 1 .7 1.8 1.8 1.8 1 0 1.8-.7 1.8-1.8-.1-1-.9-1.8-1.8-1.8M214.8 283.1c-1 0-1.8.7-1.8 1.8 0 1 .7 1.8 1.8 1.8 1 0 1.8-.7 1.8-1.8 0-1-.8-1.8-1.8-1.8M226.7 271.3c-1 0-1.8.7-1.8 1.8 0 1 .7 1.8 1.8 1.8 1 0 1.8-.7 1.8-1.8-.1-1.1-.9-1.8-1.8-1.8M214.8 271.3c-1 0-1.8.7-1.8 1.8 0 1 .7 1.8 1.8 1.8 1 0 1.8-.7 1.8-1.8s-.8-1.8-1.8-1.8M208.9 289c-1 0-1.8.7-1.8 1.8 0 1 .7 1.8 1.8 1.8 1 0 1.8-.7 1.8-1.8s-.9-1.8-1.8-1.8M208.9 277.1c-1 0-1.8.7-1.8 1.8 0 1 .7 1.8 1.8 1.8 1 0 1.8-.7 1.8-1.8 0-.9-.9-1.8-1.8-1.8M220.7 312.6c-1 0-1.8.7-1.8 1.8 0 1 .7 1.8 1.8 1.8 1 0 1.8-.7 1.8-1.8 0-.9-.8-1.8-1.8-1.8M220.7 300.9c-1 0-1.8.7-1.8 1.8 0 1 .7 1.8 1.8 1.8 1 0 1.8-.7 1.8-1.8s-.8-1.8-1.8-1.8M226.7 306.7c-1 0-1.8.7-1.8 1.8 0 1 .7 1.8 1.8 1.8 1 0 1.8-.7 1.8-1.8-.1-.9-.9-1.8-1.8-1.8M214.8 306.7c-1 0-1.8.7-1.8 1.8 0 1 .7 1.8 1.8 1.8 1 0 1.8-.7 1.8-1.8 0-.9-.8-1.8-1.8-1.8M226.7 294.9c-1 0-1.8.7-1.8 1.8 0 1 .7 1.8 1.8 1.8 1 0 1.8-.7 1.8-1.8-.1-1-.9-1.8-1.8-1.8M214.8 294.9c-1 0-1.8.7-1.8 1.8 0 1 .7 1.8 1.8 1.8 1 0 1.8-.7 1.8-1.8s-.8-1.8-1.8-1.8M208.9 312.6c-1 0-1.8.7-1.8 1.8 0 1 .7 1.8 1.8 1.8 1 0 1.8-.7 1.8-1.8 0-.9-.9-1.8-1.8-1.8M208.9 300.9c-1 0-1.8.7-1.8 1.8 0 1 .7 1.8 1.8 1.8 1 0 1.8-.7 1.8-1.8s-.9-1.8-1.8-1.8M214.8 318.6c-1 0-1.8.7-1.8 1.8 0 1 .7 1.8 1.8 1.8 1 0 1.8-.7 1.8-1.8s-.8-1.8-1.8-1.8M208.9 336.3c-1 0-1.8.7-1.8 1.8 0 1 .7 1.8 1.8 1.8 1 0 1.8-.7 1.8-1.8 0-1-.9-1.8-1.8-1.8M208.9 324.5c-1 0-1.8.7-1.8 1.8 0 1 .7 1.8 1.8 1.8 1 0 1.8-.7 1.8-1.8 0-1-.9-1.8-1.8-1.8M220.7 478.3c-1 0-1.8.7-1.8 1.8 0 1 .7 1.8 1.8 1.8 1 0 1.8-.7 1.8-1.8 0-.9-.8-1.8-1.8-1.8M214.8 472.4c-1 0-1.8.7-1.8 1.8 0 1 .7 1.8 1.8 1.8 1 0 1.8-.7 1.8-1.8 0-1-.8-1.8-1.8-1.8M208.9 478.3c-1 0-1.8.7-1.8 1.8 0 1 .7 1.8 1.8 1.8 1 0 1.8-.7 1.8-1.8 0-.9-.9-1.8-1.8-1.8M208.9 466.6c-1 0-1.8.7-1.8 1.8 0 1 .7 1.8 1.8 1.8 1 0 1.8-.7 1.8-1.8s-.9-1.8-1.8-1.8M214.8 484.3c-1 0-1.8.7-1.8 1.8s.7 1.8 1.8 1.8c1 0 1.8-.7 1.8-1.8s-.8-1.8-1.8-1.8M208.9 502c-1 0-1.8.7-1.8 1.8 0 1 .7 1.8 1.8 1.8 1 0 1.8-.7 1.8-1.8 0-1-.9-1.8-1.8-1.8M208.9 490.2c-1 0-1.8.7-1.8 1.8 0 1 .7 1.8 1.8 1.8 1 0 1.8-.7 1.8-1.8 0-1-.9-1.8-1.8-1.8M197.1 265.3c-1 0-1.8.7-1.8 1.8 0 1 .7 1.8 1.8 1.8 1 0 1.8-.7 1.8-1.8-.1-1-.9-1.8-1.8-1.8M202.9 259.4c-1 0-1.8.7-1.8 1.8 0 1 .7 1.8 1.8 1.8 1 0 1.8-.7 1.8-1.8s-.7-1.8-1.8-1.8M191.1 259.4c-1 0-1.8.7-1.8 1.8 0 1 .7 1.8 1.8 1.8 1 0 1.8-.7 1.8-1.8s-.8-1.8-1.8-1.8M185.2 265.3c-1 0-1.8.7-1.8 1.8 0 1 .7 1.8 1.8 1.8 1 0 1.8-.7 1.8-1.8 0-1-.8-1.8-1.8-1.8M197.1 289c-1 0-1.8.7-1.8 1.8 0 1 .7 1.8 1.8 1.8 1 0 1.8-.7 1.8-1.8-.1-1.1-.9-1.8-1.8-1.8M197.1 277.1c-1 0-1.8.7-1.8 1.8 0 1 .7 1.8 1.8 1.8 1 0 1.8-.7 1.8-1.8-.1-.9-.9-1.8-1.8-1.8M202.9 283.1c-1 0-1.8.7-1.8 1.8 0 1 .7 1.8 1.8 1.8 1 0 1.8-.7 1.8-1.8 0-1-.7-1.8-1.8-1.8M191.1 283.1c-1 0-1.8.7-1.8 1.8 0 1 .7 1.8 1.8 1.8 1 0 1.8-.7 1.8-1.8 0-1-.8-1.8-1.8-1.8M202.9 271.3c-1 0-1.8.7-1.8 1.8 0 1 .7 1.8 1.8 1.8 1 0 1.8-.7 1.8-1.8s-.7-1.8-1.8-1.8M191.1 271.3c-1 0-1.8.7-1.8 1.8 0 1 .7 1.8 1.8 1.8 1 0 1.8-.7 1.8-1.8s-.8-1.8-1.8-1.8M185.2 289c-1 0-1.8.7-1.8 1.8 0 1 .7 1.8 1.8 1.8 1 0 1.8-.7 1.8-1.8s-.8-1.8-1.8-1.8M185.2 277.1c-1 0-1.8.7-1.8 1.8 0 1 .7 1.8 1.8 1.8 1 0 1.8-.7 1.8-1.8 0-.9-.8-1.8-1.8-1.8M197.1 312.6c-1 0-1.8.7-1.8 1.8 0 1 .7 1.8 1.8 1.8 1 0 1.8-.7 1.8-1.8-.1-.9-.9-1.8-1.8-1.8M197.1 300.9c-1 0-1.8.7-1.8 1.8 0 1 .7 1.8 1.8 1.8 1 0 1.8-.7 1.8-1.8-.1-1.1-.9-1.8-1.8-1.8M202.9 306.7c-1 0-1.8.7-1.8 1.8 0 1 .7 1.8 1.8 1.8 1 0 1.8-.7 1.8-1.8 0-.9-.7-1.8-1.8-1.8M191.1 306.7c-1 0-1.8.7-1.8 1.8 0 1 .7 1.8 1.8 1.8 1 0 1.8-.7 1.8-1.8 0-.9-.8-1.8-1.8-1.8M202.9 294.9c-1 0-1.8.7-1.8 1.8 0 1 .7 1.8 1.8 1.8 1 0 1.8-.7 1.8-1.8s-.7-1.8-1.8-1.8M191.1 294.9c-1 0-1.8.7-1.8 1.8 0 1 .7 1.8 1.8 1.8 1 0 1.8-.7 1.8-1.8s-.8-1.8-1.8-1.8M197.1 324.5c-1 0-1.8.7-1.8 1.8 0 1 .7 1.8 1.8 1.8 1 0 1.8-.7 1.8-1.8-.1-1-.9-1.8-1.8-1.8M202.9 330.4c-1 0-1.8.7-1.8 1.8 0 1 .7 1.8 1.8 1.8 1 0 1.8-.7 1.8-1.8 0-1-.7-1.8-1.8-1.8M202.9 318.6c-1 0-1.8.7-1.8 1.8 0 1 .7 1.8 1.8 1.8 1 0 1.8-.7 1.8-1.8s-.7-1.8-1.8-1.8M185.2 360c-1 0-1.8.7-1.8 1.8 0 1 .7 1.8 1.8 1.8 1 0 1.8-.7 1.8-1.8 0-1-.8-1.8-1.8-1.8M191.1 365.9c-1 0-1.8.7-1.8 1.8 0 1 .7 1.8 1.8 1.8 1 0 1.8-.7 1.8-1.8 0-1-.8-1.8-1.8-1.8M185.2 371.8c-1 0-1.8.7-1.8 1.8 0 1 .7 1.8 1.8 1.8 1 0 1.8-.7 1.8-1.8s-.8-1.8-1.8-1.8M191.1 448.7c-1 0-1.8.7-1.8 1.8 0 1 .7 1.8 1.8 1.8 1 0 1.8-.7 1.8-1.8 0-.9-.8-1.8-1.8-1.8M185.2 454.7c-1 0-1.8.7-1.8 1.8 0 1 .7 1.8 1.8 1.8 1 0 1.8-.7 1.8-1.8s-.8-1.8-1.8-1.8M197.1 478.3c-1 0-1.8.7-1.8 1.8 0 1 .7 1.8 1.8 1.8 1 0 1.8-.7 1.8-1.8-.1-.9-.9-1.8-1.8-1.8M197.1 466.6c-1 0-1.8.7-1.8 1.8 0 1 .7 1.8 1.8 1.8 1 0 1.8-.7 1.8-1.8-.1-1.1-.9-1.8-1.8-1.8M202.9 472.4c-1 0-1.8.7-1.8 1.8 0 1 .7 1.8 1.8 1.8 1 0 1.8-.7 1.8-1.8 0-1-.7-1.8-1.8-1.8M191.1 472.4c-1 0-1.8.7-1.8 1.8 0 1 .7 1.8 1.8 1.8 1 0 1.8-.7 1.8-1.8 0-1-.8-1.8-1.8-1.8M191.1 460.6c-1 0-1.8.7-1.8 1.8s.7 1.8 1.8 1.8c1 0 1.8-.7 1.8-1.8s-.8-1.8-1.8-1.8M185.2 478.3c-1 0-1.8.7-1.8 1.8 0 1 .7 1.8 1.8 1.8 1 0 1.8-.7 1.8-1.8 0-.9-.8-1.8-1.8-1.8M185.2 466.6c-1 0-1.8.7-1.8 1.8 0 1 .7 1.8 1.8 1.8 1 0 1.8-.7 1.8-1.8s-.8-1.8-1.8-1.8M197.1 502c-1 0-1.8.7-1.8 1.8 0 1 .7 1.8 1.8 1.8 1 0 1.8-.7 1.8-1.8-.1-1-.9-1.8-1.8-1.8M197.1 490.2c-1 0-1.8.7-1.8 1.8 0 1 .7 1.8 1.8 1.8 1 0 1.8-.7 1.8-1.8-.1-1-.9-1.8-1.8-1.8M202.9 496c-1 0-1.8.7-1.8 1.8 0 1 .7 1.8 1.8 1.8 1 0 1.8-.7 1.8-1.8 0-.9-.7-1.8-1.8-1.8M191.1 496c-1 0-1.8.7-1.8 1.8 0 1 .7 1.8 1.8 1.8 1 0 1.8-.7 1.8-1.8 0-.9-.8-1.8-1.8-1.8M202.9 484.3c-1 0-1.8.7-1.8 1.8s.7 1.8 1.8 1.8c1 0 1.8-.7 1.8-1.8s-.7-1.8-1.8-1.8M191.1 484.3c-1 0-1.8.7-1.8 1.8s.7 1.8 1.8 1.8c1 0 1.8-.7 1.8-1.8s-.8-1.8-1.8-1.8M185.2 502c-1 0-1.8.7-1.8 1.8 0 1 .7 1.8 1.8 1.8 1 0 1.8-.7 1.8-1.8 0-1-.8-1.8-1.8-1.8M185.2 490.2c-1 0-1.8.7-1.8 1.8 0 1 .7 1.8 1.8 1.8 1 0 1.8-.7 1.8-1.8s-.8-1.8-1.8-1.8M197.1 513.9c-1 0-1.8.7-1.8 1.8 0 1 .7 1.8 1.8 1.8 1 0 1.8-.7 1.8-1.8-.1-1.1-.9-1.8-1.8-1.8M191.1 519.8c-1 0-1.8.7-1.8 1.8 0 1 .7 1.8 1.8 1.8 1 0 1.8-.7 1.8-1.8s-.8-1.8-1.8-1.8M202.9 507.9c-1 0-1.8.7-1.8 1.8 0 1 .7 1.8 1.8 1.8 1 0 1.8-.7 1.8-1.8 0-.9-.7-1.8-1.8-1.8M191.1 507.9c-1 0-1.8.7-1.8 1.8 0 1 .7 1.8 1.8 1.8 1 0 1.8-.7 1.8-1.8 0-.9-.8-1.8-1.8-1.8M185.2 525.6c-1 0-1.8.7-1.8 1.8 0 1 .7 1.8 1.8 1.8 1 0 1.8-.7 1.8-1.8 0-.9-.8-1.8-1.8-1.8M185.2 513.9c-1 0-1.8.7-1.8 1.8 0 1 .7 1.8 1.8 1.8 1 0 1.8-.7 1.8-1.8s-.8-1.8-1.8-1.8M173.4 265.3c-1 0-1.8.7-1.8 1.8 0 1 .7 1.8 1.8 1.8 1 0 1.8-.7 1.8-1.8-.1-1-.8-1.8-1.8-1.8M179.3 259.4c-1 0-1.8.7-1.8 1.8 0 1 .7 1.8 1.8 1.8 1 0 1.8-.7 1.8-1.8s-.8-1.8-1.8-1.8M167.5 259.4c-1 0-1.8.7-1.8 1.8 0 1 .7 1.8 1.8 1.8 1 0 1.8-.7 1.8-1.8-.1-1.1-.9-1.8-1.8-1.8M161.5 265.3c-1 0-1.8.7-1.8 1.8 0 1 .7 1.8 1.8 1.8 1 0 1.8-.7 1.8-1.8.1-1-.8-1.8-1.8-1.8M173.4 277.1c-1 0-1.8.7-1.8 1.8 0 1 .7 1.8 1.8 1.8 1 0 1.8-.7 1.8-1.8-.1-.9-.8-1.8-1.8-1.8M179.3 283.1c-1 0-1.8.7-1.8 1.8 0 1 .7 1.8 1.8 1.8 1 0 1.8-.7 1.8-1.8 0-1-.8-1.8-1.8-1.8M167.5 283.1c-1 0-1.8.7-1.8 1.8 0 1 .7 1.8 1.8 1.8 1 0 1.8-.7 1.8-1.8-.1-1-.9-1.8-1.8-1.8M179.3 271.3c-1 0-1.8.7-1.8 1.8 0 1 .7 1.8 1.8 1.8 1 0 1.8-.7 1.8-1.8s-.8-1.8-1.8-1.8M167.5 271.3c-1 0-1.8.7-1.8 1.8 0 1 .7 1.8 1.8 1.8 1 0 1.8-.7 1.8-1.8-.1-1.1-.9-1.8-1.8-1.8M161.5 277.1c-1 0-1.8.7-1.8 1.8 0 1 .7 1.8 1.8 1.8 1 0 1.8-.7 1.8-1.8.1-.9-.8-1.8-1.8-1.8M161.5 312.6c-1 0-1.8.7-1.8 1.8 0 1 .7 1.8 1.8 1.8 1 0 1.8-.7 1.8-1.8.1-.9-.8-1.8-1.8-1.8M173.4 336.3c-1 0-1.8.7-1.8 1.8 0 1 .7 1.8 1.8 1.8 1 0 1.8-.7 1.8-1.8-.1-1-.8-1.8-1.8-1.8M173.4 324.5c-1 0-1.8.7-1.8 1.8 0 1 .7 1.8 1.8 1.8 1 0 1.8-.7 1.8-1.8-.1-1-.8-1.8-1.8-1.8M167.5 330.4c-1 0-1.8.7-1.8 1.8 0 1 .7 1.8 1.8 1.8 1 0 1.8-.7 1.8-1.8-.1-1-.9-1.8-1.8-1.8M167.5 318.6c-1 0-1.8.7-1.8 1.8 0 1 .7 1.8 1.8 1.8 1 0 1.8-.7 1.8-1.8-.1-1.1-.9-1.8-1.8-1.8M161.5 336.3c-1 0-1.8.7-1.8 1.8 0 1 .7 1.8 1.8 1.8 1 0 1.8-.7 1.8-1.8.1-1-.8-1.8-1.8-1.8M161.5 324.5c-1 0-1.8.7-1.8 1.8 0 1 .7 1.8 1.8 1.8 1 0 1.8-.7 1.8-1.8s-.8-1.8-1.8-1.8M173.4 360c-1 0-1.8.7-1.8 1.8 0 1 .7 1.8 1.8 1.8 1 0 1.8-.7 1.8-1.8s-.8-1.8-1.8-1.8M173.4 348.2c-1 0-1.8.7-1.8 1.8 0 1 .7 1.8 1.8 1.8 1 0 1.8-.7 1.8-1.8-.1-1.1-.8-1.8-1.8-1.8M179.3 354.1c-1 0-1.8.7-1.8 1.8 0 1 .7 1.8 1.8 1.8 1 0 1.8-.7 1.8-1.8s-.8-1.8-1.8-1.8M167.5 354.1c-1 0-1.8.7-1.8 1.8 0 1 .7 1.8 1.8 1.8 1 0 1.8-.7 1.8-1.8-.1-1-.9-1.8-1.8-1.8M167.5 342.2c-1 0-1.8.7-1.8 1.8 0 1 .7 1.8 1.8 1.8 1 0 1.8-.7 1.8-1.8-.1-1-.9-1.8-1.8-1.8M161.5 360c-1 0-1.8.7-1.8 1.8 0 1 .7 1.8 1.8 1.8 1 0 1.8-.7 1.8-1.8.1-1-.8-1.8-1.8-1.8M161.5 348.2c-1 0-1.8.7-1.8 1.8 0 1 .7 1.8 1.8 1.8 1 0 1.8-.7 1.8-1.8s-.8-1.8-1.8-1.8M173.4 371.8c-1 0-1.8.7-1.8 1.8 0 1 .7 1.8 1.8 1.8 1 0 1.8-.7 1.8-1.8-.1-1-.8-1.8-1.8-1.8M179.3 377.8c-1 0-1.8.7-1.8 1.8 0 1 .7 1.8 1.8 1.8 1 0 1.8-.7 1.8-1.8s-.8-1.8-1.8-1.8M167.5 377.8c-1 0-1.8.7-1.8 1.8 0 1 .7 1.8 1.8 1.8 1 0 1.8-.7 1.8-1.8-.1-1.1-.9-1.8-1.8-1.8M179.3 365.9c-1 0-1.8.7-1.8 1.8 0 1 .7 1.8 1.8 1.8 1 0 1.8-.7 1.8-1.8 0-1-.8-1.8-1.8-1.8M167.5 365.9c-1 0-1.8.7-1.8 1.8 0 1 .7 1.8 1.8 1.8 1 0 1.8-.7 1.8-1.8-.1-1-.9-1.8-1.8-1.8M161.5 383.7c-1 0-1.8.7-1.8 1.8 0 1 .7 1.8 1.8 1.8 1 0 1.8-.7 1.8-1.8.1-1-.8-1.8-1.8-1.8M161.5 371.8c-1 0-1.8.7-1.8 1.8 0 1 .7 1.8 1.8 1.8 1 0 1.8-.7 1.8-1.8s-.8-1.8-1.8-1.8M167.5 425.1c-1 0-1.8.7-1.8 1.8 0 1 .7 1.8 1.8 1.8 1 0 1.8-.7 1.8-1.8-.1-1.1-.9-1.8-1.8-1.8M161.5 431c-1 0-1.8.7-1.8 1.8 0 1 .7 1.8 1.8 1.8 1 0 1.8-.7 1.8-1.8.1-1-.8-1.8-1.8-1.8M173.4 454.7c-1 0-1.8.7-1.8 1.8 0 1 .7 1.8 1.8 1.8 1 0 1.8-.7 1.8-1.8-.1-1.1-.8-1.8-1.8-1.8M173.4 442.8c-1 0-1.8.7-1.8 1.8 0 1 .7 1.8 1.8 1.8 1 0 1.8-.7 1.8-1.8-.1-1-.8-1.8-1.8-1.8M179.3 448.7c-1 0-1.8.7-1.8 1.8 0 1 .7 1.8 1.8 1.8 1 0 1.8-.7 1.8-1.8 0-.9-.8-1.8-1.8-1.8M167.5 448.7c-1 0-1.8.7-1.8 1.8 0 1 .7 1.8 1.8 1.8 1 0 1.8-.7 1.8-1.8-.1-.9-.9-1.8-1.8-1.8M161.5 454.7c-1 0-1.8.7-1.8 1.8 0 1 .7 1.8 1.8 1.8 1 0 1.8-.7 1.8-1.8.1-1.1-.8-1.8-1.8-1.8M161.5 442.8c-1 0-1.8.7-1.8 1.8 0 1 .7 1.8 1.8 1.8 1 0 1.8-.7 1.8-1.8.1-1-.8-1.8-1.8-1.8M173.4 478.3c-1 0-1.8.7-1.8 1.8 0 1 .7 1.8 1.8 1.8 1 0 1.8-.7 1.8-1.8-.1-.9-.8-1.8-1.8-1.8M173.4 466.6c-1 0-1.8.7-1.8 1.8 0 1 .7 1.8 1.8 1.8 1 0 1.8-.7 1.8-1.8-.1-1.1-.8-1.8-1.8-1.8M179.3 472.4c-1 0-1.8.7-1.8 1.8 0 1 .7 1.8 1.8 1.8 1 0 1.8-.7 1.8-1.8 0-1-.8-1.8-1.8-1.8M167.5 472.4c-1 0-1.8.7-1.8 1.8 0 1 .7 1.8 1.8 1.8 1 0 1.8-.7 1.8-1.8-.1-1-.9-1.8-1.8-1.8M179.3 460.6c-1 0-1.8.7-1.8 1.8s.7 1.8 1.8 1.8c1 0 1.8-.7 1.8-1.8s-.8-1.8-1.8-1.8M167.5 460.6c-1 0-1.8.7-1.8 1.8s.7 1.8 1.8 1.8c1 0 1.8-.7 1.8-1.8s-.9-1.8-1.8-1.8M161.5 478.3c-1 0-1.8.7-1.8 1.8 0 1 .7 1.8 1.8 1.8 1 0 1.8-.7 1.8-1.8.1-.9-.8-1.8-1.8-1.8M161.5 466.6c-1 0-1.8.7-1.8 1.8 0 1 .7 1.8 1.8 1.8 1 0 1.8-.7 1.8-1.8s-.8-1.8-1.8-1.8M173.4 502c-1 0-1.8.7-1.8 1.8 0 1 .7 1.8 1.8 1.8 1 0 1.8-.7 1.8-1.8-.1-1-.8-1.8-1.8-1.8M173.4 490.2c-1 0-1.8.7-1.8 1.8 0 1 .7 1.8 1.8 1.8 1 0 1.8-.7 1.8-1.8-.1-1-.8-1.8-1.8-1.8M179.3 496c-1 0-1.8.7-1.8 1.8 0 1 .7 1.8 1.8 1.8 1 0 1.8-.7 1.8-1.8 0-.9-.8-1.8-1.8-1.8M167.5 496c-1 0-1.8.7-1.8 1.8 0 1 .7 1.8 1.8 1.8 1 0 1.8-.7 1.8-1.8-.1-.9-.9-1.8-1.8-1.8M179.3 484.3c-1 0-1.8.7-1.8 1.8s.7 1.8 1.8 1.8c1 0 1.8-.7 1.8-1.8s-.8-1.8-1.8-1.8M167.5 484.3c-1 0-1.8.7-1.8 1.8s.7 1.8 1.8 1.8c1 0 1.8-.7 1.8-1.8s-.9-1.8-1.8-1.8M161.5 502c-1 0-1.8.7-1.8 1.8 0 1 .7 1.8 1.8 1.8 1 0 1.8-.7 1.8-1.8.1-1-.8-1.8-1.8-1.8M161.5 490.2c-1 0-1.8.7-1.8 1.8 0 1 .7 1.8 1.8 1.8 1 0 1.8-.7 1.8-1.8s-.8-1.8-1.8-1.8M173.4 525.6c-1 0-1.8.7-1.8 1.8 0 1 .7 1.8 1.8 1.8 1 0 1.8-.7 1.8-1.8-.1-.9-.8-1.8-1.8-1.8M173.4 513.9c-1 0-1.8.7-1.8 1.8 0 1 .7 1.8 1.8 1.8 1 0 1.8-.7 1.8-1.8-.1-1.1-.8-1.8-1.8-1.8M179.3 519.8c-1 0-1.8.7-1.8 1.8 0 1 .7 1.8 1.8 1.8 1 0 1.8-.7 1.8-1.8s-.8-1.8-1.8-1.8M167.5 519.8c-1 0-1.8.7-1.8 1.8 0 1 .7 1.8 1.8 1.8 1 0 1.8-.7 1.8-1.8-.1-1.1-.9-1.8-1.8-1.8M179.3 507.9c-1 0-1.8.7-1.8 1.8 0 1 .7 1.8 1.8 1.8 1 0 1.8-.7 1.8-1.8 0-.9-.8-1.8-1.8-1.8M167.5 507.9c-1 0-1.8.7-1.8 1.8 0 1 .7 1.8 1.8 1.8 1 0 1.8-.7 1.8-1.8-.1-.9-.9-1.8-1.8-1.8M161.5 525.6c-1 0-1.8.7-1.8 1.8 0 1 .7 1.8 1.8 1.8 1 0 1.8-.7 1.8-1.8.1-.9-.8-1.8-1.8-1.8M161.5 513.9c-1 0-1.8.7-1.8 1.8 0 1 .7 1.8 1.8 1.8 1 0 1.8-.7 1.8-1.8.1-1.1-.8-1.8-1.8-1.8M173.4 537.5c-1 0-1.8.7-1.8 1.8 0 1 .7 1.8 1.8 1.8 1 0 1.8-.7 1.8-1.8-.1-1-.8-1.8-1.8-1.8M167.5 543.5c-1 0-1.8.7-1.8 1.8 0 1 .7 1.8 1.8 1.8 1 0 1.8-.7 1.8-1.8-.1-1.1-.9-1.8-1.8-1.8M179.3 531.6c-1 0-1.8.7-1.8 1.8 0 1 .7 1.8 1.8 1.8 1 0 1.8-.7 1.8-1.8 0-1-.8-1.8-1.8-1.8M167.5 531.6c-1 0-1.8.7-1.8 1.8 0 1 .7 1.8 1.8 1.8 1 0 1.8-.7 1.8-1.8-.1-1-.9-1.8-1.8-1.8M161.5 549.4c-1 0-1.8.7-1.8 1.8 0 1 .7 1.8 1.8 1.8 1 0 1.8-.7 1.8-1.8.1-1.1-.8-1.8-1.8-1.8M161.5 537.5c-1 0-1.8.7-1.8 1.8 0 1 .7 1.8 1.8 1.8 1 0 1.8-.7 1.8-1.8.1-1-.8-1.8-1.8-1.8M167.5 555.2c-1 0-1.8.7-1.8 1.8 0 1 .7 1.8 1.8 1.8 1 0 1.8-.7 1.8-1.8-.1-.9-.9-1.8-1.8-1.8M161.5 573.1c-1 0-1.8.7-1.8 1.8 0 1 .7 1.8 1.8 1.8 1 0 1.8-.7 1.8-1.8.1-1.1-.8-1.8-1.8-1.8M161.5 561.2c-1 0-1.8.7-1.8 1.8 0 1 .7 1.8 1.8 1.8 1 0 1.8-.7 1.8-1.8.1-1-.8-1.8-1.8-1.8M167.5 578.9c-1 0-1.8.7-1.8 1.8 0 1 .7 1.8 1.8 1.8 1 0 1.8-.7 1.8-1.8-.1-1-.9-1.8-1.8-1.8M149.7 265.3c-1 0-1.8.7-1.8 1.8 0 1 .7 1.8 1.8 1.8 1 0 1.8-.7 1.8-1.8 0-1-.8-1.8-1.8-1.8M155.6 259.4c-1 0-1.8.7-1.8 1.8 0 1 .7 1.8 1.8 1.8 1 0 1.8-.7 1.8-1.8s-.8-1.8-1.8-1.8M143.8 259.4c-1 0-1.8.7-1.8 1.8 0 1 .7 1.8 1.8 1.8 1 0 1.8-.7 1.8-1.8-.1-1.1-.8-1.8-1.8-1.8M137.9 265.3c-1 0-1.8.7-1.8 1.8 0 1 .7 1.8 1.8 1.8 1 0 1.8-.7 1.8-1.8 0-1-.9-1.8-1.8-1.8M149.7 277.1c-1 0-1.8.7-1.8 1.8 0 1 .7 1.8 1.8 1.8 1 0 1.8-.7 1.8-1.8 0-.9-.8-1.8-1.8-1.8M143.8 283.1c-1 0-1.8.7-1.8 1.8 0 1 .7 1.8 1.8 1.8 1 0 1.8-.7 1.8-1.8-.1-1-.8-1.8-1.8-1.8M155.6 271.3c-1 0-1.8.7-1.8 1.8 0 1 .7 1.8 1.8 1.8 1 0 1.8-.7 1.8-1.8s-.8-1.8-1.8-1.8M143.8 271.3c-1 0-1.8.7-1.8 1.8 0 1 .7 1.8 1.8 1.8 1 0 1.8-.7 1.8-1.8-.1-1.1-.8-1.8-1.8-1.8M137.9 289c-1 0-1.8.7-1.8 1.8 0 1 .7 1.8 1.8 1.8 1 0 1.8-.7 1.8-1.8s-.9-1.8-1.8-1.8M137.9 277.1c-1 0-1.8.7-1.8 1.8 0 1 .7 1.8 1.8 1.8 1 0 1.8-.7 1.8-1.8 0-.9-.9-1.8-1.8-1.8M149.7 312.6c-1 0-1.8.7-1.8 1.8 0 1 .7 1.8 1.8 1.8 1 0 1.8-.7 1.8-1.8 0-.9-.8-1.8-1.8-1.8M149.7 300.9c-1 0-1.8.7-1.8 1.8 0 1 .7 1.8 1.8 1.8 1 0 1.8-.7 1.8-1.8s-.8-1.8-1.8-1.8M155.6 306.7c-1 0-1.8.7-1.8 1.8 0 1 .7 1.8 1.8 1.8 1 0 1.8-.7 1.8-1.8 0-.9-.8-1.8-1.8-1.8M143.8 306.7c-1 0-1.8.7-1.8 1.8 0 1 .7 1.8 1.8 1.8 1 0 1.8-.7 1.8-1.8-.1-.9-.8-1.8-1.8-1.8M143.8 294.9c-1 0-1.8.7-1.8 1.8 0 1 .7 1.8 1.8 1.8 1 0 1.8-.7 1.8-1.8-.1-1-.8-1.8-1.8-1.8M137.9 312.6c-1 0-1.8.7-1.8 1.8 0 1 .7 1.8 1.8 1.8 1 0 1.8-.7 1.8-1.8 0-.9-.9-1.8-1.8-1.8M137.9 300.9c-1 0-1.8.7-1.8 1.8 0 1 .7 1.8 1.8 1.8 1 0 1.8-.7 1.8-1.8s-.9-1.8-1.8-1.8M149.7 336.3c-1 0-1.8.7-1.8 1.8 0 1 .7 1.8 1.8 1.8 1 0 1.8-.7 1.8-1.8 0-1-.8-1.8-1.8-1.8M155.6 330.4c-1 0-1.8.7-1.8 1.8 0 1 .7 1.8 1.8 1.8 1 0 1.8-.7 1.8-1.8 0-1-.8-1.8-1.8-1.8M143.8 330.4c-1 0-1.8.7-1.8 1.8 0 1 .7 1.8 1.8 1.8 1 0 1.8-.7 1.8-1.8-.1-1-.8-1.8-1.8-1.8M137.9 324.5c-1 0-1.8.7-1.8 1.8 0 1 .7 1.8 1.8 1.8 1 0 1.8-.7 1.8-1.8s-.9-1.8-1.8-1.8M149.7 360c-1 0-1.8.7-1.8 1.8 0 1 .7 1.8 1.8 1.8 1 0 1.8-.7 1.8-1.8 0-1-.8-1.8-1.8-1.8M149.7 348.2c-1 0-1.8.7-1.8 1.8 0 1 .7 1.8 1.8 1.8 1 0 1.8-.7 1.8-1.8s-.8-1.8-1.8-1.8M155.6 354.1c-1 0-1.8.7-1.8 1.8 0 1 .7 1.8 1.8 1.8 1 0 1.8-.7 1.8-1.8s-.8-1.8-1.8-1.8M143.8 354.1c-1 0-1.8.7-1.8 1.8 0 1 .7 1.8 1.8 1.8 1 0 1.8-.7 1.8-1.8-.1-1-.8-1.8-1.8-1.8M155.6 342.2c-1 0-1.8.7-1.8 1.8 0 1 .7 1.8 1.8 1.8 1 0 1.8-.7 1.8-1.8 0-1-.8-1.8-1.8-1.8M137.9 360c-1 0-1.8.7-1.8 1.8 0 1 .7 1.8 1.8 1.8 1 0 1.8-.7 1.8-1.8s-.9-1.8-1.8-1.8M149.7 383.7c-1 0-1.8.7-1.8 1.8 0 1 .7 1.8 1.8 1.8 1 0 1.8-.7 1.8-1.8 0-1-.8-1.8-1.8-1.8M149.7 371.8c-1 0-1.8.7-1.8 1.8 0 1 .7 1.8 1.8 1.8 1 0 1.8-.7 1.8-1.8s-.8-1.8-1.8-1.8M155.6 377.8c-1 0-1.8.7-1.8 1.8 0 1 .7 1.8 1.8 1.8 1 0 1.8-.7 1.8-1.8s-.8-1.8-1.8-1.8M143.8 377.8c-1 0-1.8.7-1.8 1.8 0 1 .7 1.8 1.8 1.8 1 0 1.8-.7 1.8-1.8-.1-1.1-.8-1.8-1.8-1.8M155.6 365.9c-1 0-1.8.7-1.8 1.8 0 1 .7 1.8 1.8 1.8 1 0 1.8-.7 1.8-1.8 0-1-.8-1.8-1.8-1.8M143.8 365.9c-1 0-1.8.7-1.8 1.8 0 1 .7 1.8 1.8 1.8 1 0 1.8-.7 1.8-1.8-.1-1-.8-1.8-1.8-1.8M137.9 383.7c-1 0-1.8.7-1.8 1.8 0 1 .7 1.8 1.8 1.8 1 0 1.8-.7 1.8-1.8 0-1-.9-1.8-1.8-1.8M137.9 371.8c-1 0-1.8.7-1.8 1.8 0 1 .7 1.8 1.8 1.8 1 0 1.8-.7 1.8-1.8s-.9-1.8-1.8-1.8M149.7 395.5c-1 0-1.8.7-1.8 1.8 0 1 .7 1.8 1.8 1.8 1 0 1.8-.7 1.8-1.8 0-1-.8-1.8-1.8-1.8M143.8 401.4c-1 0-1.8.7-1.8 1.8 0 1 .7 1.8 1.8 1.8 1 0 1.8-.7 1.8-1.8-.1-1-.8-1.8-1.8-1.8M155.6 389.5c-1 0-1.8.7-1.8 1.8 0 1 .7 1.8 1.8 1.8 1 0 1.8-.7 1.8-1.8 0-.9-.8-1.8-1.8-1.8M143.8 389.5c-1 0-1.8.7-1.8 1.8 0 1 .7 1.8 1.8 1.8 1 0 1.8-.7 1.8-1.8-.1-.9-.8-1.8-1.8-1.8M137.9 407.4c-1 0-1.8.7-1.8 1.8 0 1 .7 1.8 1.8 1.8 1 0 1.8-.7 1.8-1.8s-.9-1.8-1.8-1.8M137.9 395.5c-1 0-1.8.7-1.8 1.8 0 1 .7 1.8 1.8 1.8 1 0 1.8-.7 1.8-1.8 0-1-.9-1.8-1.8-1.8M149.7 419.1c-1 0-1.8.7-1.8 1.8 0 1 .7 1.8 1.8 1.8 1 0 1.8-.7 1.8-1.8 0-.9-.8-1.8-1.8-1.8M155.6 425.1c-1 0-1.8.7-1.8 1.8 0 1 .7 1.8 1.8 1.8 1 0 1.8-.7 1.8-1.8s-.8-1.8-1.8-1.8M143.8 425.1c-1 0-1.8.7-1.8 1.8 0 1 .7 1.8 1.8 1.8 1 0 1.8-.7 1.8-1.8-.1-1.1-.8-1.8-1.8-1.8M143.8 413.2c-1 0-1.8.7-1.8 1.8 0 1 .7 1.8 1.8 1.8 1 0 1.8-.7 1.8-1.8-.1-.9-.8-1.8-1.8-1.8M137.9 431c-1 0-1.8.7-1.8 1.8 0 1 .7 1.8 1.8 1.8 1 0 1.8-.7 1.8-1.8s-.9-1.8-1.8-1.8M137.9 419.1c-1 0-1.8.7-1.8 1.8 0 1 .7 1.8 1.8 1.8 1 0 1.8-.7 1.8-1.8 0-.9-.9-1.8-1.8-1.8M149.7 454.7c-1 0-1.8.7-1.8 1.8 0 1 .7 1.8 1.8 1.8 1 0 1.8-.7 1.8-1.8s-.8-1.8-1.8-1.8M149.7 442.8c-1 0-1.8.7-1.8 1.8 0 1 .7 1.8 1.8 1.8 1 0 1.8-.7 1.8-1.8 0-1-.8-1.8-1.8-1.8M155.6 448.7c-1 0-1.8.7-1.8 1.8 0 1 .7 1.8 1.8 1.8 1 0 1.8-.7 1.8-1.8 0-.9-.8-1.8-1.8-1.8M143.8 448.7c-1 0-1.8.7-1.8 1.8 0 1 .7 1.8 1.8 1.8 1 0 1.8-.7 1.8-1.8-.1-.9-.8-1.8-1.8-1.8M137.9 442.8c-1 0-1.8.7-1.8 1.8 0 1 .7 1.8 1.8 1.8 1 0 1.8-.7 1.8-1.8 0-1-.9-1.8-1.8-1.8M149.7 478.3c-1 0-1.8.7-1.8 1.8 0 1 .7 1.8 1.8 1.8 1 0 1.8-.7 1.8-1.8 0-.9-.8-1.8-1.8-1.8M149.7 466.6c-1 0-1.8.7-1.8 1.8 0 1 .7 1.8 1.8 1.8 1 0 1.8-.7 1.8-1.8s-.8-1.8-1.8-1.8M155.6 472.4c-1 0-1.8.7-1.8 1.8 0 1 .7 1.8 1.8 1.8 1 0 1.8-.7 1.8-1.8 0-1-.8-1.8-1.8-1.8M143.8 472.4c-1 0-1.8.7-1.8 1.8 0 1 .7 1.8 1.8 1.8 1 0 1.8-.7 1.8-1.8-.1-1-.8-1.8-1.8-1.8M155.6 460.6c-1 0-1.8.7-1.8 1.8s.7 1.8 1.8 1.8c1 0 1.8-.7 1.8-1.8s-.8-1.8-1.8-1.8M155.6 484.3c-1 0-1.8.7-1.8 1.8s.7 1.8 1.8 1.8c1 0 1.8-.7 1.8-1.8s-.8-1.8-1.8-1.8M155.6 519.8c-1 0-1.8.7-1.8 1.8 0 1 .7 1.8 1.8 1.8 1 0 1.8-.7 1.8-1.8s-.8-1.8-1.8-1.8M155.6 543.5c-1 0-1.8.7-1.8 1.8 0 1 .7 1.8 1.8 1.8 1 0 1.8-.7 1.8-1.8s-.8-1.8-1.8-1.8M155.6 531.6c-1 0-1.8.7-1.8 1.8 0 1 .7 1.8 1.8 1.8 1 0 1.8-.7 1.8-1.8 0-1-.8-1.8-1.8-1.8M155.6 567.1c-1 0-1.8.7-1.8 1.8 0 1 .7 1.8 1.8 1.8 1 0 1.8-.7 1.8-1.8s-.8-1.8-1.8-1.8M155.6 555.2c-1 0-1.8.7-1.8 1.8 0 1 .7 1.8 1.8 1.8 1 0 1.8-.7 1.8-1.8 0-.9-.8-1.8-1.8-1.8M126 265.3c-1 0-1.8.7-1.8 1.8 0 1 .7 1.8 1.8 1.8 1 0 1.8-.7 1.8-1.8 0-1-.8-1.8-1.8-1.8M132 259.4c-1 0-1.8.7-1.8 1.8 0 1 .7 1.8 1.8 1.8 1 0 1.8-.7 1.8-1.8s-.9-1.8-1.8-1.8M126 277.1c-1 0-1.8.7-1.8 1.8 0 1 .7 1.8 1.8 1.8 1 0 1.8-.7 1.8-1.8 0-.9-.8-1.8-1.8-1.8M132 283.1c-1 0-1.8.7-1.8 1.8 0 1 .7 1.8 1.8 1.8 1 0 1.8-.7 1.8-1.8 0-1-.9-1.8-1.8-1.8M120.1 283.1c-1 0-1.8.7-1.8 1.8 0 1 .7 1.8 1.8 1.8 1 0 1.8-.7 1.8-1.8 0-1-.8-1.8-1.8-1.8M132 271.3c-1 0-1.8.7-1.8 1.8 0 1 .7 1.8 1.8 1.8 1 0 1.8-.7 1.8-1.8s-.9-1.8-1.8-1.8M120.1 271.3c-1 0-1.8.7-1.8 1.8 0 1 .7 1.8 1.8 1.8 1 0 1.8-.7 1.8-1.8s-.8-1.8-1.8-1.8M114.2 289c-1 0-1.8.7-1.8 1.8 0 1 .7 1.8 1.8 1.8 1 0 1.8-.7 1.8-1.8-.1-1.1-.8-1.8-1.8-1.8M114.2 277.1c-1 0-1.8.7-1.8 1.8 0 1 .7 1.8 1.8 1.8 1 0 1.8-.7 1.8-1.8-.1-.9-.8-1.8-1.8-1.8M126 312.6c-1 0-1.8.7-1.8 1.8 0 1 .7 1.8 1.8 1.8 1 0 1.8-.7 1.8-1.8 0-.9-.8-1.8-1.8-1.8M126 300.9c-1 0-1.8.7-1.8 1.8 0 1 .7 1.8 1.8 1.8 1 0 1.8-.7 1.8-1.8s-.8-1.8-1.8-1.8M132 306.7c-1 0-1.8.7-1.8 1.8 0 1 .7 1.8 1.8 1.8 1 0 1.8-.7 1.8-1.8 0-.9-.9-1.8-1.8-1.8M120.1 306.7c-1 0-1.8.7-1.8 1.8 0 1 .7 1.8 1.8 1.8 1 0 1.8-.7 1.8-1.8 0-.9-.8-1.8-1.8-1.8M132 294.9c-1 0-1.8.7-1.8 1.8 0 1 .7 1.8 1.8 1.8 1 0 1.8-.7 1.8-1.8s-.9-1.8-1.8-1.8M120.1 294.9c-1 0-1.8.7-1.8 1.8 0 1 .7 1.8 1.8 1.8 1 0 1.8-.7 1.8-1.8 0-1-.8-1.8-1.8-1.8M114.2 312.6c-1 0-1.8.7-1.8 1.8 0 1 .7 1.8 1.8 1.8 1 0 1.8-.7 1.8-1.8-.1-.9-.8-1.8-1.8-1.8M114.2 300.9c-1 0-1.8.7-1.8 1.8 0 1 .7 1.8 1.8 1.8 1 0 1.8-.7 1.8-1.8-.1-1.1-.8-1.8-1.8-1.8M126 324.5c-1 0-1.8.7-1.8 1.8 0 1 .7 1.8 1.8 1.8 1 0 1.8-.7 1.8-1.8s-.8-1.8-1.8-1.8M120.1 330.4c-1 0-1.8.7-1.8 1.8 0 1 .7 1.8 1.8 1.8 1 0 1.8-.7 1.8-1.8 0-1-.8-1.8-1.8-1.8M132 318.6c-1 0-1.8.7-1.8 1.8 0 1 .7 1.8 1.8 1.8 1 0 1.8-.7 1.8-1.8s-.9-1.8-1.8-1.8M120.1 318.6c-1 0-1.8.7-1.8 1.8 0 1 .7 1.8 1.8 1.8 1 0 1.8-.7 1.8-1.8s-.8-1.8-1.8-1.8M114.2 336.3c-1 0-1.8.7-1.8 1.8 0 1 .7 1.8 1.8 1.8 1 0 1.8-.7 1.8-1.8-.1-1-.8-1.8-1.8-1.8M114.2 324.5c-1 0-1.8.7-1.8 1.8 0 1 .7 1.8 1.8 1.8 1 0 1.8-.7 1.8-1.8-.1-1-.8-1.8-1.8-1.8M126 360c-1 0-1.8.7-1.8 1.8 0 1 .7 1.8 1.8 1.8 1 0 1.8-.7 1.8-1.8 0-1-.8-1.8-1.8-1.8M126 348.2c-1 0-1.8.7-1.8 1.8 0 1 .7 1.8 1.8 1.8 1 0 1.8-.7 1.8-1.8s-.8-1.8-1.8-1.8M132 354.1c-1 0-1.8.7-1.8 1.8 0 1 .7 1.8 1.8 1.8 1 0 1.8-.7 1.8-1.8s-.9-1.8-1.8-1.8M120.1 354.1c-1 0-1.8.7-1.8 1.8 0 1 .7 1.8 1.8 1.8 1 0 1.8-.7 1.8-1.8 0-1-.8-1.8-1.8-1.8M120.1 342.2c-1 0-1.8.7-1.8 1.8 0 1 .7 1.8 1.8 1.8 1 0 1.8-.7 1.8-1.8 0-1-.8-1.8-1.8-1.8M114.2 360c-1 0-1.8.7-1.8 1.8 0 1 .7 1.8 1.8 1.8 1 0 1.8-.7 1.8-1.8-.1-1-.8-1.8-1.8-1.8M114.2 348.2c-1 0-1.8.7-1.8 1.8 0 1 .7 1.8 1.8 1.8 1 0 1.8-.7 1.8-1.8-.1-1.1-.8-1.8-1.8-1.8M126 383.7c-1 0-1.8.7-1.8 1.8 0 1 .7 1.8 1.8 1.8 1 0 1.8-.7 1.8-1.8 0-1-.8-1.8-1.8-1.8M126 371.8c-1 0-1.8.7-1.8 1.8 0 1 .7 1.8 1.8 1.8 1 0 1.8-.7 1.8-1.8s-.8-1.8-1.8-1.8M132 377.8c-1 0-1.8.7-1.8 1.8 0 1 .7 1.8 1.8 1.8 1 0 1.8-.7 1.8-1.8s-.9-1.8-1.8-1.8M120.1 377.8c-1 0-1.8.7-1.8 1.8 0 1 .7 1.8 1.8 1.8 1 0 1.8-.7 1.8-1.8s-.8-1.8-1.8-1.8M132 365.9c-1 0-1.8.7-1.8 1.8 0 1 .7 1.8 1.8 1.8 1 0 1.8-.7 1.8-1.8 0-1-.9-1.8-1.8-1.8M120.1 365.9c-1 0-1.8.7-1.8 1.8 0 1 .7 1.8 1.8 1.8 1 0 1.8-.7 1.8-1.8 0-1-.8-1.8-1.8-1.8M114.2 383.7c-1 0-1.8.7-1.8 1.8 0 1 .7 1.8 1.8 1.8 1 0 1.8-.7 1.8-1.8-.1-1-.8-1.8-1.8-1.8M114.2 371.8c-1 0-1.8.7-1.8 1.8 0 1 .7 1.8 1.8 1.8 1 0 1.8-.7 1.8-1.8-.1-1-.8-1.8-1.8-1.8M126 407.4c-1 0-1.8.7-1.8 1.8 0 1 .7 1.8 1.8 1.8 1 0 1.8-.7 1.8-1.8s-.8-1.8-1.8-1.8M126 395.5c-1 0-1.8.7-1.8 1.8 0 1 .7 1.8 1.8 1.8 1 0 1.8-.7 1.8-1.8 0-1-.8-1.8-1.8-1.8M132 401.4c-1 0-1.8.7-1.8 1.8 0 1 .7 1.8 1.8 1.8 1 0 1.8-.7 1.8-1.8 0-1-.9-1.8-1.8-1.8M120.1 401.4c-1 0-1.8.7-1.8 1.8 0 1 .7 1.8 1.8 1.8 1 0 1.8-.7 1.8-1.8 0-1-.8-1.8-1.8-1.8M132 389.5c-1 0-1.8.7-1.8 1.8 0 1 .7 1.8 1.8 1.8 1 0 1.8-.7 1.8-1.8 0-.9-.9-1.8-1.8-1.8M120.1 389.5c-1 0-1.8.7-1.8 1.8 0 1 .7 1.8 1.8 1.8 1 0 1.8-.7 1.8-1.8 0-.9-.8-1.8-1.8-1.8M114.2 407.4c-1 0-1.8.7-1.8 1.8 0 1 .7 1.8 1.8 1.8 1 0 1.8-.7 1.8-1.8-.1-1.1-.8-1.8-1.8-1.8M114.2 395.5c-1 0-1.8.7-1.8 1.8 0 1 .7 1.8 1.8 1.8 1 0 1.8-.7 1.8-1.8-.1-1-.8-1.8-1.8-1.8M126 431c-1 0-1.8.7-1.8 1.8 0 1 .7 1.8 1.8 1.8 1 0 1.8-.7 1.8-1.8 0-1-.8-1.8-1.8-1.8M132 425.1c-1 0-1.8.7-1.8 1.8 0 1 .7 1.8 1.8 1.8 1 0 1.8-.7 1.8-1.8s-.9-1.8-1.8-1.8M120.1 425.1c-1 0-1.8.7-1.8 1.8 0 1 .7 1.8 1.8 1.8 1 0 1.8-.7 1.8-1.8s-.8-1.8-1.8-1.8M114.2 431c-1 0-1.8.7-1.8 1.8 0 1 .7 1.8 1.8 1.8 1 0 1.8-.7 1.8-1.8-.1-1-.8-1.8-1.8-1.8M114.2 419.1c-1 0-1.8.7-1.8 1.8 0 1 .7 1.8 1.8 1.8 1 0 1.8-.7 1.8-1.8-.1-.9-.8-1.8-1.8-1.8M126 442.8c-1 0-1.8.7-1.8 1.8 0 1 .7 1.8 1.8 1.8 1 0 1.8-.7 1.8-1.8 0-1-.8-1.8-1.8-1.8M132 437c-1 0-1.8.7-1.8 1.8 0 1 .7 1.8 1.8 1.8 1 0 1.8-.7 1.8-1.8s-.9-1.8-1.8-1.8M120.1 437c-1 0-1.8.7-1.8 1.8 0 1 .7 1.8 1.8 1.8 1 0 1.8-.7 1.8-1.8s-.8-1.8-1.8-1.8M102.4 277.1c-1 0-1.8.7-1.8 1.8 0 1 .7 1.8 1.8 1.8 1 0 1.8-.7 1.8-1.8 0-.9-.9-1.8-1.8-1.8M108.3 283.1c-1 0-1.8.7-1.8 1.8 0 1 .7 1.8 1.8 1.8 1 0 1.8-.7 1.8-1.8 0-1-.8-1.8-1.8-1.8M96.4 283.1c-1 0-1.8.7-1.8 1.8 0 1 .7 1.8 1.8 1.8 1 0 1.8-.7 1.8-1.8 0-1-.7-1.8-1.8-1.8M108.3 271.3c-1 0-1.8.7-1.8 1.8 0 1 .7 1.8 1.8 1.8 1 0 1.8-.7 1.8-1.8s-.8-1.8-1.8-1.8M90.6 289c-1 0-1.8.7-1.8 1.8 0 1 .7 1.8 1.8 1.8 1 0 1.8-.7 1.8-1.8-.1-1.1-.9-1.8-1.8-1.8M90.6 277.1c-1 0-1.8.7-1.8 1.8 0 1 .7 1.8 1.8 1.8 1 0 1.8-.7 1.8-1.8-.1-.9-.9-1.8-1.8-1.8M102.4 312.6c-1 0-1.8.7-1.8 1.8 0 1 .7 1.8 1.8 1.8 1 0 1.8-.7 1.8-1.8 0-.9-.9-1.8-1.8-1.8M102.4 300.9c-1 0-1.8.7-1.8 1.8 0 1 .7 1.8 1.8 1.8 1 0 1.8-.7 1.8-1.8s-.9-1.8-1.8-1.8M96.4 306.7c-1 0-1.8.7-1.8 1.8 0 1 .7 1.8 1.8 1.8 1 0 1.8-.7 1.8-1.8 0-.9-.7-1.8-1.8-1.8M108.3 294.9c-1 0-1.8.7-1.8 1.8 0 1 .7 1.8 1.8 1.8 1 0 1.8-.7 1.8-1.8 0-1-.8-1.8-1.8-1.8M96.4 294.9c-1 0-1.8.7-1.8 1.8 0 1 .7 1.8 1.8 1.8 1 0 1.8-.7 1.8-1.8s-.7-1.8-1.8-1.8M90.6 312.6c-1 0-1.8.7-1.8 1.8 0 1 .7 1.8 1.8 1.8 1 0 1.8-.7 1.8-1.8-.1-.9-.9-1.8-1.8-1.8M90.6 300.9c-1 0-1.8.7-1.8 1.8 0 1 .7 1.8 1.8 1.8 1 0 1.8-.7 1.8-1.8-.1-1.1-.9-1.8-1.8-1.8M102.4 336.3c-1 0-1.8.7-1.8 1.8 0 1 .7 1.8 1.8 1.8 1 0 1.8-.7 1.8-1.8 0-1-.9-1.8-1.8-1.8M102.4 324.5c-1 0-1.8.7-1.8 1.8 0 1 .7 1.8 1.8 1.8 1 0 1.8-.7 1.8-1.8s-.9-1.8-1.8-1.8M108.3 330.4c-1 0-1.8.7-1.8 1.8 0 1 .7 1.8 1.8 1.8 1 0 1.8-.7 1.8-1.8 0-1-.8-1.8-1.8-1.8M96.4 330.4c-1 0-1.8.7-1.8 1.8 0 1 .7 1.8 1.8 1.8 1 0 1.8-.7 1.8-1.8 0-1-.7-1.8-1.8-1.8M108.3 318.6c-1 0-1.8.7-1.8 1.8 0 1 .7 1.8 1.8 1.8 1 0 1.8-.7 1.8-1.8s-.8-1.8-1.8-1.8M96.4 318.6c-1 0-1.8.7-1.8 1.8 0 1 .7 1.8 1.8 1.8 1 0 1.8-.7 1.8-1.8s-.7-1.8-1.8-1.8M90.6 336.3c-1 0-1.8.7-1.8 1.8 0 1 .7 1.8 1.8 1.8 1 0 1.8-.7 1.8-1.8-.1-1-.9-1.8-1.8-1.8M90.6 324.5c-1 0-1.8.7-1.8 1.8 0 1 .7 1.8 1.8 1.8 1 0 1.8-.7 1.8-1.8-.1-1-.9-1.8-1.8-1.8M102.4 360c-1 0-1.8.7-1.8 1.8 0 1 .7 1.8 1.8 1.8 1 0 1.8-.7 1.8-1.8 0-1-.9-1.8-1.8-1.8M102.4 348.2c-1 0-1.8.7-1.8 1.8 0 1 .7 1.8 1.8 1.8 1 0 1.8-.7 1.8-1.8s-.9-1.8-1.8-1.8M108.3 354.1c-1 0-1.8.7-1.8 1.8 0 1 .7 1.8 1.8 1.8 1 0 1.8-.7 1.8-1.8 0-1-.8-1.8-1.8-1.8M96.4 354.1c-1 0-1.8.7-1.8 1.8 0 1 .7 1.8 1.8 1.8 1 0 1.8-.7 1.8-1.8s-.7-1.8-1.8-1.8M108.3 342.2c-1 0-1.8.7-1.8 1.8 0 1 .7 1.8 1.8 1.8 1 0 1.8-.7 1.8-1.8 0-1-.8-1.8-1.8-1.8M96.4 342.2c-1 0-1.8.7-1.8 1.8 0 1 .7 1.8 1.8 1.8 1 0 1.8-.7 1.8-1.8 0-1-.7-1.8-1.8-1.8M90.6 360c-1 0-1.8.7-1.8 1.8 0 1 .7 1.8 1.8 1.8 1 0 1.8-.7 1.8-1.8-.1-1-.9-1.8-1.8-1.8M90.6 348.2c-1 0-1.8.7-1.8 1.8 0 1 .7 1.8 1.8 1.8 1 0 1.8-.7 1.8-1.8-.1-1.1-.9-1.8-1.8-1.8M102.4 383.7c-1 0-1.8.7-1.8 1.8 0 1 .7 1.8 1.8 1.8 1 0 1.8-.7 1.8-1.8 0-1-.9-1.8-1.8-1.8M102.4 371.8c-1 0-1.8.7-1.8 1.8 0 1 .7 1.8 1.8 1.8 1 0 1.8-.7 1.8-1.8s-.9-1.8-1.8-1.8M108.3 377.8c-1 0-1.8.7-1.8 1.8 0 1 .7 1.8 1.8 1.8 1 0 1.8-.7 1.8-1.8s-.8-1.8-1.8-1.8M96.4 377.8c-1 0-1.8.7-1.8 1.8 0 1 .7 1.8 1.8 1.8 1 0 1.8-.7 1.8-1.8s-.7-1.8-1.8-1.8M108.3 365.9c-1 0-1.8.7-1.8 1.8 0 1 .7 1.8 1.8 1.8 1 0 1.8-.7 1.8-1.8 0-1-.8-1.8-1.8-1.8M96.4 365.9c-1 0-1.8.7-1.8 1.8 0 1 .7 1.8 1.8 1.8 1 0 1.8-.7 1.8-1.8 0-1-.7-1.8-1.8-1.8M90.6 383.7c-1 0-1.8.7-1.8 1.8 0 1 .7 1.8 1.8 1.8 1 0 1.8-.7 1.8-1.8-.1-1-.9-1.8-1.8-1.8M90.6 371.8c-1 0-1.8.7-1.8 1.8 0 1 .7 1.8 1.8 1.8 1 0 1.8-.7 1.8-1.8-.1-1-.9-1.8-1.8-1.8M102.4 407.4c-1 0-1.8.7-1.8 1.8 0 1 .7 1.8 1.8 1.8 1 0 1.8-.7 1.8-1.8s-.9-1.8-1.8-1.8M102.4 395.5c-1 0-1.8.7-1.8 1.8 0 1 .7 1.8 1.8 1.8 1 0 1.8-.7 1.8-1.8 0-1-.9-1.8-1.8-1.8M108.3 401.4c-1 0-1.8.7-1.8 1.8 0 1 .7 1.8 1.8 1.8 1 0 1.8-.7 1.8-1.8 0-1-.8-1.8-1.8-1.8M96.4 401.4c-1 0-1.8.7-1.8 1.8 0 1 .7 1.8 1.8 1.8 1 0 1.8-.7 1.8-1.8 0-1-.7-1.8-1.8-1.8M108.3 389.5c-1 0-1.8.7-1.8 1.8 0 1 .7 1.8 1.8 1.8 1 0 1.8-.7 1.8-1.8 0-.9-.8-1.8-1.8-1.8M96.4 389.5c-1 0-1.8.7-1.8 1.8 0 1 .7 1.8 1.8 1.8 1 0 1.8-.7 1.8-1.8 0-.9-.7-1.8-1.8-1.8M90.6 407.4c-1 0-1.8.7-1.8 1.8 0 1 .7 1.8 1.8 1.8 1 0 1.8-.7 1.8-1.8-.1-1.1-.9-1.8-1.8-1.8M90.6 395.5c-1 0-1.8.7-1.8 1.8 0 1 .7 1.8 1.8 1.8 1 0 1.8-.7 1.8-1.8-.1-1-.9-1.8-1.8-1.8M102.4 419.1c-1 0-1.8.7-1.8 1.8 0 1 .7 1.8 1.8 1.8 1 0 1.8-.7 1.8-1.8 0-.9-.9-1.8-1.8-1.8M108.3 425.1c-1 0-1.8.7-1.8 1.8 0 1 .7 1.8 1.8 1.8 1 0 1.8-.7 1.8-1.8s-.8-1.8-1.8-1.8M108.3 413.2c-1 0-1.8.7-1.8 1.8 0 1 .7 1.8 1.8 1.8 1 0 1.8-.7 1.8-1.8 0-.9-.8-1.8-1.8-1.8M96.4 413.2c-1 0-1.8.7-1.8 1.8 0 1 .7 1.8 1.8 1.8 1 0 1.8-.7 1.8-1.8 0-.9-.7-1.8-1.8-1.8M78.7 289c-1 0-1.8.7-1.8 1.8 0 1 .7 1.8 1.8 1.8 1 0 1.8-.7 1.8-1.8s-.8-1.8-1.8-1.8M84.6 283.1c-1 0-1.8.7-1.8 1.8 0 1 .7 1.8 1.8 1.8 1 0 1.8-.7 1.8-1.8-.1-1-.8-1.8-1.8-1.8M72.8 283.1c-1 0-1.8.7-1.8 1.8 0 1 .7 1.8 1.8 1.8 1 0 1.8-.7 1.8-1.8 0-1-.9-1.8-1.8-1.8M78.7 312.6c-1 0-1.8.7-1.8 1.8 0 1 .7 1.8 1.8 1.8 1 0 1.8-.7 1.8-1.8 0-.9-.8-1.8-1.8-1.8M78.7 300.9c-1 0-1.8.7-1.8 1.8 0 1 .7 1.8 1.8 1.8 1 0 1.8-.7 1.8-1.8s-.8-1.8-1.8-1.8M84.6 306.7c-1 0-1.8.7-1.8 1.8 0 1 .7 1.8 1.8 1.8 1 0 1.8-.7 1.8-1.8-.1-.9-.8-1.8-1.8-1.8M72.8 306.7c-1 0-1.8.7-1.8 1.8 0 1 .7 1.8 1.8 1.8 1 0 1.8-.7 1.8-1.8 0-.9-.9-1.8-1.8-1.8M84.6 294.9c-1 0-1.8.7-1.8 1.8 0 1 .7 1.8 1.8 1.8 1 0 1.8-.7 1.8-1.8-.1-1-.8-1.8-1.8-1.8M72.8 294.9c-1 0-1.8.7-1.8 1.8 0 1 .7 1.8 1.8 1.8 1 0 1.8-.7 1.8-1.8 0-1-.9-1.8-1.8-1.8M66.8 312.6c-1 0-1.8.7-1.8 1.8 0 1 .7 1.8 1.8 1.8 1 0 1.8-.7 1.8-1.8 0-.9-.7-1.8-1.8-1.8M78.7 336.3c-1 0-1.8.7-1.8 1.8 0 1 .7 1.8 1.8 1.8 1 0 1.8-.7 1.8-1.8 0-1-.8-1.8-1.8-1.8M78.7 324.5c-1 0-1.8.7-1.8 1.8 0 1 .7 1.8 1.8 1.8 1 0 1.8-.7 1.8-1.8 0-1-.8-1.8-1.8-1.8M84.6 330.4c-1 0-1.8.7-1.8 1.8 0 1 .7 1.8 1.8 1.8 1 0 1.8-.7 1.8-1.8-.1-1-.8-1.8-1.8-1.8M72.8 330.4c-1 0-1.8.7-1.8 1.8 0 1 .7 1.8 1.8 1.8 1 0 1.8-.7 1.8-1.8 0-1-.9-1.8-1.8-1.8M84.6 318.6c-1 0-1.8.7-1.8 1.8 0 1 .7 1.8 1.8 1.8 1 0 1.8-.7 1.8-1.8-.1-1.1-.8-1.8-1.8-1.8M72.8 318.6c-1 0-1.8.7-1.8 1.8 0 1 .7 1.8 1.8 1.8 1 0 1.8-.7 1.8-1.8s-.9-1.8-1.8-1.8M66.8 336.3c-1 0-1.8.7-1.8 1.8 0 1 .7 1.8 1.8 1.8 1 0 1.8-.7 1.8-1.8 0-1-.7-1.8-1.8-1.8M66.8 324.5c-1 0-1.8.7-1.8 1.8 0 1 .7 1.8 1.8 1.8 1 0 1.8-.7 1.8-1.8s-.7-1.8-1.8-1.8M78.7 360c-1 0-1.8.7-1.8 1.8 0 1 .7 1.8 1.8 1.8 1 0 1.8-.7 1.8-1.8s-.8-1.8-1.8-1.8M78.7 348.2c-1 0-1.8.7-1.8 1.8 0 1 .7 1.8 1.8 1.8 1 0 1.8-.7 1.8-1.8s-.8-1.8-1.8-1.8M84.6 354.1c-1 0-1.8.7-1.8 1.8 0 1 .7 1.8 1.8 1.8 1 0 1.8-.7 1.8-1.8-.1-1-.8-1.8-1.8-1.8M72.8 354.1c-1 0-1.8.7-1.8 1.8 0 1 .7 1.8 1.8 1.8 1 0 1.8-.7 1.8-1.8 0-1-.9-1.8-1.8-1.8M84.6 342.2c-1 0-1.8.7-1.8 1.8 0 1 .7 1.8 1.8 1.8 1 0 1.8-.7 1.8-1.8-.1-1-.8-1.8-1.8-1.8M72.8 342.2c-1 0-1.8.7-1.8 1.8 0 1 .7 1.8 1.8 1.8 1 0 1.8-.7 1.8-1.8 0-1-.9-1.8-1.8-1.8M66.8 360c-1 0-1.8.7-1.8 1.8 0 1 .7 1.8 1.8 1.8 1 0 1.8-.7 1.8-1.8 0-1-.7-1.8-1.8-1.8M66.8 348.2c-1 0-1.8.7-1.8 1.8 0 1 .7 1.8 1.8 1.8 1 0 1.8-.7 1.8-1.8s-.7-1.8-1.8-1.8M78.7 383.7c-1 0-1.8.7-1.8 1.8 0 1 .7 1.8 1.8 1.8 1 0 1.8-.7 1.8-1.8 0-1-.8-1.8-1.8-1.8M78.7 371.8c-1 0-1.8.7-1.8 1.8 0 1 .7 1.8 1.8 1.8 1 0 1.8-.7 1.8-1.8 0-1-.8-1.8-1.8-1.8M84.6 377.8c-1 0-1.8.7-1.8 1.8 0 1 .7 1.8 1.8 1.8 1 0 1.8-.7 1.8-1.8-.1-1.1-.8-1.8-1.8-1.8M72.8 377.8c-1 0-1.8.7-1.8 1.8 0 1 .7 1.8 1.8 1.8 1 0 1.8-.7 1.8-1.8s-.9-1.8-1.8-1.8M84.6 365.9c-1 0-1.8.7-1.8 1.8 0 1 .7 1.8 1.8 1.8 1 0 1.8-.7 1.8-1.8-.1-1-.8-1.8-1.8-1.8M72.8 365.9c-1 0-1.8.7-1.8 1.8 0 1 .7 1.8 1.8 1.8 1 0 1.8-.7 1.8-1.8 0-1-.9-1.8-1.8-1.8M78.7 395.5c-1 0-1.8.7-1.8 1.8 0 1 .7 1.8 1.8 1.8 1 0 1.8-.7 1.8-1.8 0-1-.8-1.8-1.8-1.8M84.6 401.4c-1 0-1.8.7-1.8 1.8 0 1 .7 1.8 1.8 1.8 1 0 1.8-.7 1.8-1.8-.1-1-.8-1.8-1.8-1.8M84.6 389.5c-1 0-1.8.7-1.8 1.8 0 1 .7 1.8 1.8 1.8 1 0 1.8-.7 1.8-1.8-.1-.9-.8-1.8-1.8-1.8M72.8 389.5c-1 0-1.8.7-1.8 1.8 0 1 .7 1.8 1.8 1.8 1 0 1.8-.7 1.8-1.8 0-.9-.9-1.8-1.8-1.8M55.1 312.6c-1 0-1.8.7-1.8 1.8 0 1 .7 1.8 1.8 1.8 1 0 1.8-.7 1.8-1.8 0-.9-.9-1.8-1.8-1.8M61 306.7c-1 0-1.8.7-1.8 1.8 0 1 .7 1.8 1.8 1.8 1 0 1.8-.7 1.8-1.8-.1-.9-.9-1.8-1.8-1.8M49.1 306.7c-1 0-1.8.7-1.8 1.8 0 1 .7 1.8 1.8 1.8 1 0 1.8-.7 1.8-1.8 0-.9-.8-1.8-1.8-1.8M43.2 312.6c-1 0-1.8.7-1.8 1.8 0 1 .7 1.8 1.8 1.8 1 0 1.8-.7 1.8-1.8 0-.9-.9-1.8-1.8-1.8M55.1 336.3c-1 0-1.8.7-1.8 1.8 0 1 .7 1.8 1.8 1.8 1 0 1.8-.7 1.8-1.8 0-1-.9-1.8-1.8-1.8M55.1 324.5c-1 0-1.8.7-1.8 1.8 0 1 .7 1.8 1.8 1.8 1 0 1.8-.7 1.8-1.8 0-1-.9-1.8-1.8-1.8M61 330.4c-1 0-1.8.7-1.8 1.8 0 1 .7 1.8 1.8 1.8 1 0 1.8-.7 1.8-1.8-.1-1-.9-1.8-1.8-1.8M49.1 330.4c-1 0-1.8.7-1.8 1.8 0 1 .7 1.8 1.8 1.8 1 0 1.8-.7 1.8-1.8 0-1-.8-1.8-1.8-1.8M61 318.6c-1 0-1.8.7-1.8 1.8 0 1 .7 1.8 1.8 1.8 1 0 1.8-.7 1.8-1.8-.1-1.1-.9-1.8-1.8-1.8M49.1 318.6c-1 0-1.8.7-1.8 1.8 0 1 .7 1.8 1.8 1.8 1 0 1.8-.7 1.8-1.8s-.8-1.8-1.8-1.8M43.2 336.3c-1 0-1.8.7-1.8 1.8 0 1 .7 1.8 1.8 1.8 1 0 1.8-.7 1.8-1.8 0-1-.9-1.8-1.8-1.8M43.2 324.5c-1 0-1.8.7-1.8 1.8 0 1 .7 1.8 1.8 1.8 1 0 1.8-.7 1.8-1.8s-.9-1.8-1.8-1.8M55.1 348.2c-1 0-1.8.7-1.8 1.8 0 1 .7 1.8 1.8 1.8 1 0 1.8-.7 1.8-1.8s-.9-1.8-1.8-1.8M61 354.1c-1 0-1.8.7-1.8 1.8 0 1 .7 1.8 1.8 1.8 1 0 1.8-.7 1.8-1.8-.1-1-.9-1.8-1.8-1.8M61 342.2c-1 0-1.8.7-1.8 1.8 0 1 .7 1.8 1.8 1.8 1 0 1.8-.7 1.8-1.8-.1-1-.9-1.8-1.8-1.8M49.1 342.2c-1 0-1.8.7-1.8 1.8 0 1 .7 1.8 1.8 1.8 1 0 1.8-.7 1.8-1.8 0-1-.8-1.8-1.8-1.8M31.4 312.6c-1 0-1.8.7-1.8 1.8 0 1 .7 1.8 1.8 1.8 1 0 1.8-.7 1.8-1.8-.1-.9-.8-1.8-1.8-1.8M37.2 306.7c-1 0-1.8.7-1.8 1.8 0 1 .7 1.8 1.8 1.8 1 0 1.8-.7 1.8-1.8 0-.9-.7-1.8-1.8-1.8M25.5 306.7c-1 0-1.8.7-1.8 1.8 0 1 .7 1.8 1.8 1.8 1 0 1.8-.7 1.8-1.8 0-.9-.9-1.8-1.8-1.8M19.5 312.6c-1 0-1.8.7-1.8 1.8 0 1 .7 1.8 1.8 1.8 1 0 1.8-.7 1.8-1.8 0-.9-.8-1.8-1.8-1.8M19.5 300.9c-1 0-1.8.7-1.8 1.8 0 1 .7 1.8 1.8 1.8 1 0 1.8-.7 1.8-1.8s-.8-1.8-1.8-1.8M31.4 336.3c-1 0-1.8.7-1.8 1.8 0 1 .7 1.8 1.8 1.8 1 0 1.8-.7 1.8-1.8-.1-1-.8-1.8-1.8-1.8M31.4 324.5c-1 0-1.8.7-1.8 1.8 0 1 .7 1.8 1.8 1.8 1 0 1.8-.7 1.8-1.8-.1-1-.8-1.8-1.8-1.8M37.2 330.4c-1 0-1.8.7-1.8 1.8 0 1 .7 1.8 1.8 1.8 1 0 1.8-.7 1.8-1.8 0-1-.7-1.8-1.8-1.8M25.5 330.4c-1 0-1.8.7-1.8 1.8 0 1 .7 1.8 1.8 1.8 1 0 1.8-.7 1.8-1.8 0-1-.9-1.8-1.8-1.8M37.2 318.6c-1 0-1.8.7-1.8 1.8 0 1 .7 1.8 1.8 1.8 1 0 1.8-.7 1.8-1.8s-.7-1.8-1.8-1.8M25.5 318.6c-1 0-1.8.7-1.8 1.8 0 1 .7 1.8 1.8 1.8 1 0 1.8-.7 1.8-1.8s-.9-1.8-1.8-1.8M19.5 336.3c-1 0-1.8.7-1.8 1.8 0 1 .7 1.8 1.8 1.8 1 0 1.8-.7 1.8-1.8 0-1-.8-1.8-1.8-1.8M19.5 324.5c-1 0-1.8.7-1.8 1.8 0 1 .7 1.8 1.8 1.8 1 0 1.8-.7 1.8-1.8s-.8-1.8-1.8-1.8M25.5 342.2c-1 0-1.8.7-1.8 1.8 0 1 .7 1.8 1.8 1.8 1 0 1.8-.7 1.8-1.8 0-1-.9-1.8-1.8-1.8M7.7 312.6c-1 0-1.8.7-1.8 1.8 0 1 .7 1.8 1.8 1.8 1 0 1.8-.7 1.8-1.8-.1-.9-.8-1.8-1.8-1.8M13.6 306.7c-1 0-1.8.7-1.8 1.8 0 1 .7 1.8 1.8 1.8 1 0 1.8-.7 1.8-1.8 0-.9-.8-1.8-1.8-1.8M7.7 336.3c-1 0-1.8.7-1.8 1.8 0 1 .7 1.8 1.8 1.8 1 0 1.8-.7 1.8-1.8-.1-1-.8-1.8-1.8-1.8M7.7 324.5c-1 0-1.8.7-1.8 1.8 0 1 .7 1.8 1.8 1.8 1 0 1.8-.7 1.8-1.8-.1-1-.8-1.8-1.8-1.8M13.6 330.4c-1 0-1.8.7-1.8 1.8 0 1 .7 1.8 1.8 1.8 1 0 1.8-.7 1.8-1.8 0-1-.8-1.8-1.8-1.8M1.8 330.4c-1 0-1.8.7-1.8 1.8 0 1 .7 1.8 1.8 1.8 1 0 1.8-.7 1.8-1.8-.1-1-.8-1.8-1.8-1.8M13.6 318.6c-1 0-1.8.7-1.8 1.8 0 1 .7 1.8 1.8 1.8 1 0 1.8-.7 1.8-1.8s-.8-1.8-1.8-1.8M1.8 318.6c-1 0-1.8.7-1.8 1.8 0 1 .7 1.8 1.8 1.8 1 0 1.8-.7 1.8-1.8-.1-1.1-.8-1.8-1.8-1.8M7.7 348.2c-1 0-1.8.7-1.8 1.8 0 1 .7 1.8 1.8 1.8 1 0 1.8-.7 1.8-1.8-.1-1.1-.8-1.8-1.8-1.8M13.6 342.2c-1 0-1.8.7-1.8 1.8 0 1 .7 1.8 1.8 1.8 1 0 1.8-.7 1.8-1.8 0-1-.8-1.8-1.8-1.8"/></svg>